%TF.GenerationSoftware,KiCad,Pcbnew,(5.1.9)-1*%
%TF.CreationDate,2021-03-13T14:24:32+01:00*%
%TF.ProjectId,Main_Relay_Board,4d61696e-5f52-4656-9c61-795f426f6172,rev?*%
%TF.SameCoordinates,Original*%
%TF.FileFunction,Legend,Top*%
%TF.FilePolarity,Positive*%
%FSLAX46Y46*%
G04 Gerber Fmt 4.6, Leading zero omitted, Abs format (unit mm)*
G04 Created by KiCad (PCBNEW (5.1.9)-1) date 2021-03-13 14:24:32*
%MOMM*%
%LPD*%
G01*
G04 APERTURE LIST*
%ADD10C,0.120000*%
%ADD11C,0.152400*%
%ADD12C,0.200000*%
%ADD13C,0.100000*%
%ADD14C,0.150000*%
%ADD15C,0.254000*%
G04 APERTURE END LIST*
D10*
%TO.C,U3*%
X320940000Y-105400000D02*
X320940000Y-106650000D01*
X320940000Y-106650000D02*
X356620000Y-106650000D01*
X356620000Y-106650000D02*
X356620000Y-102150000D01*
X356620000Y-102150000D02*
X320940000Y-102150000D01*
X320940000Y-102150000D02*
X320940000Y-103400000D01*
X320880000Y-109650000D02*
X356680000Y-109650000D01*
X356680000Y-109650000D02*
X356680000Y-99150000D01*
X356680000Y-99150000D02*
X320880000Y-99150000D01*
X320880000Y-99150000D02*
X320880000Y-109650000D01*
X320940000Y-103400000D02*
G75*
G02*
X320940000Y-105400000I0J-1000000D01*
G01*
%TO.C,U2*%
X62150000Y-105400000D02*
X62150000Y-106650000D01*
X62150000Y-106650000D02*
X97830000Y-106650000D01*
X97830000Y-106650000D02*
X97830000Y-102150000D01*
X97830000Y-102150000D02*
X62150000Y-102150000D01*
X62150000Y-102150000D02*
X62150000Y-103400000D01*
X62090000Y-109650000D02*
X97890000Y-109650000D01*
X97890000Y-109650000D02*
X97890000Y-99150000D01*
X97890000Y-99150000D02*
X62090000Y-99150000D01*
X62090000Y-99150000D02*
X62090000Y-109650000D01*
X62150000Y-103400000D02*
G75*
G02*
X62150000Y-105400000I0J-1000000D01*
G01*
%TO.C,U1*%
X214430000Y-105400000D02*
X214430000Y-106650000D01*
X214430000Y-106650000D02*
X250110000Y-106650000D01*
X250110000Y-106650000D02*
X250110000Y-102150000D01*
X250110000Y-102150000D02*
X214430000Y-102150000D01*
X214430000Y-102150000D02*
X214430000Y-103400000D01*
X214370000Y-109650000D02*
X250170000Y-109650000D01*
X250170000Y-109650000D02*
X250170000Y-99150000D01*
X250170000Y-99150000D02*
X214370000Y-99150000D01*
X214370000Y-99150000D02*
X214370000Y-109650000D01*
X214430000Y-103400000D02*
G75*
G02*
X214430000Y-105400000I0J-1000000D01*
G01*
%TO.C,R19*%
X317120000Y-103600436D02*
X317120000Y-105054564D01*
X315300000Y-103600436D02*
X315300000Y-105054564D01*
%TO.C,R18*%
X58220000Y-103720436D02*
X58220000Y-105174564D01*
X56400000Y-103720436D02*
X56400000Y-105174564D01*
%TO.C,R1*%
X210460000Y-103695436D02*
X210460000Y-105149564D01*
X208640000Y-103695436D02*
X208640000Y-105149564D01*
D11*
%TO.C,J2*%
X137511000Y-105415800D02*
X169769000Y-105415800D01*
X169769000Y-105415800D02*
X169769000Y-101519225D01*
X169769000Y-96551200D02*
X137511000Y-96551200D01*
X137511000Y-96551200D02*
X137511000Y-100320775D01*
X137511000Y-101519225D02*
X137511000Y-105415800D01*
X169769000Y-100320775D02*
X169769000Y-96551200D01*
X148941000Y-97745000D02*
G75*
G03*
X148941000Y-97745000I-381000J0D01*
G01*
D12*
%TO.C,K2*%
X36650000Y-140960000D02*
X36650000Y-140960000D01*
X36450000Y-140960000D02*
X36450000Y-140960000D01*
D13*
X25250000Y-128880000D02*
X34250000Y-128880000D01*
X25250000Y-142880000D02*
X34250000Y-142880000D01*
D12*
X36650000Y-140960000D02*
G75*
G02*
X36450000Y-140960000I-100000J0D01*
G01*
X36450000Y-140960000D02*
G75*
G02*
X36650000Y-140960000I100000J0D01*
G01*
D13*
%TO.C,LED10*%
X356155240Y-184775080D02*
X356155240Y-184775080D01*
X356155240Y-184875080D02*
X356155240Y-184875080D01*
X356155240Y-184875080D02*
G75*
G02*
X356155240Y-184775080I0J50000D01*
G01*
X356155240Y-184775080D02*
G75*
G02*
X356155240Y-184875080I0J-50000D01*
G01*
%TO.C,LED9*%
X161155240Y-184775080D02*
X161155240Y-184775080D01*
X161155240Y-184875080D02*
X161155240Y-184875080D01*
X161155240Y-184875080D02*
G75*
G02*
X161155240Y-184775080I0J50000D01*
G01*
X161155240Y-184775080D02*
G75*
G02*
X161155240Y-184875080I0J-50000D01*
G01*
%TO.C,LED8*%
X316155240Y-184775080D02*
X316155240Y-184775080D01*
X316155240Y-184875080D02*
X316155240Y-184875080D01*
X316155240Y-184875080D02*
G75*
G02*
X316155240Y-184775080I0J50000D01*
G01*
X316155240Y-184775080D02*
G75*
G02*
X316155240Y-184875080I0J-50000D01*
G01*
%TO.C,LED7*%
X281155240Y-184775080D02*
X281155240Y-184775080D01*
X281155240Y-184875080D02*
X281155240Y-184875080D01*
X281155240Y-184875080D02*
G75*
G02*
X281155240Y-184775080I0J50000D01*
G01*
X281155240Y-184775080D02*
G75*
G02*
X281155240Y-184875080I0J-50000D01*
G01*
%TO.C,LED6*%
X246155240Y-184775080D02*
X246155240Y-184775080D01*
X246155240Y-184875080D02*
X246155240Y-184875080D01*
X246155240Y-184875080D02*
G75*
G02*
X246155240Y-184775080I0J50000D01*
G01*
X246155240Y-184775080D02*
G75*
G02*
X246155240Y-184875080I0J-50000D01*
G01*
%TO.C,LED5*%
X211155240Y-184775080D02*
X211155240Y-184775080D01*
X211155240Y-184875080D02*
X211155240Y-184875080D01*
X211155240Y-184875080D02*
G75*
G02*
X211155240Y-184775080I0J50000D01*
G01*
X211155240Y-184775080D02*
G75*
G02*
X211155240Y-184875080I0J-50000D01*
G01*
%TO.C,LED4*%
X121155240Y-184775080D02*
X121155240Y-184775080D01*
X121155240Y-184875080D02*
X121155240Y-184875080D01*
X121155240Y-184875080D02*
G75*
G02*
X121155240Y-184775080I0J50000D01*
G01*
X121155240Y-184775080D02*
G75*
G02*
X121155240Y-184875080I0J-50000D01*
G01*
%TO.C,LED3*%
X86155240Y-184775080D02*
X86155240Y-184775080D01*
X86155240Y-184875080D02*
X86155240Y-184875080D01*
X86155240Y-184875080D02*
G75*
G02*
X86155240Y-184775080I0J50000D01*
G01*
X86155240Y-184775080D02*
G75*
G02*
X86155240Y-184875080I0J-50000D01*
G01*
%TO.C,LED2*%
X51155240Y-184775080D02*
X51155240Y-184775080D01*
X51155240Y-184875080D02*
X51155240Y-184875080D01*
X51155240Y-184875080D02*
G75*
G02*
X51155240Y-184775080I0J50000D01*
G01*
X51155240Y-184775080D02*
G75*
G02*
X51155240Y-184875080I0J-50000D01*
G01*
D12*
%TO.C,K20*%
X376950000Y-157856666D02*
X376950000Y-157856666D01*
X376750000Y-157856666D02*
X376750000Y-157856666D01*
D13*
X365550000Y-145776666D02*
X374550000Y-145776666D01*
X365550000Y-159776666D02*
X374550000Y-159776666D01*
D12*
X376950000Y-157856666D02*
G75*
G02*
X376750000Y-157856666I-100000J0D01*
G01*
X376750000Y-157856666D02*
G75*
G02*
X376950000Y-157856666I100000J0D01*
G01*
%TO.C,K19*%
X182220000Y-157856666D02*
X182220000Y-157856666D01*
X182020000Y-157856666D02*
X182020000Y-157856666D01*
D13*
X170820000Y-145776666D02*
X179820000Y-145776666D01*
X170820000Y-159776666D02*
X179820000Y-159776666D01*
D12*
X182220000Y-157856666D02*
G75*
G02*
X182020000Y-157856666I-100000J0D01*
G01*
X182020000Y-157856666D02*
G75*
G02*
X182220000Y-157856666I100000J0D01*
G01*
D13*
%TO.C,Input_1*%
X35885720Y-165876480D02*
X42885720Y-165876480D01*
X42885720Y-165876480D02*
X42885720Y-192226480D01*
X42885720Y-192226480D02*
X16885720Y-192226480D01*
X16885720Y-192226480D02*
X16885720Y-165876480D01*
X16885720Y-165876480D02*
X23885720Y-165876480D01*
%TO.C,Input_8*%
X335885720Y-165876480D02*
X342885720Y-165876480D01*
X342885720Y-165876480D02*
X342885720Y-192226480D01*
X342885720Y-192226480D02*
X316885720Y-192226480D01*
X316885720Y-192226480D02*
X316885720Y-165876480D01*
X316885720Y-165876480D02*
X323885720Y-165876480D01*
%TO.C,Input_7*%
X300885720Y-165876480D02*
X307885720Y-165876480D01*
X307885720Y-165876480D02*
X307885720Y-192226480D01*
X307885720Y-192226480D02*
X281885720Y-192226480D01*
X281885720Y-192226480D02*
X281885720Y-165876480D01*
X281885720Y-165876480D02*
X288885720Y-165876480D01*
%TO.C,Input_6*%
X265885720Y-165876480D02*
X272885720Y-165876480D01*
X272885720Y-165876480D02*
X272885720Y-192226480D01*
X272885720Y-192226480D02*
X246885720Y-192226480D01*
X246885720Y-192226480D02*
X246885720Y-165876480D01*
X246885720Y-165876480D02*
X253885720Y-165876480D01*
%TO.C,Input_5*%
X230885720Y-165876480D02*
X237885720Y-165876480D01*
X237885720Y-165876480D02*
X237885720Y-192226480D01*
X237885720Y-192226480D02*
X211885720Y-192226480D01*
X211885720Y-192226480D02*
X211885720Y-165876480D01*
X211885720Y-165876480D02*
X218885720Y-165876480D01*
%TO.C,Input_4*%
X140885720Y-165876480D02*
X147885720Y-165876480D01*
X147885720Y-165876480D02*
X147885720Y-192226480D01*
X147885720Y-192226480D02*
X121885720Y-192226480D01*
X121885720Y-192226480D02*
X121885720Y-165876480D01*
X121885720Y-165876480D02*
X128885720Y-165876480D01*
%TO.C,Input_3*%
X105885720Y-165876480D02*
X112885720Y-165876480D01*
X112885720Y-165876480D02*
X112885720Y-192226480D01*
X112885720Y-192226480D02*
X86885720Y-192226480D01*
X86885720Y-192226480D02*
X86885720Y-165876480D01*
X86885720Y-165876480D02*
X93885720Y-165876480D01*
%TO.C,Input_2*%
X70885720Y-165876480D02*
X77885720Y-165876480D01*
X77885720Y-165876480D02*
X77885720Y-192226480D01*
X77885720Y-192226480D02*
X51885720Y-192226480D01*
X51885720Y-192226480D02*
X51885720Y-165876480D01*
X51885720Y-165876480D02*
X58885720Y-165876480D01*
%TO.C,BUS_B1*%
X382852200Y-192249680D02*
X356852200Y-192249680D01*
X356852200Y-192249680D02*
X356852200Y-168249680D01*
X356852200Y-168249680D02*
X382852200Y-168249680D01*
X382852200Y-168249680D02*
X382852200Y-192249680D01*
%TO.C,BUS_A1*%
X187852200Y-192249680D02*
X161852200Y-192249680D01*
X161852200Y-192249680D02*
X161852200Y-168249680D01*
X161852200Y-168249680D02*
X187852200Y-168249680D01*
X187852200Y-168249680D02*
X187852200Y-192249680D01*
D12*
%TO.C,K18*%
X336160000Y-140960000D02*
X336160000Y-140960000D01*
X335960000Y-140960000D02*
X335960000Y-140960000D01*
D13*
X324760000Y-128880000D02*
X333760000Y-128880000D01*
X324760000Y-142880000D02*
X333760000Y-142880000D01*
D12*
X336160000Y-140960000D02*
G75*
G02*
X335960000Y-140960000I-100000J0D01*
G01*
X335960000Y-140960000D02*
G75*
G02*
X336160000Y-140960000I100000J0D01*
G01*
%TO.C,K17*%
X336160000Y-157856666D02*
X336160000Y-157856666D01*
X335960000Y-157856666D02*
X335960000Y-157856666D01*
D13*
X324760000Y-145776666D02*
X333760000Y-145776666D01*
X324760000Y-159776666D02*
X333760000Y-159776666D01*
D12*
X336160000Y-157856666D02*
G75*
G02*
X335960000Y-157856666I-100000J0D01*
G01*
X335960000Y-157856666D02*
G75*
G02*
X336160000Y-157856666I100000J0D01*
G01*
%TO.C,K16*%
X302060000Y-140960000D02*
X302060000Y-140960000D01*
X301860000Y-140960000D02*
X301860000Y-140960000D01*
D13*
X290660000Y-128880000D02*
X299660000Y-128880000D01*
X290660000Y-142880000D02*
X299660000Y-142880000D01*
D12*
X302060000Y-140960000D02*
G75*
G02*
X301860000Y-140960000I-100000J0D01*
G01*
X301860000Y-140960000D02*
G75*
G02*
X302060000Y-140960000I100000J0D01*
G01*
%TO.C,K15*%
X302060000Y-157856666D02*
X302060000Y-157856666D01*
X301860000Y-157856666D02*
X301860000Y-157856666D01*
D13*
X290660000Y-145776666D02*
X299660000Y-145776666D01*
X290660000Y-159776666D02*
X299660000Y-159776666D01*
D12*
X302060000Y-157856666D02*
G75*
G02*
X301860000Y-157856666I-100000J0D01*
G01*
X301860000Y-157856666D02*
G75*
G02*
X302060000Y-157856666I100000J0D01*
G01*
%TO.C,K14*%
X266890000Y-140960000D02*
X266890000Y-140960000D01*
X266690000Y-140960000D02*
X266690000Y-140960000D01*
D13*
X255490000Y-128880000D02*
X264490000Y-128880000D01*
X255490000Y-142880000D02*
X264490000Y-142880000D01*
D12*
X266890000Y-140960000D02*
G75*
G02*
X266690000Y-140960000I-100000J0D01*
G01*
X266690000Y-140960000D02*
G75*
G02*
X266890000Y-140960000I100000J0D01*
G01*
%TO.C,K13*%
X266890000Y-157856666D02*
X266890000Y-157856666D01*
X266690000Y-157856666D02*
X266690000Y-157856666D01*
D13*
X255490000Y-145776666D02*
X264490000Y-145776666D01*
X255490000Y-159776666D02*
X264490000Y-159776666D01*
D12*
X266890000Y-157856666D02*
G75*
G02*
X266690000Y-157856666I-100000J0D01*
G01*
X266690000Y-157856666D02*
G75*
G02*
X266890000Y-157856666I100000J0D01*
G01*
%TO.C,K12*%
X231890000Y-140960000D02*
X231890000Y-140960000D01*
X231690000Y-140960000D02*
X231690000Y-140960000D01*
D13*
X220490000Y-128880000D02*
X229490000Y-128880000D01*
X220490000Y-142880000D02*
X229490000Y-142880000D01*
D12*
X231890000Y-140960000D02*
G75*
G02*
X231690000Y-140960000I-100000J0D01*
G01*
X231690000Y-140960000D02*
G75*
G02*
X231890000Y-140960000I100000J0D01*
G01*
%TO.C,K11*%
X231890000Y-157856666D02*
X231890000Y-157856666D01*
X231690000Y-157856666D02*
X231690000Y-157856666D01*
D13*
X220490000Y-145776666D02*
X229490000Y-145776666D01*
X220490000Y-159776666D02*
X229490000Y-159776666D01*
D12*
X231890000Y-157856666D02*
G75*
G02*
X231690000Y-157856666I-100000J0D01*
G01*
X231690000Y-157856666D02*
G75*
G02*
X231890000Y-157856666I100000J0D01*
G01*
%TO.C,K10*%
X376950000Y-140960000D02*
X376950000Y-140960000D01*
X376750000Y-140960000D02*
X376750000Y-140960000D01*
D13*
X365550000Y-128880000D02*
X374550000Y-128880000D01*
X365550000Y-142880000D02*
X374550000Y-142880000D01*
D12*
X376950000Y-140960000D02*
G75*
G02*
X376750000Y-140960000I-100000J0D01*
G01*
X376750000Y-140960000D02*
G75*
G02*
X376950000Y-140960000I100000J0D01*
G01*
%TO.C,K9*%
X142180000Y-140960000D02*
X142180000Y-140960000D01*
X141980000Y-140960000D02*
X141980000Y-140960000D01*
D13*
X130780000Y-128880000D02*
X139780000Y-128880000D01*
X130780000Y-142880000D02*
X139780000Y-142880000D01*
D12*
X142180000Y-140960000D02*
G75*
G02*
X141980000Y-140960000I-100000J0D01*
G01*
X141980000Y-140960000D02*
G75*
G02*
X142180000Y-140960000I100000J0D01*
G01*
%TO.C,K8*%
X142180000Y-157856666D02*
X142180000Y-157856666D01*
X141980000Y-157856666D02*
X141980000Y-157856666D01*
D13*
X130780000Y-145776666D02*
X139780000Y-145776666D01*
X130780000Y-159776666D02*
X139780000Y-159776666D01*
D12*
X142180000Y-157856666D02*
G75*
G02*
X141980000Y-157856666I-100000J0D01*
G01*
X141980000Y-157856666D02*
G75*
G02*
X142180000Y-157856666I100000J0D01*
G01*
%TO.C,K7*%
X107710000Y-140960000D02*
X107710000Y-140960000D01*
X107510000Y-140960000D02*
X107510000Y-140960000D01*
D13*
X96310000Y-128880000D02*
X105310000Y-128880000D01*
X96310000Y-142880000D02*
X105310000Y-142880000D01*
D12*
X107710000Y-140960000D02*
G75*
G02*
X107510000Y-140960000I-100000J0D01*
G01*
X107510000Y-140960000D02*
G75*
G02*
X107710000Y-140960000I100000J0D01*
G01*
%TO.C,K6*%
X107710000Y-157856666D02*
X107710000Y-157856666D01*
X107510000Y-157856666D02*
X107510000Y-157856666D01*
D13*
X96310000Y-145776666D02*
X105310000Y-145776666D01*
X96310000Y-159776666D02*
X105310000Y-159776666D01*
D12*
X107710000Y-157856666D02*
G75*
G02*
X107510000Y-157856666I-100000J0D01*
G01*
X107510000Y-157856666D02*
G75*
G02*
X107710000Y-157856666I100000J0D01*
G01*
%TO.C,K5*%
X182220000Y-140960000D02*
X182220000Y-140960000D01*
X182020000Y-140960000D02*
X182020000Y-140960000D01*
D13*
X170820000Y-128880000D02*
X179820000Y-128880000D01*
X170820000Y-142880000D02*
X179820000Y-142880000D01*
D12*
X182220000Y-140960000D02*
G75*
G02*
X182020000Y-140960000I-100000J0D01*
G01*
X182020000Y-140960000D02*
G75*
G02*
X182220000Y-140960000I100000J0D01*
G01*
%TO.C,K4*%
X71350000Y-140960000D02*
X71350000Y-140960000D01*
X71150000Y-140960000D02*
X71150000Y-140960000D01*
D13*
X59950000Y-128880000D02*
X68950000Y-128880000D01*
X59950000Y-142880000D02*
X68950000Y-142880000D01*
D12*
X71350000Y-140960000D02*
G75*
G02*
X71150000Y-140960000I-100000J0D01*
G01*
X71150000Y-140960000D02*
G75*
G02*
X71350000Y-140960000I100000J0D01*
G01*
%TO.C,K3*%
X71350000Y-157856666D02*
X71350000Y-157856666D01*
X71150000Y-157856666D02*
X71150000Y-157856666D01*
D13*
X59950000Y-145776666D02*
X68950000Y-145776666D01*
X59950000Y-159776666D02*
X68950000Y-159776666D01*
D12*
X71350000Y-157856666D02*
G75*
G02*
X71150000Y-157856666I-100000J0D01*
G01*
X71150000Y-157856666D02*
G75*
G02*
X71350000Y-157856666I100000J0D01*
G01*
%TO.C,K1*%
X36650000Y-157856666D02*
X36650000Y-157856666D01*
X36450000Y-157856666D02*
X36450000Y-157856666D01*
D13*
X25250000Y-145776666D02*
X34250000Y-145776666D01*
X25250000Y-159776666D02*
X34250000Y-159776666D01*
D12*
X36650000Y-157856666D02*
G75*
G02*
X36450000Y-157856666I-100000J0D01*
G01*
X36450000Y-157856666D02*
G75*
G02*
X36650000Y-157856666I100000J0D01*
G01*
%TO.C,U3*%
D14*
X319392380Y-105161904D02*
X320201904Y-105161904D01*
X320297142Y-105114285D01*
X320344761Y-105066666D01*
X320392380Y-104971428D01*
X320392380Y-104780952D01*
X320344761Y-104685714D01*
X320297142Y-104638095D01*
X320201904Y-104590476D01*
X319392380Y-104590476D01*
X319392380Y-104209523D02*
X319392380Y-103590476D01*
X319773333Y-103923809D01*
X319773333Y-103780952D01*
X319820952Y-103685714D01*
X319868571Y-103638095D01*
X319963809Y-103590476D01*
X320201904Y-103590476D01*
X320297142Y-103638095D01*
X320344761Y-103685714D01*
X320392380Y-103780952D01*
X320392380Y-104066666D01*
X320344761Y-104161904D01*
X320297142Y-104209523D01*
%TO.C,U2*%
X60602380Y-105161904D02*
X61411904Y-105161904D01*
X61507142Y-105114285D01*
X61554761Y-105066666D01*
X61602380Y-104971428D01*
X61602380Y-104780952D01*
X61554761Y-104685714D01*
X61507142Y-104638095D01*
X61411904Y-104590476D01*
X60602380Y-104590476D01*
X60697619Y-104161904D02*
X60650000Y-104114285D01*
X60602380Y-104019047D01*
X60602380Y-103780952D01*
X60650000Y-103685714D01*
X60697619Y-103638095D01*
X60792857Y-103590476D01*
X60888095Y-103590476D01*
X61030952Y-103638095D01*
X61602380Y-104209523D01*
X61602380Y-103590476D01*
%TO.C,U1*%
X212882380Y-105161904D02*
X213691904Y-105161904D01*
X213787142Y-105114285D01*
X213834761Y-105066666D01*
X213882380Y-104971428D01*
X213882380Y-104780952D01*
X213834761Y-104685714D01*
X213787142Y-104638095D01*
X213691904Y-104590476D01*
X212882380Y-104590476D01*
X213882380Y-103590476D02*
X213882380Y-104161904D01*
X213882380Y-103876190D02*
X212882380Y-103876190D01*
X213025238Y-103971428D01*
X213120476Y-104066666D01*
X213168095Y-104161904D01*
%TO.C,R19*%
X318482380Y-104970357D02*
X318006190Y-105303690D01*
X318482380Y-105541785D02*
X317482380Y-105541785D01*
X317482380Y-105160833D01*
X317530000Y-105065595D01*
X317577619Y-105017976D01*
X317672857Y-104970357D01*
X317815714Y-104970357D01*
X317910952Y-105017976D01*
X317958571Y-105065595D01*
X318006190Y-105160833D01*
X318006190Y-105541785D01*
X318482380Y-104017976D02*
X318482380Y-104589404D01*
X318482380Y-104303690D02*
X317482380Y-104303690D01*
X317625238Y-104398928D01*
X317720476Y-104494166D01*
X317768095Y-104589404D01*
X318482380Y-103541785D02*
X318482380Y-103351309D01*
X318434761Y-103256071D01*
X318387142Y-103208452D01*
X318244285Y-103113214D01*
X318053809Y-103065595D01*
X317672857Y-103065595D01*
X317577619Y-103113214D01*
X317530000Y-103160833D01*
X317482380Y-103256071D01*
X317482380Y-103446547D01*
X317530000Y-103541785D01*
X317577619Y-103589404D01*
X317672857Y-103637023D01*
X317910952Y-103637023D01*
X318006190Y-103589404D01*
X318053809Y-103541785D01*
X318101428Y-103446547D01*
X318101428Y-103256071D01*
X318053809Y-103160833D01*
X318006190Y-103113214D01*
X317910952Y-103065595D01*
%TO.C,R18*%
X59582380Y-105090357D02*
X59106190Y-105423690D01*
X59582380Y-105661785D02*
X58582380Y-105661785D01*
X58582380Y-105280833D01*
X58630000Y-105185595D01*
X58677619Y-105137976D01*
X58772857Y-105090357D01*
X58915714Y-105090357D01*
X59010952Y-105137976D01*
X59058571Y-105185595D01*
X59106190Y-105280833D01*
X59106190Y-105661785D01*
X59582380Y-104137976D02*
X59582380Y-104709404D01*
X59582380Y-104423690D02*
X58582380Y-104423690D01*
X58725238Y-104518928D01*
X58820476Y-104614166D01*
X58868095Y-104709404D01*
X59010952Y-103566547D02*
X58963333Y-103661785D01*
X58915714Y-103709404D01*
X58820476Y-103757023D01*
X58772857Y-103757023D01*
X58677619Y-103709404D01*
X58630000Y-103661785D01*
X58582380Y-103566547D01*
X58582380Y-103376071D01*
X58630000Y-103280833D01*
X58677619Y-103233214D01*
X58772857Y-103185595D01*
X58820476Y-103185595D01*
X58915714Y-103233214D01*
X58963333Y-103280833D01*
X59010952Y-103376071D01*
X59010952Y-103566547D01*
X59058571Y-103661785D01*
X59106190Y-103709404D01*
X59201428Y-103757023D01*
X59391904Y-103757023D01*
X59487142Y-103709404D01*
X59534761Y-103661785D01*
X59582380Y-103566547D01*
X59582380Y-103376071D01*
X59534761Y-103280833D01*
X59487142Y-103233214D01*
X59391904Y-103185595D01*
X59201428Y-103185595D01*
X59106190Y-103233214D01*
X59058571Y-103280833D01*
X59010952Y-103376071D01*
%TO.C,R1*%
X211822380Y-104589166D02*
X211346190Y-104922500D01*
X211822380Y-105160595D02*
X210822380Y-105160595D01*
X210822380Y-104779642D01*
X210870000Y-104684404D01*
X210917619Y-104636785D01*
X211012857Y-104589166D01*
X211155714Y-104589166D01*
X211250952Y-104636785D01*
X211298571Y-104684404D01*
X211346190Y-104779642D01*
X211346190Y-105160595D01*
X211822380Y-103636785D02*
X211822380Y-104208214D01*
X211822380Y-103922500D02*
X210822380Y-103922500D01*
X210965238Y-104017738D01*
X211060476Y-104112976D01*
X211108095Y-104208214D01*
%TO.C,J2*%
X153306666Y-100372380D02*
X153306666Y-101086666D01*
X153259047Y-101229523D01*
X153163809Y-101324761D01*
X153020952Y-101372380D01*
X152925714Y-101372380D01*
X153735238Y-100467619D02*
X153782857Y-100420000D01*
X153878095Y-100372380D01*
X154116190Y-100372380D01*
X154211428Y-100420000D01*
X154259047Y-100467619D01*
X154306666Y-100562857D01*
X154306666Y-100658095D01*
X154259047Y-100800952D01*
X153687619Y-101372380D01*
X154306666Y-101372380D01*
X148520952Y-100372380D02*
X149187619Y-100372380D01*
X148759047Y-101372380D01*
X150092380Y-101372380D02*
X149520952Y-101372380D01*
X149806666Y-101372380D02*
X149806666Y-100372380D01*
X149711428Y-100515238D01*
X149616190Y-100610476D01*
X149520952Y-100658095D01*
X150568571Y-101372380D02*
X150759047Y-101372380D01*
X150854285Y-101324761D01*
X150901904Y-101277142D01*
X150997142Y-101134285D01*
X151044761Y-100943809D01*
X151044761Y-100562857D01*
X150997142Y-100467619D01*
X150949523Y-100420000D01*
X150854285Y-100372380D01*
X150663809Y-100372380D01*
X150568571Y-100420000D01*
X150520952Y-100467619D01*
X150473333Y-100562857D01*
X150473333Y-100800952D01*
X150520952Y-100896190D01*
X150568571Y-100943809D01*
X150663809Y-100991428D01*
X150854285Y-100991428D01*
X150949523Y-100943809D01*
X150997142Y-100896190D01*
X151044761Y-100800952D01*
X151997142Y-101372380D02*
X151425714Y-101372380D01*
X151711428Y-101372380D02*
X151711428Y-100372380D01*
X151616190Y-100515238D01*
X151520952Y-100610476D01*
X151425714Y-100658095D01*
X152568571Y-100800952D02*
X152473333Y-100753333D01*
X152425714Y-100705714D01*
X152378095Y-100610476D01*
X152378095Y-100562857D01*
X152425714Y-100467619D01*
X152473333Y-100420000D01*
X152568571Y-100372380D01*
X152759047Y-100372380D01*
X152854285Y-100420000D01*
X152901904Y-100467619D01*
X152949523Y-100562857D01*
X152949523Y-100610476D01*
X152901904Y-100705714D01*
X152854285Y-100753333D01*
X152759047Y-100800952D01*
X152568571Y-100800952D01*
X152473333Y-100848571D01*
X152425714Y-100896190D01*
X152378095Y-100991428D01*
X152378095Y-101181904D01*
X152425714Y-101277142D01*
X152473333Y-101324761D01*
X152568571Y-101372380D01*
X152759047Y-101372380D01*
X152854285Y-101324761D01*
X152901904Y-101277142D01*
X152949523Y-101181904D01*
X152949523Y-100991428D01*
X152901904Y-100896190D01*
X152854285Y-100848571D01*
X152759047Y-100800952D01*
X153378095Y-100991428D02*
X154140000Y-100991428D01*
X155140000Y-101372380D02*
X154568571Y-101372380D01*
X154854285Y-101372380D02*
X154854285Y-100372380D01*
X154759047Y-100515238D01*
X154663809Y-100610476D01*
X154568571Y-100658095D01*
X156092380Y-101372380D02*
X155520952Y-101372380D01*
X155806666Y-101372380D02*
X155806666Y-100372380D01*
X155711428Y-100515238D01*
X155616190Y-100610476D01*
X155520952Y-100658095D01*
X156711428Y-100372380D02*
X156806666Y-100372380D01*
X156901904Y-100420000D01*
X156949523Y-100467619D01*
X156997142Y-100562857D01*
X157044761Y-100753333D01*
X157044761Y-100991428D01*
X156997142Y-101181904D01*
X156949523Y-101277142D01*
X156901904Y-101324761D01*
X156806666Y-101372380D01*
X156711428Y-101372380D01*
X156616190Y-101324761D01*
X156568571Y-101277142D01*
X156520952Y-101181904D01*
X156473333Y-100991428D01*
X156473333Y-100753333D01*
X156520952Y-100562857D01*
X156568571Y-100467619D01*
X156616190Y-100420000D01*
X156711428Y-100372380D01*
X157949523Y-101372380D02*
X157473333Y-101372380D01*
X157473333Y-100372380D01*
X158616190Y-100848571D02*
X158282857Y-100848571D01*
X158282857Y-101372380D02*
X158282857Y-100372380D01*
X158759047Y-100372380D01*
X148560000Y-99102380D02*
X148560000Y-99340476D01*
X148321904Y-99245238D02*
X148560000Y-99340476D01*
X148798095Y-99245238D01*
X148417142Y-99530952D02*
X148560000Y-99340476D01*
X148702857Y-99530952D01*
%TO.C,K2*%
D15*
X30649523Y-136817380D02*
X29379523Y-136817380D01*
X30649523Y-136091666D02*
X29923809Y-136635952D01*
X29379523Y-136091666D02*
X30105238Y-136817380D01*
X29500476Y-135607857D02*
X29440000Y-135547380D01*
X29379523Y-135426428D01*
X29379523Y-135124047D01*
X29440000Y-135003095D01*
X29500476Y-134942619D01*
X29621428Y-134882142D01*
X29742380Y-134882142D01*
X29923809Y-134942619D01*
X30649523Y-135668333D01*
X30649523Y-134882142D01*
%TO.C,LED10*%
X357587607Y-181062083D02*
X356982845Y-181062083D01*
X356982845Y-179792083D01*
X358010940Y-180396845D02*
X358434274Y-180396845D01*
X358615702Y-181062083D02*
X358010940Y-181062083D01*
X358010940Y-179792083D01*
X358615702Y-179792083D01*
X359159988Y-181062083D02*
X359159988Y-179792083D01*
X359462369Y-179792083D01*
X359643798Y-179852560D01*
X359764750Y-179973512D01*
X359825226Y-180094464D01*
X359885702Y-180336369D01*
X359885702Y-180517798D01*
X359825226Y-180759702D01*
X359764750Y-180880655D01*
X359643798Y-181001607D01*
X359462369Y-181062083D01*
X359159988Y-181062083D01*
X361095226Y-181062083D02*
X360369512Y-181062083D01*
X360732369Y-181062083D02*
X360732369Y-179792083D01*
X360611417Y-179973512D01*
X360490464Y-180094464D01*
X360369512Y-180154940D01*
X361881417Y-179792083D02*
X362002369Y-179792083D01*
X362123321Y-179852560D01*
X362183798Y-179913036D01*
X362244274Y-180033988D01*
X362304750Y-180275893D01*
X362304750Y-180578274D01*
X362244274Y-180820179D01*
X362183798Y-180941131D01*
X362123321Y-181001607D01*
X362002369Y-181062083D01*
X361881417Y-181062083D01*
X361760464Y-181001607D01*
X361699988Y-180941131D01*
X361639512Y-180820179D01*
X361579036Y-180578274D01*
X361579036Y-180275893D01*
X361639512Y-180033988D01*
X361699988Y-179913036D01*
X361760464Y-179852560D01*
X361881417Y-179792083D01*
%TO.C,LED9*%
X163192369Y-181062083D02*
X162587607Y-181062083D01*
X162587607Y-179792083D01*
X163615702Y-180396845D02*
X164039036Y-180396845D01*
X164220464Y-181062083D02*
X163615702Y-181062083D01*
X163615702Y-179792083D01*
X164220464Y-179792083D01*
X164764750Y-181062083D02*
X164764750Y-179792083D01*
X165067131Y-179792083D01*
X165248560Y-179852560D01*
X165369512Y-179973512D01*
X165429988Y-180094464D01*
X165490464Y-180336369D01*
X165490464Y-180517798D01*
X165429988Y-180759702D01*
X165369512Y-180880655D01*
X165248560Y-181001607D01*
X165067131Y-181062083D01*
X164764750Y-181062083D01*
X166095226Y-181062083D02*
X166337131Y-181062083D01*
X166458083Y-181001607D01*
X166518560Y-180941131D01*
X166639512Y-180759702D01*
X166699988Y-180517798D01*
X166699988Y-180033988D01*
X166639512Y-179913036D01*
X166579036Y-179852560D01*
X166458083Y-179792083D01*
X166216179Y-179792083D01*
X166095226Y-179852560D01*
X166034750Y-179913036D01*
X165974274Y-180033988D01*
X165974274Y-180336369D01*
X166034750Y-180457321D01*
X166095226Y-180517798D01*
X166216179Y-180578274D01*
X166458083Y-180578274D01*
X166579036Y-180517798D01*
X166639512Y-180457321D01*
X166699988Y-180336369D01*
%TO.C,LED8*%
X318192369Y-181062083D02*
X317587607Y-181062083D01*
X317587607Y-179792083D01*
X318615702Y-180396845D02*
X319039036Y-180396845D01*
X319220464Y-181062083D02*
X318615702Y-181062083D01*
X318615702Y-179792083D01*
X319220464Y-179792083D01*
X319764750Y-181062083D02*
X319764750Y-179792083D01*
X320067131Y-179792083D01*
X320248560Y-179852560D01*
X320369512Y-179973512D01*
X320429988Y-180094464D01*
X320490464Y-180336369D01*
X320490464Y-180517798D01*
X320429988Y-180759702D01*
X320369512Y-180880655D01*
X320248560Y-181001607D01*
X320067131Y-181062083D01*
X319764750Y-181062083D01*
X321216179Y-180336369D02*
X321095226Y-180275893D01*
X321034750Y-180215417D01*
X320974274Y-180094464D01*
X320974274Y-180033988D01*
X321034750Y-179913036D01*
X321095226Y-179852560D01*
X321216179Y-179792083D01*
X321458083Y-179792083D01*
X321579036Y-179852560D01*
X321639512Y-179913036D01*
X321699988Y-180033988D01*
X321699988Y-180094464D01*
X321639512Y-180215417D01*
X321579036Y-180275893D01*
X321458083Y-180336369D01*
X321216179Y-180336369D01*
X321095226Y-180396845D01*
X321034750Y-180457321D01*
X320974274Y-180578274D01*
X320974274Y-180820179D01*
X321034750Y-180941131D01*
X321095226Y-181001607D01*
X321216179Y-181062083D01*
X321458083Y-181062083D01*
X321579036Y-181001607D01*
X321639512Y-180941131D01*
X321699988Y-180820179D01*
X321699988Y-180578274D01*
X321639512Y-180457321D01*
X321579036Y-180396845D01*
X321458083Y-180336369D01*
%TO.C,LED7*%
X283192369Y-181062083D02*
X282587607Y-181062083D01*
X282587607Y-179792083D01*
X283615702Y-180396845D02*
X284039036Y-180396845D01*
X284220464Y-181062083D02*
X283615702Y-181062083D01*
X283615702Y-179792083D01*
X284220464Y-179792083D01*
X284764750Y-181062083D02*
X284764750Y-179792083D01*
X285067131Y-179792083D01*
X285248560Y-179852560D01*
X285369512Y-179973512D01*
X285429988Y-180094464D01*
X285490464Y-180336369D01*
X285490464Y-180517798D01*
X285429988Y-180759702D01*
X285369512Y-180880655D01*
X285248560Y-181001607D01*
X285067131Y-181062083D01*
X284764750Y-181062083D01*
X285913798Y-179792083D02*
X286760464Y-179792083D01*
X286216179Y-181062083D01*
%TO.C,LED6*%
X248192369Y-181062083D02*
X247587607Y-181062083D01*
X247587607Y-179792083D01*
X248615702Y-180396845D02*
X249039036Y-180396845D01*
X249220464Y-181062083D02*
X248615702Y-181062083D01*
X248615702Y-179792083D01*
X249220464Y-179792083D01*
X249764750Y-181062083D02*
X249764750Y-179792083D01*
X250067131Y-179792083D01*
X250248560Y-179852560D01*
X250369512Y-179973512D01*
X250429988Y-180094464D01*
X250490464Y-180336369D01*
X250490464Y-180517798D01*
X250429988Y-180759702D01*
X250369512Y-180880655D01*
X250248560Y-181001607D01*
X250067131Y-181062083D01*
X249764750Y-181062083D01*
X251579036Y-179792083D02*
X251337131Y-179792083D01*
X251216179Y-179852560D01*
X251155702Y-179913036D01*
X251034750Y-180094464D01*
X250974274Y-180336369D01*
X250974274Y-180820179D01*
X251034750Y-180941131D01*
X251095226Y-181001607D01*
X251216179Y-181062083D01*
X251458083Y-181062083D01*
X251579036Y-181001607D01*
X251639512Y-180941131D01*
X251699988Y-180820179D01*
X251699988Y-180517798D01*
X251639512Y-180396845D01*
X251579036Y-180336369D01*
X251458083Y-180275893D01*
X251216179Y-180275893D01*
X251095226Y-180336369D01*
X251034750Y-180396845D01*
X250974274Y-180517798D01*
%TO.C,LED5*%
X213192369Y-181062083D02*
X212587607Y-181062083D01*
X212587607Y-179792083D01*
X213615702Y-180396845D02*
X214039036Y-180396845D01*
X214220464Y-181062083D02*
X213615702Y-181062083D01*
X213615702Y-179792083D01*
X214220464Y-179792083D01*
X214764750Y-181062083D02*
X214764750Y-179792083D01*
X215067131Y-179792083D01*
X215248560Y-179852560D01*
X215369512Y-179973512D01*
X215429988Y-180094464D01*
X215490464Y-180336369D01*
X215490464Y-180517798D01*
X215429988Y-180759702D01*
X215369512Y-180880655D01*
X215248560Y-181001607D01*
X215067131Y-181062083D01*
X214764750Y-181062083D01*
X216639512Y-179792083D02*
X216034750Y-179792083D01*
X215974274Y-180396845D01*
X216034750Y-180336369D01*
X216155702Y-180275893D01*
X216458083Y-180275893D01*
X216579036Y-180336369D01*
X216639512Y-180396845D01*
X216699988Y-180517798D01*
X216699988Y-180820179D01*
X216639512Y-180941131D01*
X216579036Y-181001607D01*
X216458083Y-181062083D01*
X216155702Y-181062083D01*
X216034750Y-181001607D01*
X215974274Y-180941131D01*
%TO.C,LED4*%
X123192369Y-181062083D02*
X122587607Y-181062083D01*
X122587607Y-179792083D01*
X123615702Y-180396845D02*
X124039036Y-180396845D01*
X124220464Y-181062083D02*
X123615702Y-181062083D01*
X123615702Y-179792083D01*
X124220464Y-179792083D01*
X124764750Y-181062083D02*
X124764750Y-179792083D01*
X125067131Y-179792083D01*
X125248560Y-179852560D01*
X125369512Y-179973512D01*
X125429988Y-180094464D01*
X125490464Y-180336369D01*
X125490464Y-180517798D01*
X125429988Y-180759702D01*
X125369512Y-180880655D01*
X125248560Y-181001607D01*
X125067131Y-181062083D01*
X124764750Y-181062083D01*
X126579036Y-180215417D02*
X126579036Y-181062083D01*
X126276655Y-179731607D02*
X125974274Y-180638750D01*
X126760464Y-180638750D01*
%TO.C,LED3*%
X88192369Y-181062083D02*
X87587607Y-181062083D01*
X87587607Y-179792083D01*
X88615702Y-180396845D02*
X89039036Y-180396845D01*
X89220464Y-181062083D02*
X88615702Y-181062083D01*
X88615702Y-179792083D01*
X89220464Y-179792083D01*
X89764750Y-181062083D02*
X89764750Y-179792083D01*
X90067131Y-179792083D01*
X90248560Y-179852560D01*
X90369512Y-179973512D01*
X90429988Y-180094464D01*
X90490464Y-180336369D01*
X90490464Y-180517798D01*
X90429988Y-180759702D01*
X90369512Y-180880655D01*
X90248560Y-181001607D01*
X90067131Y-181062083D01*
X89764750Y-181062083D01*
X90913798Y-179792083D02*
X91699988Y-179792083D01*
X91276655Y-180275893D01*
X91458083Y-180275893D01*
X91579036Y-180336369D01*
X91639512Y-180396845D01*
X91699988Y-180517798D01*
X91699988Y-180820179D01*
X91639512Y-180941131D01*
X91579036Y-181001607D01*
X91458083Y-181062083D01*
X91095226Y-181062083D01*
X90974274Y-181001607D01*
X90913798Y-180941131D01*
%TO.C,LED2*%
X53192369Y-181062083D02*
X52587607Y-181062083D01*
X52587607Y-179792083D01*
X53615702Y-180396845D02*
X54039036Y-180396845D01*
X54220464Y-181062083D02*
X53615702Y-181062083D01*
X53615702Y-179792083D01*
X54220464Y-179792083D01*
X54764750Y-181062083D02*
X54764750Y-179792083D01*
X55067131Y-179792083D01*
X55248560Y-179852560D01*
X55369512Y-179973512D01*
X55429988Y-180094464D01*
X55490464Y-180336369D01*
X55490464Y-180517798D01*
X55429988Y-180759702D01*
X55369512Y-180880655D01*
X55248560Y-181001607D01*
X55067131Y-181062083D01*
X54764750Y-181062083D01*
X55974274Y-179913036D02*
X56034750Y-179852560D01*
X56155702Y-179792083D01*
X56458083Y-179792083D01*
X56579036Y-179852560D01*
X56639512Y-179913036D01*
X56699988Y-180033988D01*
X56699988Y-180154940D01*
X56639512Y-180336369D01*
X55913798Y-181062083D01*
X56699988Y-181062083D01*
%TO.C,K20*%
X370949523Y-154318808D02*
X369679523Y-154318808D01*
X370949523Y-153593094D02*
X370223809Y-154137380D01*
X369679523Y-153593094D02*
X370405238Y-154318808D01*
X369800476Y-153109285D02*
X369740000Y-153048808D01*
X369679523Y-152927856D01*
X369679523Y-152625475D01*
X369740000Y-152504523D01*
X369800476Y-152444046D01*
X369921428Y-152383570D01*
X370042380Y-152383570D01*
X370223809Y-152444046D01*
X370949523Y-153169761D01*
X370949523Y-152383570D01*
X369679523Y-151597380D02*
X369679523Y-151476427D01*
X369740000Y-151355475D01*
X369800476Y-151294999D01*
X369921428Y-151234523D01*
X370163333Y-151174046D01*
X370465714Y-151174046D01*
X370707619Y-151234523D01*
X370828571Y-151294999D01*
X370889047Y-151355475D01*
X370949523Y-151476427D01*
X370949523Y-151597380D01*
X370889047Y-151718332D01*
X370828571Y-151778808D01*
X370707619Y-151839285D01*
X370465714Y-151899761D01*
X370163333Y-151899761D01*
X369921428Y-151839285D01*
X369800476Y-151778808D01*
X369740000Y-151718332D01*
X369679523Y-151597380D01*
%TO.C,K19*%
X176219523Y-154318808D02*
X174949523Y-154318808D01*
X176219523Y-153593094D02*
X175493809Y-154137380D01*
X174949523Y-153593094D02*
X175675238Y-154318808D01*
X176219523Y-152383570D02*
X176219523Y-153109285D01*
X176219523Y-152746427D02*
X174949523Y-152746427D01*
X175130952Y-152867380D01*
X175251904Y-152988332D01*
X175312380Y-153109285D01*
X176219523Y-151778808D02*
X176219523Y-151536904D01*
X176159047Y-151415951D01*
X176098571Y-151355475D01*
X175917142Y-151234523D01*
X175675238Y-151174046D01*
X175191428Y-151174046D01*
X175070476Y-151234523D01*
X175010000Y-151294999D01*
X174949523Y-151415951D01*
X174949523Y-151657856D01*
X175010000Y-151778808D01*
X175070476Y-151839285D01*
X175191428Y-151899761D01*
X175493809Y-151899761D01*
X175614761Y-151839285D01*
X175675238Y-151778808D01*
X175735714Y-151657856D01*
X175735714Y-151415951D01*
X175675238Y-151294999D01*
X175614761Y-151234523D01*
X175493809Y-151174046D01*
%TO.C,Input_1*%
X26792000Y-181429083D02*
X26792000Y-180159083D01*
X27396761Y-180582417D02*
X27396761Y-181429083D01*
X27396761Y-180703369D02*
X27457238Y-180642893D01*
X27578190Y-180582417D01*
X27759619Y-180582417D01*
X27880571Y-180642893D01*
X27941047Y-180763845D01*
X27941047Y-181429083D01*
X28545809Y-180582417D02*
X28545809Y-181852417D01*
X28545809Y-180642893D02*
X28666761Y-180582417D01*
X28908666Y-180582417D01*
X29029619Y-180642893D01*
X29090095Y-180703369D01*
X29150571Y-180824321D01*
X29150571Y-181187179D01*
X29090095Y-181308131D01*
X29029619Y-181368607D01*
X28908666Y-181429083D01*
X28666761Y-181429083D01*
X28545809Y-181368607D01*
X30239142Y-180582417D02*
X30239142Y-181429083D01*
X29694857Y-180582417D02*
X29694857Y-181247655D01*
X29755333Y-181368607D01*
X29876285Y-181429083D01*
X30057714Y-181429083D01*
X30178666Y-181368607D01*
X30239142Y-181308131D01*
X30662476Y-180582417D02*
X31146285Y-180582417D01*
X30843904Y-180159083D02*
X30843904Y-181247655D01*
X30904380Y-181368607D01*
X31025333Y-181429083D01*
X31146285Y-181429083D01*
X31267238Y-181550036D02*
X32234857Y-181550036D01*
X33202476Y-181429083D02*
X32476761Y-181429083D01*
X32839619Y-181429083D02*
X32839619Y-180159083D01*
X32718666Y-180340512D01*
X32597714Y-180461464D01*
X32476761Y-180521940D01*
%TO.C,Input_8*%
X326792000Y-181429083D02*
X326792000Y-180159083D01*
X327396761Y-180582417D02*
X327396761Y-181429083D01*
X327396761Y-180703369D02*
X327457238Y-180642893D01*
X327578190Y-180582417D01*
X327759619Y-180582417D01*
X327880571Y-180642893D01*
X327941047Y-180763845D01*
X327941047Y-181429083D01*
X328545809Y-180582417D02*
X328545809Y-181852417D01*
X328545809Y-180642893D02*
X328666761Y-180582417D01*
X328908666Y-180582417D01*
X329029619Y-180642893D01*
X329090095Y-180703369D01*
X329150571Y-180824321D01*
X329150571Y-181187179D01*
X329090095Y-181308131D01*
X329029619Y-181368607D01*
X328908666Y-181429083D01*
X328666761Y-181429083D01*
X328545809Y-181368607D01*
X330239142Y-180582417D02*
X330239142Y-181429083D01*
X329694857Y-180582417D02*
X329694857Y-181247655D01*
X329755333Y-181368607D01*
X329876285Y-181429083D01*
X330057714Y-181429083D01*
X330178666Y-181368607D01*
X330239142Y-181308131D01*
X330662476Y-180582417D02*
X331146285Y-180582417D01*
X330843904Y-180159083D02*
X330843904Y-181247655D01*
X330904380Y-181368607D01*
X331025333Y-181429083D01*
X331146285Y-181429083D01*
X331267238Y-181550036D02*
X332234857Y-181550036D01*
X332718666Y-180703369D02*
X332597714Y-180642893D01*
X332537238Y-180582417D01*
X332476761Y-180461464D01*
X332476761Y-180400988D01*
X332537238Y-180280036D01*
X332597714Y-180219560D01*
X332718666Y-180159083D01*
X332960571Y-180159083D01*
X333081523Y-180219560D01*
X333142000Y-180280036D01*
X333202476Y-180400988D01*
X333202476Y-180461464D01*
X333142000Y-180582417D01*
X333081523Y-180642893D01*
X332960571Y-180703369D01*
X332718666Y-180703369D01*
X332597714Y-180763845D01*
X332537238Y-180824321D01*
X332476761Y-180945274D01*
X332476761Y-181187179D01*
X332537238Y-181308131D01*
X332597714Y-181368607D01*
X332718666Y-181429083D01*
X332960571Y-181429083D01*
X333081523Y-181368607D01*
X333142000Y-181308131D01*
X333202476Y-181187179D01*
X333202476Y-180945274D01*
X333142000Y-180824321D01*
X333081523Y-180763845D01*
X332960571Y-180703369D01*
%TO.C,Input_7*%
X291792000Y-181429083D02*
X291792000Y-180159083D01*
X292396761Y-180582417D02*
X292396761Y-181429083D01*
X292396761Y-180703369D02*
X292457238Y-180642893D01*
X292578190Y-180582417D01*
X292759619Y-180582417D01*
X292880571Y-180642893D01*
X292941047Y-180763845D01*
X292941047Y-181429083D01*
X293545809Y-180582417D02*
X293545809Y-181852417D01*
X293545809Y-180642893D02*
X293666761Y-180582417D01*
X293908666Y-180582417D01*
X294029619Y-180642893D01*
X294090095Y-180703369D01*
X294150571Y-180824321D01*
X294150571Y-181187179D01*
X294090095Y-181308131D01*
X294029619Y-181368607D01*
X293908666Y-181429083D01*
X293666761Y-181429083D01*
X293545809Y-181368607D01*
X295239142Y-180582417D02*
X295239142Y-181429083D01*
X294694857Y-180582417D02*
X294694857Y-181247655D01*
X294755333Y-181368607D01*
X294876285Y-181429083D01*
X295057714Y-181429083D01*
X295178666Y-181368607D01*
X295239142Y-181308131D01*
X295662476Y-180582417D02*
X296146285Y-180582417D01*
X295843904Y-180159083D02*
X295843904Y-181247655D01*
X295904380Y-181368607D01*
X296025333Y-181429083D01*
X296146285Y-181429083D01*
X296267238Y-181550036D02*
X297234857Y-181550036D01*
X297416285Y-180159083D02*
X298262952Y-180159083D01*
X297718666Y-181429083D01*
%TO.C,Input_6*%
X256792000Y-181429083D02*
X256792000Y-180159083D01*
X257396761Y-180582417D02*
X257396761Y-181429083D01*
X257396761Y-180703369D02*
X257457238Y-180642893D01*
X257578190Y-180582417D01*
X257759619Y-180582417D01*
X257880571Y-180642893D01*
X257941047Y-180763845D01*
X257941047Y-181429083D01*
X258545809Y-180582417D02*
X258545809Y-181852417D01*
X258545809Y-180642893D02*
X258666761Y-180582417D01*
X258908666Y-180582417D01*
X259029619Y-180642893D01*
X259090095Y-180703369D01*
X259150571Y-180824321D01*
X259150571Y-181187179D01*
X259090095Y-181308131D01*
X259029619Y-181368607D01*
X258908666Y-181429083D01*
X258666761Y-181429083D01*
X258545809Y-181368607D01*
X260239142Y-180582417D02*
X260239142Y-181429083D01*
X259694857Y-180582417D02*
X259694857Y-181247655D01*
X259755333Y-181368607D01*
X259876285Y-181429083D01*
X260057714Y-181429083D01*
X260178666Y-181368607D01*
X260239142Y-181308131D01*
X260662476Y-180582417D02*
X261146285Y-180582417D01*
X260843904Y-180159083D02*
X260843904Y-181247655D01*
X260904380Y-181368607D01*
X261025333Y-181429083D01*
X261146285Y-181429083D01*
X261267238Y-181550036D02*
X262234857Y-181550036D01*
X263081523Y-180159083D02*
X262839619Y-180159083D01*
X262718666Y-180219560D01*
X262658190Y-180280036D01*
X262537238Y-180461464D01*
X262476761Y-180703369D01*
X262476761Y-181187179D01*
X262537238Y-181308131D01*
X262597714Y-181368607D01*
X262718666Y-181429083D01*
X262960571Y-181429083D01*
X263081523Y-181368607D01*
X263142000Y-181308131D01*
X263202476Y-181187179D01*
X263202476Y-180884798D01*
X263142000Y-180763845D01*
X263081523Y-180703369D01*
X262960571Y-180642893D01*
X262718666Y-180642893D01*
X262597714Y-180703369D01*
X262537238Y-180763845D01*
X262476761Y-180884798D01*
%TO.C,Input_5*%
X221792000Y-181429083D02*
X221792000Y-180159083D01*
X222396761Y-180582417D02*
X222396761Y-181429083D01*
X222396761Y-180703369D02*
X222457238Y-180642893D01*
X222578190Y-180582417D01*
X222759619Y-180582417D01*
X222880571Y-180642893D01*
X222941047Y-180763845D01*
X222941047Y-181429083D01*
X223545809Y-180582417D02*
X223545809Y-181852417D01*
X223545809Y-180642893D02*
X223666761Y-180582417D01*
X223908666Y-180582417D01*
X224029619Y-180642893D01*
X224090095Y-180703369D01*
X224150571Y-180824321D01*
X224150571Y-181187179D01*
X224090095Y-181308131D01*
X224029619Y-181368607D01*
X223908666Y-181429083D01*
X223666761Y-181429083D01*
X223545809Y-181368607D01*
X225239142Y-180582417D02*
X225239142Y-181429083D01*
X224694857Y-180582417D02*
X224694857Y-181247655D01*
X224755333Y-181368607D01*
X224876285Y-181429083D01*
X225057714Y-181429083D01*
X225178666Y-181368607D01*
X225239142Y-181308131D01*
X225662476Y-180582417D02*
X226146285Y-180582417D01*
X225843904Y-180159083D02*
X225843904Y-181247655D01*
X225904380Y-181368607D01*
X226025333Y-181429083D01*
X226146285Y-181429083D01*
X226267238Y-181550036D02*
X227234857Y-181550036D01*
X228142000Y-180159083D02*
X227537238Y-180159083D01*
X227476761Y-180763845D01*
X227537238Y-180703369D01*
X227658190Y-180642893D01*
X227960571Y-180642893D01*
X228081523Y-180703369D01*
X228142000Y-180763845D01*
X228202476Y-180884798D01*
X228202476Y-181187179D01*
X228142000Y-181308131D01*
X228081523Y-181368607D01*
X227960571Y-181429083D01*
X227658190Y-181429083D01*
X227537238Y-181368607D01*
X227476761Y-181308131D01*
%TO.C,Input_4*%
X131792000Y-181429083D02*
X131792000Y-180159083D01*
X132396761Y-180582417D02*
X132396761Y-181429083D01*
X132396761Y-180703369D02*
X132457238Y-180642893D01*
X132578190Y-180582417D01*
X132759619Y-180582417D01*
X132880571Y-180642893D01*
X132941047Y-180763845D01*
X132941047Y-181429083D01*
X133545809Y-180582417D02*
X133545809Y-181852417D01*
X133545809Y-180642893D02*
X133666761Y-180582417D01*
X133908666Y-180582417D01*
X134029619Y-180642893D01*
X134090095Y-180703369D01*
X134150571Y-180824321D01*
X134150571Y-181187179D01*
X134090095Y-181308131D01*
X134029619Y-181368607D01*
X133908666Y-181429083D01*
X133666761Y-181429083D01*
X133545809Y-181368607D01*
X135239142Y-180582417D02*
X135239142Y-181429083D01*
X134694857Y-180582417D02*
X134694857Y-181247655D01*
X134755333Y-181368607D01*
X134876285Y-181429083D01*
X135057714Y-181429083D01*
X135178666Y-181368607D01*
X135239142Y-181308131D01*
X135662476Y-180582417D02*
X136146285Y-180582417D01*
X135843904Y-180159083D02*
X135843904Y-181247655D01*
X135904380Y-181368607D01*
X136025333Y-181429083D01*
X136146285Y-181429083D01*
X136267238Y-181550036D02*
X137234857Y-181550036D01*
X138081523Y-180582417D02*
X138081523Y-181429083D01*
X137779142Y-180098607D02*
X137476761Y-181005750D01*
X138262952Y-181005750D01*
%TO.C,Input_3*%
X96792000Y-181429083D02*
X96792000Y-180159083D01*
X97396761Y-180582417D02*
X97396761Y-181429083D01*
X97396761Y-180703369D02*
X97457238Y-180642893D01*
X97578190Y-180582417D01*
X97759619Y-180582417D01*
X97880571Y-180642893D01*
X97941047Y-180763845D01*
X97941047Y-181429083D01*
X98545809Y-180582417D02*
X98545809Y-181852417D01*
X98545809Y-180642893D02*
X98666761Y-180582417D01*
X98908666Y-180582417D01*
X99029619Y-180642893D01*
X99090095Y-180703369D01*
X99150571Y-180824321D01*
X99150571Y-181187179D01*
X99090095Y-181308131D01*
X99029619Y-181368607D01*
X98908666Y-181429083D01*
X98666761Y-181429083D01*
X98545809Y-181368607D01*
X100239142Y-180582417D02*
X100239142Y-181429083D01*
X99694857Y-180582417D02*
X99694857Y-181247655D01*
X99755333Y-181368607D01*
X99876285Y-181429083D01*
X100057714Y-181429083D01*
X100178666Y-181368607D01*
X100239142Y-181308131D01*
X100662476Y-180582417D02*
X101146285Y-180582417D01*
X100843904Y-180159083D02*
X100843904Y-181247655D01*
X100904380Y-181368607D01*
X101025333Y-181429083D01*
X101146285Y-181429083D01*
X101267238Y-181550036D02*
X102234857Y-181550036D01*
X102416285Y-180159083D02*
X103202476Y-180159083D01*
X102779142Y-180642893D01*
X102960571Y-180642893D01*
X103081523Y-180703369D01*
X103142000Y-180763845D01*
X103202476Y-180884798D01*
X103202476Y-181187179D01*
X103142000Y-181308131D01*
X103081523Y-181368607D01*
X102960571Y-181429083D01*
X102597714Y-181429083D01*
X102476761Y-181368607D01*
X102416285Y-181308131D01*
%TO.C,Input_2*%
X61792000Y-181429083D02*
X61792000Y-180159083D01*
X62396761Y-180582417D02*
X62396761Y-181429083D01*
X62396761Y-180703369D02*
X62457238Y-180642893D01*
X62578190Y-180582417D01*
X62759619Y-180582417D01*
X62880571Y-180642893D01*
X62941047Y-180763845D01*
X62941047Y-181429083D01*
X63545809Y-180582417D02*
X63545809Y-181852417D01*
X63545809Y-180642893D02*
X63666761Y-180582417D01*
X63908666Y-180582417D01*
X64029619Y-180642893D01*
X64090095Y-180703369D01*
X64150571Y-180824321D01*
X64150571Y-181187179D01*
X64090095Y-181308131D01*
X64029619Y-181368607D01*
X63908666Y-181429083D01*
X63666761Y-181429083D01*
X63545809Y-181368607D01*
X65239142Y-180582417D02*
X65239142Y-181429083D01*
X64694857Y-180582417D02*
X64694857Y-181247655D01*
X64755333Y-181368607D01*
X64876285Y-181429083D01*
X65057714Y-181429083D01*
X65178666Y-181368607D01*
X65239142Y-181308131D01*
X65662476Y-180582417D02*
X66146285Y-180582417D01*
X65843904Y-180159083D02*
X65843904Y-181247655D01*
X65904380Y-181368607D01*
X66025333Y-181429083D01*
X66146285Y-181429083D01*
X66267238Y-181550036D02*
X67234857Y-181550036D01*
X67476761Y-180280036D02*
X67537238Y-180219560D01*
X67658190Y-180159083D01*
X67960571Y-180159083D01*
X68081523Y-180219560D01*
X68142000Y-180280036D01*
X68202476Y-180400988D01*
X68202476Y-180521940D01*
X68142000Y-180703369D01*
X67416285Y-181429083D01*
X68202476Y-181429083D01*
%TO.C,BUS_B1*%
X367074302Y-180281245D02*
X367255731Y-180341721D01*
X367316207Y-180402198D01*
X367376683Y-180523150D01*
X367376683Y-180704579D01*
X367316207Y-180825531D01*
X367255731Y-180886007D01*
X367134779Y-180946483D01*
X366650969Y-180946483D01*
X366650969Y-179676483D01*
X367074302Y-179676483D01*
X367195255Y-179736960D01*
X367255731Y-179797436D01*
X367316207Y-179918388D01*
X367316207Y-180039340D01*
X367255731Y-180160293D01*
X367195255Y-180220769D01*
X367074302Y-180281245D01*
X366650969Y-180281245D01*
X367920969Y-179676483D02*
X367920969Y-180704579D01*
X367981445Y-180825531D01*
X368041921Y-180886007D01*
X368162874Y-180946483D01*
X368404779Y-180946483D01*
X368525731Y-180886007D01*
X368586207Y-180825531D01*
X368646683Y-180704579D01*
X368646683Y-179676483D01*
X369190969Y-180886007D02*
X369372398Y-180946483D01*
X369674779Y-180946483D01*
X369795731Y-180886007D01*
X369856207Y-180825531D01*
X369916683Y-180704579D01*
X369916683Y-180583626D01*
X369856207Y-180462674D01*
X369795731Y-180402198D01*
X369674779Y-180341721D01*
X369432874Y-180281245D01*
X369311921Y-180220769D01*
X369251445Y-180160293D01*
X369190969Y-180039340D01*
X369190969Y-179918388D01*
X369251445Y-179797436D01*
X369311921Y-179736960D01*
X369432874Y-179676483D01*
X369735255Y-179676483D01*
X369916683Y-179736960D01*
X370158588Y-181067436D02*
X371126207Y-181067436D01*
X371851921Y-180281245D02*
X372033350Y-180341721D01*
X372093826Y-180402198D01*
X372154302Y-180523150D01*
X372154302Y-180704579D01*
X372093826Y-180825531D01*
X372033350Y-180886007D01*
X371912398Y-180946483D01*
X371428588Y-180946483D01*
X371428588Y-179676483D01*
X371851921Y-179676483D01*
X371972874Y-179736960D01*
X372033350Y-179797436D01*
X372093826Y-179918388D01*
X372093826Y-180039340D01*
X372033350Y-180160293D01*
X371972874Y-180220769D01*
X371851921Y-180281245D01*
X371428588Y-180281245D01*
X373363826Y-180946483D02*
X372638112Y-180946483D01*
X373000969Y-180946483D02*
X373000969Y-179676483D01*
X372880017Y-179857912D01*
X372759064Y-179978864D01*
X372638112Y-180039340D01*
%TO.C,BUS_A1*%
X172165017Y-180281245D02*
X172346445Y-180341721D01*
X172406921Y-180402198D01*
X172467398Y-180523150D01*
X172467398Y-180704579D01*
X172406921Y-180825531D01*
X172346445Y-180886007D01*
X172225493Y-180946483D01*
X171741683Y-180946483D01*
X171741683Y-179676483D01*
X172165017Y-179676483D01*
X172285969Y-179736960D01*
X172346445Y-179797436D01*
X172406921Y-179918388D01*
X172406921Y-180039340D01*
X172346445Y-180160293D01*
X172285969Y-180220769D01*
X172165017Y-180281245D01*
X171741683Y-180281245D01*
X173011683Y-179676483D02*
X173011683Y-180704579D01*
X173072160Y-180825531D01*
X173132636Y-180886007D01*
X173253588Y-180946483D01*
X173495493Y-180946483D01*
X173616445Y-180886007D01*
X173676921Y-180825531D01*
X173737398Y-180704579D01*
X173737398Y-179676483D01*
X174281683Y-180886007D02*
X174463112Y-180946483D01*
X174765493Y-180946483D01*
X174886445Y-180886007D01*
X174946921Y-180825531D01*
X175007398Y-180704579D01*
X175007398Y-180583626D01*
X174946921Y-180462674D01*
X174886445Y-180402198D01*
X174765493Y-180341721D01*
X174523588Y-180281245D01*
X174402636Y-180220769D01*
X174342160Y-180160293D01*
X174281683Y-180039340D01*
X174281683Y-179918388D01*
X174342160Y-179797436D01*
X174402636Y-179736960D01*
X174523588Y-179676483D01*
X174825969Y-179676483D01*
X175007398Y-179736960D01*
X175249302Y-181067436D02*
X176216921Y-181067436D01*
X176458826Y-180583626D02*
X177063588Y-180583626D01*
X176337874Y-180946483D02*
X176761207Y-179676483D01*
X177184540Y-180946483D01*
X178273112Y-180946483D02*
X177547398Y-180946483D01*
X177910255Y-180946483D02*
X177910255Y-179676483D01*
X177789302Y-179857912D01*
X177668350Y-179978864D01*
X177547398Y-180039340D01*
%TO.C,K18*%
X330159523Y-137422142D02*
X328889523Y-137422142D01*
X330159523Y-136696428D02*
X329433809Y-137240714D01*
X328889523Y-136696428D02*
X329615238Y-137422142D01*
X330159523Y-135486904D02*
X330159523Y-136212619D01*
X330159523Y-135849761D02*
X328889523Y-135849761D01*
X329070952Y-135970714D01*
X329191904Y-136091666D01*
X329252380Y-136212619D01*
X329433809Y-134761190D02*
X329373333Y-134882142D01*
X329312857Y-134942619D01*
X329191904Y-135003095D01*
X329131428Y-135003095D01*
X329010476Y-134942619D01*
X328950000Y-134882142D01*
X328889523Y-134761190D01*
X328889523Y-134519285D01*
X328950000Y-134398333D01*
X329010476Y-134337857D01*
X329131428Y-134277380D01*
X329191904Y-134277380D01*
X329312857Y-134337857D01*
X329373333Y-134398333D01*
X329433809Y-134519285D01*
X329433809Y-134761190D01*
X329494285Y-134882142D01*
X329554761Y-134942619D01*
X329675714Y-135003095D01*
X329917619Y-135003095D01*
X330038571Y-134942619D01*
X330099047Y-134882142D01*
X330159523Y-134761190D01*
X330159523Y-134519285D01*
X330099047Y-134398333D01*
X330038571Y-134337857D01*
X329917619Y-134277380D01*
X329675714Y-134277380D01*
X329554761Y-134337857D01*
X329494285Y-134398333D01*
X329433809Y-134519285D01*
%TO.C,K17*%
X330159523Y-154318808D02*
X328889523Y-154318808D01*
X330159523Y-153593094D02*
X329433809Y-154137380D01*
X328889523Y-153593094D02*
X329615238Y-154318808D01*
X330159523Y-152383570D02*
X330159523Y-153109285D01*
X330159523Y-152746427D02*
X328889523Y-152746427D01*
X329070952Y-152867380D01*
X329191904Y-152988332D01*
X329252380Y-153109285D01*
X328889523Y-151960237D02*
X328889523Y-151113570D01*
X330159523Y-151657856D01*
%TO.C,K16*%
X296059523Y-137422142D02*
X294789523Y-137422142D01*
X296059523Y-136696428D02*
X295333809Y-137240714D01*
X294789523Y-136696428D02*
X295515238Y-137422142D01*
X296059523Y-135486904D02*
X296059523Y-136212619D01*
X296059523Y-135849761D02*
X294789523Y-135849761D01*
X294970952Y-135970714D01*
X295091904Y-136091666D01*
X295152380Y-136212619D01*
X294789523Y-134398333D02*
X294789523Y-134640238D01*
X294850000Y-134761190D01*
X294910476Y-134821666D01*
X295091904Y-134942619D01*
X295333809Y-135003095D01*
X295817619Y-135003095D01*
X295938571Y-134942619D01*
X295999047Y-134882142D01*
X296059523Y-134761190D01*
X296059523Y-134519285D01*
X295999047Y-134398333D01*
X295938571Y-134337857D01*
X295817619Y-134277380D01*
X295515238Y-134277380D01*
X295394285Y-134337857D01*
X295333809Y-134398333D01*
X295273333Y-134519285D01*
X295273333Y-134761190D01*
X295333809Y-134882142D01*
X295394285Y-134942619D01*
X295515238Y-135003095D01*
%TO.C,K15*%
X296059523Y-154318808D02*
X294789523Y-154318808D01*
X296059523Y-153593094D02*
X295333809Y-154137380D01*
X294789523Y-153593094D02*
X295515238Y-154318808D01*
X296059523Y-152383570D02*
X296059523Y-153109285D01*
X296059523Y-152746427D02*
X294789523Y-152746427D01*
X294970952Y-152867380D01*
X295091904Y-152988332D01*
X295152380Y-153109285D01*
X294789523Y-151234523D02*
X294789523Y-151839285D01*
X295394285Y-151899761D01*
X295333809Y-151839285D01*
X295273333Y-151718332D01*
X295273333Y-151415951D01*
X295333809Y-151294999D01*
X295394285Y-151234523D01*
X295515238Y-151174046D01*
X295817619Y-151174046D01*
X295938571Y-151234523D01*
X295999047Y-151294999D01*
X296059523Y-151415951D01*
X296059523Y-151718332D01*
X295999047Y-151839285D01*
X295938571Y-151899761D01*
%TO.C,K14*%
X260889523Y-137422142D02*
X259619523Y-137422142D01*
X260889523Y-136696428D02*
X260163809Y-137240714D01*
X259619523Y-136696428D02*
X260345238Y-137422142D01*
X260889523Y-135486904D02*
X260889523Y-136212619D01*
X260889523Y-135849761D02*
X259619523Y-135849761D01*
X259800952Y-135970714D01*
X259921904Y-136091666D01*
X259982380Y-136212619D01*
X260042857Y-134398333D02*
X260889523Y-134398333D01*
X259559047Y-134700714D02*
X260466190Y-135003095D01*
X260466190Y-134216904D01*
%TO.C,K13*%
X260889523Y-154318808D02*
X259619523Y-154318808D01*
X260889523Y-153593094D02*
X260163809Y-154137380D01*
X259619523Y-153593094D02*
X260345238Y-154318808D01*
X260889523Y-152383570D02*
X260889523Y-153109285D01*
X260889523Y-152746427D02*
X259619523Y-152746427D01*
X259800952Y-152867380D01*
X259921904Y-152988332D01*
X259982380Y-153109285D01*
X259619523Y-151960237D02*
X259619523Y-151174046D01*
X260103333Y-151597380D01*
X260103333Y-151415951D01*
X260163809Y-151294999D01*
X260224285Y-151234523D01*
X260345238Y-151174046D01*
X260647619Y-151174046D01*
X260768571Y-151234523D01*
X260829047Y-151294999D01*
X260889523Y-151415951D01*
X260889523Y-151778808D01*
X260829047Y-151899761D01*
X260768571Y-151960237D01*
%TO.C,K12*%
X225889523Y-137422142D02*
X224619523Y-137422142D01*
X225889523Y-136696428D02*
X225163809Y-137240714D01*
X224619523Y-136696428D02*
X225345238Y-137422142D01*
X225889523Y-135486904D02*
X225889523Y-136212619D01*
X225889523Y-135849761D02*
X224619523Y-135849761D01*
X224800952Y-135970714D01*
X224921904Y-136091666D01*
X224982380Y-136212619D01*
X224740476Y-135003095D02*
X224680000Y-134942619D01*
X224619523Y-134821666D01*
X224619523Y-134519285D01*
X224680000Y-134398333D01*
X224740476Y-134337857D01*
X224861428Y-134277380D01*
X224982380Y-134277380D01*
X225163809Y-134337857D01*
X225889523Y-135063571D01*
X225889523Y-134277380D01*
%TO.C,K11*%
X225889523Y-154318808D02*
X224619523Y-154318808D01*
X225889523Y-153593094D02*
X225163809Y-154137380D01*
X224619523Y-153593094D02*
X225345238Y-154318808D01*
X225889523Y-152383570D02*
X225889523Y-153109285D01*
X225889523Y-152746427D02*
X224619523Y-152746427D01*
X224800952Y-152867380D01*
X224921904Y-152988332D01*
X224982380Y-153109285D01*
X225889523Y-151174046D02*
X225889523Y-151899761D01*
X225889523Y-151536904D02*
X224619523Y-151536904D01*
X224800952Y-151657856D01*
X224921904Y-151778808D01*
X224982380Y-151899761D01*
%TO.C,K10*%
X370949523Y-137422142D02*
X369679523Y-137422142D01*
X370949523Y-136696428D02*
X370223809Y-137240714D01*
X369679523Y-136696428D02*
X370405238Y-137422142D01*
X370949523Y-135486904D02*
X370949523Y-136212619D01*
X370949523Y-135849761D02*
X369679523Y-135849761D01*
X369860952Y-135970714D01*
X369981904Y-136091666D01*
X370042380Y-136212619D01*
X369679523Y-134700714D02*
X369679523Y-134579761D01*
X369740000Y-134458809D01*
X369800476Y-134398333D01*
X369921428Y-134337857D01*
X370163333Y-134277380D01*
X370465714Y-134277380D01*
X370707619Y-134337857D01*
X370828571Y-134398333D01*
X370889047Y-134458809D01*
X370949523Y-134579761D01*
X370949523Y-134700714D01*
X370889047Y-134821666D01*
X370828571Y-134882142D01*
X370707619Y-134942619D01*
X370465714Y-135003095D01*
X370163333Y-135003095D01*
X369921428Y-134942619D01*
X369800476Y-134882142D01*
X369740000Y-134821666D01*
X369679523Y-134700714D01*
%TO.C,K9*%
X136179523Y-136817380D02*
X134909523Y-136817380D01*
X136179523Y-136091666D02*
X135453809Y-136635952D01*
X134909523Y-136091666D02*
X135635238Y-136817380D01*
X136179523Y-135486904D02*
X136179523Y-135245000D01*
X136119047Y-135124047D01*
X136058571Y-135063571D01*
X135877142Y-134942619D01*
X135635238Y-134882142D01*
X135151428Y-134882142D01*
X135030476Y-134942619D01*
X134970000Y-135003095D01*
X134909523Y-135124047D01*
X134909523Y-135365952D01*
X134970000Y-135486904D01*
X135030476Y-135547380D01*
X135151428Y-135607857D01*
X135453809Y-135607857D01*
X135574761Y-135547380D01*
X135635238Y-135486904D01*
X135695714Y-135365952D01*
X135695714Y-135124047D01*
X135635238Y-135003095D01*
X135574761Y-134942619D01*
X135453809Y-134882142D01*
%TO.C,K8*%
X136179523Y-153714046D02*
X134909523Y-153714046D01*
X136179523Y-152988332D02*
X135453809Y-153532618D01*
X134909523Y-152988332D02*
X135635238Y-153714046D01*
X135453809Y-152262618D02*
X135393333Y-152383570D01*
X135332857Y-152444046D01*
X135211904Y-152504523D01*
X135151428Y-152504523D01*
X135030476Y-152444046D01*
X134970000Y-152383570D01*
X134909523Y-152262618D01*
X134909523Y-152020713D01*
X134970000Y-151899761D01*
X135030476Y-151839285D01*
X135151428Y-151778808D01*
X135211904Y-151778808D01*
X135332857Y-151839285D01*
X135393333Y-151899761D01*
X135453809Y-152020713D01*
X135453809Y-152262618D01*
X135514285Y-152383570D01*
X135574761Y-152444046D01*
X135695714Y-152504523D01*
X135937619Y-152504523D01*
X136058571Y-152444046D01*
X136119047Y-152383570D01*
X136179523Y-152262618D01*
X136179523Y-152020713D01*
X136119047Y-151899761D01*
X136058571Y-151839285D01*
X135937619Y-151778808D01*
X135695714Y-151778808D01*
X135574761Y-151839285D01*
X135514285Y-151899761D01*
X135453809Y-152020713D01*
%TO.C,K7*%
X101709523Y-136817380D02*
X100439523Y-136817380D01*
X101709523Y-136091666D02*
X100983809Y-136635952D01*
X100439523Y-136091666D02*
X101165238Y-136817380D01*
X100439523Y-135668333D02*
X100439523Y-134821666D01*
X101709523Y-135365952D01*
%TO.C,K6*%
X101709523Y-153714046D02*
X100439523Y-153714046D01*
X101709523Y-152988332D02*
X100983809Y-153532618D01*
X100439523Y-152988332D02*
X101165238Y-153714046D01*
X100439523Y-151899761D02*
X100439523Y-152141666D01*
X100500000Y-152262618D01*
X100560476Y-152323094D01*
X100741904Y-152444046D01*
X100983809Y-152504523D01*
X101467619Y-152504523D01*
X101588571Y-152444046D01*
X101649047Y-152383570D01*
X101709523Y-152262618D01*
X101709523Y-152020713D01*
X101649047Y-151899761D01*
X101588571Y-151839285D01*
X101467619Y-151778808D01*
X101165238Y-151778808D01*
X101044285Y-151839285D01*
X100983809Y-151899761D01*
X100923333Y-152020713D01*
X100923333Y-152262618D01*
X100983809Y-152383570D01*
X101044285Y-152444046D01*
X101165238Y-152504523D01*
%TO.C,K5*%
X176219523Y-136817380D02*
X174949523Y-136817380D01*
X176219523Y-136091666D02*
X175493809Y-136635952D01*
X174949523Y-136091666D02*
X175675238Y-136817380D01*
X174949523Y-134942619D02*
X174949523Y-135547380D01*
X175554285Y-135607857D01*
X175493809Y-135547380D01*
X175433333Y-135426428D01*
X175433333Y-135124047D01*
X175493809Y-135003095D01*
X175554285Y-134942619D01*
X175675238Y-134882142D01*
X175977619Y-134882142D01*
X176098571Y-134942619D01*
X176159047Y-135003095D01*
X176219523Y-135124047D01*
X176219523Y-135426428D01*
X176159047Y-135547380D01*
X176098571Y-135607857D01*
%TO.C,K4*%
X65349523Y-136817380D02*
X64079523Y-136817380D01*
X65349523Y-136091666D02*
X64623809Y-136635952D01*
X64079523Y-136091666D02*
X64805238Y-136817380D01*
X64502857Y-135003095D02*
X65349523Y-135003095D01*
X64019047Y-135305476D02*
X64926190Y-135607857D01*
X64926190Y-134821666D01*
%TO.C,K3*%
X65349523Y-153714046D02*
X64079523Y-153714046D01*
X65349523Y-152988332D02*
X64623809Y-153532618D01*
X64079523Y-152988332D02*
X64805238Y-153714046D01*
X64079523Y-152564999D02*
X64079523Y-151778808D01*
X64563333Y-152202142D01*
X64563333Y-152020713D01*
X64623809Y-151899761D01*
X64684285Y-151839285D01*
X64805238Y-151778808D01*
X65107619Y-151778808D01*
X65228571Y-151839285D01*
X65289047Y-151899761D01*
X65349523Y-152020713D01*
X65349523Y-152383570D01*
X65289047Y-152504523D01*
X65228571Y-152564999D01*
%TO.C,K1*%
X30649523Y-153714046D02*
X29379523Y-153714046D01*
X30649523Y-152988332D02*
X29923809Y-153532618D01*
X29379523Y-152988332D02*
X30105238Y-153714046D01*
X30649523Y-151778808D02*
X30649523Y-152504523D01*
X30649523Y-152141666D02*
X29379523Y-152141666D01*
X29560952Y-152262618D01*
X29681904Y-152383570D01*
X29742380Y-152504523D01*
%TD*%
M02*
