M48
; DRILL file {KiCad (5.1.9)-1} date 03/13/21 14:24:33
; FORMAT={-:-/ absolute / inch / decimal}
; #@! TF.CreationDate,2021-03-13T14:24:33+01:00
; #@! TF.GenerationSoftware,Kicad,Pcbnew,(5.1.9)-1
FMAT,2
INCH
T1C0.0157
T2C0.0315
T3C0.0354
T4C0.0400
T5C0.0472
T6C0.0709
T7C0.0906
T8C0.1120
%
G90
G05
T1
X0.6465Y-5.4028
X0.6465Y-6.0551
X0.6465Y-6.3776
X0.863Y-6.2154
X0.8673Y-5.5492
X1.237Y-4.6331
X1.5055Y-6.2142
X1.5091Y-5.5492
X1.976Y-5.387
X1.9764Y-4.7173
X1.9772Y-6.0563
X2.0228Y-6.3319
X2.0689Y-4.787
X2.0705Y-5.0748
X2.1843Y-5.0717
X2.185Y-4.8488
X2.2307Y-6.2138
X2.2315Y-5.55
X2.6012Y-4.6335
X2.8705Y-6.2134
X2.874Y-5.5472
X2.9276Y-4.9138
X2.9303Y-5.0791
X3.3909Y-4.7173
X3.3909Y-6.0429
X3.3913Y-5.3874
X3.3913Y-6.3752
X3.3984Y-4.5583
X3.4764Y-5.0866
X3.4772Y-4.787
X3.5697Y-4.8457
X3.5697Y-5.0835
X3.6598Y-5.5488
X3.6602Y-6.2138
X4.0323Y-4.6311
X4.2827Y-4.3689
X4.2862Y-4.7173
X4.302Y-6.215
X4.3035Y-5.548
X4.3272Y-4.9138
X4.3276Y-5.0795
X4.7307Y-4.6311
X4.7315Y-4.3748
X4.7413Y-6.3799
X4.7417Y-4.7173
X4.7433Y-5.3882
X4.7433Y-6.0469
X4.8835Y-5.0858
X4.885Y-4.7854
X4.974Y-5.0866
X4.9744Y-4.8457
X5.0146Y-6.2142
X5.015Y-5.5496
X5.3894Y-4.6311
X5.4756Y-4.4098
X5.4756Y-4.572
X5.6594Y-6.2161
X5.6618Y-5.55
X5.7374Y-4.9102
X5.7386Y-5.0917
X5.9331Y-4.5791
X6.2488Y-4.2043
X6.3114Y-4.7173
X6.3126Y-5.3965
X6.3126Y-6.0445
X6.3138Y-6.389
X6.4622Y-4.7843
X6.4622Y-5.0965
X6.5689Y-4.4146
X6.5693Y-5.3512
X6.5795Y-5.5496
X6.5937Y-6.213
X6.9724Y-4.6311
X7.2343Y-5.5496
X7.2358Y-6.2142
X7.2366Y-4.5791
X7.237Y-5.3492
X7.6665Y-4.2031
X7.6677Y-4.4368
X7.6681Y-6.6823
X8.1933Y-3.7252
X8.1941Y-3.7917
X8.2728Y-4.7173
X8.2732Y-5.9961
X8.2744Y-5.3677
X8.2744Y-6.3736
X8.3701Y-5.0906
X8.3705Y-4.7839
X8.4823Y-5.089
X8.4823Y-4.8441
X8.5378Y-6.2142
X8.5449Y-5.5484
X8.9201Y-4.6567
X9.1925Y-6.2134
X9.1953Y-5.5492
X9.2854Y-4.9071
X9.2858Y-5.089
X9.2945Y-4.1535
X9.3929Y-4.7173
X9.5945Y-4.4087
X9.6638Y-4.7173
X9.6657Y-5.3673
X9.6673Y-6.0177
X9.6705Y-6.3811
X9.7835Y-4.7827
X9.7839Y-5.0941
X9.8909Y-5.0953
X9.8909Y-4.8429
X9.9146Y-6.2154
X9.9244Y-5.5488
X10.3059Y-4.6567
X10.5681Y-6.2154
X10.5736Y-5.5488
X10.6701Y-5.087
X10.6705Y-4.9031
X11.0346Y-4.7173
X11.0358Y-5.3697
X11.0358Y-6.0299
X11.0441Y-6.3783
X11.1626Y-4.7803
X11.1638Y-5.0787
X11.2697Y-5.0811
X11.2701Y-4.8402
X11.311Y-5.5488
X11.3122Y-6.2142
X11.6795Y-4.6567
X11.9508Y-6.215
X11.9516Y-5.5496
X12.0374Y-5.0831
X12.0378Y-4.902
X12.3732Y-4.7173
X12.3736Y-5.352
X12.374Y-6.0004
X12.3748Y-6.3921
X12.4906Y-5.0823
X12.4917Y-4.7795
X12.5988Y-5.0988
X12.5992Y-4.8366
X12.6394Y-5.5496
X12.6445Y-6.2161
X13.0311Y-4.6567
X13.3071Y-6.2161
X13.3094Y-5.5496
X13.3953Y-5.0163
X13.3953Y-4.8996
X13.4878Y-4.4634
X13.785Y-4.41
X13.9476Y-4.4551
X13.9488Y-4.5953
X13.9504Y-4.7173
X13.9504Y-5.35
X13.9567Y-5.9764
X14.0366Y-3.7906
X14.0642Y-6.376
X14.1303Y-4.8346
X14.1303Y-4.9937
X14.198Y-4.5961
X14.1984Y-5.3488
X14.2425Y-5.5504
X14.2587Y-6.2126
X14.6335Y-4.6567
X14.9Y-5.5504
X14.9035Y-6.2157
X14.9118Y-5.3496
T2
X2.4992Y-3.9602
X2.4992Y-4.2602
X2.5992Y-3.9602
X2.5992Y-4.2602
X2.6992Y-3.9602
X2.6992Y-4.2602
X2.7992Y-3.9602
X2.7992Y-4.2602
X2.8992Y-3.9602
X2.8992Y-4.2602
X2.9992Y-3.9602
X2.9992Y-4.2602
X3.0992Y-3.9602
X3.0992Y-4.2602
X3.1992Y-3.9602
X3.1992Y-4.2602
X3.2992Y-3.9602
X3.2992Y-4.2602
X3.3992Y-3.9602
X3.3992Y-4.2602
X3.4992Y-3.9602
X3.4992Y-4.2602
X3.5992Y-3.9602
X3.5992Y-4.2602
X3.6992Y-3.9602
X3.6992Y-4.2602
X3.7992Y-3.9602
X3.7992Y-4.2602
X8.4945Y-3.9602
X8.4945Y-4.2602
X8.5945Y-3.9602
X8.5945Y-4.2602
X8.6945Y-3.9602
X8.6945Y-4.2602
X8.7945Y-3.9602
X8.7945Y-4.2602
X8.8945Y-3.9602
X8.8945Y-4.2602
X8.9945Y-3.9602
X8.9945Y-4.2602
X9.0945Y-3.9602
X9.0945Y-4.2602
X9.1945Y-3.9602
X9.1945Y-4.2602
X9.2945Y-3.9602
X9.2945Y-4.2602
X9.3945Y-3.9602
X9.3945Y-4.2602
X9.4945Y-3.9602
X9.4945Y-4.2602
X9.5945Y-3.9602
X9.5945Y-4.2602
X9.6945Y-3.9602
X9.6945Y-4.2602
X9.7945Y-3.9602
X9.7945Y-4.2602
X12.6878Y-3.9602
X12.6878Y-4.2602
X12.7878Y-3.9602
X12.7878Y-4.2602
X12.8878Y-3.9602
X12.8878Y-4.2602
X12.9878Y-3.9602
X12.9878Y-4.2602
X13.0878Y-3.9602
X13.0878Y-4.2602
X13.1878Y-3.9602
X13.1878Y-4.2602
X13.2878Y-3.9602
X13.2878Y-4.2602
X13.3878Y-3.9602
X13.3878Y-4.2602
X13.4878Y-3.9602
X13.4878Y-4.2602
X13.5878Y-3.9602
X13.5878Y-4.2602
X13.6878Y-3.9602
X13.6878Y-4.2602
X13.7878Y-3.9602
X13.7878Y-4.2602
X13.8878Y-3.9602
X13.8878Y-4.2602
X13.9878Y-3.9602
X13.9878Y-4.2602
T3
X0.7014Y-7.2742
X0.8014Y-7.2742
X0.9014Y-7.2742
X2.0793Y-7.2746
X2.1793Y-7.2746
X2.2793Y-7.2746
X3.4573Y-7.2746
X3.5573Y-7.2746
X3.6573Y-7.2746
X4.8352Y-7.2746
X4.9352Y-7.2746
X5.0352Y-7.2746
X6.41Y-7.2746
X6.51Y-7.2746
X6.61Y-7.2746
X8.3786Y-7.2746
X8.4786Y-7.2746
X8.5786Y-7.2746
X9.7565Y-7.2746
X9.8565Y-7.2746
X9.9565Y-7.2746
X11.1345Y-7.2746
X11.2345Y-7.2746
X11.3345Y-7.2746
X12.5124Y-7.2746
X12.6124Y-7.2746
X12.7124Y-7.2746
X14.0872Y-7.2746
X14.1872Y-7.2746
X14.2872Y-7.2746
T4
X5.8488Y-3.9232
X5.8488Y-4.0232
X5.9488Y-3.9232
X5.9488Y-4.0232
X6.0488Y-3.9232
X6.0488Y-4.0232
X6.1488Y-3.9232
X6.1488Y-4.0232
X6.2488Y-3.9232
X6.2488Y-4.0232
T5
X1.1766Y-6.4821
X2.5546Y-6.4821
X3.9325Y-6.4821
X5.3105Y-6.4821
X6.7265Y-6.6831
X6.8839Y-6.4862
X6.8839Y-6.6831
X7.0414Y-6.6831
X8.8538Y-6.4821
X10.2317Y-6.4821
X11.6097Y-6.4821
X12.9876Y-6.4821
X14.4036Y-6.6831
X14.5611Y-6.4862
X14.5611Y-6.6831
X14.7186Y-6.6831
T6
X1.0191Y-6.6821
X1.1766Y-6.6821
X1.3341Y-6.6821
X2.3971Y-6.6821
X2.5546Y-6.6821
X2.712Y-6.6821
X3.775Y-6.6821
X3.9325Y-6.6821
X4.09Y-6.6821
X5.153Y-6.6821
X5.3105Y-6.6821
X5.4679Y-6.6821
X8.6963Y-6.6821
X8.8538Y-6.6821
X9.0112Y-6.6821
X10.0742Y-6.6821
X10.2317Y-6.6821
X10.3892Y-6.6821
X11.4522Y-6.6821
X11.6097Y-6.6821
X11.7672Y-6.6821
X12.8301Y-6.6821
X12.9876Y-6.6821
X13.1451Y-6.6821
T7
X1.1766Y-6.879
X2.5546Y-6.879
X3.9325Y-6.879
X5.3105Y-6.879
X6.8839Y-6.8799
X8.8538Y-6.879
X10.2317Y-6.879
X11.6097Y-6.879
X12.9876Y-6.879
X14.5611Y-6.8799
T8
X5.4893Y-3.9732
X6.6083Y-3.9732
T0
M30
