%TF.GenerationSoftware,KiCad,Pcbnew,(5.1.9)-1*%
%TF.CreationDate,2021-03-13T11:26:25+01:00*%
%TF.ProjectId,Main_Relay_Board,4d61696e-5f52-4656-9c61-795f426f6172,rev?*%
%TF.SameCoordinates,Original*%
%TF.FileFunction,Profile,NP*%
%FSLAX46Y46*%
G04 Gerber Fmt 4.6, Leading zero omitted, Abs format (unit mm)*
G04 Created by KiCad (PCBNEW (5.1.9)-1) date 2021-03-13 11:26:25*
%MOMM*%
%LPD*%
G01*
G04 APERTURE LIST*
%TA.AperFunction,Profile*%
%ADD10C,0.010000*%
%TD*%
G04 APERTURE END LIST*
D10*
X296490000Y-174740000D02*
G75*
G03*
X296490000Y-174740000I-1500000J0D01*
G01*
X261490000Y-174740000D02*
G75*
G03*
X261490000Y-174740000I-1500000J0D01*
G01*
X226490000Y-174740000D02*
G75*
G03*
X226490000Y-174740000I-1500000J0D01*
G01*
X176490000Y-174740000D02*
G75*
G03*
X176490000Y-174740000I-1500000J0D01*
G01*
X136490000Y-174740000D02*
G75*
G03*
X136490000Y-174740000I-1500000J0D01*
G01*
X206990000Y-162240000D02*
G75*
G03*
X206990000Y-162240000I-2000000J0D01*
G01*
X22990000Y-96240000D02*
G75*
G03*
X22990000Y-96240000I-2000000J0D01*
G01*
X101490000Y-174740000D02*
G75*
G03*
X101490000Y-174740000I-1500000J0D01*
G01*
X66490000Y-174740000D02*
G75*
G03*
X66490000Y-174740000I-1500000J0D01*
G01*
X354990000Y-162240000D02*
G75*
G03*
X354990000Y-162240000I-2000000J0D01*
G01*
X31490000Y-174740000D02*
G75*
G03*
X31490000Y-174740000I-1500000J0D01*
G01*
X11990000Y-190240000D02*
X16990000Y-190240000D01*
X11990000Y-92240000D02*
X11990000Y-190240000D01*
X16990000Y-92240000D02*
X11990000Y-92240000D01*
X48990000Y-162240000D02*
G75*
G03*
X48990000Y-162240000I-2000000J0D01*
G01*
X206990000Y-116240000D02*
G75*
G03*
X206990000Y-116240000I-2000000J0D01*
G01*
X406990000Y-92240000D02*
X16990000Y-92240000D01*
X406990000Y-190240000D02*
X406990000Y-92240000D01*
X16990000Y-190240000D02*
X406990000Y-190240000D01*
X382990000Y-96240000D02*
G75*
G03*
X382990000Y-96240000I-2000000J0D01*
G01*
X371490000Y-174740000D02*
G75*
G03*
X371490000Y-174740000I-1500000J0D01*
G01*
X331490000Y-174740000D02*
G75*
G03*
X331490000Y-174740000I-1500000J0D01*
G01*
M02*
