%TF.GenerationSoftware,KiCad,Pcbnew,(5.1.9)-1*%
%TF.CreationDate,2021-03-13T14:24:32+01:00*%
%TF.ProjectId,Main_Relay_Board,4d61696e-5f52-4656-9c61-795f426f6172,rev?*%
%TF.SameCoordinates,Original*%
%TF.FileFunction,Legend,Bot*%
%TF.FilePolarity,Positive*%
%FSLAX46Y46*%
G04 Gerber Fmt 4.6, Leading zero omitted, Abs format (unit mm)*
G04 Created by KiCad (PCBNEW (5.1.9)-1) date 2021-03-13 14:24:32*
%MOMM*%
%LPD*%
G01*
G04 APERTURE LIST*
%ADD10C,0.152400*%
%ADD11C,0.120000*%
%ADD12C,0.100000*%
%ADD13C,0.150000*%
%ADD14C,0.254000*%
G04 APERTURE END LIST*
D10*
%TO.C,J2*%
X148941000Y-97745000D02*
G75*
G03*
X148941000Y-97745000I-381000J0D01*
G01*
D11*
%TO.C,R37*%
X116030000Y-141154564D02*
X116030000Y-139700436D01*
X117850000Y-141154564D02*
X117850000Y-139700436D01*
%TO.C,D1*%
X31930000Y-156900000D02*
X28030000Y-156900000D01*
X31930000Y-158900000D02*
X28030000Y-158900000D01*
X31930000Y-156900000D02*
X31930000Y-158900000D01*
D12*
%TO.C,LED1*%
X16155240Y-184764920D02*
X16155240Y-184764920D01*
X16155240Y-184664920D02*
X16155240Y-184664920D01*
X16155240Y-184664920D02*
G75*
G03*
X16155240Y-184764920I0J-50000D01*
G01*
X16155240Y-184764920D02*
G75*
G03*
X16155240Y-184664920I0J50000D01*
G01*
D11*
%TO.C,R43*%
X350160000Y-157144564D02*
X350160000Y-155690436D01*
X351980000Y-157144564D02*
X351980000Y-155690436D01*
%TO.C,R42*%
X155660000Y-158024564D02*
X155660000Y-156570436D01*
X157480000Y-158024564D02*
X157480000Y-156570436D01*
%TO.C,Q20*%
X360280000Y-156260000D02*
X358820000Y-156260000D01*
X360280000Y-159420000D02*
X358120000Y-159420000D01*
X360280000Y-159420000D02*
X360280000Y-158490000D01*
X360280000Y-156260000D02*
X360280000Y-157190000D01*
%TO.C,Q19*%
X165100000Y-156280000D02*
X163640000Y-156280000D01*
X165100000Y-159440000D02*
X162940000Y-159440000D01*
X165100000Y-159440000D02*
X165100000Y-158510000D01*
X165100000Y-156280000D02*
X165100000Y-157210000D01*
%TO.C,D20*%
X372350000Y-156880000D02*
X368450000Y-156880000D01*
X372350000Y-158880000D02*
X368450000Y-158880000D01*
X372350000Y-156880000D02*
X372350000Y-158880000D01*
%TO.C,D19*%
X177490000Y-156880000D02*
X173590000Y-156880000D01*
X177490000Y-158880000D02*
X173590000Y-158880000D01*
X177490000Y-156880000D02*
X177490000Y-158880000D01*
%TO.C,C20*%
X354220000Y-157116252D02*
X354220000Y-155693748D01*
X356040000Y-157116252D02*
X356040000Y-155693748D01*
%TO.C,C19*%
X159290000Y-158056252D02*
X159290000Y-156633748D01*
X161110000Y-158056252D02*
X161110000Y-156633748D01*
%TO.C,C7*%
X48940000Y-158031252D02*
X48940000Y-156608748D01*
X50760000Y-158031252D02*
X50760000Y-156608748D01*
%TO.C,R41*%
X349560000Y-141224564D02*
X349560000Y-139770436D01*
X351380000Y-141224564D02*
X351380000Y-139770436D01*
%TO.C,R40*%
X309960000Y-158114564D02*
X309960000Y-156660436D01*
X311780000Y-158114564D02*
X311780000Y-156660436D01*
%TO.C,R39*%
X115890000Y-158064564D02*
X115890000Y-156610436D01*
X117710000Y-158064564D02*
X117710000Y-156610436D01*
%TO.C,R38*%
X309640000Y-141154564D02*
X309640000Y-139700436D01*
X311460000Y-141154564D02*
X311460000Y-139700436D01*
%TO.C,R36*%
X155900000Y-141164564D02*
X155900000Y-139710436D01*
X157720000Y-141164564D02*
X157720000Y-139710436D01*
%TO.C,R35*%
X276110000Y-158114564D02*
X276110000Y-156660436D01*
X277930000Y-158114564D02*
X277930000Y-156660436D01*
%TO.C,R34*%
X81440000Y-158084564D02*
X81440000Y-156630436D01*
X83260000Y-158084564D02*
X83260000Y-156630436D01*
%TO.C,R33*%
X275750000Y-141164564D02*
X275750000Y-139710436D01*
X277570000Y-141164564D02*
X277570000Y-139710436D01*
%TO.C,R32*%
X81650000Y-141214564D02*
X81650000Y-139760436D01*
X83470000Y-141214564D02*
X83470000Y-139760436D01*
%TO.C,R31*%
X240440000Y-158084564D02*
X240440000Y-156630436D01*
X242260000Y-158084564D02*
X242260000Y-156630436D01*
%TO.C,R30*%
X45260000Y-158044564D02*
X45260000Y-156590436D01*
X47080000Y-158044564D02*
X47080000Y-156590436D01*
%TO.C,R29*%
X241000000Y-141194564D02*
X241000000Y-139740436D01*
X242820000Y-141194564D02*
X242820000Y-139740436D01*
%TO.C,R28*%
X45520000Y-141167064D02*
X45520000Y-139712936D01*
X47340000Y-141167064D02*
X47340000Y-139712936D01*
%TO.C,R27*%
X204810000Y-156674564D02*
X204810000Y-155220436D01*
X206630000Y-156674564D02*
X206630000Y-155220436D01*
%TO.C,R26*%
X13130000Y-158077064D02*
X13130000Y-156622936D01*
X14950000Y-158077064D02*
X14950000Y-156622936D01*
%TO.C,R25*%
X205600000Y-141284564D02*
X205600000Y-139830436D01*
X207420000Y-141284564D02*
X207420000Y-139830436D01*
%TO.C,R24*%
X17270000Y-144965436D02*
X17270000Y-146419564D01*
X15450000Y-144965436D02*
X15450000Y-146419564D01*
%TO.C,R23*%
X363760000Y-178702936D02*
X363760000Y-180157064D01*
X361940000Y-178702936D02*
X361940000Y-180157064D01*
%TO.C,R22*%
X168830000Y-178792936D02*
X168830000Y-180247064D01*
X167010000Y-178792936D02*
X167010000Y-180247064D01*
%TO.C,R21*%
X356880000Y-180247064D02*
X356880000Y-178792936D01*
X358700000Y-180247064D02*
X358700000Y-178792936D01*
%TO.C,R20*%
X161930000Y-180047064D02*
X161930000Y-178592936D01*
X163750000Y-180047064D02*
X163750000Y-178592936D01*
%TO.C,R17*%
X21970000Y-180117064D02*
X21970000Y-178662936D01*
X23790000Y-180117064D02*
X23790000Y-178662936D01*
%TO.C,R16*%
X251990000Y-180217064D02*
X251990000Y-178762936D01*
X253810000Y-180217064D02*
X253810000Y-178762936D01*
%TO.C,R15*%
X91960000Y-180157064D02*
X91960000Y-178702936D01*
X93780000Y-180157064D02*
X93780000Y-178702936D01*
%TO.C,R14*%
X86940000Y-180157064D02*
X86940000Y-178702936D01*
X88760000Y-180157064D02*
X88760000Y-178702936D01*
%TO.C,R13*%
X56950000Y-180217064D02*
X56950000Y-178762936D01*
X58770000Y-180217064D02*
X58770000Y-178762936D01*
%TO.C,R12*%
X216960000Y-180117064D02*
X216960000Y-178662936D01*
X218780000Y-180117064D02*
X218780000Y-178662936D01*
%TO.C,R11*%
X126980000Y-180027064D02*
X126980000Y-178572936D01*
X128800000Y-180027064D02*
X128800000Y-178572936D01*
%TO.C,R10*%
X322010000Y-180207064D02*
X322010000Y-178752936D01*
X323830000Y-180207064D02*
X323830000Y-178752936D01*
%TO.C,R9*%
X51900000Y-180167064D02*
X51900000Y-178712936D01*
X53720000Y-180167064D02*
X53720000Y-178712936D01*
%TO.C,R8*%
X16880000Y-180147064D02*
X16880000Y-178692936D01*
X18700000Y-180147064D02*
X18700000Y-178692936D01*
%TO.C,R7*%
X286940000Y-180187064D02*
X286940000Y-178732936D01*
X288760000Y-180187064D02*
X288760000Y-178732936D01*
%TO.C,R6*%
X246860000Y-179987064D02*
X246860000Y-178532936D01*
X248680000Y-179987064D02*
X248680000Y-178532936D01*
%TO.C,R5*%
X211900000Y-180127064D02*
X211900000Y-178672936D01*
X213720000Y-180127064D02*
X213720000Y-178672936D01*
%TO.C,R4*%
X121870000Y-180107064D02*
X121870000Y-178652936D01*
X123690000Y-180107064D02*
X123690000Y-178652936D01*
%TO.C,R3*%
X316890000Y-180177064D02*
X316890000Y-178722936D01*
X318710000Y-180177064D02*
X318710000Y-178722936D01*
%TO.C,R2*%
X281910000Y-180157064D02*
X281910000Y-178702936D01*
X283730000Y-180157064D02*
X283730000Y-178702936D01*
%TO.C,Q18*%
X359480000Y-139400000D02*
X358020000Y-139400000D01*
X359480000Y-142560000D02*
X357320000Y-142560000D01*
X359480000Y-142560000D02*
X359480000Y-141630000D01*
X359480000Y-139400000D02*
X359480000Y-140330000D01*
%TO.C,Q17*%
X319370000Y-156330000D02*
X317910000Y-156330000D01*
X319370000Y-159490000D02*
X317210000Y-159490000D01*
X319370000Y-159490000D02*
X319370000Y-158560000D01*
X319370000Y-156330000D02*
X319370000Y-157260000D01*
%TO.C,Q16*%
X125510000Y-156290000D02*
X124050000Y-156290000D01*
X125510000Y-159450000D02*
X123350000Y-159450000D01*
X125510000Y-159450000D02*
X125510000Y-158520000D01*
X125510000Y-156290000D02*
X125510000Y-157220000D01*
%TO.C,Q15*%
X319200000Y-139370000D02*
X317740000Y-139370000D01*
X319200000Y-142530000D02*
X317040000Y-142530000D01*
X319200000Y-142530000D02*
X319200000Y-141600000D01*
X319200000Y-139370000D02*
X319200000Y-140300000D01*
%TO.C,Q14*%
X125330000Y-139390000D02*
X123870000Y-139390000D01*
X125330000Y-142550000D02*
X123170000Y-142550000D01*
X125330000Y-142550000D02*
X125330000Y-141620000D01*
X125330000Y-139390000D02*
X125330000Y-140320000D01*
%TO.C,Q13*%
X165290000Y-139390000D02*
X163830000Y-139390000D01*
X165290000Y-142550000D02*
X163130000Y-142550000D01*
X165290000Y-142550000D02*
X165290000Y-141620000D01*
X165290000Y-139390000D02*
X165290000Y-140320000D01*
%TO.C,Q12*%
X285570000Y-156280000D02*
X284110000Y-156280000D01*
X285570000Y-159440000D02*
X283410000Y-159440000D01*
X285570000Y-159440000D02*
X285570000Y-158510000D01*
X285570000Y-156280000D02*
X285570000Y-157210000D01*
%TO.C,Q11*%
X90890000Y-156310000D02*
X89430000Y-156310000D01*
X90890000Y-159470000D02*
X88730000Y-159470000D01*
X90890000Y-159470000D02*
X90890000Y-158540000D01*
X90890000Y-156310000D02*
X90890000Y-157240000D01*
%TO.C,Q10*%
X285280000Y-139420000D02*
X283820000Y-139420000D01*
X285280000Y-142580000D02*
X283120000Y-142580000D01*
X285280000Y-142580000D02*
X285280000Y-141650000D01*
X285280000Y-139420000D02*
X285280000Y-140350000D01*
%TO.C,Q9*%
X90970000Y-139380000D02*
X89510000Y-139380000D01*
X90970000Y-142540000D02*
X88810000Y-142540000D01*
X90970000Y-142540000D02*
X90970000Y-141610000D01*
X90970000Y-139380000D02*
X90970000Y-140310000D01*
%TO.C,Q8*%
X249920000Y-156260000D02*
X248460000Y-156260000D01*
X249920000Y-159420000D02*
X247760000Y-159420000D01*
X249920000Y-159420000D02*
X249920000Y-158490000D01*
X249920000Y-156260000D02*
X249920000Y-157190000D01*
%TO.C,Q7*%
X54810000Y-156260000D02*
X53350000Y-156260000D01*
X54810000Y-159420000D02*
X52650000Y-159420000D01*
X54810000Y-159420000D02*
X54810000Y-158490000D01*
X54810000Y-156260000D02*
X54810000Y-157190000D01*
%TO.C,Q6*%
X250400000Y-139380000D02*
X248940000Y-139380000D01*
X250400000Y-142540000D02*
X248240000Y-142540000D01*
X250400000Y-142540000D02*
X250400000Y-141610000D01*
X250400000Y-139380000D02*
X250400000Y-140310000D01*
%TO.C,Q5*%
X54840000Y-139400000D02*
X53380000Y-139400000D01*
X54840000Y-142560000D02*
X52680000Y-142560000D01*
X54840000Y-142560000D02*
X54840000Y-141630000D01*
X54840000Y-139400000D02*
X54840000Y-140330000D01*
%TO.C,Q4*%
X214910000Y-156290000D02*
X213450000Y-156290000D01*
X214910000Y-159450000D02*
X212750000Y-159450000D01*
X214910000Y-159450000D02*
X214910000Y-158520000D01*
X214910000Y-156290000D02*
X214910000Y-157220000D01*
%TO.C,Q3*%
X20110000Y-156290000D02*
X18650000Y-156290000D01*
X20110000Y-159450000D02*
X17950000Y-159450000D01*
X20110000Y-159450000D02*
X20110000Y-158520000D01*
X20110000Y-156290000D02*
X20110000Y-157220000D01*
%TO.C,Q2*%
X215160000Y-139410000D02*
X213700000Y-139410000D01*
X215160000Y-142570000D02*
X213000000Y-142570000D01*
X215160000Y-142570000D02*
X215160000Y-141640000D01*
X215160000Y-139410000D02*
X215160000Y-140340000D01*
%TO.C,Q1*%
X20180000Y-139380000D02*
X18720000Y-139380000D01*
X20180000Y-142540000D02*
X18020000Y-142540000D01*
X20180000Y-142540000D02*
X20180000Y-141610000D01*
X20180000Y-139380000D02*
X20180000Y-140310000D01*
%TO.C,D18*%
X372320000Y-139970000D02*
X368420000Y-139970000D01*
X372320000Y-141970000D02*
X368420000Y-141970000D01*
X372320000Y-139970000D02*
X372320000Y-141970000D01*
%TO.C,D17*%
X177620000Y-140010000D02*
X173720000Y-140010000D01*
X177620000Y-142010000D02*
X173720000Y-142010000D01*
X177620000Y-140010000D02*
X177620000Y-142010000D01*
%TO.C,D16*%
X331610000Y-139970000D02*
X327710000Y-139970000D01*
X331610000Y-141970000D02*
X327710000Y-141970000D01*
X331610000Y-139970000D02*
X331610000Y-141970000D01*
%TO.C,D15*%
X297370000Y-139970000D02*
X293470000Y-139970000D01*
X297370000Y-141970000D02*
X293470000Y-141970000D01*
X297370000Y-139970000D02*
X297370000Y-141970000D01*
%TO.C,D14*%
X262340000Y-139960000D02*
X258440000Y-139960000D01*
X262340000Y-141960000D02*
X258440000Y-141960000D01*
X262340000Y-139960000D02*
X262340000Y-141960000D01*
%TO.C,D13*%
X227210000Y-139960000D02*
X223310000Y-139960000D01*
X227210000Y-141960000D02*
X223310000Y-141960000D01*
X227210000Y-139960000D02*
X227210000Y-141960000D01*
%TO.C,D12*%
X137470000Y-139960000D02*
X133570000Y-139960000D01*
X137470000Y-141960000D02*
X133570000Y-141960000D01*
X137470000Y-139960000D02*
X137470000Y-141960000D01*
%TO.C,D11*%
X103020000Y-139920000D02*
X99120000Y-139920000D01*
X103020000Y-141920000D02*
X99120000Y-141920000D01*
X103020000Y-139920000D02*
X103020000Y-141920000D01*
%TO.C,D10*%
X66670000Y-139870000D02*
X62770000Y-139870000D01*
X66670000Y-141870000D02*
X62770000Y-141870000D01*
X66670000Y-139870000D02*
X66670000Y-141870000D01*
%TO.C,D9*%
X32010000Y-140000000D02*
X28110000Y-140000000D01*
X32010000Y-142000000D02*
X28110000Y-142000000D01*
X32010000Y-140000000D02*
X32010000Y-142000000D01*
%TO.C,D8*%
X331440000Y-156880000D02*
X327540000Y-156880000D01*
X331440000Y-158880000D02*
X327540000Y-158880000D01*
X331440000Y-156880000D02*
X331440000Y-158880000D01*
%TO.C,D7*%
X297520000Y-156820000D02*
X293620000Y-156820000D01*
X297520000Y-158820000D02*
X293620000Y-158820000D01*
X297520000Y-156820000D02*
X297520000Y-158820000D01*
%TO.C,D6*%
X262565000Y-156910000D02*
X258665000Y-156910000D01*
X262565000Y-158910000D02*
X258665000Y-158910000D01*
X262565000Y-156910000D02*
X262565000Y-158910000D01*
%TO.C,D5*%
X227150000Y-156840000D02*
X223250000Y-156840000D01*
X227150000Y-158840000D02*
X223250000Y-158840000D01*
X227150000Y-156840000D02*
X227150000Y-158840000D01*
%TO.C,D4*%
X137680000Y-156900000D02*
X133780000Y-156900000D01*
X137680000Y-158900000D02*
X133780000Y-158900000D01*
X137680000Y-156900000D02*
X137680000Y-158900000D01*
%TO.C,D3*%
X102950000Y-156910000D02*
X99050000Y-156910000D01*
X102950000Y-158910000D02*
X99050000Y-158910000D01*
X102950000Y-156910000D02*
X102950000Y-158910000D01*
%TO.C,D2*%
X66780000Y-156810000D02*
X62880000Y-156810000D01*
X66780000Y-158810000D02*
X62880000Y-158810000D01*
X66780000Y-156810000D02*
X66780000Y-158810000D01*
%TO.C,C18*%
X353420000Y-141166252D02*
X353420000Y-139743748D01*
X355240000Y-141166252D02*
X355240000Y-139743748D01*
%TO.C,C17*%
X313470000Y-158086252D02*
X313470000Y-156663748D01*
X315290000Y-158086252D02*
X315290000Y-156663748D01*
%TO.C,C16*%
X119570000Y-158066252D02*
X119570000Y-156643748D01*
X121390000Y-158066252D02*
X121390000Y-156643748D01*
%TO.C,C15*%
X313280000Y-141146252D02*
X313280000Y-139723748D01*
X315100000Y-141146252D02*
X315100000Y-139723748D01*
%TO.C,C14*%
X119540000Y-141156252D02*
X119540000Y-139733748D01*
X121360000Y-141156252D02*
X121360000Y-139733748D01*
%TO.C,C13*%
X159470000Y-141186252D02*
X159470000Y-139763748D01*
X161290000Y-141186252D02*
X161290000Y-139763748D01*
%TO.C,C12*%
X279780000Y-158066252D02*
X279780000Y-156643748D01*
X281600000Y-158066252D02*
X281600000Y-156643748D01*
%TO.C,C11*%
X85050000Y-158076252D02*
X85050000Y-156653748D01*
X86870000Y-158076252D02*
X86870000Y-156653748D01*
%TO.C,C10*%
X279420000Y-141146252D02*
X279420000Y-139723748D01*
X281240000Y-141146252D02*
X281240000Y-139723748D01*
%TO.C,C9*%
X85210000Y-141216252D02*
X85210000Y-139793748D01*
X87030000Y-141216252D02*
X87030000Y-139793748D01*
%TO.C,C8*%
X244150000Y-158046252D02*
X244150000Y-156623748D01*
X245970000Y-158046252D02*
X245970000Y-156623748D01*
%TO.C,C6*%
X244580000Y-141166252D02*
X244580000Y-139743748D01*
X246400000Y-141166252D02*
X246400000Y-139743748D01*
%TO.C,C5*%
X49140000Y-141151252D02*
X49140000Y-139728748D01*
X50960000Y-141151252D02*
X50960000Y-139728748D01*
%TO.C,C4*%
X209080000Y-158066252D02*
X209080000Y-156643748D01*
X210900000Y-158066252D02*
X210900000Y-156643748D01*
%TO.C,C3*%
X15540000Y-158051252D02*
X15540000Y-156628748D01*
X17360000Y-158051252D02*
X17360000Y-156628748D01*
%TO.C,C2*%
X209290000Y-141236252D02*
X209290000Y-139813748D01*
X211110000Y-141236252D02*
X211110000Y-139813748D01*
%TO.C,C1*%
X15490000Y-141141252D02*
X15490000Y-139718748D01*
X17310000Y-141141252D02*
X17310000Y-139718748D01*
%TO.C,R37*%
D13*
X119212380Y-139784642D02*
X118736190Y-139451309D01*
X119212380Y-139213214D02*
X118212380Y-139213214D01*
X118212380Y-139594166D01*
X118260000Y-139689404D01*
X118307619Y-139737023D01*
X118402857Y-139784642D01*
X118545714Y-139784642D01*
X118640952Y-139737023D01*
X118688571Y-139689404D01*
X118736190Y-139594166D01*
X118736190Y-139213214D01*
X118212380Y-140117976D02*
X118212380Y-140737023D01*
X118593333Y-140403690D01*
X118593333Y-140546547D01*
X118640952Y-140641785D01*
X118688571Y-140689404D01*
X118783809Y-140737023D01*
X119021904Y-140737023D01*
X119117142Y-140689404D01*
X119164761Y-140641785D01*
X119212380Y-140546547D01*
X119212380Y-140260833D01*
X119164761Y-140165595D01*
X119117142Y-140117976D01*
X118212380Y-141070357D02*
X118212380Y-141737023D01*
X119212380Y-141308452D01*
%TO.C,D1*%
X30418095Y-156352380D02*
X30418095Y-155352380D01*
X30180000Y-155352380D01*
X30037142Y-155400000D01*
X29941904Y-155495238D01*
X29894285Y-155590476D01*
X29846666Y-155780952D01*
X29846666Y-155923809D01*
X29894285Y-156114285D01*
X29941904Y-156209523D01*
X30037142Y-156304761D01*
X30180000Y-156352380D01*
X30418095Y-156352380D01*
X28894285Y-156352380D02*
X29465714Y-156352380D01*
X29180000Y-156352380D02*
X29180000Y-155352380D01*
X29275238Y-155495238D01*
X29370476Y-155590476D01*
X29465714Y-155638095D01*
%TO.C,LED1*%
D14*
X21034750Y-189626963D02*
X21639512Y-189626963D01*
X21639512Y-188356963D01*
X20611417Y-188961725D02*
X20188083Y-188961725D01*
X20006655Y-189626963D02*
X20611417Y-189626963D01*
X20611417Y-188356963D01*
X20006655Y-188356963D01*
X19462369Y-189626963D02*
X19462369Y-188356963D01*
X19159988Y-188356963D01*
X18978560Y-188417440D01*
X18857607Y-188538392D01*
X18797131Y-188659344D01*
X18736655Y-188901249D01*
X18736655Y-189082678D01*
X18797131Y-189324582D01*
X18857607Y-189445535D01*
X18978560Y-189566487D01*
X19159988Y-189626963D01*
X19462369Y-189626963D01*
X17527131Y-189626963D02*
X18252845Y-189626963D01*
X17889988Y-189626963D02*
X17889988Y-188356963D01*
X18010940Y-188538392D01*
X18131893Y-188659344D01*
X18252845Y-188719820D01*
%TO.C,R43*%
D13*
X353342380Y-155774642D02*
X352866190Y-155441309D01*
X353342380Y-155203214D02*
X352342380Y-155203214D01*
X352342380Y-155584166D01*
X352390000Y-155679404D01*
X352437619Y-155727023D01*
X352532857Y-155774642D01*
X352675714Y-155774642D01*
X352770952Y-155727023D01*
X352818571Y-155679404D01*
X352866190Y-155584166D01*
X352866190Y-155203214D01*
X352675714Y-156631785D02*
X353342380Y-156631785D01*
X352294761Y-156393690D02*
X353009047Y-156155595D01*
X353009047Y-156774642D01*
X352342380Y-157060357D02*
X352342380Y-157679404D01*
X352723333Y-157346071D01*
X352723333Y-157488928D01*
X352770952Y-157584166D01*
X352818571Y-157631785D01*
X352913809Y-157679404D01*
X353151904Y-157679404D01*
X353247142Y-157631785D01*
X353294761Y-157584166D01*
X353342380Y-157488928D01*
X353342380Y-157203214D01*
X353294761Y-157107976D01*
X353247142Y-157060357D01*
%TO.C,R42*%
X158842380Y-156654642D02*
X158366190Y-156321309D01*
X158842380Y-156083214D02*
X157842380Y-156083214D01*
X157842380Y-156464166D01*
X157890000Y-156559404D01*
X157937619Y-156607023D01*
X158032857Y-156654642D01*
X158175714Y-156654642D01*
X158270952Y-156607023D01*
X158318571Y-156559404D01*
X158366190Y-156464166D01*
X158366190Y-156083214D01*
X158175714Y-157511785D02*
X158842380Y-157511785D01*
X157794761Y-157273690D02*
X158509047Y-157035595D01*
X158509047Y-157654642D01*
X157937619Y-157987976D02*
X157890000Y-158035595D01*
X157842380Y-158130833D01*
X157842380Y-158368928D01*
X157890000Y-158464166D01*
X157937619Y-158511785D01*
X158032857Y-158559404D01*
X158128095Y-158559404D01*
X158270952Y-158511785D01*
X158842380Y-157940357D01*
X158842380Y-158559404D01*
%TO.C,Q20*%
X360091428Y-160887619D02*
X360186666Y-160840000D01*
X360281904Y-160744761D01*
X360424761Y-160601904D01*
X360520000Y-160554285D01*
X360615238Y-160554285D01*
X360567619Y-160792380D02*
X360662857Y-160744761D01*
X360758095Y-160649523D01*
X360805714Y-160459047D01*
X360805714Y-160125714D01*
X360758095Y-159935238D01*
X360662857Y-159840000D01*
X360567619Y-159792380D01*
X360377142Y-159792380D01*
X360281904Y-159840000D01*
X360186666Y-159935238D01*
X360139047Y-160125714D01*
X360139047Y-160459047D01*
X360186666Y-160649523D01*
X360281904Y-160744761D01*
X360377142Y-160792380D01*
X360567619Y-160792380D01*
X359758095Y-159887619D02*
X359710476Y-159840000D01*
X359615238Y-159792380D01*
X359377142Y-159792380D01*
X359281904Y-159840000D01*
X359234285Y-159887619D01*
X359186666Y-159982857D01*
X359186666Y-160078095D01*
X359234285Y-160220952D01*
X359805714Y-160792380D01*
X359186666Y-160792380D01*
X358567619Y-159792380D02*
X358472380Y-159792380D01*
X358377142Y-159840000D01*
X358329523Y-159887619D01*
X358281904Y-159982857D01*
X358234285Y-160173333D01*
X358234285Y-160411428D01*
X358281904Y-160601904D01*
X358329523Y-160697142D01*
X358377142Y-160744761D01*
X358472380Y-160792380D01*
X358567619Y-160792380D01*
X358662857Y-160744761D01*
X358710476Y-160697142D01*
X358758095Y-160601904D01*
X358805714Y-160411428D01*
X358805714Y-160173333D01*
X358758095Y-159982857D01*
X358710476Y-159887619D01*
X358662857Y-159840000D01*
X358567619Y-159792380D01*
%TO.C,Q19*%
X164911428Y-160907619D02*
X165006666Y-160860000D01*
X165101904Y-160764761D01*
X165244761Y-160621904D01*
X165340000Y-160574285D01*
X165435238Y-160574285D01*
X165387619Y-160812380D02*
X165482857Y-160764761D01*
X165578095Y-160669523D01*
X165625714Y-160479047D01*
X165625714Y-160145714D01*
X165578095Y-159955238D01*
X165482857Y-159860000D01*
X165387619Y-159812380D01*
X165197142Y-159812380D01*
X165101904Y-159860000D01*
X165006666Y-159955238D01*
X164959047Y-160145714D01*
X164959047Y-160479047D01*
X165006666Y-160669523D01*
X165101904Y-160764761D01*
X165197142Y-160812380D01*
X165387619Y-160812380D01*
X164006666Y-160812380D02*
X164578095Y-160812380D01*
X164292380Y-160812380D02*
X164292380Y-159812380D01*
X164387619Y-159955238D01*
X164482857Y-160050476D01*
X164578095Y-160098095D01*
X163530476Y-160812380D02*
X163340000Y-160812380D01*
X163244761Y-160764761D01*
X163197142Y-160717142D01*
X163101904Y-160574285D01*
X163054285Y-160383809D01*
X163054285Y-160002857D01*
X163101904Y-159907619D01*
X163149523Y-159860000D01*
X163244761Y-159812380D01*
X163435238Y-159812380D01*
X163530476Y-159860000D01*
X163578095Y-159907619D01*
X163625714Y-160002857D01*
X163625714Y-160240952D01*
X163578095Y-160336190D01*
X163530476Y-160383809D01*
X163435238Y-160431428D01*
X163244761Y-160431428D01*
X163149523Y-160383809D01*
X163101904Y-160336190D01*
X163054285Y-160240952D01*
%TO.C,D20*%
X371314285Y-156332380D02*
X371314285Y-155332380D01*
X371076190Y-155332380D01*
X370933333Y-155380000D01*
X370838095Y-155475238D01*
X370790476Y-155570476D01*
X370742857Y-155760952D01*
X370742857Y-155903809D01*
X370790476Y-156094285D01*
X370838095Y-156189523D01*
X370933333Y-156284761D01*
X371076190Y-156332380D01*
X371314285Y-156332380D01*
X370361904Y-155427619D02*
X370314285Y-155380000D01*
X370219047Y-155332380D01*
X369980952Y-155332380D01*
X369885714Y-155380000D01*
X369838095Y-155427619D01*
X369790476Y-155522857D01*
X369790476Y-155618095D01*
X369838095Y-155760952D01*
X370409523Y-156332380D01*
X369790476Y-156332380D01*
X369171428Y-155332380D02*
X369076190Y-155332380D01*
X368980952Y-155380000D01*
X368933333Y-155427619D01*
X368885714Y-155522857D01*
X368838095Y-155713333D01*
X368838095Y-155951428D01*
X368885714Y-156141904D01*
X368933333Y-156237142D01*
X368980952Y-156284761D01*
X369076190Y-156332380D01*
X369171428Y-156332380D01*
X369266666Y-156284761D01*
X369314285Y-156237142D01*
X369361904Y-156141904D01*
X369409523Y-155951428D01*
X369409523Y-155713333D01*
X369361904Y-155522857D01*
X369314285Y-155427619D01*
X369266666Y-155380000D01*
X369171428Y-155332380D01*
%TO.C,D19*%
X176454285Y-156332380D02*
X176454285Y-155332380D01*
X176216190Y-155332380D01*
X176073333Y-155380000D01*
X175978095Y-155475238D01*
X175930476Y-155570476D01*
X175882857Y-155760952D01*
X175882857Y-155903809D01*
X175930476Y-156094285D01*
X175978095Y-156189523D01*
X176073333Y-156284761D01*
X176216190Y-156332380D01*
X176454285Y-156332380D01*
X174930476Y-156332380D02*
X175501904Y-156332380D01*
X175216190Y-156332380D02*
X175216190Y-155332380D01*
X175311428Y-155475238D01*
X175406666Y-155570476D01*
X175501904Y-155618095D01*
X174454285Y-156332380D02*
X174263809Y-156332380D01*
X174168571Y-156284761D01*
X174120952Y-156237142D01*
X174025714Y-156094285D01*
X173978095Y-155903809D01*
X173978095Y-155522857D01*
X174025714Y-155427619D01*
X174073333Y-155380000D01*
X174168571Y-155332380D01*
X174359047Y-155332380D01*
X174454285Y-155380000D01*
X174501904Y-155427619D01*
X174549523Y-155522857D01*
X174549523Y-155760952D01*
X174501904Y-155856190D01*
X174454285Y-155903809D01*
X174359047Y-155951428D01*
X174168571Y-155951428D01*
X174073333Y-155903809D01*
X174025714Y-155856190D01*
X173978095Y-155760952D01*
%TO.C,C20*%
X357337142Y-155762142D02*
X357384761Y-155714523D01*
X357432380Y-155571666D01*
X357432380Y-155476428D01*
X357384761Y-155333571D01*
X357289523Y-155238333D01*
X357194285Y-155190714D01*
X357003809Y-155143095D01*
X356860952Y-155143095D01*
X356670476Y-155190714D01*
X356575238Y-155238333D01*
X356480000Y-155333571D01*
X356432380Y-155476428D01*
X356432380Y-155571666D01*
X356480000Y-155714523D01*
X356527619Y-155762142D01*
X356527619Y-156143095D02*
X356480000Y-156190714D01*
X356432380Y-156285952D01*
X356432380Y-156524047D01*
X356480000Y-156619285D01*
X356527619Y-156666904D01*
X356622857Y-156714523D01*
X356718095Y-156714523D01*
X356860952Y-156666904D01*
X357432380Y-156095476D01*
X357432380Y-156714523D01*
X356432380Y-157333571D02*
X356432380Y-157428809D01*
X356480000Y-157524047D01*
X356527619Y-157571666D01*
X356622857Y-157619285D01*
X356813333Y-157666904D01*
X357051428Y-157666904D01*
X357241904Y-157619285D01*
X357337142Y-157571666D01*
X357384761Y-157524047D01*
X357432380Y-157428809D01*
X357432380Y-157333571D01*
X357384761Y-157238333D01*
X357337142Y-157190714D01*
X357241904Y-157143095D01*
X357051428Y-157095476D01*
X356813333Y-157095476D01*
X356622857Y-157143095D01*
X356527619Y-157190714D01*
X356480000Y-157238333D01*
X356432380Y-157333571D01*
%TO.C,C19*%
X162407142Y-156702142D02*
X162454761Y-156654523D01*
X162502380Y-156511666D01*
X162502380Y-156416428D01*
X162454761Y-156273571D01*
X162359523Y-156178333D01*
X162264285Y-156130714D01*
X162073809Y-156083095D01*
X161930952Y-156083095D01*
X161740476Y-156130714D01*
X161645238Y-156178333D01*
X161550000Y-156273571D01*
X161502380Y-156416428D01*
X161502380Y-156511666D01*
X161550000Y-156654523D01*
X161597619Y-156702142D01*
X162502380Y-157654523D02*
X162502380Y-157083095D01*
X162502380Y-157368809D02*
X161502380Y-157368809D01*
X161645238Y-157273571D01*
X161740476Y-157178333D01*
X161788095Y-157083095D01*
X162502380Y-158130714D02*
X162502380Y-158321190D01*
X162454761Y-158416428D01*
X162407142Y-158464047D01*
X162264285Y-158559285D01*
X162073809Y-158606904D01*
X161692857Y-158606904D01*
X161597619Y-158559285D01*
X161550000Y-158511666D01*
X161502380Y-158416428D01*
X161502380Y-158225952D01*
X161550000Y-158130714D01*
X161597619Y-158083095D01*
X161692857Y-158035476D01*
X161930952Y-158035476D01*
X162026190Y-158083095D01*
X162073809Y-158130714D01*
X162121428Y-158225952D01*
X162121428Y-158416428D01*
X162073809Y-158511666D01*
X162026190Y-158559285D01*
X161930952Y-158606904D01*
%TO.C,C7*%
X52057142Y-157153333D02*
X52104761Y-157105714D01*
X52152380Y-156962857D01*
X52152380Y-156867619D01*
X52104761Y-156724761D01*
X52009523Y-156629523D01*
X51914285Y-156581904D01*
X51723809Y-156534285D01*
X51580952Y-156534285D01*
X51390476Y-156581904D01*
X51295238Y-156629523D01*
X51200000Y-156724761D01*
X51152380Y-156867619D01*
X51152380Y-156962857D01*
X51200000Y-157105714D01*
X51247619Y-157153333D01*
X51152380Y-157486666D02*
X51152380Y-158153333D01*
X52152380Y-157724761D01*
%TO.C,R41*%
X352742380Y-139854642D02*
X352266190Y-139521309D01*
X352742380Y-139283214D02*
X351742380Y-139283214D01*
X351742380Y-139664166D01*
X351790000Y-139759404D01*
X351837619Y-139807023D01*
X351932857Y-139854642D01*
X352075714Y-139854642D01*
X352170952Y-139807023D01*
X352218571Y-139759404D01*
X352266190Y-139664166D01*
X352266190Y-139283214D01*
X352075714Y-140711785D02*
X352742380Y-140711785D01*
X351694761Y-140473690D02*
X352409047Y-140235595D01*
X352409047Y-140854642D01*
X352742380Y-141759404D02*
X352742380Y-141187976D01*
X352742380Y-141473690D02*
X351742380Y-141473690D01*
X351885238Y-141378452D01*
X351980476Y-141283214D01*
X352028095Y-141187976D01*
%TO.C,R40*%
X313142380Y-156744642D02*
X312666190Y-156411309D01*
X313142380Y-156173214D02*
X312142380Y-156173214D01*
X312142380Y-156554166D01*
X312190000Y-156649404D01*
X312237619Y-156697023D01*
X312332857Y-156744642D01*
X312475714Y-156744642D01*
X312570952Y-156697023D01*
X312618571Y-156649404D01*
X312666190Y-156554166D01*
X312666190Y-156173214D01*
X312475714Y-157601785D02*
X313142380Y-157601785D01*
X312094761Y-157363690D02*
X312809047Y-157125595D01*
X312809047Y-157744642D01*
X312142380Y-158316071D02*
X312142380Y-158411309D01*
X312190000Y-158506547D01*
X312237619Y-158554166D01*
X312332857Y-158601785D01*
X312523333Y-158649404D01*
X312761428Y-158649404D01*
X312951904Y-158601785D01*
X313047142Y-158554166D01*
X313094761Y-158506547D01*
X313142380Y-158411309D01*
X313142380Y-158316071D01*
X313094761Y-158220833D01*
X313047142Y-158173214D01*
X312951904Y-158125595D01*
X312761428Y-158077976D01*
X312523333Y-158077976D01*
X312332857Y-158125595D01*
X312237619Y-158173214D01*
X312190000Y-158220833D01*
X312142380Y-158316071D01*
%TO.C,R39*%
X119072380Y-156694642D02*
X118596190Y-156361309D01*
X119072380Y-156123214D02*
X118072380Y-156123214D01*
X118072380Y-156504166D01*
X118120000Y-156599404D01*
X118167619Y-156647023D01*
X118262857Y-156694642D01*
X118405714Y-156694642D01*
X118500952Y-156647023D01*
X118548571Y-156599404D01*
X118596190Y-156504166D01*
X118596190Y-156123214D01*
X118072380Y-157027976D02*
X118072380Y-157647023D01*
X118453333Y-157313690D01*
X118453333Y-157456547D01*
X118500952Y-157551785D01*
X118548571Y-157599404D01*
X118643809Y-157647023D01*
X118881904Y-157647023D01*
X118977142Y-157599404D01*
X119024761Y-157551785D01*
X119072380Y-157456547D01*
X119072380Y-157170833D01*
X119024761Y-157075595D01*
X118977142Y-157027976D01*
X119072380Y-158123214D02*
X119072380Y-158313690D01*
X119024761Y-158408928D01*
X118977142Y-158456547D01*
X118834285Y-158551785D01*
X118643809Y-158599404D01*
X118262857Y-158599404D01*
X118167619Y-158551785D01*
X118120000Y-158504166D01*
X118072380Y-158408928D01*
X118072380Y-158218452D01*
X118120000Y-158123214D01*
X118167619Y-158075595D01*
X118262857Y-158027976D01*
X118500952Y-158027976D01*
X118596190Y-158075595D01*
X118643809Y-158123214D01*
X118691428Y-158218452D01*
X118691428Y-158408928D01*
X118643809Y-158504166D01*
X118596190Y-158551785D01*
X118500952Y-158599404D01*
%TO.C,R38*%
X312822380Y-139784642D02*
X312346190Y-139451309D01*
X312822380Y-139213214D02*
X311822380Y-139213214D01*
X311822380Y-139594166D01*
X311870000Y-139689404D01*
X311917619Y-139737023D01*
X312012857Y-139784642D01*
X312155714Y-139784642D01*
X312250952Y-139737023D01*
X312298571Y-139689404D01*
X312346190Y-139594166D01*
X312346190Y-139213214D01*
X311822380Y-140117976D02*
X311822380Y-140737023D01*
X312203333Y-140403690D01*
X312203333Y-140546547D01*
X312250952Y-140641785D01*
X312298571Y-140689404D01*
X312393809Y-140737023D01*
X312631904Y-140737023D01*
X312727142Y-140689404D01*
X312774761Y-140641785D01*
X312822380Y-140546547D01*
X312822380Y-140260833D01*
X312774761Y-140165595D01*
X312727142Y-140117976D01*
X312250952Y-141308452D02*
X312203333Y-141213214D01*
X312155714Y-141165595D01*
X312060476Y-141117976D01*
X312012857Y-141117976D01*
X311917619Y-141165595D01*
X311870000Y-141213214D01*
X311822380Y-141308452D01*
X311822380Y-141498928D01*
X311870000Y-141594166D01*
X311917619Y-141641785D01*
X312012857Y-141689404D01*
X312060476Y-141689404D01*
X312155714Y-141641785D01*
X312203333Y-141594166D01*
X312250952Y-141498928D01*
X312250952Y-141308452D01*
X312298571Y-141213214D01*
X312346190Y-141165595D01*
X312441428Y-141117976D01*
X312631904Y-141117976D01*
X312727142Y-141165595D01*
X312774761Y-141213214D01*
X312822380Y-141308452D01*
X312822380Y-141498928D01*
X312774761Y-141594166D01*
X312727142Y-141641785D01*
X312631904Y-141689404D01*
X312441428Y-141689404D01*
X312346190Y-141641785D01*
X312298571Y-141594166D01*
X312250952Y-141498928D01*
%TO.C,R36*%
X159082380Y-139794642D02*
X158606190Y-139461309D01*
X159082380Y-139223214D02*
X158082380Y-139223214D01*
X158082380Y-139604166D01*
X158130000Y-139699404D01*
X158177619Y-139747023D01*
X158272857Y-139794642D01*
X158415714Y-139794642D01*
X158510952Y-139747023D01*
X158558571Y-139699404D01*
X158606190Y-139604166D01*
X158606190Y-139223214D01*
X158082380Y-140127976D02*
X158082380Y-140747023D01*
X158463333Y-140413690D01*
X158463333Y-140556547D01*
X158510952Y-140651785D01*
X158558571Y-140699404D01*
X158653809Y-140747023D01*
X158891904Y-140747023D01*
X158987142Y-140699404D01*
X159034761Y-140651785D01*
X159082380Y-140556547D01*
X159082380Y-140270833D01*
X159034761Y-140175595D01*
X158987142Y-140127976D01*
X158082380Y-141604166D02*
X158082380Y-141413690D01*
X158130000Y-141318452D01*
X158177619Y-141270833D01*
X158320476Y-141175595D01*
X158510952Y-141127976D01*
X158891904Y-141127976D01*
X158987142Y-141175595D01*
X159034761Y-141223214D01*
X159082380Y-141318452D01*
X159082380Y-141508928D01*
X159034761Y-141604166D01*
X158987142Y-141651785D01*
X158891904Y-141699404D01*
X158653809Y-141699404D01*
X158558571Y-141651785D01*
X158510952Y-141604166D01*
X158463333Y-141508928D01*
X158463333Y-141318452D01*
X158510952Y-141223214D01*
X158558571Y-141175595D01*
X158653809Y-141127976D01*
%TO.C,R35*%
X279292380Y-156744642D02*
X278816190Y-156411309D01*
X279292380Y-156173214D02*
X278292380Y-156173214D01*
X278292380Y-156554166D01*
X278340000Y-156649404D01*
X278387619Y-156697023D01*
X278482857Y-156744642D01*
X278625714Y-156744642D01*
X278720952Y-156697023D01*
X278768571Y-156649404D01*
X278816190Y-156554166D01*
X278816190Y-156173214D01*
X278292380Y-157077976D02*
X278292380Y-157697023D01*
X278673333Y-157363690D01*
X278673333Y-157506547D01*
X278720952Y-157601785D01*
X278768571Y-157649404D01*
X278863809Y-157697023D01*
X279101904Y-157697023D01*
X279197142Y-157649404D01*
X279244761Y-157601785D01*
X279292380Y-157506547D01*
X279292380Y-157220833D01*
X279244761Y-157125595D01*
X279197142Y-157077976D01*
X278292380Y-158601785D02*
X278292380Y-158125595D01*
X278768571Y-158077976D01*
X278720952Y-158125595D01*
X278673333Y-158220833D01*
X278673333Y-158458928D01*
X278720952Y-158554166D01*
X278768571Y-158601785D01*
X278863809Y-158649404D01*
X279101904Y-158649404D01*
X279197142Y-158601785D01*
X279244761Y-158554166D01*
X279292380Y-158458928D01*
X279292380Y-158220833D01*
X279244761Y-158125595D01*
X279197142Y-158077976D01*
%TO.C,R34*%
X84622380Y-156714642D02*
X84146190Y-156381309D01*
X84622380Y-156143214D02*
X83622380Y-156143214D01*
X83622380Y-156524166D01*
X83670000Y-156619404D01*
X83717619Y-156667023D01*
X83812857Y-156714642D01*
X83955714Y-156714642D01*
X84050952Y-156667023D01*
X84098571Y-156619404D01*
X84146190Y-156524166D01*
X84146190Y-156143214D01*
X83622380Y-157047976D02*
X83622380Y-157667023D01*
X84003333Y-157333690D01*
X84003333Y-157476547D01*
X84050952Y-157571785D01*
X84098571Y-157619404D01*
X84193809Y-157667023D01*
X84431904Y-157667023D01*
X84527142Y-157619404D01*
X84574761Y-157571785D01*
X84622380Y-157476547D01*
X84622380Y-157190833D01*
X84574761Y-157095595D01*
X84527142Y-157047976D01*
X83955714Y-158524166D02*
X84622380Y-158524166D01*
X83574761Y-158286071D02*
X84289047Y-158047976D01*
X84289047Y-158667023D01*
%TO.C,R33*%
X278932380Y-139794642D02*
X278456190Y-139461309D01*
X278932380Y-139223214D02*
X277932380Y-139223214D01*
X277932380Y-139604166D01*
X277980000Y-139699404D01*
X278027619Y-139747023D01*
X278122857Y-139794642D01*
X278265714Y-139794642D01*
X278360952Y-139747023D01*
X278408571Y-139699404D01*
X278456190Y-139604166D01*
X278456190Y-139223214D01*
X277932380Y-140127976D02*
X277932380Y-140747023D01*
X278313333Y-140413690D01*
X278313333Y-140556547D01*
X278360952Y-140651785D01*
X278408571Y-140699404D01*
X278503809Y-140747023D01*
X278741904Y-140747023D01*
X278837142Y-140699404D01*
X278884761Y-140651785D01*
X278932380Y-140556547D01*
X278932380Y-140270833D01*
X278884761Y-140175595D01*
X278837142Y-140127976D01*
X277932380Y-141080357D02*
X277932380Y-141699404D01*
X278313333Y-141366071D01*
X278313333Y-141508928D01*
X278360952Y-141604166D01*
X278408571Y-141651785D01*
X278503809Y-141699404D01*
X278741904Y-141699404D01*
X278837142Y-141651785D01*
X278884761Y-141604166D01*
X278932380Y-141508928D01*
X278932380Y-141223214D01*
X278884761Y-141127976D01*
X278837142Y-141080357D01*
%TO.C,R32*%
X84832380Y-139844642D02*
X84356190Y-139511309D01*
X84832380Y-139273214D02*
X83832380Y-139273214D01*
X83832380Y-139654166D01*
X83880000Y-139749404D01*
X83927619Y-139797023D01*
X84022857Y-139844642D01*
X84165714Y-139844642D01*
X84260952Y-139797023D01*
X84308571Y-139749404D01*
X84356190Y-139654166D01*
X84356190Y-139273214D01*
X83832380Y-140177976D02*
X83832380Y-140797023D01*
X84213333Y-140463690D01*
X84213333Y-140606547D01*
X84260952Y-140701785D01*
X84308571Y-140749404D01*
X84403809Y-140797023D01*
X84641904Y-140797023D01*
X84737142Y-140749404D01*
X84784761Y-140701785D01*
X84832380Y-140606547D01*
X84832380Y-140320833D01*
X84784761Y-140225595D01*
X84737142Y-140177976D01*
X83927619Y-141177976D02*
X83880000Y-141225595D01*
X83832380Y-141320833D01*
X83832380Y-141558928D01*
X83880000Y-141654166D01*
X83927619Y-141701785D01*
X84022857Y-141749404D01*
X84118095Y-141749404D01*
X84260952Y-141701785D01*
X84832380Y-141130357D01*
X84832380Y-141749404D01*
%TO.C,R31*%
X243622380Y-156714642D02*
X243146190Y-156381309D01*
X243622380Y-156143214D02*
X242622380Y-156143214D01*
X242622380Y-156524166D01*
X242670000Y-156619404D01*
X242717619Y-156667023D01*
X242812857Y-156714642D01*
X242955714Y-156714642D01*
X243050952Y-156667023D01*
X243098571Y-156619404D01*
X243146190Y-156524166D01*
X243146190Y-156143214D01*
X242622380Y-157047976D02*
X242622380Y-157667023D01*
X243003333Y-157333690D01*
X243003333Y-157476547D01*
X243050952Y-157571785D01*
X243098571Y-157619404D01*
X243193809Y-157667023D01*
X243431904Y-157667023D01*
X243527142Y-157619404D01*
X243574761Y-157571785D01*
X243622380Y-157476547D01*
X243622380Y-157190833D01*
X243574761Y-157095595D01*
X243527142Y-157047976D01*
X243622380Y-158619404D02*
X243622380Y-158047976D01*
X243622380Y-158333690D02*
X242622380Y-158333690D01*
X242765238Y-158238452D01*
X242860476Y-158143214D01*
X242908095Y-158047976D01*
%TO.C,R30*%
X48442380Y-156674642D02*
X47966190Y-156341309D01*
X48442380Y-156103214D02*
X47442380Y-156103214D01*
X47442380Y-156484166D01*
X47490000Y-156579404D01*
X47537619Y-156627023D01*
X47632857Y-156674642D01*
X47775714Y-156674642D01*
X47870952Y-156627023D01*
X47918571Y-156579404D01*
X47966190Y-156484166D01*
X47966190Y-156103214D01*
X47442380Y-157007976D02*
X47442380Y-157627023D01*
X47823333Y-157293690D01*
X47823333Y-157436547D01*
X47870952Y-157531785D01*
X47918571Y-157579404D01*
X48013809Y-157627023D01*
X48251904Y-157627023D01*
X48347142Y-157579404D01*
X48394761Y-157531785D01*
X48442380Y-157436547D01*
X48442380Y-157150833D01*
X48394761Y-157055595D01*
X48347142Y-157007976D01*
X47442380Y-158246071D02*
X47442380Y-158341309D01*
X47490000Y-158436547D01*
X47537619Y-158484166D01*
X47632857Y-158531785D01*
X47823333Y-158579404D01*
X48061428Y-158579404D01*
X48251904Y-158531785D01*
X48347142Y-158484166D01*
X48394761Y-158436547D01*
X48442380Y-158341309D01*
X48442380Y-158246071D01*
X48394761Y-158150833D01*
X48347142Y-158103214D01*
X48251904Y-158055595D01*
X48061428Y-158007976D01*
X47823333Y-158007976D01*
X47632857Y-158055595D01*
X47537619Y-158103214D01*
X47490000Y-158150833D01*
X47442380Y-158246071D01*
%TO.C,R29*%
X244182380Y-139824642D02*
X243706190Y-139491309D01*
X244182380Y-139253214D02*
X243182380Y-139253214D01*
X243182380Y-139634166D01*
X243230000Y-139729404D01*
X243277619Y-139777023D01*
X243372857Y-139824642D01*
X243515714Y-139824642D01*
X243610952Y-139777023D01*
X243658571Y-139729404D01*
X243706190Y-139634166D01*
X243706190Y-139253214D01*
X243277619Y-140205595D02*
X243230000Y-140253214D01*
X243182380Y-140348452D01*
X243182380Y-140586547D01*
X243230000Y-140681785D01*
X243277619Y-140729404D01*
X243372857Y-140777023D01*
X243468095Y-140777023D01*
X243610952Y-140729404D01*
X244182380Y-140157976D01*
X244182380Y-140777023D01*
X244182380Y-141253214D02*
X244182380Y-141443690D01*
X244134761Y-141538928D01*
X244087142Y-141586547D01*
X243944285Y-141681785D01*
X243753809Y-141729404D01*
X243372857Y-141729404D01*
X243277619Y-141681785D01*
X243230000Y-141634166D01*
X243182380Y-141538928D01*
X243182380Y-141348452D01*
X243230000Y-141253214D01*
X243277619Y-141205595D01*
X243372857Y-141157976D01*
X243610952Y-141157976D01*
X243706190Y-141205595D01*
X243753809Y-141253214D01*
X243801428Y-141348452D01*
X243801428Y-141538928D01*
X243753809Y-141634166D01*
X243706190Y-141681785D01*
X243610952Y-141729404D01*
%TO.C,R28*%
X48702380Y-139797142D02*
X48226190Y-139463809D01*
X48702380Y-139225714D02*
X47702380Y-139225714D01*
X47702380Y-139606666D01*
X47750000Y-139701904D01*
X47797619Y-139749523D01*
X47892857Y-139797142D01*
X48035714Y-139797142D01*
X48130952Y-139749523D01*
X48178571Y-139701904D01*
X48226190Y-139606666D01*
X48226190Y-139225714D01*
X47797619Y-140178095D02*
X47750000Y-140225714D01*
X47702380Y-140320952D01*
X47702380Y-140559047D01*
X47750000Y-140654285D01*
X47797619Y-140701904D01*
X47892857Y-140749523D01*
X47988095Y-140749523D01*
X48130952Y-140701904D01*
X48702380Y-140130476D01*
X48702380Y-140749523D01*
X48130952Y-141320952D02*
X48083333Y-141225714D01*
X48035714Y-141178095D01*
X47940476Y-141130476D01*
X47892857Y-141130476D01*
X47797619Y-141178095D01*
X47750000Y-141225714D01*
X47702380Y-141320952D01*
X47702380Y-141511428D01*
X47750000Y-141606666D01*
X47797619Y-141654285D01*
X47892857Y-141701904D01*
X47940476Y-141701904D01*
X48035714Y-141654285D01*
X48083333Y-141606666D01*
X48130952Y-141511428D01*
X48130952Y-141320952D01*
X48178571Y-141225714D01*
X48226190Y-141178095D01*
X48321428Y-141130476D01*
X48511904Y-141130476D01*
X48607142Y-141178095D01*
X48654761Y-141225714D01*
X48702380Y-141320952D01*
X48702380Y-141511428D01*
X48654761Y-141606666D01*
X48607142Y-141654285D01*
X48511904Y-141701904D01*
X48321428Y-141701904D01*
X48226190Y-141654285D01*
X48178571Y-141606666D01*
X48130952Y-141511428D01*
%TO.C,R27*%
X207992380Y-155304642D02*
X207516190Y-154971309D01*
X207992380Y-154733214D02*
X206992380Y-154733214D01*
X206992380Y-155114166D01*
X207040000Y-155209404D01*
X207087619Y-155257023D01*
X207182857Y-155304642D01*
X207325714Y-155304642D01*
X207420952Y-155257023D01*
X207468571Y-155209404D01*
X207516190Y-155114166D01*
X207516190Y-154733214D01*
X207087619Y-155685595D02*
X207040000Y-155733214D01*
X206992380Y-155828452D01*
X206992380Y-156066547D01*
X207040000Y-156161785D01*
X207087619Y-156209404D01*
X207182857Y-156257023D01*
X207278095Y-156257023D01*
X207420952Y-156209404D01*
X207992380Y-155637976D01*
X207992380Y-156257023D01*
X206992380Y-156590357D02*
X206992380Y-157257023D01*
X207992380Y-156828452D01*
%TO.C,R26*%
X14592380Y-160497142D02*
X14116190Y-160163809D01*
X14592380Y-159925714D02*
X13592380Y-159925714D01*
X13592380Y-160306666D01*
X13640000Y-160401904D01*
X13687619Y-160449523D01*
X13782857Y-160497142D01*
X13925714Y-160497142D01*
X14020952Y-160449523D01*
X14068571Y-160401904D01*
X14116190Y-160306666D01*
X14116190Y-159925714D01*
X13687619Y-160878095D02*
X13640000Y-160925714D01*
X13592380Y-161020952D01*
X13592380Y-161259047D01*
X13640000Y-161354285D01*
X13687619Y-161401904D01*
X13782857Y-161449523D01*
X13878095Y-161449523D01*
X14020952Y-161401904D01*
X14592380Y-160830476D01*
X14592380Y-161449523D01*
X13592380Y-162306666D02*
X13592380Y-162116190D01*
X13640000Y-162020952D01*
X13687619Y-161973333D01*
X13830476Y-161878095D01*
X14020952Y-161830476D01*
X14401904Y-161830476D01*
X14497142Y-161878095D01*
X14544761Y-161925714D01*
X14592380Y-162020952D01*
X14592380Y-162211428D01*
X14544761Y-162306666D01*
X14497142Y-162354285D01*
X14401904Y-162401904D01*
X14163809Y-162401904D01*
X14068571Y-162354285D01*
X14020952Y-162306666D01*
X13973333Y-162211428D01*
X13973333Y-162020952D01*
X14020952Y-161925714D01*
X14068571Y-161878095D01*
X14163809Y-161830476D01*
%TO.C,R25*%
X208782380Y-139914642D02*
X208306190Y-139581309D01*
X208782380Y-139343214D02*
X207782380Y-139343214D01*
X207782380Y-139724166D01*
X207830000Y-139819404D01*
X207877619Y-139867023D01*
X207972857Y-139914642D01*
X208115714Y-139914642D01*
X208210952Y-139867023D01*
X208258571Y-139819404D01*
X208306190Y-139724166D01*
X208306190Y-139343214D01*
X207877619Y-140295595D02*
X207830000Y-140343214D01*
X207782380Y-140438452D01*
X207782380Y-140676547D01*
X207830000Y-140771785D01*
X207877619Y-140819404D01*
X207972857Y-140867023D01*
X208068095Y-140867023D01*
X208210952Y-140819404D01*
X208782380Y-140247976D01*
X208782380Y-140867023D01*
X207782380Y-141771785D02*
X207782380Y-141295595D01*
X208258571Y-141247976D01*
X208210952Y-141295595D01*
X208163333Y-141390833D01*
X208163333Y-141628928D01*
X208210952Y-141724166D01*
X208258571Y-141771785D01*
X208353809Y-141819404D01*
X208591904Y-141819404D01*
X208687142Y-141771785D01*
X208734761Y-141724166D01*
X208782380Y-141628928D01*
X208782380Y-141390833D01*
X208734761Y-141295595D01*
X208687142Y-141247976D01*
%TO.C,R24*%
X16652380Y-141289642D02*
X16176190Y-140956309D01*
X16652380Y-140718214D02*
X15652380Y-140718214D01*
X15652380Y-141099166D01*
X15700000Y-141194404D01*
X15747619Y-141242023D01*
X15842857Y-141289642D01*
X15985714Y-141289642D01*
X16080952Y-141242023D01*
X16128571Y-141194404D01*
X16176190Y-141099166D01*
X16176190Y-140718214D01*
X15747619Y-141670595D02*
X15700000Y-141718214D01*
X15652380Y-141813452D01*
X15652380Y-142051547D01*
X15700000Y-142146785D01*
X15747619Y-142194404D01*
X15842857Y-142242023D01*
X15938095Y-142242023D01*
X16080952Y-142194404D01*
X16652380Y-141622976D01*
X16652380Y-142242023D01*
X15985714Y-143099166D02*
X16652380Y-143099166D01*
X15604761Y-142861071D02*
X16319047Y-142622976D01*
X16319047Y-143242023D01*
%TO.C,R23*%
X361482380Y-178787142D02*
X361006190Y-178453809D01*
X361482380Y-178215714D02*
X360482380Y-178215714D01*
X360482380Y-178596666D01*
X360530000Y-178691904D01*
X360577619Y-178739523D01*
X360672857Y-178787142D01*
X360815714Y-178787142D01*
X360910952Y-178739523D01*
X360958571Y-178691904D01*
X361006190Y-178596666D01*
X361006190Y-178215714D01*
X360577619Y-179168095D02*
X360530000Y-179215714D01*
X360482380Y-179310952D01*
X360482380Y-179549047D01*
X360530000Y-179644285D01*
X360577619Y-179691904D01*
X360672857Y-179739523D01*
X360768095Y-179739523D01*
X360910952Y-179691904D01*
X361482380Y-179120476D01*
X361482380Y-179739523D01*
X360482380Y-180072857D02*
X360482380Y-180691904D01*
X360863333Y-180358571D01*
X360863333Y-180501428D01*
X360910952Y-180596666D01*
X360958571Y-180644285D01*
X361053809Y-180691904D01*
X361291904Y-180691904D01*
X361387142Y-180644285D01*
X361434761Y-180596666D01*
X361482380Y-180501428D01*
X361482380Y-180215714D01*
X361434761Y-180120476D01*
X361387142Y-180072857D01*
%TO.C,R22*%
X166552380Y-178877142D02*
X166076190Y-178543809D01*
X166552380Y-178305714D02*
X165552380Y-178305714D01*
X165552380Y-178686666D01*
X165600000Y-178781904D01*
X165647619Y-178829523D01*
X165742857Y-178877142D01*
X165885714Y-178877142D01*
X165980952Y-178829523D01*
X166028571Y-178781904D01*
X166076190Y-178686666D01*
X166076190Y-178305714D01*
X165647619Y-179258095D02*
X165600000Y-179305714D01*
X165552380Y-179400952D01*
X165552380Y-179639047D01*
X165600000Y-179734285D01*
X165647619Y-179781904D01*
X165742857Y-179829523D01*
X165838095Y-179829523D01*
X165980952Y-179781904D01*
X166552380Y-179210476D01*
X166552380Y-179829523D01*
X165647619Y-180210476D02*
X165600000Y-180258095D01*
X165552380Y-180353333D01*
X165552380Y-180591428D01*
X165600000Y-180686666D01*
X165647619Y-180734285D01*
X165742857Y-180781904D01*
X165838095Y-180781904D01*
X165980952Y-180734285D01*
X166552380Y-180162857D01*
X166552380Y-180781904D01*
%TO.C,R21*%
X360062380Y-178877142D02*
X359586190Y-178543809D01*
X360062380Y-178305714D02*
X359062380Y-178305714D01*
X359062380Y-178686666D01*
X359110000Y-178781904D01*
X359157619Y-178829523D01*
X359252857Y-178877142D01*
X359395714Y-178877142D01*
X359490952Y-178829523D01*
X359538571Y-178781904D01*
X359586190Y-178686666D01*
X359586190Y-178305714D01*
X359157619Y-179258095D02*
X359110000Y-179305714D01*
X359062380Y-179400952D01*
X359062380Y-179639047D01*
X359110000Y-179734285D01*
X359157619Y-179781904D01*
X359252857Y-179829523D01*
X359348095Y-179829523D01*
X359490952Y-179781904D01*
X360062380Y-179210476D01*
X360062380Y-179829523D01*
X360062380Y-180781904D02*
X360062380Y-180210476D01*
X360062380Y-180496190D02*
X359062380Y-180496190D01*
X359205238Y-180400952D01*
X359300476Y-180305714D01*
X359348095Y-180210476D01*
%TO.C,R20*%
X165112380Y-178677142D02*
X164636190Y-178343809D01*
X165112380Y-178105714D02*
X164112380Y-178105714D01*
X164112380Y-178486666D01*
X164160000Y-178581904D01*
X164207619Y-178629523D01*
X164302857Y-178677142D01*
X164445714Y-178677142D01*
X164540952Y-178629523D01*
X164588571Y-178581904D01*
X164636190Y-178486666D01*
X164636190Y-178105714D01*
X164207619Y-179058095D02*
X164160000Y-179105714D01*
X164112380Y-179200952D01*
X164112380Y-179439047D01*
X164160000Y-179534285D01*
X164207619Y-179581904D01*
X164302857Y-179629523D01*
X164398095Y-179629523D01*
X164540952Y-179581904D01*
X165112380Y-179010476D01*
X165112380Y-179629523D01*
X164112380Y-180248571D02*
X164112380Y-180343809D01*
X164160000Y-180439047D01*
X164207619Y-180486666D01*
X164302857Y-180534285D01*
X164493333Y-180581904D01*
X164731428Y-180581904D01*
X164921904Y-180534285D01*
X165017142Y-180486666D01*
X165064761Y-180439047D01*
X165112380Y-180343809D01*
X165112380Y-180248571D01*
X165064761Y-180153333D01*
X165017142Y-180105714D01*
X164921904Y-180058095D01*
X164731428Y-180010476D01*
X164493333Y-180010476D01*
X164302857Y-180058095D01*
X164207619Y-180105714D01*
X164160000Y-180153333D01*
X164112380Y-180248571D01*
%TO.C,R17*%
X25152380Y-178747142D02*
X24676190Y-178413809D01*
X25152380Y-178175714D02*
X24152380Y-178175714D01*
X24152380Y-178556666D01*
X24200000Y-178651904D01*
X24247619Y-178699523D01*
X24342857Y-178747142D01*
X24485714Y-178747142D01*
X24580952Y-178699523D01*
X24628571Y-178651904D01*
X24676190Y-178556666D01*
X24676190Y-178175714D01*
X25152380Y-179699523D02*
X25152380Y-179128095D01*
X25152380Y-179413809D02*
X24152380Y-179413809D01*
X24295238Y-179318571D01*
X24390476Y-179223333D01*
X24438095Y-179128095D01*
X24152380Y-180032857D02*
X24152380Y-180699523D01*
X25152380Y-180270952D01*
%TO.C,R16*%
X255172380Y-178847142D02*
X254696190Y-178513809D01*
X255172380Y-178275714D02*
X254172380Y-178275714D01*
X254172380Y-178656666D01*
X254220000Y-178751904D01*
X254267619Y-178799523D01*
X254362857Y-178847142D01*
X254505714Y-178847142D01*
X254600952Y-178799523D01*
X254648571Y-178751904D01*
X254696190Y-178656666D01*
X254696190Y-178275714D01*
X255172380Y-179799523D02*
X255172380Y-179228095D01*
X255172380Y-179513809D02*
X254172380Y-179513809D01*
X254315238Y-179418571D01*
X254410476Y-179323333D01*
X254458095Y-179228095D01*
X254172380Y-180656666D02*
X254172380Y-180466190D01*
X254220000Y-180370952D01*
X254267619Y-180323333D01*
X254410476Y-180228095D01*
X254600952Y-180180476D01*
X254981904Y-180180476D01*
X255077142Y-180228095D01*
X255124761Y-180275714D01*
X255172380Y-180370952D01*
X255172380Y-180561428D01*
X255124761Y-180656666D01*
X255077142Y-180704285D01*
X254981904Y-180751904D01*
X254743809Y-180751904D01*
X254648571Y-180704285D01*
X254600952Y-180656666D01*
X254553333Y-180561428D01*
X254553333Y-180370952D01*
X254600952Y-180275714D01*
X254648571Y-180228095D01*
X254743809Y-180180476D01*
%TO.C,R15*%
X95142380Y-178787142D02*
X94666190Y-178453809D01*
X95142380Y-178215714D02*
X94142380Y-178215714D01*
X94142380Y-178596666D01*
X94190000Y-178691904D01*
X94237619Y-178739523D01*
X94332857Y-178787142D01*
X94475714Y-178787142D01*
X94570952Y-178739523D01*
X94618571Y-178691904D01*
X94666190Y-178596666D01*
X94666190Y-178215714D01*
X95142380Y-179739523D02*
X95142380Y-179168095D01*
X95142380Y-179453809D02*
X94142380Y-179453809D01*
X94285238Y-179358571D01*
X94380476Y-179263333D01*
X94428095Y-179168095D01*
X94142380Y-180644285D02*
X94142380Y-180168095D01*
X94618571Y-180120476D01*
X94570952Y-180168095D01*
X94523333Y-180263333D01*
X94523333Y-180501428D01*
X94570952Y-180596666D01*
X94618571Y-180644285D01*
X94713809Y-180691904D01*
X94951904Y-180691904D01*
X95047142Y-180644285D01*
X95094761Y-180596666D01*
X95142380Y-180501428D01*
X95142380Y-180263333D01*
X95094761Y-180168095D01*
X95047142Y-180120476D01*
%TO.C,R14*%
X90122380Y-178787142D02*
X89646190Y-178453809D01*
X90122380Y-178215714D02*
X89122380Y-178215714D01*
X89122380Y-178596666D01*
X89170000Y-178691904D01*
X89217619Y-178739523D01*
X89312857Y-178787142D01*
X89455714Y-178787142D01*
X89550952Y-178739523D01*
X89598571Y-178691904D01*
X89646190Y-178596666D01*
X89646190Y-178215714D01*
X90122380Y-179739523D02*
X90122380Y-179168095D01*
X90122380Y-179453809D02*
X89122380Y-179453809D01*
X89265238Y-179358571D01*
X89360476Y-179263333D01*
X89408095Y-179168095D01*
X89455714Y-180596666D02*
X90122380Y-180596666D01*
X89074761Y-180358571D02*
X89789047Y-180120476D01*
X89789047Y-180739523D01*
%TO.C,R13*%
X60132380Y-178847142D02*
X59656190Y-178513809D01*
X60132380Y-178275714D02*
X59132380Y-178275714D01*
X59132380Y-178656666D01*
X59180000Y-178751904D01*
X59227619Y-178799523D01*
X59322857Y-178847142D01*
X59465714Y-178847142D01*
X59560952Y-178799523D01*
X59608571Y-178751904D01*
X59656190Y-178656666D01*
X59656190Y-178275714D01*
X60132380Y-179799523D02*
X60132380Y-179228095D01*
X60132380Y-179513809D02*
X59132380Y-179513809D01*
X59275238Y-179418571D01*
X59370476Y-179323333D01*
X59418095Y-179228095D01*
X59132380Y-180132857D02*
X59132380Y-180751904D01*
X59513333Y-180418571D01*
X59513333Y-180561428D01*
X59560952Y-180656666D01*
X59608571Y-180704285D01*
X59703809Y-180751904D01*
X59941904Y-180751904D01*
X60037142Y-180704285D01*
X60084761Y-180656666D01*
X60132380Y-180561428D01*
X60132380Y-180275714D01*
X60084761Y-180180476D01*
X60037142Y-180132857D01*
%TO.C,R12*%
X220142380Y-178747142D02*
X219666190Y-178413809D01*
X220142380Y-178175714D02*
X219142380Y-178175714D01*
X219142380Y-178556666D01*
X219190000Y-178651904D01*
X219237619Y-178699523D01*
X219332857Y-178747142D01*
X219475714Y-178747142D01*
X219570952Y-178699523D01*
X219618571Y-178651904D01*
X219666190Y-178556666D01*
X219666190Y-178175714D01*
X220142380Y-179699523D02*
X220142380Y-179128095D01*
X220142380Y-179413809D02*
X219142380Y-179413809D01*
X219285238Y-179318571D01*
X219380476Y-179223333D01*
X219428095Y-179128095D01*
X219237619Y-180080476D02*
X219190000Y-180128095D01*
X219142380Y-180223333D01*
X219142380Y-180461428D01*
X219190000Y-180556666D01*
X219237619Y-180604285D01*
X219332857Y-180651904D01*
X219428095Y-180651904D01*
X219570952Y-180604285D01*
X220142380Y-180032857D01*
X220142380Y-180651904D01*
%TO.C,R11*%
X130162380Y-178657142D02*
X129686190Y-178323809D01*
X130162380Y-178085714D02*
X129162380Y-178085714D01*
X129162380Y-178466666D01*
X129210000Y-178561904D01*
X129257619Y-178609523D01*
X129352857Y-178657142D01*
X129495714Y-178657142D01*
X129590952Y-178609523D01*
X129638571Y-178561904D01*
X129686190Y-178466666D01*
X129686190Y-178085714D01*
X130162380Y-179609523D02*
X130162380Y-179038095D01*
X130162380Y-179323809D02*
X129162380Y-179323809D01*
X129305238Y-179228571D01*
X129400476Y-179133333D01*
X129448095Y-179038095D01*
X130162380Y-180561904D02*
X130162380Y-179990476D01*
X130162380Y-180276190D02*
X129162380Y-180276190D01*
X129305238Y-180180952D01*
X129400476Y-180085714D01*
X129448095Y-179990476D01*
%TO.C,R10*%
X325192380Y-178837142D02*
X324716190Y-178503809D01*
X325192380Y-178265714D02*
X324192380Y-178265714D01*
X324192380Y-178646666D01*
X324240000Y-178741904D01*
X324287619Y-178789523D01*
X324382857Y-178837142D01*
X324525714Y-178837142D01*
X324620952Y-178789523D01*
X324668571Y-178741904D01*
X324716190Y-178646666D01*
X324716190Y-178265714D01*
X325192380Y-179789523D02*
X325192380Y-179218095D01*
X325192380Y-179503809D02*
X324192380Y-179503809D01*
X324335238Y-179408571D01*
X324430476Y-179313333D01*
X324478095Y-179218095D01*
X324192380Y-180408571D02*
X324192380Y-180503809D01*
X324240000Y-180599047D01*
X324287619Y-180646666D01*
X324382857Y-180694285D01*
X324573333Y-180741904D01*
X324811428Y-180741904D01*
X325001904Y-180694285D01*
X325097142Y-180646666D01*
X325144761Y-180599047D01*
X325192380Y-180503809D01*
X325192380Y-180408571D01*
X325144761Y-180313333D01*
X325097142Y-180265714D01*
X325001904Y-180218095D01*
X324811428Y-180170476D01*
X324573333Y-180170476D01*
X324382857Y-180218095D01*
X324287619Y-180265714D01*
X324240000Y-180313333D01*
X324192380Y-180408571D01*
%TO.C,R9*%
X55082380Y-179273333D02*
X54606190Y-178940000D01*
X55082380Y-178701904D02*
X54082380Y-178701904D01*
X54082380Y-179082857D01*
X54130000Y-179178095D01*
X54177619Y-179225714D01*
X54272857Y-179273333D01*
X54415714Y-179273333D01*
X54510952Y-179225714D01*
X54558571Y-179178095D01*
X54606190Y-179082857D01*
X54606190Y-178701904D01*
X55082380Y-179749523D02*
X55082380Y-179940000D01*
X55034761Y-180035238D01*
X54987142Y-180082857D01*
X54844285Y-180178095D01*
X54653809Y-180225714D01*
X54272857Y-180225714D01*
X54177619Y-180178095D01*
X54130000Y-180130476D01*
X54082380Y-180035238D01*
X54082380Y-179844761D01*
X54130000Y-179749523D01*
X54177619Y-179701904D01*
X54272857Y-179654285D01*
X54510952Y-179654285D01*
X54606190Y-179701904D01*
X54653809Y-179749523D01*
X54701428Y-179844761D01*
X54701428Y-180035238D01*
X54653809Y-180130476D01*
X54606190Y-180178095D01*
X54510952Y-180225714D01*
%TO.C,R8*%
X20062380Y-179253333D02*
X19586190Y-178920000D01*
X20062380Y-178681904D02*
X19062380Y-178681904D01*
X19062380Y-179062857D01*
X19110000Y-179158095D01*
X19157619Y-179205714D01*
X19252857Y-179253333D01*
X19395714Y-179253333D01*
X19490952Y-179205714D01*
X19538571Y-179158095D01*
X19586190Y-179062857D01*
X19586190Y-178681904D01*
X19490952Y-179824761D02*
X19443333Y-179729523D01*
X19395714Y-179681904D01*
X19300476Y-179634285D01*
X19252857Y-179634285D01*
X19157619Y-179681904D01*
X19110000Y-179729523D01*
X19062380Y-179824761D01*
X19062380Y-180015238D01*
X19110000Y-180110476D01*
X19157619Y-180158095D01*
X19252857Y-180205714D01*
X19300476Y-180205714D01*
X19395714Y-180158095D01*
X19443333Y-180110476D01*
X19490952Y-180015238D01*
X19490952Y-179824761D01*
X19538571Y-179729523D01*
X19586190Y-179681904D01*
X19681428Y-179634285D01*
X19871904Y-179634285D01*
X19967142Y-179681904D01*
X20014761Y-179729523D01*
X20062380Y-179824761D01*
X20062380Y-180015238D01*
X20014761Y-180110476D01*
X19967142Y-180158095D01*
X19871904Y-180205714D01*
X19681428Y-180205714D01*
X19586190Y-180158095D01*
X19538571Y-180110476D01*
X19490952Y-180015238D01*
%TO.C,R7*%
X290122380Y-179293333D02*
X289646190Y-178960000D01*
X290122380Y-178721904D02*
X289122380Y-178721904D01*
X289122380Y-179102857D01*
X289170000Y-179198095D01*
X289217619Y-179245714D01*
X289312857Y-179293333D01*
X289455714Y-179293333D01*
X289550952Y-179245714D01*
X289598571Y-179198095D01*
X289646190Y-179102857D01*
X289646190Y-178721904D01*
X289122380Y-179626666D02*
X289122380Y-180293333D01*
X290122380Y-179864761D01*
%TO.C,R6*%
X250042380Y-179093333D02*
X249566190Y-178760000D01*
X250042380Y-178521904D02*
X249042380Y-178521904D01*
X249042380Y-178902857D01*
X249090000Y-178998095D01*
X249137619Y-179045714D01*
X249232857Y-179093333D01*
X249375714Y-179093333D01*
X249470952Y-179045714D01*
X249518571Y-178998095D01*
X249566190Y-178902857D01*
X249566190Y-178521904D01*
X249042380Y-179950476D02*
X249042380Y-179760000D01*
X249090000Y-179664761D01*
X249137619Y-179617142D01*
X249280476Y-179521904D01*
X249470952Y-179474285D01*
X249851904Y-179474285D01*
X249947142Y-179521904D01*
X249994761Y-179569523D01*
X250042380Y-179664761D01*
X250042380Y-179855238D01*
X249994761Y-179950476D01*
X249947142Y-179998095D01*
X249851904Y-180045714D01*
X249613809Y-180045714D01*
X249518571Y-179998095D01*
X249470952Y-179950476D01*
X249423333Y-179855238D01*
X249423333Y-179664761D01*
X249470952Y-179569523D01*
X249518571Y-179521904D01*
X249613809Y-179474285D01*
%TO.C,R5*%
X215082380Y-179233333D02*
X214606190Y-178900000D01*
X215082380Y-178661904D02*
X214082380Y-178661904D01*
X214082380Y-179042857D01*
X214130000Y-179138095D01*
X214177619Y-179185714D01*
X214272857Y-179233333D01*
X214415714Y-179233333D01*
X214510952Y-179185714D01*
X214558571Y-179138095D01*
X214606190Y-179042857D01*
X214606190Y-178661904D01*
X214082380Y-180138095D02*
X214082380Y-179661904D01*
X214558571Y-179614285D01*
X214510952Y-179661904D01*
X214463333Y-179757142D01*
X214463333Y-179995238D01*
X214510952Y-180090476D01*
X214558571Y-180138095D01*
X214653809Y-180185714D01*
X214891904Y-180185714D01*
X214987142Y-180138095D01*
X215034761Y-180090476D01*
X215082380Y-179995238D01*
X215082380Y-179757142D01*
X215034761Y-179661904D01*
X214987142Y-179614285D01*
%TO.C,R4*%
X125052380Y-179213333D02*
X124576190Y-178880000D01*
X125052380Y-178641904D02*
X124052380Y-178641904D01*
X124052380Y-179022857D01*
X124100000Y-179118095D01*
X124147619Y-179165714D01*
X124242857Y-179213333D01*
X124385714Y-179213333D01*
X124480952Y-179165714D01*
X124528571Y-179118095D01*
X124576190Y-179022857D01*
X124576190Y-178641904D01*
X124385714Y-180070476D02*
X125052380Y-180070476D01*
X124004761Y-179832380D02*
X124719047Y-179594285D01*
X124719047Y-180213333D01*
%TO.C,R3*%
X320072380Y-179283333D02*
X319596190Y-178950000D01*
X320072380Y-178711904D02*
X319072380Y-178711904D01*
X319072380Y-179092857D01*
X319120000Y-179188095D01*
X319167619Y-179235714D01*
X319262857Y-179283333D01*
X319405714Y-179283333D01*
X319500952Y-179235714D01*
X319548571Y-179188095D01*
X319596190Y-179092857D01*
X319596190Y-178711904D01*
X319072380Y-179616666D02*
X319072380Y-180235714D01*
X319453333Y-179902380D01*
X319453333Y-180045238D01*
X319500952Y-180140476D01*
X319548571Y-180188095D01*
X319643809Y-180235714D01*
X319881904Y-180235714D01*
X319977142Y-180188095D01*
X320024761Y-180140476D01*
X320072380Y-180045238D01*
X320072380Y-179759523D01*
X320024761Y-179664285D01*
X319977142Y-179616666D01*
%TO.C,R2*%
X285092380Y-179263333D02*
X284616190Y-178930000D01*
X285092380Y-178691904D02*
X284092380Y-178691904D01*
X284092380Y-179072857D01*
X284140000Y-179168095D01*
X284187619Y-179215714D01*
X284282857Y-179263333D01*
X284425714Y-179263333D01*
X284520952Y-179215714D01*
X284568571Y-179168095D01*
X284616190Y-179072857D01*
X284616190Y-178691904D01*
X284187619Y-179644285D02*
X284140000Y-179691904D01*
X284092380Y-179787142D01*
X284092380Y-180025238D01*
X284140000Y-180120476D01*
X284187619Y-180168095D01*
X284282857Y-180215714D01*
X284378095Y-180215714D01*
X284520952Y-180168095D01*
X285092380Y-179596666D01*
X285092380Y-180215714D01*
%TO.C,Q18*%
X359291428Y-144027619D02*
X359386666Y-143980000D01*
X359481904Y-143884761D01*
X359624761Y-143741904D01*
X359720000Y-143694285D01*
X359815238Y-143694285D01*
X359767619Y-143932380D02*
X359862857Y-143884761D01*
X359958095Y-143789523D01*
X360005714Y-143599047D01*
X360005714Y-143265714D01*
X359958095Y-143075238D01*
X359862857Y-142980000D01*
X359767619Y-142932380D01*
X359577142Y-142932380D01*
X359481904Y-142980000D01*
X359386666Y-143075238D01*
X359339047Y-143265714D01*
X359339047Y-143599047D01*
X359386666Y-143789523D01*
X359481904Y-143884761D01*
X359577142Y-143932380D01*
X359767619Y-143932380D01*
X358386666Y-143932380D02*
X358958095Y-143932380D01*
X358672380Y-143932380D02*
X358672380Y-142932380D01*
X358767619Y-143075238D01*
X358862857Y-143170476D01*
X358958095Y-143218095D01*
X357815238Y-143360952D02*
X357910476Y-143313333D01*
X357958095Y-143265714D01*
X358005714Y-143170476D01*
X358005714Y-143122857D01*
X357958095Y-143027619D01*
X357910476Y-142980000D01*
X357815238Y-142932380D01*
X357624761Y-142932380D01*
X357529523Y-142980000D01*
X357481904Y-143027619D01*
X357434285Y-143122857D01*
X357434285Y-143170476D01*
X357481904Y-143265714D01*
X357529523Y-143313333D01*
X357624761Y-143360952D01*
X357815238Y-143360952D01*
X357910476Y-143408571D01*
X357958095Y-143456190D01*
X358005714Y-143551428D01*
X358005714Y-143741904D01*
X357958095Y-143837142D01*
X357910476Y-143884761D01*
X357815238Y-143932380D01*
X357624761Y-143932380D01*
X357529523Y-143884761D01*
X357481904Y-143837142D01*
X357434285Y-143741904D01*
X357434285Y-143551428D01*
X357481904Y-143456190D01*
X357529523Y-143408571D01*
X357624761Y-143360952D01*
%TO.C,Q17*%
X319181428Y-160957619D02*
X319276666Y-160910000D01*
X319371904Y-160814761D01*
X319514761Y-160671904D01*
X319610000Y-160624285D01*
X319705238Y-160624285D01*
X319657619Y-160862380D02*
X319752857Y-160814761D01*
X319848095Y-160719523D01*
X319895714Y-160529047D01*
X319895714Y-160195714D01*
X319848095Y-160005238D01*
X319752857Y-159910000D01*
X319657619Y-159862380D01*
X319467142Y-159862380D01*
X319371904Y-159910000D01*
X319276666Y-160005238D01*
X319229047Y-160195714D01*
X319229047Y-160529047D01*
X319276666Y-160719523D01*
X319371904Y-160814761D01*
X319467142Y-160862380D01*
X319657619Y-160862380D01*
X318276666Y-160862380D02*
X318848095Y-160862380D01*
X318562380Y-160862380D02*
X318562380Y-159862380D01*
X318657619Y-160005238D01*
X318752857Y-160100476D01*
X318848095Y-160148095D01*
X317943333Y-159862380D02*
X317276666Y-159862380D01*
X317705238Y-160862380D01*
%TO.C,Q16*%
X125321428Y-160917619D02*
X125416666Y-160870000D01*
X125511904Y-160774761D01*
X125654761Y-160631904D01*
X125750000Y-160584285D01*
X125845238Y-160584285D01*
X125797619Y-160822380D02*
X125892857Y-160774761D01*
X125988095Y-160679523D01*
X126035714Y-160489047D01*
X126035714Y-160155714D01*
X125988095Y-159965238D01*
X125892857Y-159870000D01*
X125797619Y-159822380D01*
X125607142Y-159822380D01*
X125511904Y-159870000D01*
X125416666Y-159965238D01*
X125369047Y-160155714D01*
X125369047Y-160489047D01*
X125416666Y-160679523D01*
X125511904Y-160774761D01*
X125607142Y-160822380D01*
X125797619Y-160822380D01*
X124416666Y-160822380D02*
X124988095Y-160822380D01*
X124702380Y-160822380D02*
X124702380Y-159822380D01*
X124797619Y-159965238D01*
X124892857Y-160060476D01*
X124988095Y-160108095D01*
X123559523Y-159822380D02*
X123750000Y-159822380D01*
X123845238Y-159870000D01*
X123892857Y-159917619D01*
X123988095Y-160060476D01*
X124035714Y-160250952D01*
X124035714Y-160631904D01*
X123988095Y-160727142D01*
X123940476Y-160774761D01*
X123845238Y-160822380D01*
X123654761Y-160822380D01*
X123559523Y-160774761D01*
X123511904Y-160727142D01*
X123464285Y-160631904D01*
X123464285Y-160393809D01*
X123511904Y-160298571D01*
X123559523Y-160250952D01*
X123654761Y-160203333D01*
X123845238Y-160203333D01*
X123940476Y-160250952D01*
X123988095Y-160298571D01*
X124035714Y-160393809D01*
%TO.C,Q15*%
X319011428Y-143997619D02*
X319106666Y-143950000D01*
X319201904Y-143854761D01*
X319344761Y-143711904D01*
X319440000Y-143664285D01*
X319535238Y-143664285D01*
X319487619Y-143902380D02*
X319582857Y-143854761D01*
X319678095Y-143759523D01*
X319725714Y-143569047D01*
X319725714Y-143235714D01*
X319678095Y-143045238D01*
X319582857Y-142950000D01*
X319487619Y-142902380D01*
X319297142Y-142902380D01*
X319201904Y-142950000D01*
X319106666Y-143045238D01*
X319059047Y-143235714D01*
X319059047Y-143569047D01*
X319106666Y-143759523D01*
X319201904Y-143854761D01*
X319297142Y-143902380D01*
X319487619Y-143902380D01*
X318106666Y-143902380D02*
X318678095Y-143902380D01*
X318392380Y-143902380D02*
X318392380Y-142902380D01*
X318487619Y-143045238D01*
X318582857Y-143140476D01*
X318678095Y-143188095D01*
X317201904Y-142902380D02*
X317678095Y-142902380D01*
X317725714Y-143378571D01*
X317678095Y-143330952D01*
X317582857Y-143283333D01*
X317344761Y-143283333D01*
X317249523Y-143330952D01*
X317201904Y-143378571D01*
X317154285Y-143473809D01*
X317154285Y-143711904D01*
X317201904Y-143807142D01*
X317249523Y-143854761D01*
X317344761Y-143902380D01*
X317582857Y-143902380D01*
X317678095Y-143854761D01*
X317725714Y-143807142D01*
%TO.C,Q14*%
X125141428Y-144017619D02*
X125236666Y-143970000D01*
X125331904Y-143874761D01*
X125474761Y-143731904D01*
X125570000Y-143684285D01*
X125665238Y-143684285D01*
X125617619Y-143922380D02*
X125712857Y-143874761D01*
X125808095Y-143779523D01*
X125855714Y-143589047D01*
X125855714Y-143255714D01*
X125808095Y-143065238D01*
X125712857Y-142970000D01*
X125617619Y-142922380D01*
X125427142Y-142922380D01*
X125331904Y-142970000D01*
X125236666Y-143065238D01*
X125189047Y-143255714D01*
X125189047Y-143589047D01*
X125236666Y-143779523D01*
X125331904Y-143874761D01*
X125427142Y-143922380D01*
X125617619Y-143922380D01*
X124236666Y-143922380D02*
X124808095Y-143922380D01*
X124522380Y-143922380D02*
X124522380Y-142922380D01*
X124617619Y-143065238D01*
X124712857Y-143160476D01*
X124808095Y-143208095D01*
X123379523Y-143255714D02*
X123379523Y-143922380D01*
X123617619Y-142874761D02*
X123855714Y-143589047D01*
X123236666Y-143589047D01*
%TO.C,Q13*%
X165101428Y-144017619D02*
X165196666Y-143970000D01*
X165291904Y-143874761D01*
X165434761Y-143731904D01*
X165530000Y-143684285D01*
X165625238Y-143684285D01*
X165577619Y-143922380D02*
X165672857Y-143874761D01*
X165768095Y-143779523D01*
X165815714Y-143589047D01*
X165815714Y-143255714D01*
X165768095Y-143065238D01*
X165672857Y-142970000D01*
X165577619Y-142922380D01*
X165387142Y-142922380D01*
X165291904Y-142970000D01*
X165196666Y-143065238D01*
X165149047Y-143255714D01*
X165149047Y-143589047D01*
X165196666Y-143779523D01*
X165291904Y-143874761D01*
X165387142Y-143922380D01*
X165577619Y-143922380D01*
X164196666Y-143922380D02*
X164768095Y-143922380D01*
X164482380Y-143922380D02*
X164482380Y-142922380D01*
X164577619Y-143065238D01*
X164672857Y-143160476D01*
X164768095Y-143208095D01*
X163863333Y-142922380D02*
X163244285Y-142922380D01*
X163577619Y-143303333D01*
X163434761Y-143303333D01*
X163339523Y-143350952D01*
X163291904Y-143398571D01*
X163244285Y-143493809D01*
X163244285Y-143731904D01*
X163291904Y-143827142D01*
X163339523Y-143874761D01*
X163434761Y-143922380D01*
X163720476Y-143922380D01*
X163815714Y-143874761D01*
X163863333Y-143827142D01*
%TO.C,Q12*%
X285381428Y-160907619D02*
X285476666Y-160860000D01*
X285571904Y-160764761D01*
X285714761Y-160621904D01*
X285810000Y-160574285D01*
X285905238Y-160574285D01*
X285857619Y-160812380D02*
X285952857Y-160764761D01*
X286048095Y-160669523D01*
X286095714Y-160479047D01*
X286095714Y-160145714D01*
X286048095Y-159955238D01*
X285952857Y-159860000D01*
X285857619Y-159812380D01*
X285667142Y-159812380D01*
X285571904Y-159860000D01*
X285476666Y-159955238D01*
X285429047Y-160145714D01*
X285429047Y-160479047D01*
X285476666Y-160669523D01*
X285571904Y-160764761D01*
X285667142Y-160812380D01*
X285857619Y-160812380D01*
X284476666Y-160812380D02*
X285048095Y-160812380D01*
X284762380Y-160812380D02*
X284762380Y-159812380D01*
X284857619Y-159955238D01*
X284952857Y-160050476D01*
X285048095Y-160098095D01*
X284095714Y-159907619D02*
X284048095Y-159860000D01*
X283952857Y-159812380D01*
X283714761Y-159812380D01*
X283619523Y-159860000D01*
X283571904Y-159907619D01*
X283524285Y-160002857D01*
X283524285Y-160098095D01*
X283571904Y-160240952D01*
X284143333Y-160812380D01*
X283524285Y-160812380D01*
%TO.C,Q11*%
X90701428Y-160937619D02*
X90796666Y-160890000D01*
X90891904Y-160794761D01*
X91034761Y-160651904D01*
X91130000Y-160604285D01*
X91225238Y-160604285D01*
X91177619Y-160842380D02*
X91272857Y-160794761D01*
X91368095Y-160699523D01*
X91415714Y-160509047D01*
X91415714Y-160175714D01*
X91368095Y-159985238D01*
X91272857Y-159890000D01*
X91177619Y-159842380D01*
X90987142Y-159842380D01*
X90891904Y-159890000D01*
X90796666Y-159985238D01*
X90749047Y-160175714D01*
X90749047Y-160509047D01*
X90796666Y-160699523D01*
X90891904Y-160794761D01*
X90987142Y-160842380D01*
X91177619Y-160842380D01*
X89796666Y-160842380D02*
X90368095Y-160842380D01*
X90082380Y-160842380D02*
X90082380Y-159842380D01*
X90177619Y-159985238D01*
X90272857Y-160080476D01*
X90368095Y-160128095D01*
X88844285Y-160842380D02*
X89415714Y-160842380D01*
X89130000Y-160842380D02*
X89130000Y-159842380D01*
X89225238Y-159985238D01*
X89320476Y-160080476D01*
X89415714Y-160128095D01*
%TO.C,Q10*%
X285091428Y-144047619D02*
X285186666Y-144000000D01*
X285281904Y-143904761D01*
X285424761Y-143761904D01*
X285520000Y-143714285D01*
X285615238Y-143714285D01*
X285567619Y-143952380D02*
X285662857Y-143904761D01*
X285758095Y-143809523D01*
X285805714Y-143619047D01*
X285805714Y-143285714D01*
X285758095Y-143095238D01*
X285662857Y-143000000D01*
X285567619Y-142952380D01*
X285377142Y-142952380D01*
X285281904Y-143000000D01*
X285186666Y-143095238D01*
X285139047Y-143285714D01*
X285139047Y-143619047D01*
X285186666Y-143809523D01*
X285281904Y-143904761D01*
X285377142Y-143952380D01*
X285567619Y-143952380D01*
X284186666Y-143952380D02*
X284758095Y-143952380D01*
X284472380Y-143952380D02*
X284472380Y-142952380D01*
X284567619Y-143095238D01*
X284662857Y-143190476D01*
X284758095Y-143238095D01*
X283567619Y-142952380D02*
X283472380Y-142952380D01*
X283377142Y-143000000D01*
X283329523Y-143047619D01*
X283281904Y-143142857D01*
X283234285Y-143333333D01*
X283234285Y-143571428D01*
X283281904Y-143761904D01*
X283329523Y-143857142D01*
X283377142Y-143904761D01*
X283472380Y-143952380D01*
X283567619Y-143952380D01*
X283662857Y-143904761D01*
X283710476Y-143857142D01*
X283758095Y-143761904D01*
X283805714Y-143571428D01*
X283805714Y-143333333D01*
X283758095Y-143142857D01*
X283710476Y-143047619D01*
X283662857Y-143000000D01*
X283567619Y-142952380D01*
%TO.C,Q9*%
X90305238Y-144007619D02*
X90400476Y-143960000D01*
X90495714Y-143864761D01*
X90638571Y-143721904D01*
X90733809Y-143674285D01*
X90829047Y-143674285D01*
X90781428Y-143912380D02*
X90876666Y-143864761D01*
X90971904Y-143769523D01*
X91019523Y-143579047D01*
X91019523Y-143245714D01*
X90971904Y-143055238D01*
X90876666Y-142960000D01*
X90781428Y-142912380D01*
X90590952Y-142912380D01*
X90495714Y-142960000D01*
X90400476Y-143055238D01*
X90352857Y-143245714D01*
X90352857Y-143579047D01*
X90400476Y-143769523D01*
X90495714Y-143864761D01*
X90590952Y-143912380D01*
X90781428Y-143912380D01*
X89876666Y-143912380D02*
X89686190Y-143912380D01*
X89590952Y-143864761D01*
X89543333Y-143817142D01*
X89448095Y-143674285D01*
X89400476Y-143483809D01*
X89400476Y-143102857D01*
X89448095Y-143007619D01*
X89495714Y-142960000D01*
X89590952Y-142912380D01*
X89781428Y-142912380D01*
X89876666Y-142960000D01*
X89924285Y-143007619D01*
X89971904Y-143102857D01*
X89971904Y-143340952D01*
X89924285Y-143436190D01*
X89876666Y-143483809D01*
X89781428Y-143531428D01*
X89590952Y-143531428D01*
X89495714Y-143483809D01*
X89448095Y-143436190D01*
X89400476Y-143340952D01*
%TO.C,Q8*%
X249255238Y-160887619D02*
X249350476Y-160840000D01*
X249445714Y-160744761D01*
X249588571Y-160601904D01*
X249683809Y-160554285D01*
X249779047Y-160554285D01*
X249731428Y-160792380D02*
X249826666Y-160744761D01*
X249921904Y-160649523D01*
X249969523Y-160459047D01*
X249969523Y-160125714D01*
X249921904Y-159935238D01*
X249826666Y-159840000D01*
X249731428Y-159792380D01*
X249540952Y-159792380D01*
X249445714Y-159840000D01*
X249350476Y-159935238D01*
X249302857Y-160125714D01*
X249302857Y-160459047D01*
X249350476Y-160649523D01*
X249445714Y-160744761D01*
X249540952Y-160792380D01*
X249731428Y-160792380D01*
X248731428Y-160220952D02*
X248826666Y-160173333D01*
X248874285Y-160125714D01*
X248921904Y-160030476D01*
X248921904Y-159982857D01*
X248874285Y-159887619D01*
X248826666Y-159840000D01*
X248731428Y-159792380D01*
X248540952Y-159792380D01*
X248445714Y-159840000D01*
X248398095Y-159887619D01*
X248350476Y-159982857D01*
X248350476Y-160030476D01*
X248398095Y-160125714D01*
X248445714Y-160173333D01*
X248540952Y-160220952D01*
X248731428Y-160220952D01*
X248826666Y-160268571D01*
X248874285Y-160316190D01*
X248921904Y-160411428D01*
X248921904Y-160601904D01*
X248874285Y-160697142D01*
X248826666Y-160744761D01*
X248731428Y-160792380D01*
X248540952Y-160792380D01*
X248445714Y-160744761D01*
X248398095Y-160697142D01*
X248350476Y-160601904D01*
X248350476Y-160411428D01*
X248398095Y-160316190D01*
X248445714Y-160268571D01*
X248540952Y-160220952D01*
%TO.C,Q7*%
X54145238Y-160887619D02*
X54240476Y-160840000D01*
X54335714Y-160744761D01*
X54478571Y-160601904D01*
X54573809Y-160554285D01*
X54669047Y-160554285D01*
X54621428Y-160792380D02*
X54716666Y-160744761D01*
X54811904Y-160649523D01*
X54859523Y-160459047D01*
X54859523Y-160125714D01*
X54811904Y-159935238D01*
X54716666Y-159840000D01*
X54621428Y-159792380D01*
X54430952Y-159792380D01*
X54335714Y-159840000D01*
X54240476Y-159935238D01*
X54192857Y-160125714D01*
X54192857Y-160459047D01*
X54240476Y-160649523D01*
X54335714Y-160744761D01*
X54430952Y-160792380D01*
X54621428Y-160792380D01*
X53859523Y-159792380D02*
X53192857Y-159792380D01*
X53621428Y-160792380D01*
%TO.C,Q6*%
X249735238Y-144007619D02*
X249830476Y-143960000D01*
X249925714Y-143864761D01*
X250068571Y-143721904D01*
X250163809Y-143674285D01*
X250259047Y-143674285D01*
X250211428Y-143912380D02*
X250306666Y-143864761D01*
X250401904Y-143769523D01*
X250449523Y-143579047D01*
X250449523Y-143245714D01*
X250401904Y-143055238D01*
X250306666Y-142960000D01*
X250211428Y-142912380D01*
X250020952Y-142912380D01*
X249925714Y-142960000D01*
X249830476Y-143055238D01*
X249782857Y-143245714D01*
X249782857Y-143579047D01*
X249830476Y-143769523D01*
X249925714Y-143864761D01*
X250020952Y-143912380D01*
X250211428Y-143912380D01*
X248925714Y-142912380D02*
X249116190Y-142912380D01*
X249211428Y-142960000D01*
X249259047Y-143007619D01*
X249354285Y-143150476D01*
X249401904Y-143340952D01*
X249401904Y-143721904D01*
X249354285Y-143817142D01*
X249306666Y-143864761D01*
X249211428Y-143912380D01*
X249020952Y-143912380D01*
X248925714Y-143864761D01*
X248878095Y-143817142D01*
X248830476Y-143721904D01*
X248830476Y-143483809D01*
X248878095Y-143388571D01*
X248925714Y-143340952D01*
X249020952Y-143293333D01*
X249211428Y-143293333D01*
X249306666Y-143340952D01*
X249354285Y-143388571D01*
X249401904Y-143483809D01*
%TO.C,Q5*%
X54175238Y-144027619D02*
X54270476Y-143980000D01*
X54365714Y-143884761D01*
X54508571Y-143741904D01*
X54603809Y-143694285D01*
X54699047Y-143694285D01*
X54651428Y-143932380D02*
X54746666Y-143884761D01*
X54841904Y-143789523D01*
X54889523Y-143599047D01*
X54889523Y-143265714D01*
X54841904Y-143075238D01*
X54746666Y-142980000D01*
X54651428Y-142932380D01*
X54460952Y-142932380D01*
X54365714Y-142980000D01*
X54270476Y-143075238D01*
X54222857Y-143265714D01*
X54222857Y-143599047D01*
X54270476Y-143789523D01*
X54365714Y-143884761D01*
X54460952Y-143932380D01*
X54651428Y-143932380D01*
X53318095Y-142932380D02*
X53794285Y-142932380D01*
X53841904Y-143408571D01*
X53794285Y-143360952D01*
X53699047Y-143313333D01*
X53460952Y-143313333D01*
X53365714Y-143360952D01*
X53318095Y-143408571D01*
X53270476Y-143503809D01*
X53270476Y-143741904D01*
X53318095Y-143837142D01*
X53365714Y-143884761D01*
X53460952Y-143932380D01*
X53699047Y-143932380D01*
X53794285Y-143884761D01*
X53841904Y-143837142D01*
%TO.C,Q4*%
X214245238Y-160917619D02*
X214340476Y-160870000D01*
X214435714Y-160774761D01*
X214578571Y-160631904D01*
X214673809Y-160584285D01*
X214769047Y-160584285D01*
X214721428Y-160822380D02*
X214816666Y-160774761D01*
X214911904Y-160679523D01*
X214959523Y-160489047D01*
X214959523Y-160155714D01*
X214911904Y-159965238D01*
X214816666Y-159870000D01*
X214721428Y-159822380D01*
X214530952Y-159822380D01*
X214435714Y-159870000D01*
X214340476Y-159965238D01*
X214292857Y-160155714D01*
X214292857Y-160489047D01*
X214340476Y-160679523D01*
X214435714Y-160774761D01*
X214530952Y-160822380D01*
X214721428Y-160822380D01*
X213435714Y-160155714D02*
X213435714Y-160822380D01*
X213673809Y-159774761D02*
X213911904Y-160489047D01*
X213292857Y-160489047D01*
%TO.C,Q3*%
X19445238Y-160917619D02*
X19540476Y-160870000D01*
X19635714Y-160774761D01*
X19778571Y-160631904D01*
X19873809Y-160584285D01*
X19969047Y-160584285D01*
X19921428Y-160822380D02*
X20016666Y-160774761D01*
X20111904Y-160679523D01*
X20159523Y-160489047D01*
X20159523Y-160155714D01*
X20111904Y-159965238D01*
X20016666Y-159870000D01*
X19921428Y-159822380D01*
X19730952Y-159822380D01*
X19635714Y-159870000D01*
X19540476Y-159965238D01*
X19492857Y-160155714D01*
X19492857Y-160489047D01*
X19540476Y-160679523D01*
X19635714Y-160774761D01*
X19730952Y-160822380D01*
X19921428Y-160822380D01*
X19159523Y-159822380D02*
X18540476Y-159822380D01*
X18873809Y-160203333D01*
X18730952Y-160203333D01*
X18635714Y-160250952D01*
X18588095Y-160298571D01*
X18540476Y-160393809D01*
X18540476Y-160631904D01*
X18588095Y-160727142D01*
X18635714Y-160774761D01*
X18730952Y-160822380D01*
X19016666Y-160822380D01*
X19111904Y-160774761D01*
X19159523Y-160727142D01*
%TO.C,Q2*%
X214495238Y-144037619D02*
X214590476Y-143990000D01*
X214685714Y-143894761D01*
X214828571Y-143751904D01*
X214923809Y-143704285D01*
X215019047Y-143704285D01*
X214971428Y-143942380D02*
X215066666Y-143894761D01*
X215161904Y-143799523D01*
X215209523Y-143609047D01*
X215209523Y-143275714D01*
X215161904Y-143085238D01*
X215066666Y-142990000D01*
X214971428Y-142942380D01*
X214780952Y-142942380D01*
X214685714Y-142990000D01*
X214590476Y-143085238D01*
X214542857Y-143275714D01*
X214542857Y-143609047D01*
X214590476Y-143799523D01*
X214685714Y-143894761D01*
X214780952Y-143942380D01*
X214971428Y-143942380D01*
X214161904Y-143037619D02*
X214114285Y-142990000D01*
X214019047Y-142942380D01*
X213780952Y-142942380D01*
X213685714Y-142990000D01*
X213638095Y-143037619D01*
X213590476Y-143132857D01*
X213590476Y-143228095D01*
X213638095Y-143370952D01*
X214209523Y-143942380D01*
X213590476Y-143942380D01*
%TO.C,Q1*%
X19515238Y-144007619D02*
X19610476Y-143960000D01*
X19705714Y-143864761D01*
X19848571Y-143721904D01*
X19943809Y-143674285D01*
X20039047Y-143674285D01*
X19991428Y-143912380D02*
X20086666Y-143864761D01*
X20181904Y-143769523D01*
X20229523Y-143579047D01*
X20229523Y-143245714D01*
X20181904Y-143055238D01*
X20086666Y-142960000D01*
X19991428Y-142912380D01*
X19800952Y-142912380D01*
X19705714Y-142960000D01*
X19610476Y-143055238D01*
X19562857Y-143245714D01*
X19562857Y-143579047D01*
X19610476Y-143769523D01*
X19705714Y-143864761D01*
X19800952Y-143912380D01*
X19991428Y-143912380D01*
X18610476Y-143912380D02*
X19181904Y-143912380D01*
X18896190Y-143912380D02*
X18896190Y-142912380D01*
X18991428Y-143055238D01*
X19086666Y-143150476D01*
X19181904Y-143198095D01*
%TO.C,D18*%
X371284285Y-139422380D02*
X371284285Y-138422380D01*
X371046190Y-138422380D01*
X370903333Y-138470000D01*
X370808095Y-138565238D01*
X370760476Y-138660476D01*
X370712857Y-138850952D01*
X370712857Y-138993809D01*
X370760476Y-139184285D01*
X370808095Y-139279523D01*
X370903333Y-139374761D01*
X371046190Y-139422380D01*
X371284285Y-139422380D01*
X369760476Y-139422380D02*
X370331904Y-139422380D01*
X370046190Y-139422380D02*
X370046190Y-138422380D01*
X370141428Y-138565238D01*
X370236666Y-138660476D01*
X370331904Y-138708095D01*
X369189047Y-138850952D02*
X369284285Y-138803333D01*
X369331904Y-138755714D01*
X369379523Y-138660476D01*
X369379523Y-138612857D01*
X369331904Y-138517619D01*
X369284285Y-138470000D01*
X369189047Y-138422380D01*
X368998571Y-138422380D01*
X368903333Y-138470000D01*
X368855714Y-138517619D01*
X368808095Y-138612857D01*
X368808095Y-138660476D01*
X368855714Y-138755714D01*
X368903333Y-138803333D01*
X368998571Y-138850952D01*
X369189047Y-138850952D01*
X369284285Y-138898571D01*
X369331904Y-138946190D01*
X369379523Y-139041428D01*
X369379523Y-139231904D01*
X369331904Y-139327142D01*
X369284285Y-139374761D01*
X369189047Y-139422380D01*
X368998571Y-139422380D01*
X368903333Y-139374761D01*
X368855714Y-139327142D01*
X368808095Y-139231904D01*
X368808095Y-139041428D01*
X368855714Y-138946190D01*
X368903333Y-138898571D01*
X368998571Y-138850952D01*
%TO.C,D17*%
X176584285Y-139462380D02*
X176584285Y-138462380D01*
X176346190Y-138462380D01*
X176203333Y-138510000D01*
X176108095Y-138605238D01*
X176060476Y-138700476D01*
X176012857Y-138890952D01*
X176012857Y-139033809D01*
X176060476Y-139224285D01*
X176108095Y-139319523D01*
X176203333Y-139414761D01*
X176346190Y-139462380D01*
X176584285Y-139462380D01*
X175060476Y-139462380D02*
X175631904Y-139462380D01*
X175346190Y-139462380D02*
X175346190Y-138462380D01*
X175441428Y-138605238D01*
X175536666Y-138700476D01*
X175631904Y-138748095D01*
X174727142Y-138462380D02*
X174060476Y-138462380D01*
X174489047Y-139462380D01*
%TO.C,D16*%
X330574285Y-139422380D02*
X330574285Y-138422380D01*
X330336190Y-138422380D01*
X330193333Y-138470000D01*
X330098095Y-138565238D01*
X330050476Y-138660476D01*
X330002857Y-138850952D01*
X330002857Y-138993809D01*
X330050476Y-139184285D01*
X330098095Y-139279523D01*
X330193333Y-139374761D01*
X330336190Y-139422380D01*
X330574285Y-139422380D01*
X329050476Y-139422380D02*
X329621904Y-139422380D01*
X329336190Y-139422380D02*
X329336190Y-138422380D01*
X329431428Y-138565238D01*
X329526666Y-138660476D01*
X329621904Y-138708095D01*
X328193333Y-138422380D02*
X328383809Y-138422380D01*
X328479047Y-138470000D01*
X328526666Y-138517619D01*
X328621904Y-138660476D01*
X328669523Y-138850952D01*
X328669523Y-139231904D01*
X328621904Y-139327142D01*
X328574285Y-139374761D01*
X328479047Y-139422380D01*
X328288571Y-139422380D01*
X328193333Y-139374761D01*
X328145714Y-139327142D01*
X328098095Y-139231904D01*
X328098095Y-138993809D01*
X328145714Y-138898571D01*
X328193333Y-138850952D01*
X328288571Y-138803333D01*
X328479047Y-138803333D01*
X328574285Y-138850952D01*
X328621904Y-138898571D01*
X328669523Y-138993809D01*
%TO.C,D15*%
X296334285Y-139422380D02*
X296334285Y-138422380D01*
X296096190Y-138422380D01*
X295953333Y-138470000D01*
X295858095Y-138565238D01*
X295810476Y-138660476D01*
X295762857Y-138850952D01*
X295762857Y-138993809D01*
X295810476Y-139184285D01*
X295858095Y-139279523D01*
X295953333Y-139374761D01*
X296096190Y-139422380D01*
X296334285Y-139422380D01*
X294810476Y-139422380D02*
X295381904Y-139422380D01*
X295096190Y-139422380D02*
X295096190Y-138422380D01*
X295191428Y-138565238D01*
X295286666Y-138660476D01*
X295381904Y-138708095D01*
X293905714Y-138422380D02*
X294381904Y-138422380D01*
X294429523Y-138898571D01*
X294381904Y-138850952D01*
X294286666Y-138803333D01*
X294048571Y-138803333D01*
X293953333Y-138850952D01*
X293905714Y-138898571D01*
X293858095Y-138993809D01*
X293858095Y-139231904D01*
X293905714Y-139327142D01*
X293953333Y-139374761D01*
X294048571Y-139422380D01*
X294286666Y-139422380D01*
X294381904Y-139374761D01*
X294429523Y-139327142D01*
%TO.C,D14*%
X261304285Y-139412380D02*
X261304285Y-138412380D01*
X261066190Y-138412380D01*
X260923333Y-138460000D01*
X260828095Y-138555238D01*
X260780476Y-138650476D01*
X260732857Y-138840952D01*
X260732857Y-138983809D01*
X260780476Y-139174285D01*
X260828095Y-139269523D01*
X260923333Y-139364761D01*
X261066190Y-139412380D01*
X261304285Y-139412380D01*
X259780476Y-139412380D02*
X260351904Y-139412380D01*
X260066190Y-139412380D02*
X260066190Y-138412380D01*
X260161428Y-138555238D01*
X260256666Y-138650476D01*
X260351904Y-138698095D01*
X258923333Y-138745714D02*
X258923333Y-139412380D01*
X259161428Y-138364761D02*
X259399523Y-139079047D01*
X258780476Y-139079047D01*
%TO.C,D13*%
X226174285Y-139412380D02*
X226174285Y-138412380D01*
X225936190Y-138412380D01*
X225793333Y-138460000D01*
X225698095Y-138555238D01*
X225650476Y-138650476D01*
X225602857Y-138840952D01*
X225602857Y-138983809D01*
X225650476Y-139174285D01*
X225698095Y-139269523D01*
X225793333Y-139364761D01*
X225936190Y-139412380D01*
X226174285Y-139412380D01*
X224650476Y-139412380D02*
X225221904Y-139412380D01*
X224936190Y-139412380D02*
X224936190Y-138412380D01*
X225031428Y-138555238D01*
X225126666Y-138650476D01*
X225221904Y-138698095D01*
X224317142Y-138412380D02*
X223698095Y-138412380D01*
X224031428Y-138793333D01*
X223888571Y-138793333D01*
X223793333Y-138840952D01*
X223745714Y-138888571D01*
X223698095Y-138983809D01*
X223698095Y-139221904D01*
X223745714Y-139317142D01*
X223793333Y-139364761D01*
X223888571Y-139412380D01*
X224174285Y-139412380D01*
X224269523Y-139364761D01*
X224317142Y-139317142D01*
%TO.C,D12*%
X136434285Y-139412380D02*
X136434285Y-138412380D01*
X136196190Y-138412380D01*
X136053333Y-138460000D01*
X135958095Y-138555238D01*
X135910476Y-138650476D01*
X135862857Y-138840952D01*
X135862857Y-138983809D01*
X135910476Y-139174285D01*
X135958095Y-139269523D01*
X136053333Y-139364761D01*
X136196190Y-139412380D01*
X136434285Y-139412380D01*
X134910476Y-139412380D02*
X135481904Y-139412380D01*
X135196190Y-139412380D02*
X135196190Y-138412380D01*
X135291428Y-138555238D01*
X135386666Y-138650476D01*
X135481904Y-138698095D01*
X134529523Y-138507619D02*
X134481904Y-138460000D01*
X134386666Y-138412380D01*
X134148571Y-138412380D01*
X134053333Y-138460000D01*
X134005714Y-138507619D01*
X133958095Y-138602857D01*
X133958095Y-138698095D01*
X134005714Y-138840952D01*
X134577142Y-139412380D01*
X133958095Y-139412380D01*
%TO.C,D11*%
X101984285Y-139372380D02*
X101984285Y-138372380D01*
X101746190Y-138372380D01*
X101603333Y-138420000D01*
X101508095Y-138515238D01*
X101460476Y-138610476D01*
X101412857Y-138800952D01*
X101412857Y-138943809D01*
X101460476Y-139134285D01*
X101508095Y-139229523D01*
X101603333Y-139324761D01*
X101746190Y-139372380D01*
X101984285Y-139372380D01*
X100460476Y-139372380D02*
X101031904Y-139372380D01*
X100746190Y-139372380D02*
X100746190Y-138372380D01*
X100841428Y-138515238D01*
X100936666Y-138610476D01*
X101031904Y-138658095D01*
X99508095Y-139372380D02*
X100079523Y-139372380D01*
X99793809Y-139372380D02*
X99793809Y-138372380D01*
X99889047Y-138515238D01*
X99984285Y-138610476D01*
X100079523Y-138658095D01*
%TO.C,D10*%
X65634285Y-139322380D02*
X65634285Y-138322380D01*
X65396190Y-138322380D01*
X65253333Y-138370000D01*
X65158095Y-138465238D01*
X65110476Y-138560476D01*
X65062857Y-138750952D01*
X65062857Y-138893809D01*
X65110476Y-139084285D01*
X65158095Y-139179523D01*
X65253333Y-139274761D01*
X65396190Y-139322380D01*
X65634285Y-139322380D01*
X64110476Y-139322380D02*
X64681904Y-139322380D01*
X64396190Y-139322380D02*
X64396190Y-138322380D01*
X64491428Y-138465238D01*
X64586666Y-138560476D01*
X64681904Y-138608095D01*
X63491428Y-138322380D02*
X63396190Y-138322380D01*
X63300952Y-138370000D01*
X63253333Y-138417619D01*
X63205714Y-138512857D01*
X63158095Y-138703333D01*
X63158095Y-138941428D01*
X63205714Y-139131904D01*
X63253333Y-139227142D01*
X63300952Y-139274761D01*
X63396190Y-139322380D01*
X63491428Y-139322380D01*
X63586666Y-139274761D01*
X63634285Y-139227142D01*
X63681904Y-139131904D01*
X63729523Y-138941428D01*
X63729523Y-138703333D01*
X63681904Y-138512857D01*
X63634285Y-138417619D01*
X63586666Y-138370000D01*
X63491428Y-138322380D01*
%TO.C,D9*%
X30498095Y-139452380D02*
X30498095Y-138452380D01*
X30260000Y-138452380D01*
X30117142Y-138500000D01*
X30021904Y-138595238D01*
X29974285Y-138690476D01*
X29926666Y-138880952D01*
X29926666Y-139023809D01*
X29974285Y-139214285D01*
X30021904Y-139309523D01*
X30117142Y-139404761D01*
X30260000Y-139452380D01*
X30498095Y-139452380D01*
X29450476Y-139452380D02*
X29260000Y-139452380D01*
X29164761Y-139404761D01*
X29117142Y-139357142D01*
X29021904Y-139214285D01*
X28974285Y-139023809D01*
X28974285Y-138642857D01*
X29021904Y-138547619D01*
X29069523Y-138500000D01*
X29164761Y-138452380D01*
X29355238Y-138452380D01*
X29450476Y-138500000D01*
X29498095Y-138547619D01*
X29545714Y-138642857D01*
X29545714Y-138880952D01*
X29498095Y-138976190D01*
X29450476Y-139023809D01*
X29355238Y-139071428D01*
X29164761Y-139071428D01*
X29069523Y-139023809D01*
X29021904Y-138976190D01*
X28974285Y-138880952D01*
%TO.C,D8*%
X329928095Y-156332380D02*
X329928095Y-155332380D01*
X329690000Y-155332380D01*
X329547142Y-155380000D01*
X329451904Y-155475238D01*
X329404285Y-155570476D01*
X329356666Y-155760952D01*
X329356666Y-155903809D01*
X329404285Y-156094285D01*
X329451904Y-156189523D01*
X329547142Y-156284761D01*
X329690000Y-156332380D01*
X329928095Y-156332380D01*
X328785238Y-155760952D02*
X328880476Y-155713333D01*
X328928095Y-155665714D01*
X328975714Y-155570476D01*
X328975714Y-155522857D01*
X328928095Y-155427619D01*
X328880476Y-155380000D01*
X328785238Y-155332380D01*
X328594761Y-155332380D01*
X328499523Y-155380000D01*
X328451904Y-155427619D01*
X328404285Y-155522857D01*
X328404285Y-155570476D01*
X328451904Y-155665714D01*
X328499523Y-155713333D01*
X328594761Y-155760952D01*
X328785238Y-155760952D01*
X328880476Y-155808571D01*
X328928095Y-155856190D01*
X328975714Y-155951428D01*
X328975714Y-156141904D01*
X328928095Y-156237142D01*
X328880476Y-156284761D01*
X328785238Y-156332380D01*
X328594761Y-156332380D01*
X328499523Y-156284761D01*
X328451904Y-156237142D01*
X328404285Y-156141904D01*
X328404285Y-155951428D01*
X328451904Y-155856190D01*
X328499523Y-155808571D01*
X328594761Y-155760952D01*
%TO.C,D7*%
X296008095Y-156272380D02*
X296008095Y-155272380D01*
X295770000Y-155272380D01*
X295627142Y-155320000D01*
X295531904Y-155415238D01*
X295484285Y-155510476D01*
X295436666Y-155700952D01*
X295436666Y-155843809D01*
X295484285Y-156034285D01*
X295531904Y-156129523D01*
X295627142Y-156224761D01*
X295770000Y-156272380D01*
X296008095Y-156272380D01*
X295103333Y-155272380D02*
X294436666Y-155272380D01*
X294865238Y-156272380D01*
%TO.C,D6*%
X261053095Y-156362380D02*
X261053095Y-155362380D01*
X260815000Y-155362380D01*
X260672142Y-155410000D01*
X260576904Y-155505238D01*
X260529285Y-155600476D01*
X260481666Y-155790952D01*
X260481666Y-155933809D01*
X260529285Y-156124285D01*
X260576904Y-156219523D01*
X260672142Y-156314761D01*
X260815000Y-156362380D01*
X261053095Y-156362380D01*
X259624523Y-155362380D02*
X259815000Y-155362380D01*
X259910238Y-155410000D01*
X259957857Y-155457619D01*
X260053095Y-155600476D01*
X260100714Y-155790952D01*
X260100714Y-156171904D01*
X260053095Y-156267142D01*
X260005476Y-156314761D01*
X259910238Y-156362380D01*
X259719761Y-156362380D01*
X259624523Y-156314761D01*
X259576904Y-156267142D01*
X259529285Y-156171904D01*
X259529285Y-155933809D01*
X259576904Y-155838571D01*
X259624523Y-155790952D01*
X259719761Y-155743333D01*
X259910238Y-155743333D01*
X260005476Y-155790952D01*
X260053095Y-155838571D01*
X260100714Y-155933809D01*
%TO.C,D5*%
X225638095Y-156292380D02*
X225638095Y-155292380D01*
X225400000Y-155292380D01*
X225257142Y-155340000D01*
X225161904Y-155435238D01*
X225114285Y-155530476D01*
X225066666Y-155720952D01*
X225066666Y-155863809D01*
X225114285Y-156054285D01*
X225161904Y-156149523D01*
X225257142Y-156244761D01*
X225400000Y-156292380D01*
X225638095Y-156292380D01*
X224161904Y-155292380D02*
X224638095Y-155292380D01*
X224685714Y-155768571D01*
X224638095Y-155720952D01*
X224542857Y-155673333D01*
X224304761Y-155673333D01*
X224209523Y-155720952D01*
X224161904Y-155768571D01*
X224114285Y-155863809D01*
X224114285Y-156101904D01*
X224161904Y-156197142D01*
X224209523Y-156244761D01*
X224304761Y-156292380D01*
X224542857Y-156292380D01*
X224638095Y-156244761D01*
X224685714Y-156197142D01*
%TO.C,D4*%
X136168095Y-156352380D02*
X136168095Y-155352380D01*
X135930000Y-155352380D01*
X135787142Y-155400000D01*
X135691904Y-155495238D01*
X135644285Y-155590476D01*
X135596666Y-155780952D01*
X135596666Y-155923809D01*
X135644285Y-156114285D01*
X135691904Y-156209523D01*
X135787142Y-156304761D01*
X135930000Y-156352380D01*
X136168095Y-156352380D01*
X134739523Y-155685714D02*
X134739523Y-156352380D01*
X134977619Y-155304761D02*
X135215714Y-156019047D01*
X134596666Y-156019047D01*
%TO.C,D3*%
X101438095Y-156362380D02*
X101438095Y-155362380D01*
X101200000Y-155362380D01*
X101057142Y-155410000D01*
X100961904Y-155505238D01*
X100914285Y-155600476D01*
X100866666Y-155790952D01*
X100866666Y-155933809D01*
X100914285Y-156124285D01*
X100961904Y-156219523D01*
X101057142Y-156314761D01*
X101200000Y-156362380D01*
X101438095Y-156362380D01*
X100533333Y-155362380D02*
X99914285Y-155362380D01*
X100247619Y-155743333D01*
X100104761Y-155743333D01*
X100009523Y-155790952D01*
X99961904Y-155838571D01*
X99914285Y-155933809D01*
X99914285Y-156171904D01*
X99961904Y-156267142D01*
X100009523Y-156314761D01*
X100104761Y-156362380D01*
X100390476Y-156362380D01*
X100485714Y-156314761D01*
X100533333Y-156267142D01*
%TO.C,D2*%
X65268095Y-156262380D02*
X65268095Y-155262380D01*
X65030000Y-155262380D01*
X64887142Y-155310000D01*
X64791904Y-155405238D01*
X64744285Y-155500476D01*
X64696666Y-155690952D01*
X64696666Y-155833809D01*
X64744285Y-156024285D01*
X64791904Y-156119523D01*
X64887142Y-156214761D01*
X65030000Y-156262380D01*
X65268095Y-156262380D01*
X64315714Y-155357619D02*
X64268095Y-155310000D01*
X64172857Y-155262380D01*
X63934761Y-155262380D01*
X63839523Y-155310000D01*
X63791904Y-155357619D01*
X63744285Y-155452857D01*
X63744285Y-155548095D01*
X63791904Y-155690952D01*
X64363333Y-156262380D01*
X63744285Y-156262380D01*
%TO.C,C18*%
X356537142Y-139812142D02*
X356584761Y-139764523D01*
X356632380Y-139621666D01*
X356632380Y-139526428D01*
X356584761Y-139383571D01*
X356489523Y-139288333D01*
X356394285Y-139240714D01*
X356203809Y-139193095D01*
X356060952Y-139193095D01*
X355870476Y-139240714D01*
X355775238Y-139288333D01*
X355680000Y-139383571D01*
X355632380Y-139526428D01*
X355632380Y-139621666D01*
X355680000Y-139764523D01*
X355727619Y-139812142D01*
X356632380Y-140764523D02*
X356632380Y-140193095D01*
X356632380Y-140478809D02*
X355632380Y-140478809D01*
X355775238Y-140383571D01*
X355870476Y-140288333D01*
X355918095Y-140193095D01*
X356060952Y-141335952D02*
X356013333Y-141240714D01*
X355965714Y-141193095D01*
X355870476Y-141145476D01*
X355822857Y-141145476D01*
X355727619Y-141193095D01*
X355680000Y-141240714D01*
X355632380Y-141335952D01*
X355632380Y-141526428D01*
X355680000Y-141621666D01*
X355727619Y-141669285D01*
X355822857Y-141716904D01*
X355870476Y-141716904D01*
X355965714Y-141669285D01*
X356013333Y-141621666D01*
X356060952Y-141526428D01*
X356060952Y-141335952D01*
X356108571Y-141240714D01*
X356156190Y-141193095D01*
X356251428Y-141145476D01*
X356441904Y-141145476D01*
X356537142Y-141193095D01*
X356584761Y-141240714D01*
X356632380Y-141335952D01*
X356632380Y-141526428D01*
X356584761Y-141621666D01*
X356537142Y-141669285D01*
X356441904Y-141716904D01*
X356251428Y-141716904D01*
X356156190Y-141669285D01*
X356108571Y-141621666D01*
X356060952Y-141526428D01*
%TO.C,C17*%
X316587142Y-156732142D02*
X316634761Y-156684523D01*
X316682380Y-156541666D01*
X316682380Y-156446428D01*
X316634761Y-156303571D01*
X316539523Y-156208333D01*
X316444285Y-156160714D01*
X316253809Y-156113095D01*
X316110952Y-156113095D01*
X315920476Y-156160714D01*
X315825238Y-156208333D01*
X315730000Y-156303571D01*
X315682380Y-156446428D01*
X315682380Y-156541666D01*
X315730000Y-156684523D01*
X315777619Y-156732142D01*
X316682380Y-157684523D02*
X316682380Y-157113095D01*
X316682380Y-157398809D02*
X315682380Y-157398809D01*
X315825238Y-157303571D01*
X315920476Y-157208333D01*
X315968095Y-157113095D01*
X315682380Y-158017857D02*
X315682380Y-158684523D01*
X316682380Y-158255952D01*
%TO.C,C16*%
X122687142Y-156712142D02*
X122734761Y-156664523D01*
X122782380Y-156521666D01*
X122782380Y-156426428D01*
X122734761Y-156283571D01*
X122639523Y-156188333D01*
X122544285Y-156140714D01*
X122353809Y-156093095D01*
X122210952Y-156093095D01*
X122020476Y-156140714D01*
X121925238Y-156188333D01*
X121830000Y-156283571D01*
X121782380Y-156426428D01*
X121782380Y-156521666D01*
X121830000Y-156664523D01*
X121877619Y-156712142D01*
X122782380Y-157664523D02*
X122782380Y-157093095D01*
X122782380Y-157378809D02*
X121782380Y-157378809D01*
X121925238Y-157283571D01*
X122020476Y-157188333D01*
X122068095Y-157093095D01*
X121782380Y-158521666D02*
X121782380Y-158331190D01*
X121830000Y-158235952D01*
X121877619Y-158188333D01*
X122020476Y-158093095D01*
X122210952Y-158045476D01*
X122591904Y-158045476D01*
X122687142Y-158093095D01*
X122734761Y-158140714D01*
X122782380Y-158235952D01*
X122782380Y-158426428D01*
X122734761Y-158521666D01*
X122687142Y-158569285D01*
X122591904Y-158616904D01*
X122353809Y-158616904D01*
X122258571Y-158569285D01*
X122210952Y-158521666D01*
X122163333Y-158426428D01*
X122163333Y-158235952D01*
X122210952Y-158140714D01*
X122258571Y-158093095D01*
X122353809Y-158045476D01*
%TO.C,C15*%
X316397142Y-139792142D02*
X316444761Y-139744523D01*
X316492380Y-139601666D01*
X316492380Y-139506428D01*
X316444761Y-139363571D01*
X316349523Y-139268333D01*
X316254285Y-139220714D01*
X316063809Y-139173095D01*
X315920952Y-139173095D01*
X315730476Y-139220714D01*
X315635238Y-139268333D01*
X315540000Y-139363571D01*
X315492380Y-139506428D01*
X315492380Y-139601666D01*
X315540000Y-139744523D01*
X315587619Y-139792142D01*
X316492380Y-140744523D02*
X316492380Y-140173095D01*
X316492380Y-140458809D02*
X315492380Y-140458809D01*
X315635238Y-140363571D01*
X315730476Y-140268333D01*
X315778095Y-140173095D01*
X315492380Y-141649285D02*
X315492380Y-141173095D01*
X315968571Y-141125476D01*
X315920952Y-141173095D01*
X315873333Y-141268333D01*
X315873333Y-141506428D01*
X315920952Y-141601666D01*
X315968571Y-141649285D01*
X316063809Y-141696904D01*
X316301904Y-141696904D01*
X316397142Y-141649285D01*
X316444761Y-141601666D01*
X316492380Y-141506428D01*
X316492380Y-141268333D01*
X316444761Y-141173095D01*
X316397142Y-141125476D01*
%TO.C,C14*%
X122657142Y-139802142D02*
X122704761Y-139754523D01*
X122752380Y-139611666D01*
X122752380Y-139516428D01*
X122704761Y-139373571D01*
X122609523Y-139278333D01*
X122514285Y-139230714D01*
X122323809Y-139183095D01*
X122180952Y-139183095D01*
X121990476Y-139230714D01*
X121895238Y-139278333D01*
X121800000Y-139373571D01*
X121752380Y-139516428D01*
X121752380Y-139611666D01*
X121800000Y-139754523D01*
X121847619Y-139802142D01*
X122752380Y-140754523D02*
X122752380Y-140183095D01*
X122752380Y-140468809D02*
X121752380Y-140468809D01*
X121895238Y-140373571D01*
X121990476Y-140278333D01*
X122038095Y-140183095D01*
X122085714Y-141611666D02*
X122752380Y-141611666D01*
X121704761Y-141373571D02*
X122419047Y-141135476D01*
X122419047Y-141754523D01*
%TO.C,C13*%
X162587142Y-139832142D02*
X162634761Y-139784523D01*
X162682380Y-139641666D01*
X162682380Y-139546428D01*
X162634761Y-139403571D01*
X162539523Y-139308333D01*
X162444285Y-139260714D01*
X162253809Y-139213095D01*
X162110952Y-139213095D01*
X161920476Y-139260714D01*
X161825238Y-139308333D01*
X161730000Y-139403571D01*
X161682380Y-139546428D01*
X161682380Y-139641666D01*
X161730000Y-139784523D01*
X161777619Y-139832142D01*
X162682380Y-140784523D02*
X162682380Y-140213095D01*
X162682380Y-140498809D02*
X161682380Y-140498809D01*
X161825238Y-140403571D01*
X161920476Y-140308333D01*
X161968095Y-140213095D01*
X161682380Y-141117857D02*
X161682380Y-141736904D01*
X162063333Y-141403571D01*
X162063333Y-141546428D01*
X162110952Y-141641666D01*
X162158571Y-141689285D01*
X162253809Y-141736904D01*
X162491904Y-141736904D01*
X162587142Y-141689285D01*
X162634761Y-141641666D01*
X162682380Y-141546428D01*
X162682380Y-141260714D01*
X162634761Y-141165476D01*
X162587142Y-141117857D01*
%TO.C,C12*%
X282897142Y-156712142D02*
X282944761Y-156664523D01*
X282992380Y-156521666D01*
X282992380Y-156426428D01*
X282944761Y-156283571D01*
X282849523Y-156188333D01*
X282754285Y-156140714D01*
X282563809Y-156093095D01*
X282420952Y-156093095D01*
X282230476Y-156140714D01*
X282135238Y-156188333D01*
X282040000Y-156283571D01*
X281992380Y-156426428D01*
X281992380Y-156521666D01*
X282040000Y-156664523D01*
X282087619Y-156712142D01*
X282992380Y-157664523D02*
X282992380Y-157093095D01*
X282992380Y-157378809D02*
X281992380Y-157378809D01*
X282135238Y-157283571D01*
X282230476Y-157188333D01*
X282278095Y-157093095D01*
X282087619Y-158045476D02*
X282040000Y-158093095D01*
X281992380Y-158188333D01*
X281992380Y-158426428D01*
X282040000Y-158521666D01*
X282087619Y-158569285D01*
X282182857Y-158616904D01*
X282278095Y-158616904D01*
X282420952Y-158569285D01*
X282992380Y-157997857D01*
X282992380Y-158616904D01*
%TO.C,C11*%
X88167142Y-156722142D02*
X88214761Y-156674523D01*
X88262380Y-156531666D01*
X88262380Y-156436428D01*
X88214761Y-156293571D01*
X88119523Y-156198333D01*
X88024285Y-156150714D01*
X87833809Y-156103095D01*
X87690952Y-156103095D01*
X87500476Y-156150714D01*
X87405238Y-156198333D01*
X87310000Y-156293571D01*
X87262380Y-156436428D01*
X87262380Y-156531666D01*
X87310000Y-156674523D01*
X87357619Y-156722142D01*
X88262380Y-157674523D02*
X88262380Y-157103095D01*
X88262380Y-157388809D02*
X87262380Y-157388809D01*
X87405238Y-157293571D01*
X87500476Y-157198333D01*
X87548095Y-157103095D01*
X88262380Y-158626904D02*
X88262380Y-158055476D01*
X88262380Y-158341190D02*
X87262380Y-158341190D01*
X87405238Y-158245952D01*
X87500476Y-158150714D01*
X87548095Y-158055476D01*
%TO.C,C10*%
X282537142Y-139792142D02*
X282584761Y-139744523D01*
X282632380Y-139601666D01*
X282632380Y-139506428D01*
X282584761Y-139363571D01*
X282489523Y-139268333D01*
X282394285Y-139220714D01*
X282203809Y-139173095D01*
X282060952Y-139173095D01*
X281870476Y-139220714D01*
X281775238Y-139268333D01*
X281680000Y-139363571D01*
X281632380Y-139506428D01*
X281632380Y-139601666D01*
X281680000Y-139744523D01*
X281727619Y-139792142D01*
X282632380Y-140744523D02*
X282632380Y-140173095D01*
X282632380Y-140458809D02*
X281632380Y-140458809D01*
X281775238Y-140363571D01*
X281870476Y-140268333D01*
X281918095Y-140173095D01*
X281632380Y-141363571D02*
X281632380Y-141458809D01*
X281680000Y-141554047D01*
X281727619Y-141601666D01*
X281822857Y-141649285D01*
X282013333Y-141696904D01*
X282251428Y-141696904D01*
X282441904Y-141649285D01*
X282537142Y-141601666D01*
X282584761Y-141554047D01*
X282632380Y-141458809D01*
X282632380Y-141363571D01*
X282584761Y-141268333D01*
X282537142Y-141220714D01*
X282441904Y-141173095D01*
X282251428Y-141125476D01*
X282013333Y-141125476D01*
X281822857Y-141173095D01*
X281727619Y-141220714D01*
X281680000Y-141268333D01*
X281632380Y-141363571D01*
%TO.C,C9*%
X88327142Y-140338333D02*
X88374761Y-140290714D01*
X88422380Y-140147857D01*
X88422380Y-140052619D01*
X88374761Y-139909761D01*
X88279523Y-139814523D01*
X88184285Y-139766904D01*
X87993809Y-139719285D01*
X87850952Y-139719285D01*
X87660476Y-139766904D01*
X87565238Y-139814523D01*
X87470000Y-139909761D01*
X87422380Y-140052619D01*
X87422380Y-140147857D01*
X87470000Y-140290714D01*
X87517619Y-140338333D01*
X88422380Y-140814523D02*
X88422380Y-141005000D01*
X88374761Y-141100238D01*
X88327142Y-141147857D01*
X88184285Y-141243095D01*
X87993809Y-141290714D01*
X87612857Y-141290714D01*
X87517619Y-141243095D01*
X87470000Y-141195476D01*
X87422380Y-141100238D01*
X87422380Y-140909761D01*
X87470000Y-140814523D01*
X87517619Y-140766904D01*
X87612857Y-140719285D01*
X87850952Y-140719285D01*
X87946190Y-140766904D01*
X87993809Y-140814523D01*
X88041428Y-140909761D01*
X88041428Y-141100238D01*
X87993809Y-141195476D01*
X87946190Y-141243095D01*
X87850952Y-141290714D01*
%TO.C,C8*%
X247267142Y-157168333D02*
X247314761Y-157120714D01*
X247362380Y-156977857D01*
X247362380Y-156882619D01*
X247314761Y-156739761D01*
X247219523Y-156644523D01*
X247124285Y-156596904D01*
X246933809Y-156549285D01*
X246790952Y-156549285D01*
X246600476Y-156596904D01*
X246505238Y-156644523D01*
X246410000Y-156739761D01*
X246362380Y-156882619D01*
X246362380Y-156977857D01*
X246410000Y-157120714D01*
X246457619Y-157168333D01*
X246790952Y-157739761D02*
X246743333Y-157644523D01*
X246695714Y-157596904D01*
X246600476Y-157549285D01*
X246552857Y-157549285D01*
X246457619Y-157596904D01*
X246410000Y-157644523D01*
X246362380Y-157739761D01*
X246362380Y-157930238D01*
X246410000Y-158025476D01*
X246457619Y-158073095D01*
X246552857Y-158120714D01*
X246600476Y-158120714D01*
X246695714Y-158073095D01*
X246743333Y-158025476D01*
X246790952Y-157930238D01*
X246790952Y-157739761D01*
X246838571Y-157644523D01*
X246886190Y-157596904D01*
X246981428Y-157549285D01*
X247171904Y-157549285D01*
X247267142Y-157596904D01*
X247314761Y-157644523D01*
X247362380Y-157739761D01*
X247362380Y-157930238D01*
X247314761Y-158025476D01*
X247267142Y-158073095D01*
X247171904Y-158120714D01*
X246981428Y-158120714D01*
X246886190Y-158073095D01*
X246838571Y-158025476D01*
X246790952Y-157930238D01*
%TO.C,C6*%
X247697142Y-140288333D02*
X247744761Y-140240714D01*
X247792380Y-140097857D01*
X247792380Y-140002619D01*
X247744761Y-139859761D01*
X247649523Y-139764523D01*
X247554285Y-139716904D01*
X247363809Y-139669285D01*
X247220952Y-139669285D01*
X247030476Y-139716904D01*
X246935238Y-139764523D01*
X246840000Y-139859761D01*
X246792380Y-140002619D01*
X246792380Y-140097857D01*
X246840000Y-140240714D01*
X246887619Y-140288333D01*
X246792380Y-141145476D02*
X246792380Y-140955000D01*
X246840000Y-140859761D01*
X246887619Y-140812142D01*
X247030476Y-140716904D01*
X247220952Y-140669285D01*
X247601904Y-140669285D01*
X247697142Y-140716904D01*
X247744761Y-140764523D01*
X247792380Y-140859761D01*
X247792380Y-141050238D01*
X247744761Y-141145476D01*
X247697142Y-141193095D01*
X247601904Y-141240714D01*
X247363809Y-141240714D01*
X247268571Y-141193095D01*
X247220952Y-141145476D01*
X247173333Y-141050238D01*
X247173333Y-140859761D01*
X247220952Y-140764523D01*
X247268571Y-140716904D01*
X247363809Y-140669285D01*
%TO.C,C5*%
X52257142Y-140273333D02*
X52304761Y-140225714D01*
X52352380Y-140082857D01*
X52352380Y-139987619D01*
X52304761Y-139844761D01*
X52209523Y-139749523D01*
X52114285Y-139701904D01*
X51923809Y-139654285D01*
X51780952Y-139654285D01*
X51590476Y-139701904D01*
X51495238Y-139749523D01*
X51400000Y-139844761D01*
X51352380Y-139987619D01*
X51352380Y-140082857D01*
X51400000Y-140225714D01*
X51447619Y-140273333D01*
X51352380Y-141178095D02*
X51352380Y-140701904D01*
X51828571Y-140654285D01*
X51780952Y-140701904D01*
X51733333Y-140797142D01*
X51733333Y-141035238D01*
X51780952Y-141130476D01*
X51828571Y-141178095D01*
X51923809Y-141225714D01*
X52161904Y-141225714D01*
X52257142Y-141178095D01*
X52304761Y-141130476D01*
X52352380Y-141035238D01*
X52352380Y-140797142D01*
X52304761Y-140701904D01*
X52257142Y-140654285D01*
%TO.C,C4*%
X212197142Y-157188333D02*
X212244761Y-157140714D01*
X212292380Y-156997857D01*
X212292380Y-156902619D01*
X212244761Y-156759761D01*
X212149523Y-156664523D01*
X212054285Y-156616904D01*
X211863809Y-156569285D01*
X211720952Y-156569285D01*
X211530476Y-156616904D01*
X211435238Y-156664523D01*
X211340000Y-156759761D01*
X211292380Y-156902619D01*
X211292380Y-156997857D01*
X211340000Y-157140714D01*
X211387619Y-157188333D01*
X211625714Y-158045476D02*
X212292380Y-158045476D01*
X211244761Y-157807380D02*
X211959047Y-157569285D01*
X211959047Y-158188333D01*
%TO.C,C3*%
X16927142Y-160513333D02*
X16974761Y-160465714D01*
X17022380Y-160322857D01*
X17022380Y-160227619D01*
X16974761Y-160084761D01*
X16879523Y-159989523D01*
X16784285Y-159941904D01*
X16593809Y-159894285D01*
X16450952Y-159894285D01*
X16260476Y-159941904D01*
X16165238Y-159989523D01*
X16070000Y-160084761D01*
X16022380Y-160227619D01*
X16022380Y-160322857D01*
X16070000Y-160465714D01*
X16117619Y-160513333D01*
X16022380Y-160846666D02*
X16022380Y-161465714D01*
X16403333Y-161132380D01*
X16403333Y-161275238D01*
X16450952Y-161370476D01*
X16498571Y-161418095D01*
X16593809Y-161465714D01*
X16831904Y-161465714D01*
X16927142Y-161418095D01*
X16974761Y-161370476D01*
X17022380Y-161275238D01*
X17022380Y-160989523D01*
X16974761Y-160894285D01*
X16927142Y-160846666D01*
%TO.C,C2*%
X212407142Y-140358333D02*
X212454761Y-140310714D01*
X212502380Y-140167857D01*
X212502380Y-140072619D01*
X212454761Y-139929761D01*
X212359523Y-139834523D01*
X212264285Y-139786904D01*
X212073809Y-139739285D01*
X211930952Y-139739285D01*
X211740476Y-139786904D01*
X211645238Y-139834523D01*
X211550000Y-139929761D01*
X211502380Y-140072619D01*
X211502380Y-140167857D01*
X211550000Y-140310714D01*
X211597619Y-140358333D01*
X211597619Y-140739285D02*
X211550000Y-140786904D01*
X211502380Y-140882142D01*
X211502380Y-141120238D01*
X211550000Y-141215476D01*
X211597619Y-141263095D01*
X211692857Y-141310714D01*
X211788095Y-141310714D01*
X211930952Y-141263095D01*
X212502380Y-140691666D01*
X212502380Y-141310714D01*
%TO.C,C1*%
X16757142Y-143723333D02*
X16804761Y-143675714D01*
X16852380Y-143532857D01*
X16852380Y-143437619D01*
X16804761Y-143294761D01*
X16709523Y-143199523D01*
X16614285Y-143151904D01*
X16423809Y-143104285D01*
X16280952Y-143104285D01*
X16090476Y-143151904D01*
X15995238Y-143199523D01*
X15900000Y-143294761D01*
X15852380Y-143437619D01*
X15852380Y-143532857D01*
X15900000Y-143675714D01*
X15947619Y-143723333D01*
X16852380Y-144675714D02*
X16852380Y-144104285D01*
X16852380Y-144390000D02*
X15852380Y-144390000D01*
X15995238Y-144294761D01*
X16090476Y-144199523D01*
X16138095Y-144104285D01*
%TD*%
M02*
