%TF.GenerationSoftware,KiCad,Pcbnew,(5.1.9)-1*%
%TF.CreationDate,2021-03-26T19:38:27+01:00*%
%TF.ProjectId,Main_Relay_Board,4d61696e-5f52-4656-9c61-795f426f6172,rev?*%
%TF.SameCoordinates,Original*%
%TF.FileFunction,Legend,Top*%
%TF.FilePolarity,Positive*%
%FSLAX46Y46*%
G04 Gerber Fmt 4.6, Leading zero omitted, Abs format (unit mm)*
G04 Created by KiCad (PCBNEW (5.1.9)-1) date 2021-03-26 19:38:27*
%MOMM*%
%LPD*%
G01*
G04 APERTURE LIST*
%ADD10C,0.300000*%
%ADD11C,0.100000*%
%ADD12C,0.120000*%
%ADD13C,0.152400*%
%ADD14C,0.200000*%
%ADD15C,0.254000*%
%ADD16C,0.150000*%
G04 APERTURE END LIST*
D10*
X123185714Y-109607142D02*
X123185714Y-112035714D01*
X123328571Y-112321428D01*
X123471428Y-112464285D01*
X123757142Y-112607142D01*
X124328571Y-112607142D01*
X124614285Y-112464285D01*
X124757142Y-112321428D01*
X124900000Y-112035714D01*
X124900000Y-109607142D01*
X126328571Y-112607142D02*
X126328571Y-109607142D01*
X127471428Y-109607142D01*
X127757142Y-109750000D01*
X127900000Y-109892857D01*
X128042857Y-110178571D01*
X128042857Y-110607142D01*
X127900000Y-110892857D01*
X127757142Y-111035714D01*
X127471428Y-111178571D01*
X126328571Y-111178571D01*
X129042857Y-109607142D02*
X131042857Y-109607142D01*
X129042857Y-112607142D01*
X131042857Y-112607142D01*
X134328571Y-112464285D02*
X134757142Y-112607142D01*
X135471428Y-112607142D01*
X135757142Y-112464285D01*
X135900000Y-112321428D01*
X136042857Y-112035714D01*
X136042857Y-111750000D01*
X135900000Y-111464285D01*
X135757142Y-111321428D01*
X135471428Y-111178571D01*
X134900000Y-111035714D01*
X134614285Y-110892857D01*
X134471428Y-110750000D01*
X134328571Y-110464285D01*
X134328571Y-110178571D01*
X134471428Y-109892857D01*
X134614285Y-109750000D01*
X134900000Y-109607142D01*
X135614285Y-109607142D01*
X136042857Y-109750000D01*
X137042857Y-110607142D02*
X137614285Y-112607142D01*
X138185714Y-111178571D01*
X138757142Y-112607142D01*
X139328571Y-110607142D01*
X140471428Y-112607142D02*
X140471428Y-110607142D01*
X140471428Y-109607142D02*
X140328571Y-109750000D01*
X140471428Y-109892857D01*
X140614285Y-109750000D01*
X140471428Y-109607142D01*
X140471428Y-109892857D01*
X141471428Y-110607142D02*
X142614285Y-110607142D01*
X141900000Y-109607142D02*
X141900000Y-112178571D01*
X142042857Y-112464285D01*
X142328571Y-112607142D01*
X142614285Y-112607142D01*
X144900000Y-112464285D02*
X144614285Y-112607142D01*
X144042857Y-112607142D01*
X143757142Y-112464285D01*
X143614285Y-112321428D01*
X143471428Y-112035714D01*
X143471428Y-111178571D01*
X143614285Y-110892857D01*
X143757142Y-110750000D01*
X144042857Y-110607142D01*
X144614285Y-110607142D01*
X144900000Y-110750000D01*
X146185714Y-112607142D02*
X146185714Y-109607142D01*
X147471428Y-112607142D02*
X147471428Y-111035714D01*
X147328571Y-110750000D01*
X147042857Y-110607142D01*
X146614285Y-110607142D01*
X146328571Y-110750000D01*
X146185714Y-110892857D01*
X150042857Y-112464285D02*
X149757142Y-112607142D01*
X149185714Y-112607142D01*
X148900000Y-112464285D01*
X148757142Y-112178571D01*
X148757142Y-111035714D01*
X148900000Y-110750000D01*
X149185714Y-110607142D01*
X149757142Y-110607142D01*
X150042857Y-110750000D01*
X150185714Y-111035714D01*
X150185714Y-111321428D01*
X148757142Y-111607142D01*
X151471428Y-112607142D02*
X151471428Y-110607142D01*
X151471428Y-111178571D02*
X151614285Y-110892857D01*
X151757142Y-110750000D01*
X152042857Y-110607142D01*
X152328571Y-110607142D01*
X157328571Y-112607142D02*
X156328571Y-111178571D01*
X155614285Y-112607142D02*
X155614285Y-109607142D01*
X156757142Y-109607142D01*
X157042857Y-109750000D01*
X157185714Y-109892857D01*
X157328571Y-110178571D01*
X157328571Y-110607142D01*
X157185714Y-110892857D01*
X157042857Y-111035714D01*
X156757142Y-111178571D01*
X155614285Y-111178571D01*
X159757142Y-112464285D02*
X159471428Y-112607142D01*
X158900000Y-112607142D01*
X158614285Y-112464285D01*
X158471428Y-112178571D01*
X158471428Y-111035714D01*
X158614285Y-110750000D01*
X158900000Y-110607142D01*
X159471428Y-110607142D01*
X159757142Y-110750000D01*
X159900000Y-111035714D01*
X159900000Y-111321428D01*
X158471428Y-111607142D01*
X161614285Y-112607142D02*
X161328571Y-112464285D01*
X161185714Y-112178571D01*
X161185714Y-109607142D01*
X164042857Y-112607142D02*
X164042857Y-111035714D01*
X163900000Y-110750000D01*
X163614285Y-110607142D01*
X163042857Y-110607142D01*
X162757142Y-110750000D01*
X164042857Y-112464285D02*
X163757142Y-112607142D01*
X163042857Y-112607142D01*
X162757142Y-112464285D01*
X162614285Y-112178571D01*
X162614285Y-111892857D01*
X162757142Y-111607142D01*
X163042857Y-111464285D01*
X163757142Y-111464285D01*
X164042857Y-111321428D01*
X165185714Y-110607142D02*
X165900000Y-112607142D01*
X166614285Y-110607142D02*
X165900000Y-112607142D01*
X165614285Y-113321428D01*
X165471428Y-113464285D01*
X165185714Y-113607142D01*
X171042857Y-111035714D02*
X171471428Y-111178571D01*
X171614285Y-111321428D01*
X171757142Y-111607142D01*
X171757142Y-112035714D01*
X171614285Y-112321428D01*
X171471428Y-112464285D01*
X171185714Y-112607142D01*
X170042857Y-112607142D01*
X170042857Y-109607142D01*
X171042857Y-109607142D01*
X171328571Y-109750000D01*
X171471428Y-109892857D01*
X171614285Y-110178571D01*
X171614285Y-110464285D01*
X171471428Y-110750000D01*
X171328571Y-110892857D01*
X171042857Y-111035714D01*
X170042857Y-111035714D01*
X173471428Y-112607142D02*
X173185714Y-112464285D01*
X173042857Y-112321428D01*
X172900000Y-112035714D01*
X172900000Y-111178571D01*
X173042857Y-110892857D01*
X173185714Y-110750000D01*
X173471428Y-110607142D01*
X173900000Y-110607142D01*
X174185714Y-110750000D01*
X174328571Y-110892857D01*
X174471428Y-111178571D01*
X174471428Y-112035714D01*
X174328571Y-112321428D01*
X174185714Y-112464285D01*
X173900000Y-112607142D01*
X173471428Y-112607142D01*
X177042857Y-112607142D02*
X177042857Y-111035714D01*
X176900000Y-110750000D01*
X176614285Y-110607142D01*
X176042857Y-110607142D01*
X175757142Y-110750000D01*
X177042857Y-112464285D02*
X176757142Y-112607142D01*
X176042857Y-112607142D01*
X175757142Y-112464285D01*
X175614285Y-112178571D01*
X175614285Y-111892857D01*
X175757142Y-111607142D01*
X176042857Y-111464285D01*
X176757142Y-111464285D01*
X177042857Y-111321428D01*
X178471428Y-112607142D02*
X178471428Y-110607142D01*
X178471428Y-111178571D02*
X178614285Y-110892857D01*
X178757142Y-110750000D01*
X179042857Y-110607142D01*
X179328571Y-110607142D01*
X181614285Y-112607142D02*
X181614285Y-109607142D01*
X181614285Y-112464285D02*
X181328571Y-112607142D01*
X180757142Y-112607142D01*
X180471428Y-112464285D01*
X180328571Y-112321428D01*
X180185714Y-112035714D01*
X180185714Y-111178571D01*
X180328571Y-110892857D01*
X180471428Y-110750000D01*
X180757142Y-110607142D01*
X181328571Y-110607142D01*
X181614285Y-110750000D01*
X131400000Y-115835714D02*
X131828571Y-115978571D01*
X131971428Y-116121428D01*
X132114285Y-116407142D01*
X132114285Y-116835714D01*
X131971428Y-117121428D01*
X131828571Y-117264285D01*
X131542857Y-117407142D01*
X130400000Y-117407142D01*
X130400000Y-114407142D01*
X131400000Y-114407142D01*
X131685714Y-114550000D01*
X131828571Y-114692857D01*
X131971428Y-114978571D01*
X131971428Y-115264285D01*
X131828571Y-115550000D01*
X131685714Y-115692857D01*
X131400000Y-115835714D01*
X130400000Y-115835714D01*
X132971428Y-114407142D02*
X133971428Y-117407142D01*
X134971428Y-114407142D01*
X135971428Y-117407142D02*
X135971428Y-114407142D01*
X137685714Y-117407142D02*
X136400000Y-115692857D01*
X137685714Y-114407142D02*
X135971428Y-116121428D01*
X138828571Y-117264285D02*
X139257142Y-117407142D01*
X139971428Y-117407142D01*
X140257142Y-117264285D01*
X140400000Y-117121428D01*
X140542857Y-116835714D01*
X140542857Y-116550000D01*
X140400000Y-116264285D01*
X140257142Y-116121428D01*
X139971428Y-115978571D01*
X139400000Y-115835714D01*
X139114285Y-115692857D01*
X138971428Y-115550000D01*
X138828571Y-115264285D01*
X138828571Y-114978571D01*
X138971428Y-114692857D01*
X139114285Y-114550000D01*
X139400000Y-114407142D01*
X140114285Y-114407142D01*
X140542857Y-114550000D01*
X142257142Y-117407142D02*
X141971428Y-117264285D01*
X141828571Y-117121428D01*
X141685714Y-116835714D01*
X141685714Y-115978571D01*
X141828571Y-115692857D01*
X141971428Y-115550000D01*
X142257142Y-115407142D01*
X142685714Y-115407142D01*
X142971428Y-115550000D01*
X143114285Y-115692857D01*
X143257142Y-115978571D01*
X143257142Y-116835714D01*
X143114285Y-117121428D01*
X142971428Y-117264285D01*
X142685714Y-117407142D01*
X142257142Y-117407142D01*
X145828571Y-115407142D02*
X145828571Y-117407142D01*
X144542857Y-115407142D02*
X144542857Y-116978571D01*
X144685714Y-117264285D01*
X144971428Y-117407142D01*
X145400000Y-117407142D01*
X145685714Y-117264285D01*
X145828571Y-117121428D01*
X147257142Y-115407142D02*
X147257142Y-117407142D01*
X147257142Y-115692857D02*
X147400000Y-115550000D01*
X147685714Y-115407142D01*
X148114285Y-115407142D01*
X148400000Y-115550000D01*
X148542857Y-115835714D01*
X148542857Y-117407142D01*
X151257142Y-117407142D02*
X151257142Y-114407142D01*
X151257142Y-117264285D02*
X150971428Y-117407142D01*
X150400000Y-117407142D01*
X150114285Y-117264285D01*
X149971428Y-117121428D01*
X149828571Y-116835714D01*
X149828571Y-115978571D01*
X149971428Y-115692857D01*
X150114285Y-115550000D01*
X150400000Y-115407142D01*
X150971428Y-115407142D01*
X151257142Y-115550000D01*
X154828571Y-114692857D02*
X154971428Y-114550000D01*
X155257142Y-114407142D01*
X155971428Y-114407142D01*
X156257142Y-114550000D01*
X156400000Y-114692857D01*
X156542857Y-114978571D01*
X156542857Y-115264285D01*
X156400000Y-115692857D01*
X154685714Y-117407142D01*
X156542857Y-117407142D01*
X158400000Y-114407142D02*
X158685714Y-114407142D01*
X158971428Y-114550000D01*
X159114285Y-114692857D01*
X159257142Y-114978571D01*
X159400000Y-115550000D01*
X159400000Y-116264285D01*
X159257142Y-116835714D01*
X159114285Y-117121428D01*
X158971428Y-117264285D01*
X158685714Y-117407142D01*
X158400000Y-117407142D01*
X158114285Y-117264285D01*
X157971428Y-117121428D01*
X157828571Y-116835714D01*
X157685714Y-116264285D01*
X157685714Y-115550000D01*
X157828571Y-114978571D01*
X157971428Y-114692857D01*
X158114285Y-114550000D01*
X158400000Y-114407142D01*
X160542857Y-114692857D02*
X160685714Y-114550000D01*
X160971428Y-114407142D01*
X161685714Y-114407142D01*
X161971428Y-114550000D01*
X162114285Y-114692857D01*
X162257142Y-114978571D01*
X162257142Y-115264285D01*
X162114285Y-115692857D01*
X160400000Y-117407142D01*
X162257142Y-117407142D01*
X165114285Y-117407142D02*
X163400000Y-117407142D01*
X164257142Y-117407142D02*
X164257142Y-114407142D01*
X163971428Y-114835714D01*
X163685714Y-115121428D01*
X163400000Y-115264285D01*
X166400000Y-116264285D02*
X168685714Y-116264285D01*
X170685714Y-114407142D02*
X170971428Y-114407142D01*
X171257142Y-114550000D01*
X171400000Y-114692857D01*
X171542857Y-114978571D01*
X171685714Y-115550000D01*
X171685714Y-116264285D01*
X171542857Y-116835714D01*
X171400000Y-117121428D01*
X171257142Y-117264285D01*
X170971428Y-117407142D01*
X170685714Y-117407142D01*
X170400000Y-117264285D01*
X170257142Y-117121428D01*
X170114285Y-116835714D01*
X169971428Y-116264285D01*
X169971428Y-115550000D01*
X170114285Y-114978571D01*
X170257142Y-114692857D01*
X170400000Y-114550000D01*
X170685714Y-114407142D01*
X172685714Y-114407142D02*
X174542857Y-114407142D01*
X173542857Y-115550000D01*
X173971428Y-115550000D01*
X174257142Y-115692857D01*
X174400000Y-115835714D01*
X174542857Y-116121428D01*
X174542857Y-116835714D01*
X174400000Y-117121428D01*
X174257142Y-117264285D01*
X173971428Y-117407142D01*
X173114285Y-117407142D01*
X172828571Y-117264285D01*
X172685714Y-117121428D01*
D11*
%TO.C,Input_1*%
X35885720Y-165876480D02*
X42885720Y-165876480D01*
X42885720Y-165876480D02*
X42885720Y-192226480D01*
X42885720Y-192226480D02*
X16885720Y-192226480D01*
X16885720Y-192226480D02*
X16885720Y-165876480D01*
X16885720Y-165876480D02*
X23885720Y-165876480D01*
%TO.C,Input_8*%
X335885720Y-165876480D02*
X342885720Y-165876480D01*
X342885720Y-165876480D02*
X342885720Y-192226480D01*
X342885720Y-192226480D02*
X316885720Y-192226480D01*
X316885720Y-192226480D02*
X316885720Y-165876480D01*
X316885720Y-165876480D02*
X323885720Y-165876480D01*
%TO.C,Input_7*%
X300885720Y-165876480D02*
X307885720Y-165876480D01*
X307885720Y-165876480D02*
X307885720Y-192226480D01*
X307885720Y-192226480D02*
X281885720Y-192226480D01*
X281885720Y-192226480D02*
X281885720Y-165876480D01*
X281885720Y-165876480D02*
X288885720Y-165876480D01*
%TO.C,Input_6*%
X265885720Y-165876480D02*
X272885720Y-165876480D01*
X272885720Y-165876480D02*
X272885720Y-192226480D01*
X272885720Y-192226480D02*
X246885720Y-192226480D01*
X246885720Y-192226480D02*
X246885720Y-165876480D01*
X246885720Y-165876480D02*
X253885720Y-165876480D01*
%TO.C,Input_5*%
X230885720Y-165876480D02*
X237885720Y-165876480D01*
X237885720Y-165876480D02*
X237885720Y-192226480D01*
X237885720Y-192226480D02*
X211885720Y-192226480D01*
X211885720Y-192226480D02*
X211885720Y-165876480D01*
X211885720Y-165876480D02*
X218885720Y-165876480D01*
%TO.C,Input_4*%
X140885720Y-165876480D02*
X147885720Y-165876480D01*
X147885720Y-165876480D02*
X147885720Y-192226480D01*
X147885720Y-192226480D02*
X121885720Y-192226480D01*
X121885720Y-192226480D02*
X121885720Y-165876480D01*
X121885720Y-165876480D02*
X128885720Y-165876480D01*
%TO.C,Input_3*%
X105885720Y-165876480D02*
X112885720Y-165876480D01*
X112885720Y-165876480D02*
X112885720Y-192226480D01*
X112885720Y-192226480D02*
X86885720Y-192226480D01*
X86885720Y-192226480D02*
X86885720Y-165876480D01*
X86885720Y-165876480D02*
X93885720Y-165876480D01*
%TO.C,Input_2*%
X70885720Y-165876480D02*
X77885720Y-165876480D01*
X77885720Y-165876480D02*
X77885720Y-192226480D01*
X77885720Y-192226480D02*
X51885720Y-192226480D01*
X51885720Y-192226480D02*
X51885720Y-165876480D01*
X51885720Y-165876480D02*
X58885720Y-165876480D01*
D12*
%TO.C,C22*%
X199016800Y-164960300D02*
G75*
G03*
X199016800Y-164960300I-4120000J0D01*
G01*
X194896800Y-169040300D02*
X194896800Y-160880300D01*
X194856800Y-169040300D02*
X194856800Y-160880300D01*
X194816800Y-169040300D02*
X194816800Y-160880300D01*
X194776800Y-169039300D02*
X194776800Y-160881300D01*
X194736800Y-169037300D02*
X194736800Y-160883300D01*
X194696800Y-169036300D02*
X194696800Y-160884300D01*
X194656800Y-169034300D02*
X194656800Y-160886300D01*
X194616800Y-169031300D02*
X194616800Y-160889300D01*
X194576800Y-169028300D02*
X194576800Y-160892300D01*
X194536800Y-169025300D02*
X194536800Y-160895300D01*
X194496800Y-169021300D02*
X194496800Y-160899300D01*
X194456800Y-169017300D02*
X194456800Y-160903300D01*
X194416800Y-169012300D02*
X194416800Y-160908300D01*
X194376800Y-169008300D02*
X194376800Y-160912300D01*
X194336800Y-169002300D02*
X194336800Y-160918300D01*
X194296800Y-168997300D02*
X194296800Y-160923300D01*
X194256800Y-168990300D02*
X194256800Y-160930300D01*
X194216800Y-168984300D02*
X194216800Y-160936300D01*
X194175800Y-168977300D02*
X194175800Y-166000300D01*
X194175800Y-163920300D02*
X194175800Y-160943300D01*
X194135800Y-168970300D02*
X194135800Y-166000300D01*
X194135800Y-163920300D02*
X194135800Y-160950300D01*
X194095800Y-168962300D02*
X194095800Y-166000300D01*
X194095800Y-163920300D02*
X194095800Y-160958300D01*
X194055800Y-168954300D02*
X194055800Y-166000300D01*
X194055800Y-163920300D02*
X194055800Y-160966300D01*
X194015800Y-168945300D02*
X194015800Y-166000300D01*
X194015800Y-163920300D02*
X194015800Y-160975300D01*
X193975800Y-168936300D02*
X193975800Y-166000300D01*
X193975800Y-163920300D02*
X193975800Y-160984300D01*
X193935800Y-168927300D02*
X193935800Y-166000300D01*
X193935800Y-163920300D02*
X193935800Y-160993300D01*
X193895800Y-168917300D02*
X193895800Y-166000300D01*
X193895800Y-163920300D02*
X193895800Y-161003300D01*
X193855800Y-168907300D02*
X193855800Y-166000300D01*
X193855800Y-163920300D02*
X193855800Y-161013300D01*
X193815800Y-168896300D02*
X193815800Y-166000300D01*
X193815800Y-163920300D02*
X193815800Y-161024300D01*
X193775800Y-168885300D02*
X193775800Y-166000300D01*
X193775800Y-163920300D02*
X193775800Y-161035300D01*
X193735800Y-168874300D02*
X193735800Y-166000300D01*
X193735800Y-163920300D02*
X193735800Y-161046300D01*
X193695800Y-168862300D02*
X193695800Y-166000300D01*
X193695800Y-163920300D02*
X193695800Y-161058300D01*
X193655800Y-168849300D02*
X193655800Y-166000300D01*
X193655800Y-163920300D02*
X193655800Y-161071300D01*
X193615800Y-168837300D02*
X193615800Y-166000300D01*
X193615800Y-163920300D02*
X193615800Y-161083300D01*
X193575800Y-168823300D02*
X193575800Y-166000300D01*
X193575800Y-163920300D02*
X193575800Y-161097300D01*
X193535800Y-168810300D02*
X193535800Y-166000300D01*
X193535800Y-163920300D02*
X193535800Y-161110300D01*
X193495800Y-168795300D02*
X193495800Y-166000300D01*
X193495800Y-163920300D02*
X193495800Y-161125300D01*
X193455800Y-168781300D02*
X193455800Y-166000300D01*
X193455800Y-163920300D02*
X193455800Y-161139300D01*
X193415800Y-168765300D02*
X193415800Y-166000300D01*
X193415800Y-163920300D02*
X193415800Y-161155300D01*
X193375800Y-168750300D02*
X193375800Y-166000300D01*
X193375800Y-163920300D02*
X193375800Y-161170300D01*
X193335800Y-168734300D02*
X193335800Y-166000300D01*
X193335800Y-163920300D02*
X193335800Y-161186300D01*
X193295800Y-168717300D02*
X193295800Y-166000300D01*
X193295800Y-163920300D02*
X193295800Y-161203300D01*
X193255800Y-168700300D02*
X193255800Y-166000300D01*
X193255800Y-163920300D02*
X193255800Y-161220300D01*
X193215800Y-168682300D02*
X193215800Y-166000300D01*
X193215800Y-163920300D02*
X193215800Y-161238300D01*
X193175800Y-168664300D02*
X193175800Y-166000300D01*
X193175800Y-163920300D02*
X193175800Y-161256300D01*
X193135800Y-168646300D02*
X193135800Y-166000300D01*
X193135800Y-163920300D02*
X193135800Y-161274300D01*
X193095800Y-168626300D02*
X193095800Y-166000300D01*
X193095800Y-163920300D02*
X193095800Y-161294300D01*
X193055800Y-168607300D02*
X193055800Y-166000300D01*
X193055800Y-163920300D02*
X193055800Y-161313300D01*
X193015800Y-168587300D02*
X193015800Y-166000300D01*
X193015800Y-163920300D02*
X193015800Y-161333300D01*
X192975800Y-168566300D02*
X192975800Y-166000300D01*
X192975800Y-163920300D02*
X192975800Y-161354300D01*
X192935800Y-168544300D02*
X192935800Y-166000300D01*
X192935800Y-163920300D02*
X192935800Y-161376300D01*
X192895800Y-168522300D02*
X192895800Y-166000300D01*
X192895800Y-163920300D02*
X192895800Y-161398300D01*
X192855800Y-168500300D02*
X192855800Y-166000300D01*
X192855800Y-163920300D02*
X192855800Y-161420300D01*
X192815800Y-168477300D02*
X192815800Y-166000300D01*
X192815800Y-163920300D02*
X192815800Y-161443300D01*
X192775800Y-168453300D02*
X192775800Y-166000300D01*
X192775800Y-163920300D02*
X192775800Y-161467300D01*
X192735800Y-168429300D02*
X192735800Y-166000300D01*
X192735800Y-163920300D02*
X192735800Y-161491300D01*
X192695800Y-168404300D02*
X192695800Y-166000300D01*
X192695800Y-163920300D02*
X192695800Y-161516300D01*
X192655800Y-168378300D02*
X192655800Y-166000300D01*
X192655800Y-163920300D02*
X192655800Y-161542300D01*
X192615800Y-168352300D02*
X192615800Y-166000300D01*
X192615800Y-163920300D02*
X192615800Y-161568300D01*
X192575800Y-168325300D02*
X192575800Y-166000300D01*
X192575800Y-163920300D02*
X192575800Y-161595300D01*
X192535800Y-168298300D02*
X192535800Y-166000300D01*
X192535800Y-163920300D02*
X192535800Y-161622300D01*
X192495800Y-168269300D02*
X192495800Y-166000300D01*
X192495800Y-163920300D02*
X192495800Y-161651300D01*
X192455800Y-168240300D02*
X192455800Y-166000300D01*
X192455800Y-163920300D02*
X192455800Y-161680300D01*
X192415800Y-168210300D02*
X192415800Y-166000300D01*
X192415800Y-163920300D02*
X192415800Y-161710300D01*
X192375800Y-168180300D02*
X192375800Y-166000300D01*
X192375800Y-163920300D02*
X192375800Y-161740300D01*
X192335800Y-168149300D02*
X192335800Y-166000300D01*
X192335800Y-163920300D02*
X192335800Y-161771300D01*
X192295800Y-168116300D02*
X192295800Y-166000300D01*
X192295800Y-163920300D02*
X192295800Y-161804300D01*
X192255800Y-168084300D02*
X192255800Y-166000300D01*
X192255800Y-163920300D02*
X192255800Y-161836300D01*
X192215800Y-168050300D02*
X192215800Y-166000300D01*
X192215800Y-163920300D02*
X192215800Y-161870300D01*
X192175800Y-168015300D02*
X192175800Y-166000300D01*
X192175800Y-163920300D02*
X192175800Y-161905300D01*
X192135800Y-167979300D02*
X192135800Y-166000300D01*
X192135800Y-163920300D02*
X192135800Y-161941300D01*
X192095800Y-167943300D02*
X192095800Y-161977300D01*
X192055800Y-167905300D02*
X192055800Y-162015300D01*
X192015800Y-167867300D02*
X192015800Y-162053300D01*
X191975800Y-167827300D02*
X191975800Y-162093300D01*
X191935800Y-167786300D02*
X191935800Y-162134300D01*
X191895800Y-167744300D02*
X191895800Y-162176300D01*
X191855800Y-167701300D02*
X191855800Y-162219300D01*
X191815800Y-167657300D02*
X191815800Y-162263300D01*
X191775800Y-167611300D02*
X191775800Y-162309300D01*
X191735800Y-167564300D02*
X191735800Y-162356300D01*
X191695800Y-167516300D02*
X191695800Y-162404300D01*
X191655800Y-167465300D02*
X191655800Y-162455300D01*
X191615800Y-167414300D02*
X191615800Y-162506300D01*
X191575800Y-167360300D02*
X191575800Y-162560300D01*
X191535800Y-167305300D02*
X191535800Y-162615300D01*
X191495800Y-167247300D02*
X191495800Y-162673300D01*
X191455800Y-167188300D02*
X191455800Y-162732300D01*
X191415800Y-167126300D02*
X191415800Y-162794300D01*
X191375800Y-167062300D02*
X191375800Y-162858300D01*
X191335800Y-166994300D02*
X191335800Y-162926300D01*
X191295800Y-166924300D02*
X191295800Y-162996300D01*
X191255800Y-166850300D02*
X191255800Y-163070300D01*
X191215800Y-166773300D02*
X191215800Y-163147300D01*
X191175800Y-166691300D02*
X191175800Y-163229300D01*
X191135800Y-166605300D02*
X191135800Y-163315300D01*
X191095800Y-166512300D02*
X191095800Y-163408300D01*
X191055800Y-166413300D02*
X191055800Y-163507300D01*
X191015800Y-166306300D02*
X191015800Y-163614300D01*
X190975800Y-166189300D02*
X190975800Y-163731300D01*
X190935800Y-166058300D02*
X190935800Y-163862300D01*
X190895800Y-165908300D02*
X190895800Y-164012300D01*
X190855800Y-165728300D02*
X190855800Y-164192300D01*
X190815800Y-165493300D02*
X190815800Y-164427300D01*
X199306498Y-167275300D02*
X198506498Y-167275300D01*
X198906498Y-167675300D02*
X198906498Y-166875300D01*
%TO.C,C24*%
X353639300Y-179705000D02*
G75*
G03*
X353639300Y-179705000I-4120000J0D01*
G01*
X349519300Y-183785000D02*
X349519300Y-175625000D01*
X349479300Y-183785000D02*
X349479300Y-175625000D01*
X349439300Y-183785000D02*
X349439300Y-175625000D01*
X349399300Y-183784000D02*
X349399300Y-175626000D01*
X349359300Y-183782000D02*
X349359300Y-175628000D01*
X349319300Y-183781000D02*
X349319300Y-175629000D01*
X349279300Y-183779000D02*
X349279300Y-175631000D01*
X349239300Y-183776000D02*
X349239300Y-175634000D01*
X349199300Y-183773000D02*
X349199300Y-175637000D01*
X349159300Y-183770000D02*
X349159300Y-175640000D01*
X349119300Y-183766000D02*
X349119300Y-175644000D01*
X349079300Y-183762000D02*
X349079300Y-175648000D01*
X349039300Y-183757000D02*
X349039300Y-175653000D01*
X348999300Y-183753000D02*
X348999300Y-175657000D01*
X348959300Y-183747000D02*
X348959300Y-175663000D01*
X348919300Y-183742000D02*
X348919300Y-175668000D01*
X348879300Y-183735000D02*
X348879300Y-175675000D01*
X348839300Y-183729000D02*
X348839300Y-175681000D01*
X348798300Y-183722000D02*
X348798300Y-180745000D01*
X348798300Y-178665000D02*
X348798300Y-175688000D01*
X348758300Y-183715000D02*
X348758300Y-180745000D01*
X348758300Y-178665000D02*
X348758300Y-175695000D01*
X348718300Y-183707000D02*
X348718300Y-180745000D01*
X348718300Y-178665000D02*
X348718300Y-175703000D01*
X348678300Y-183699000D02*
X348678300Y-180745000D01*
X348678300Y-178665000D02*
X348678300Y-175711000D01*
X348638300Y-183690000D02*
X348638300Y-180745000D01*
X348638300Y-178665000D02*
X348638300Y-175720000D01*
X348598300Y-183681000D02*
X348598300Y-180745000D01*
X348598300Y-178665000D02*
X348598300Y-175729000D01*
X348558300Y-183672000D02*
X348558300Y-180745000D01*
X348558300Y-178665000D02*
X348558300Y-175738000D01*
X348518300Y-183662000D02*
X348518300Y-180745000D01*
X348518300Y-178665000D02*
X348518300Y-175748000D01*
X348478300Y-183652000D02*
X348478300Y-180745000D01*
X348478300Y-178665000D02*
X348478300Y-175758000D01*
X348438300Y-183641000D02*
X348438300Y-180745000D01*
X348438300Y-178665000D02*
X348438300Y-175769000D01*
X348398300Y-183630000D02*
X348398300Y-180745000D01*
X348398300Y-178665000D02*
X348398300Y-175780000D01*
X348358300Y-183619000D02*
X348358300Y-180745000D01*
X348358300Y-178665000D02*
X348358300Y-175791000D01*
X348318300Y-183607000D02*
X348318300Y-180745000D01*
X348318300Y-178665000D02*
X348318300Y-175803000D01*
X348278300Y-183594000D02*
X348278300Y-180745000D01*
X348278300Y-178665000D02*
X348278300Y-175816000D01*
X348238300Y-183582000D02*
X348238300Y-180745000D01*
X348238300Y-178665000D02*
X348238300Y-175828000D01*
X348198300Y-183568000D02*
X348198300Y-180745000D01*
X348198300Y-178665000D02*
X348198300Y-175842000D01*
X348158300Y-183555000D02*
X348158300Y-180745000D01*
X348158300Y-178665000D02*
X348158300Y-175855000D01*
X348118300Y-183540000D02*
X348118300Y-180745000D01*
X348118300Y-178665000D02*
X348118300Y-175870000D01*
X348078300Y-183526000D02*
X348078300Y-180745000D01*
X348078300Y-178665000D02*
X348078300Y-175884000D01*
X348038300Y-183510000D02*
X348038300Y-180745000D01*
X348038300Y-178665000D02*
X348038300Y-175900000D01*
X347998300Y-183495000D02*
X347998300Y-180745000D01*
X347998300Y-178665000D02*
X347998300Y-175915000D01*
X347958300Y-183479000D02*
X347958300Y-180745000D01*
X347958300Y-178665000D02*
X347958300Y-175931000D01*
X347918300Y-183462000D02*
X347918300Y-180745000D01*
X347918300Y-178665000D02*
X347918300Y-175948000D01*
X347878300Y-183445000D02*
X347878300Y-180745000D01*
X347878300Y-178665000D02*
X347878300Y-175965000D01*
X347838300Y-183427000D02*
X347838300Y-180745000D01*
X347838300Y-178665000D02*
X347838300Y-175983000D01*
X347798300Y-183409000D02*
X347798300Y-180745000D01*
X347798300Y-178665000D02*
X347798300Y-176001000D01*
X347758300Y-183391000D02*
X347758300Y-180745000D01*
X347758300Y-178665000D02*
X347758300Y-176019000D01*
X347718300Y-183371000D02*
X347718300Y-180745000D01*
X347718300Y-178665000D02*
X347718300Y-176039000D01*
X347678300Y-183352000D02*
X347678300Y-180745000D01*
X347678300Y-178665000D02*
X347678300Y-176058000D01*
X347638300Y-183332000D02*
X347638300Y-180745000D01*
X347638300Y-178665000D02*
X347638300Y-176078000D01*
X347598300Y-183311000D02*
X347598300Y-180745000D01*
X347598300Y-178665000D02*
X347598300Y-176099000D01*
X347558300Y-183289000D02*
X347558300Y-180745000D01*
X347558300Y-178665000D02*
X347558300Y-176121000D01*
X347518300Y-183267000D02*
X347518300Y-180745000D01*
X347518300Y-178665000D02*
X347518300Y-176143000D01*
X347478300Y-183245000D02*
X347478300Y-180745000D01*
X347478300Y-178665000D02*
X347478300Y-176165000D01*
X347438300Y-183222000D02*
X347438300Y-180745000D01*
X347438300Y-178665000D02*
X347438300Y-176188000D01*
X347398300Y-183198000D02*
X347398300Y-180745000D01*
X347398300Y-178665000D02*
X347398300Y-176212000D01*
X347358300Y-183174000D02*
X347358300Y-180745000D01*
X347358300Y-178665000D02*
X347358300Y-176236000D01*
X347318300Y-183149000D02*
X347318300Y-180745000D01*
X347318300Y-178665000D02*
X347318300Y-176261000D01*
X347278300Y-183123000D02*
X347278300Y-180745000D01*
X347278300Y-178665000D02*
X347278300Y-176287000D01*
X347238300Y-183097000D02*
X347238300Y-180745000D01*
X347238300Y-178665000D02*
X347238300Y-176313000D01*
X347198300Y-183070000D02*
X347198300Y-180745000D01*
X347198300Y-178665000D02*
X347198300Y-176340000D01*
X347158300Y-183043000D02*
X347158300Y-180745000D01*
X347158300Y-178665000D02*
X347158300Y-176367000D01*
X347118300Y-183014000D02*
X347118300Y-180745000D01*
X347118300Y-178665000D02*
X347118300Y-176396000D01*
X347078300Y-182985000D02*
X347078300Y-180745000D01*
X347078300Y-178665000D02*
X347078300Y-176425000D01*
X347038300Y-182955000D02*
X347038300Y-180745000D01*
X347038300Y-178665000D02*
X347038300Y-176455000D01*
X346998300Y-182925000D02*
X346998300Y-180745000D01*
X346998300Y-178665000D02*
X346998300Y-176485000D01*
X346958300Y-182894000D02*
X346958300Y-180745000D01*
X346958300Y-178665000D02*
X346958300Y-176516000D01*
X346918300Y-182861000D02*
X346918300Y-180745000D01*
X346918300Y-178665000D02*
X346918300Y-176549000D01*
X346878300Y-182829000D02*
X346878300Y-180745000D01*
X346878300Y-178665000D02*
X346878300Y-176581000D01*
X346838300Y-182795000D02*
X346838300Y-180745000D01*
X346838300Y-178665000D02*
X346838300Y-176615000D01*
X346798300Y-182760000D02*
X346798300Y-180745000D01*
X346798300Y-178665000D02*
X346798300Y-176650000D01*
X346758300Y-182724000D02*
X346758300Y-180745000D01*
X346758300Y-178665000D02*
X346758300Y-176686000D01*
X346718300Y-182688000D02*
X346718300Y-176722000D01*
X346678300Y-182650000D02*
X346678300Y-176760000D01*
X346638300Y-182612000D02*
X346638300Y-176798000D01*
X346598300Y-182572000D02*
X346598300Y-176838000D01*
X346558300Y-182531000D02*
X346558300Y-176879000D01*
X346518300Y-182489000D02*
X346518300Y-176921000D01*
X346478300Y-182446000D02*
X346478300Y-176964000D01*
X346438300Y-182402000D02*
X346438300Y-177008000D01*
X346398300Y-182356000D02*
X346398300Y-177054000D01*
X346358300Y-182309000D02*
X346358300Y-177101000D01*
X346318300Y-182261000D02*
X346318300Y-177149000D01*
X346278300Y-182210000D02*
X346278300Y-177200000D01*
X346238300Y-182159000D02*
X346238300Y-177251000D01*
X346198300Y-182105000D02*
X346198300Y-177305000D01*
X346158300Y-182050000D02*
X346158300Y-177360000D01*
X346118300Y-181992000D02*
X346118300Y-177418000D01*
X346078300Y-181933000D02*
X346078300Y-177477000D01*
X346038300Y-181871000D02*
X346038300Y-177539000D01*
X345998300Y-181807000D02*
X345998300Y-177603000D01*
X345958300Y-181739000D02*
X345958300Y-177671000D01*
X345918300Y-181669000D02*
X345918300Y-177741000D01*
X345878300Y-181595000D02*
X345878300Y-177815000D01*
X345838300Y-181518000D02*
X345838300Y-177892000D01*
X345798300Y-181436000D02*
X345798300Y-177974000D01*
X345758300Y-181350000D02*
X345758300Y-178060000D01*
X345718300Y-181257000D02*
X345718300Y-178153000D01*
X345678300Y-181158000D02*
X345678300Y-178252000D01*
X345638300Y-181051000D02*
X345638300Y-178359000D01*
X345598300Y-180934000D02*
X345598300Y-178476000D01*
X345558300Y-180803000D02*
X345558300Y-178607000D01*
X345518300Y-180653000D02*
X345518300Y-178757000D01*
X345478300Y-180473000D02*
X345478300Y-178937000D01*
X345438300Y-180238000D02*
X345438300Y-179172000D01*
X353928998Y-182020000D02*
X353128998Y-182020000D01*
X353528998Y-182420000D02*
X353528998Y-181620000D01*
%TO.C,C23*%
X353735700Y-169329100D02*
G75*
G03*
X353735700Y-169329100I-4120000J0D01*
G01*
X349615700Y-165249100D02*
X349615700Y-173409100D01*
X349655700Y-165249100D02*
X349655700Y-173409100D01*
X349695700Y-165249100D02*
X349695700Y-173409100D01*
X349735700Y-165250100D02*
X349735700Y-173408100D01*
X349775700Y-165252100D02*
X349775700Y-173406100D01*
X349815700Y-165253100D02*
X349815700Y-173405100D01*
X349855700Y-165255100D02*
X349855700Y-173403100D01*
X349895700Y-165258100D02*
X349895700Y-173400100D01*
X349935700Y-165261100D02*
X349935700Y-173397100D01*
X349975700Y-165264100D02*
X349975700Y-173394100D01*
X350015700Y-165268100D02*
X350015700Y-173390100D01*
X350055700Y-165272100D02*
X350055700Y-173386100D01*
X350095700Y-165277100D02*
X350095700Y-173381100D01*
X350135700Y-165281100D02*
X350135700Y-173377100D01*
X350175700Y-165287100D02*
X350175700Y-173371100D01*
X350215700Y-165292100D02*
X350215700Y-173366100D01*
X350255700Y-165299100D02*
X350255700Y-173359100D01*
X350295700Y-165305100D02*
X350295700Y-173353100D01*
X350336700Y-165312100D02*
X350336700Y-168289100D01*
X350336700Y-170369100D02*
X350336700Y-173346100D01*
X350376700Y-165319100D02*
X350376700Y-168289100D01*
X350376700Y-170369100D02*
X350376700Y-173339100D01*
X350416700Y-165327100D02*
X350416700Y-168289100D01*
X350416700Y-170369100D02*
X350416700Y-173331100D01*
X350456700Y-165335100D02*
X350456700Y-168289100D01*
X350456700Y-170369100D02*
X350456700Y-173323100D01*
X350496700Y-165344100D02*
X350496700Y-168289100D01*
X350496700Y-170369100D02*
X350496700Y-173314100D01*
X350536700Y-165353100D02*
X350536700Y-168289100D01*
X350536700Y-170369100D02*
X350536700Y-173305100D01*
X350576700Y-165362100D02*
X350576700Y-168289100D01*
X350576700Y-170369100D02*
X350576700Y-173296100D01*
X350616700Y-165372100D02*
X350616700Y-168289100D01*
X350616700Y-170369100D02*
X350616700Y-173286100D01*
X350656700Y-165382100D02*
X350656700Y-168289100D01*
X350656700Y-170369100D02*
X350656700Y-173276100D01*
X350696700Y-165393100D02*
X350696700Y-168289100D01*
X350696700Y-170369100D02*
X350696700Y-173265100D01*
X350736700Y-165404100D02*
X350736700Y-168289100D01*
X350736700Y-170369100D02*
X350736700Y-173254100D01*
X350776700Y-165415100D02*
X350776700Y-168289100D01*
X350776700Y-170369100D02*
X350776700Y-173243100D01*
X350816700Y-165427100D02*
X350816700Y-168289100D01*
X350816700Y-170369100D02*
X350816700Y-173231100D01*
X350856700Y-165440100D02*
X350856700Y-168289100D01*
X350856700Y-170369100D02*
X350856700Y-173218100D01*
X350896700Y-165452100D02*
X350896700Y-168289100D01*
X350896700Y-170369100D02*
X350896700Y-173206100D01*
X350936700Y-165466100D02*
X350936700Y-168289100D01*
X350936700Y-170369100D02*
X350936700Y-173192100D01*
X350976700Y-165479100D02*
X350976700Y-168289100D01*
X350976700Y-170369100D02*
X350976700Y-173179100D01*
X351016700Y-165494100D02*
X351016700Y-168289100D01*
X351016700Y-170369100D02*
X351016700Y-173164100D01*
X351056700Y-165508100D02*
X351056700Y-168289100D01*
X351056700Y-170369100D02*
X351056700Y-173150100D01*
X351096700Y-165524100D02*
X351096700Y-168289100D01*
X351096700Y-170369100D02*
X351096700Y-173134100D01*
X351136700Y-165539100D02*
X351136700Y-168289100D01*
X351136700Y-170369100D02*
X351136700Y-173119100D01*
X351176700Y-165555100D02*
X351176700Y-168289100D01*
X351176700Y-170369100D02*
X351176700Y-173103100D01*
X351216700Y-165572100D02*
X351216700Y-168289100D01*
X351216700Y-170369100D02*
X351216700Y-173086100D01*
X351256700Y-165589100D02*
X351256700Y-168289100D01*
X351256700Y-170369100D02*
X351256700Y-173069100D01*
X351296700Y-165607100D02*
X351296700Y-168289100D01*
X351296700Y-170369100D02*
X351296700Y-173051100D01*
X351336700Y-165625100D02*
X351336700Y-168289100D01*
X351336700Y-170369100D02*
X351336700Y-173033100D01*
X351376700Y-165643100D02*
X351376700Y-168289100D01*
X351376700Y-170369100D02*
X351376700Y-173015100D01*
X351416700Y-165663100D02*
X351416700Y-168289100D01*
X351416700Y-170369100D02*
X351416700Y-172995100D01*
X351456700Y-165682100D02*
X351456700Y-168289100D01*
X351456700Y-170369100D02*
X351456700Y-172976100D01*
X351496700Y-165702100D02*
X351496700Y-168289100D01*
X351496700Y-170369100D02*
X351496700Y-172956100D01*
X351536700Y-165723100D02*
X351536700Y-168289100D01*
X351536700Y-170369100D02*
X351536700Y-172935100D01*
X351576700Y-165745100D02*
X351576700Y-168289100D01*
X351576700Y-170369100D02*
X351576700Y-172913100D01*
X351616700Y-165767100D02*
X351616700Y-168289100D01*
X351616700Y-170369100D02*
X351616700Y-172891100D01*
X351656700Y-165789100D02*
X351656700Y-168289100D01*
X351656700Y-170369100D02*
X351656700Y-172869100D01*
X351696700Y-165812100D02*
X351696700Y-168289100D01*
X351696700Y-170369100D02*
X351696700Y-172846100D01*
X351736700Y-165836100D02*
X351736700Y-168289100D01*
X351736700Y-170369100D02*
X351736700Y-172822100D01*
X351776700Y-165860100D02*
X351776700Y-168289100D01*
X351776700Y-170369100D02*
X351776700Y-172798100D01*
X351816700Y-165885100D02*
X351816700Y-168289100D01*
X351816700Y-170369100D02*
X351816700Y-172773100D01*
X351856700Y-165911100D02*
X351856700Y-168289100D01*
X351856700Y-170369100D02*
X351856700Y-172747100D01*
X351896700Y-165937100D02*
X351896700Y-168289100D01*
X351896700Y-170369100D02*
X351896700Y-172721100D01*
X351936700Y-165964100D02*
X351936700Y-168289100D01*
X351936700Y-170369100D02*
X351936700Y-172694100D01*
X351976700Y-165991100D02*
X351976700Y-168289100D01*
X351976700Y-170369100D02*
X351976700Y-172667100D01*
X352016700Y-166020100D02*
X352016700Y-168289100D01*
X352016700Y-170369100D02*
X352016700Y-172638100D01*
X352056700Y-166049100D02*
X352056700Y-168289100D01*
X352056700Y-170369100D02*
X352056700Y-172609100D01*
X352096700Y-166079100D02*
X352096700Y-168289100D01*
X352096700Y-170369100D02*
X352096700Y-172579100D01*
X352136700Y-166109100D02*
X352136700Y-168289100D01*
X352136700Y-170369100D02*
X352136700Y-172549100D01*
X352176700Y-166140100D02*
X352176700Y-168289100D01*
X352176700Y-170369100D02*
X352176700Y-172518100D01*
X352216700Y-166173100D02*
X352216700Y-168289100D01*
X352216700Y-170369100D02*
X352216700Y-172485100D01*
X352256700Y-166205100D02*
X352256700Y-168289100D01*
X352256700Y-170369100D02*
X352256700Y-172453100D01*
X352296700Y-166239100D02*
X352296700Y-168289100D01*
X352296700Y-170369100D02*
X352296700Y-172419100D01*
X352336700Y-166274100D02*
X352336700Y-168289100D01*
X352336700Y-170369100D02*
X352336700Y-172384100D01*
X352376700Y-166310100D02*
X352376700Y-168289100D01*
X352376700Y-170369100D02*
X352376700Y-172348100D01*
X352416700Y-166346100D02*
X352416700Y-172312100D01*
X352456700Y-166384100D02*
X352456700Y-172274100D01*
X352496700Y-166422100D02*
X352496700Y-172236100D01*
X352536700Y-166462100D02*
X352536700Y-172196100D01*
X352576700Y-166503100D02*
X352576700Y-172155100D01*
X352616700Y-166545100D02*
X352616700Y-172113100D01*
X352656700Y-166588100D02*
X352656700Y-172070100D01*
X352696700Y-166632100D02*
X352696700Y-172026100D01*
X352736700Y-166678100D02*
X352736700Y-171980100D01*
X352776700Y-166725100D02*
X352776700Y-171933100D01*
X352816700Y-166773100D02*
X352816700Y-171885100D01*
X352856700Y-166824100D02*
X352856700Y-171834100D01*
X352896700Y-166875100D02*
X352896700Y-171783100D01*
X352936700Y-166929100D02*
X352936700Y-171729100D01*
X352976700Y-166984100D02*
X352976700Y-171674100D01*
X353016700Y-167042100D02*
X353016700Y-171616100D01*
X353056700Y-167101100D02*
X353056700Y-171557100D01*
X353096700Y-167163100D02*
X353096700Y-171495100D01*
X353136700Y-167227100D02*
X353136700Y-171431100D01*
X353176700Y-167295100D02*
X353176700Y-171363100D01*
X353216700Y-167365100D02*
X353216700Y-171293100D01*
X353256700Y-167439100D02*
X353256700Y-171219100D01*
X353296700Y-167516100D02*
X353296700Y-171142100D01*
X353336700Y-167598100D02*
X353336700Y-171060100D01*
X353376700Y-167684100D02*
X353376700Y-170974100D01*
X353416700Y-167777100D02*
X353416700Y-170881100D01*
X353456700Y-167876100D02*
X353456700Y-170782100D01*
X353496700Y-167983100D02*
X353496700Y-170675100D01*
X353536700Y-168100100D02*
X353536700Y-170558100D01*
X353576700Y-168231100D02*
X353576700Y-170427100D01*
X353616700Y-168381100D02*
X353616700Y-170277100D01*
X353656700Y-168561100D02*
X353656700Y-170097100D01*
X353696700Y-168796100D02*
X353696700Y-169862100D01*
X345206002Y-167014100D02*
X346006002Y-167014100D01*
X345606002Y-166614100D02*
X345606002Y-167414100D01*
%TO.C,C21*%
X158765300Y-164960300D02*
G75*
G03*
X158765300Y-164960300I-4120000J0D01*
G01*
X154645300Y-160880300D02*
X154645300Y-169040300D01*
X154685300Y-160880300D02*
X154685300Y-169040300D01*
X154725300Y-160880300D02*
X154725300Y-169040300D01*
X154765300Y-160881300D02*
X154765300Y-169039300D01*
X154805300Y-160883300D02*
X154805300Y-169037300D01*
X154845300Y-160884300D02*
X154845300Y-169036300D01*
X154885300Y-160886300D02*
X154885300Y-169034300D01*
X154925300Y-160889300D02*
X154925300Y-169031300D01*
X154965300Y-160892300D02*
X154965300Y-169028300D01*
X155005300Y-160895300D02*
X155005300Y-169025300D01*
X155045300Y-160899300D02*
X155045300Y-169021300D01*
X155085300Y-160903300D02*
X155085300Y-169017300D01*
X155125300Y-160908300D02*
X155125300Y-169012300D01*
X155165300Y-160912300D02*
X155165300Y-169008300D01*
X155205300Y-160918300D02*
X155205300Y-169002300D01*
X155245300Y-160923300D02*
X155245300Y-168997300D01*
X155285300Y-160930300D02*
X155285300Y-168990300D01*
X155325300Y-160936300D02*
X155325300Y-168984300D01*
X155366300Y-160943300D02*
X155366300Y-163920300D01*
X155366300Y-166000300D02*
X155366300Y-168977300D01*
X155406300Y-160950300D02*
X155406300Y-163920300D01*
X155406300Y-166000300D02*
X155406300Y-168970300D01*
X155446300Y-160958300D02*
X155446300Y-163920300D01*
X155446300Y-166000300D02*
X155446300Y-168962300D01*
X155486300Y-160966300D02*
X155486300Y-163920300D01*
X155486300Y-166000300D02*
X155486300Y-168954300D01*
X155526300Y-160975300D02*
X155526300Y-163920300D01*
X155526300Y-166000300D02*
X155526300Y-168945300D01*
X155566300Y-160984300D02*
X155566300Y-163920300D01*
X155566300Y-166000300D02*
X155566300Y-168936300D01*
X155606300Y-160993300D02*
X155606300Y-163920300D01*
X155606300Y-166000300D02*
X155606300Y-168927300D01*
X155646300Y-161003300D02*
X155646300Y-163920300D01*
X155646300Y-166000300D02*
X155646300Y-168917300D01*
X155686300Y-161013300D02*
X155686300Y-163920300D01*
X155686300Y-166000300D02*
X155686300Y-168907300D01*
X155726300Y-161024300D02*
X155726300Y-163920300D01*
X155726300Y-166000300D02*
X155726300Y-168896300D01*
X155766300Y-161035300D02*
X155766300Y-163920300D01*
X155766300Y-166000300D02*
X155766300Y-168885300D01*
X155806300Y-161046300D02*
X155806300Y-163920300D01*
X155806300Y-166000300D02*
X155806300Y-168874300D01*
X155846300Y-161058300D02*
X155846300Y-163920300D01*
X155846300Y-166000300D02*
X155846300Y-168862300D01*
X155886300Y-161071300D02*
X155886300Y-163920300D01*
X155886300Y-166000300D02*
X155886300Y-168849300D01*
X155926300Y-161083300D02*
X155926300Y-163920300D01*
X155926300Y-166000300D02*
X155926300Y-168837300D01*
X155966300Y-161097300D02*
X155966300Y-163920300D01*
X155966300Y-166000300D02*
X155966300Y-168823300D01*
X156006300Y-161110300D02*
X156006300Y-163920300D01*
X156006300Y-166000300D02*
X156006300Y-168810300D01*
X156046300Y-161125300D02*
X156046300Y-163920300D01*
X156046300Y-166000300D02*
X156046300Y-168795300D01*
X156086300Y-161139300D02*
X156086300Y-163920300D01*
X156086300Y-166000300D02*
X156086300Y-168781300D01*
X156126300Y-161155300D02*
X156126300Y-163920300D01*
X156126300Y-166000300D02*
X156126300Y-168765300D01*
X156166300Y-161170300D02*
X156166300Y-163920300D01*
X156166300Y-166000300D02*
X156166300Y-168750300D01*
X156206300Y-161186300D02*
X156206300Y-163920300D01*
X156206300Y-166000300D02*
X156206300Y-168734300D01*
X156246300Y-161203300D02*
X156246300Y-163920300D01*
X156246300Y-166000300D02*
X156246300Y-168717300D01*
X156286300Y-161220300D02*
X156286300Y-163920300D01*
X156286300Y-166000300D02*
X156286300Y-168700300D01*
X156326300Y-161238300D02*
X156326300Y-163920300D01*
X156326300Y-166000300D02*
X156326300Y-168682300D01*
X156366300Y-161256300D02*
X156366300Y-163920300D01*
X156366300Y-166000300D02*
X156366300Y-168664300D01*
X156406300Y-161274300D02*
X156406300Y-163920300D01*
X156406300Y-166000300D02*
X156406300Y-168646300D01*
X156446300Y-161294300D02*
X156446300Y-163920300D01*
X156446300Y-166000300D02*
X156446300Y-168626300D01*
X156486300Y-161313300D02*
X156486300Y-163920300D01*
X156486300Y-166000300D02*
X156486300Y-168607300D01*
X156526300Y-161333300D02*
X156526300Y-163920300D01*
X156526300Y-166000300D02*
X156526300Y-168587300D01*
X156566300Y-161354300D02*
X156566300Y-163920300D01*
X156566300Y-166000300D02*
X156566300Y-168566300D01*
X156606300Y-161376300D02*
X156606300Y-163920300D01*
X156606300Y-166000300D02*
X156606300Y-168544300D01*
X156646300Y-161398300D02*
X156646300Y-163920300D01*
X156646300Y-166000300D02*
X156646300Y-168522300D01*
X156686300Y-161420300D02*
X156686300Y-163920300D01*
X156686300Y-166000300D02*
X156686300Y-168500300D01*
X156726300Y-161443300D02*
X156726300Y-163920300D01*
X156726300Y-166000300D02*
X156726300Y-168477300D01*
X156766300Y-161467300D02*
X156766300Y-163920300D01*
X156766300Y-166000300D02*
X156766300Y-168453300D01*
X156806300Y-161491300D02*
X156806300Y-163920300D01*
X156806300Y-166000300D02*
X156806300Y-168429300D01*
X156846300Y-161516300D02*
X156846300Y-163920300D01*
X156846300Y-166000300D02*
X156846300Y-168404300D01*
X156886300Y-161542300D02*
X156886300Y-163920300D01*
X156886300Y-166000300D02*
X156886300Y-168378300D01*
X156926300Y-161568300D02*
X156926300Y-163920300D01*
X156926300Y-166000300D02*
X156926300Y-168352300D01*
X156966300Y-161595300D02*
X156966300Y-163920300D01*
X156966300Y-166000300D02*
X156966300Y-168325300D01*
X157006300Y-161622300D02*
X157006300Y-163920300D01*
X157006300Y-166000300D02*
X157006300Y-168298300D01*
X157046300Y-161651300D02*
X157046300Y-163920300D01*
X157046300Y-166000300D02*
X157046300Y-168269300D01*
X157086300Y-161680300D02*
X157086300Y-163920300D01*
X157086300Y-166000300D02*
X157086300Y-168240300D01*
X157126300Y-161710300D02*
X157126300Y-163920300D01*
X157126300Y-166000300D02*
X157126300Y-168210300D01*
X157166300Y-161740300D02*
X157166300Y-163920300D01*
X157166300Y-166000300D02*
X157166300Y-168180300D01*
X157206300Y-161771300D02*
X157206300Y-163920300D01*
X157206300Y-166000300D02*
X157206300Y-168149300D01*
X157246300Y-161804300D02*
X157246300Y-163920300D01*
X157246300Y-166000300D02*
X157246300Y-168116300D01*
X157286300Y-161836300D02*
X157286300Y-163920300D01*
X157286300Y-166000300D02*
X157286300Y-168084300D01*
X157326300Y-161870300D02*
X157326300Y-163920300D01*
X157326300Y-166000300D02*
X157326300Y-168050300D01*
X157366300Y-161905300D02*
X157366300Y-163920300D01*
X157366300Y-166000300D02*
X157366300Y-168015300D01*
X157406300Y-161941300D02*
X157406300Y-163920300D01*
X157406300Y-166000300D02*
X157406300Y-167979300D01*
X157446300Y-161977300D02*
X157446300Y-167943300D01*
X157486300Y-162015300D02*
X157486300Y-167905300D01*
X157526300Y-162053300D02*
X157526300Y-167867300D01*
X157566300Y-162093300D02*
X157566300Y-167827300D01*
X157606300Y-162134300D02*
X157606300Y-167786300D01*
X157646300Y-162176300D02*
X157646300Y-167744300D01*
X157686300Y-162219300D02*
X157686300Y-167701300D01*
X157726300Y-162263300D02*
X157726300Y-167657300D01*
X157766300Y-162309300D02*
X157766300Y-167611300D01*
X157806300Y-162356300D02*
X157806300Y-167564300D01*
X157846300Y-162404300D02*
X157846300Y-167516300D01*
X157886300Y-162455300D02*
X157886300Y-167465300D01*
X157926300Y-162506300D02*
X157926300Y-167414300D01*
X157966300Y-162560300D02*
X157966300Y-167360300D01*
X158006300Y-162615300D02*
X158006300Y-167305300D01*
X158046300Y-162673300D02*
X158046300Y-167247300D01*
X158086300Y-162732300D02*
X158086300Y-167188300D01*
X158126300Y-162794300D02*
X158126300Y-167126300D01*
X158166300Y-162858300D02*
X158166300Y-167062300D01*
X158206300Y-162926300D02*
X158206300Y-166994300D01*
X158246300Y-162996300D02*
X158246300Y-166924300D01*
X158286300Y-163070300D02*
X158286300Y-166850300D01*
X158326300Y-163147300D02*
X158326300Y-166773300D01*
X158366300Y-163229300D02*
X158366300Y-166691300D01*
X158406300Y-163315300D02*
X158406300Y-166605300D01*
X158446300Y-163408300D02*
X158446300Y-166512300D01*
X158486300Y-163507300D02*
X158486300Y-166413300D01*
X158526300Y-163614300D02*
X158526300Y-166306300D01*
X158566300Y-163731300D02*
X158566300Y-166189300D01*
X158606300Y-163862300D02*
X158606300Y-166058300D01*
X158646300Y-164012300D02*
X158646300Y-165908300D01*
X158686300Y-164192300D02*
X158686300Y-165728300D01*
X158726300Y-164427300D02*
X158726300Y-165493300D01*
X150235602Y-162645300D02*
X151035602Y-162645300D01*
X150635602Y-162245300D02*
X150635602Y-163045300D01*
%TO.C,U3*%
X320880000Y-99150000D02*
X320880000Y-109650000D01*
X356680000Y-99150000D02*
X320880000Y-99150000D01*
X356680000Y-109650000D02*
X356680000Y-99150000D01*
X320880000Y-109650000D02*
X356680000Y-109650000D01*
X320940000Y-102150000D02*
X320940000Y-103400000D01*
X356620000Y-102150000D02*
X320940000Y-102150000D01*
X356620000Y-106650000D02*
X356620000Y-102150000D01*
X320940000Y-106650000D02*
X356620000Y-106650000D01*
X320940000Y-105400000D02*
X320940000Y-106650000D01*
X320940000Y-103400000D02*
G75*
G02*
X320940000Y-105400000I0J-1000000D01*
G01*
%TO.C,U2*%
X62090000Y-99150000D02*
X62090000Y-109650000D01*
X97890000Y-99150000D02*
X62090000Y-99150000D01*
X97890000Y-109650000D02*
X97890000Y-99150000D01*
X62090000Y-109650000D02*
X97890000Y-109650000D01*
X62150000Y-102150000D02*
X62150000Y-103400000D01*
X97830000Y-102150000D02*
X62150000Y-102150000D01*
X97830000Y-106650000D02*
X97830000Y-102150000D01*
X62150000Y-106650000D02*
X97830000Y-106650000D01*
X62150000Y-105400000D02*
X62150000Y-106650000D01*
X62150000Y-103400000D02*
G75*
G02*
X62150000Y-105400000I0J-1000000D01*
G01*
%TO.C,U1*%
X214370000Y-99150000D02*
X214370000Y-109650000D01*
X250170000Y-99150000D02*
X214370000Y-99150000D01*
X250170000Y-109650000D02*
X250170000Y-99150000D01*
X214370000Y-109650000D02*
X250170000Y-109650000D01*
X214430000Y-102150000D02*
X214430000Y-103400000D01*
X250110000Y-102150000D02*
X214430000Y-102150000D01*
X250110000Y-106650000D02*
X250110000Y-102150000D01*
X214430000Y-106650000D02*
X250110000Y-106650000D01*
X214430000Y-105400000D02*
X214430000Y-106650000D01*
X214430000Y-103400000D02*
G75*
G02*
X214430000Y-105400000I0J-1000000D01*
G01*
%TO.C,R19*%
X315300000Y-103600436D02*
X315300000Y-105054564D01*
X317120000Y-103600436D02*
X317120000Y-105054564D01*
%TO.C,R18*%
X56400000Y-103720436D02*
X56400000Y-105174564D01*
X58220000Y-103720436D02*
X58220000Y-105174564D01*
%TO.C,R1*%
X208640000Y-103695436D02*
X208640000Y-105149564D01*
X210460000Y-103695436D02*
X210460000Y-105149564D01*
D13*
%TO.C,J2*%
X148941000Y-97745000D02*
G75*
G03*
X148941000Y-97745000I-381000J0D01*
G01*
X169769000Y-100320775D02*
X169769000Y-96551200D01*
X137511000Y-101519225D02*
X137511000Y-105415800D01*
X137511000Y-96551200D02*
X137511000Y-100320775D01*
X169769000Y-96551200D02*
X137511000Y-96551200D01*
X169769000Y-105415800D02*
X169769000Y-101519225D01*
X137511000Y-105415800D02*
X169769000Y-105415800D01*
D11*
%TO.C,K2*%
X25250000Y-142880000D02*
X34250000Y-142880000D01*
X25250000Y-128880000D02*
X34250000Y-128880000D01*
D14*
X36450000Y-140960000D02*
X36450000Y-140960000D01*
X36650000Y-140960000D02*
X36650000Y-140960000D01*
X36650000Y-140960000D02*
G75*
G02*
X36450000Y-140960000I-100000J0D01*
G01*
X36450000Y-140960000D02*
G75*
G02*
X36650000Y-140960000I100000J0D01*
G01*
D11*
%TO.C,LED10*%
X375155240Y-184875080D02*
X375155240Y-184875080D01*
X375155240Y-184775080D02*
X375155240Y-184775080D01*
X375155240Y-184875080D02*
G75*
G02*
X375155240Y-184775080I0J50000D01*
G01*
X375155240Y-184775080D02*
G75*
G02*
X375155240Y-184875080I0J-50000D01*
G01*
%TO.C,LED9*%
X180155240Y-184875080D02*
X180155240Y-184875080D01*
X180155240Y-184775080D02*
X180155240Y-184775080D01*
X180155240Y-184875080D02*
G75*
G02*
X180155240Y-184775080I0J50000D01*
G01*
X180155240Y-184775080D02*
G75*
G02*
X180155240Y-184875080I0J-50000D01*
G01*
%TO.C,LED8*%
X316155240Y-184875080D02*
X316155240Y-184875080D01*
X316155240Y-184775080D02*
X316155240Y-184775080D01*
X316155240Y-184875080D02*
G75*
G02*
X316155240Y-184775080I0J50000D01*
G01*
X316155240Y-184775080D02*
G75*
G02*
X316155240Y-184875080I0J-50000D01*
G01*
%TO.C,LED7*%
X281155240Y-184875080D02*
X281155240Y-184875080D01*
X281155240Y-184775080D02*
X281155240Y-184775080D01*
X281155240Y-184875080D02*
G75*
G02*
X281155240Y-184775080I0J50000D01*
G01*
X281155240Y-184775080D02*
G75*
G02*
X281155240Y-184875080I0J-50000D01*
G01*
%TO.C,LED6*%
X246155240Y-184875080D02*
X246155240Y-184875080D01*
X246155240Y-184775080D02*
X246155240Y-184775080D01*
X246155240Y-184875080D02*
G75*
G02*
X246155240Y-184775080I0J50000D01*
G01*
X246155240Y-184775080D02*
G75*
G02*
X246155240Y-184875080I0J-50000D01*
G01*
%TO.C,LED5*%
X211155240Y-184875080D02*
X211155240Y-184875080D01*
X211155240Y-184775080D02*
X211155240Y-184775080D01*
X211155240Y-184875080D02*
G75*
G02*
X211155240Y-184775080I0J50000D01*
G01*
X211155240Y-184775080D02*
G75*
G02*
X211155240Y-184875080I0J-50000D01*
G01*
%TO.C,LED4*%
X121155240Y-184875080D02*
X121155240Y-184875080D01*
X121155240Y-184775080D02*
X121155240Y-184775080D01*
X121155240Y-184875080D02*
G75*
G02*
X121155240Y-184775080I0J50000D01*
G01*
X121155240Y-184775080D02*
G75*
G02*
X121155240Y-184875080I0J-50000D01*
G01*
%TO.C,LED3*%
X86155240Y-184875080D02*
X86155240Y-184875080D01*
X86155240Y-184775080D02*
X86155240Y-184775080D01*
X86155240Y-184875080D02*
G75*
G02*
X86155240Y-184775080I0J50000D01*
G01*
X86155240Y-184775080D02*
G75*
G02*
X86155240Y-184875080I0J-50000D01*
G01*
%TO.C,LED2*%
X51155240Y-184875080D02*
X51155240Y-184875080D01*
X51155240Y-184775080D02*
X51155240Y-184775080D01*
X51155240Y-184875080D02*
G75*
G02*
X51155240Y-184775080I0J50000D01*
G01*
X51155240Y-184775080D02*
G75*
G02*
X51155240Y-184875080I0J-50000D01*
G01*
%TO.C,K20*%
X365550000Y-159776666D02*
X374550000Y-159776666D01*
X365550000Y-145776666D02*
X374550000Y-145776666D01*
D14*
X376750000Y-157856666D02*
X376750000Y-157856666D01*
X376950000Y-157856666D02*
X376950000Y-157856666D01*
X376950000Y-157856666D02*
G75*
G02*
X376750000Y-157856666I-100000J0D01*
G01*
X376750000Y-157856666D02*
G75*
G02*
X376950000Y-157856666I100000J0D01*
G01*
D11*
%TO.C,K19*%
X170820000Y-159776666D02*
X179820000Y-159776666D01*
X170820000Y-145776666D02*
X179820000Y-145776666D01*
D14*
X182020000Y-157856666D02*
X182020000Y-157856666D01*
X182220000Y-157856666D02*
X182220000Y-157856666D01*
X182220000Y-157856666D02*
G75*
G02*
X182020000Y-157856666I-100000J0D01*
G01*
X182020000Y-157856666D02*
G75*
G02*
X182220000Y-157856666I100000J0D01*
G01*
D11*
%TO.C,BUS_B1*%
X382852200Y-168249680D02*
X382852200Y-192249680D01*
X356852200Y-168249680D02*
X382852200Y-168249680D01*
X356852200Y-192249680D02*
X356852200Y-168249680D01*
X382852200Y-192249680D02*
X356852200Y-192249680D01*
%TO.C,BUS_A1*%
X187852200Y-168249680D02*
X187852200Y-192249680D01*
X161852200Y-168249680D02*
X187852200Y-168249680D01*
X161852200Y-192249680D02*
X161852200Y-168249680D01*
X187852200Y-192249680D02*
X161852200Y-192249680D01*
%TO.C,K18*%
X324760000Y-142880000D02*
X333760000Y-142880000D01*
X324760000Y-128880000D02*
X333760000Y-128880000D01*
D14*
X335960000Y-140960000D02*
X335960000Y-140960000D01*
X336160000Y-140960000D02*
X336160000Y-140960000D01*
X336160000Y-140960000D02*
G75*
G02*
X335960000Y-140960000I-100000J0D01*
G01*
X335960000Y-140960000D02*
G75*
G02*
X336160000Y-140960000I100000J0D01*
G01*
D11*
%TO.C,K17*%
X324760000Y-159776666D02*
X333760000Y-159776666D01*
X324760000Y-145776666D02*
X333760000Y-145776666D01*
D14*
X335960000Y-157856666D02*
X335960000Y-157856666D01*
X336160000Y-157856666D02*
X336160000Y-157856666D01*
X336160000Y-157856666D02*
G75*
G02*
X335960000Y-157856666I-100000J0D01*
G01*
X335960000Y-157856666D02*
G75*
G02*
X336160000Y-157856666I100000J0D01*
G01*
D11*
%TO.C,K16*%
X290660000Y-142880000D02*
X299660000Y-142880000D01*
X290660000Y-128880000D02*
X299660000Y-128880000D01*
D14*
X301860000Y-140960000D02*
X301860000Y-140960000D01*
X302060000Y-140960000D02*
X302060000Y-140960000D01*
X302060000Y-140960000D02*
G75*
G02*
X301860000Y-140960000I-100000J0D01*
G01*
X301860000Y-140960000D02*
G75*
G02*
X302060000Y-140960000I100000J0D01*
G01*
D11*
%TO.C,K15*%
X290660000Y-159776666D02*
X299660000Y-159776666D01*
X290660000Y-145776666D02*
X299660000Y-145776666D01*
D14*
X301860000Y-157856666D02*
X301860000Y-157856666D01*
X302060000Y-157856666D02*
X302060000Y-157856666D01*
X302060000Y-157856666D02*
G75*
G02*
X301860000Y-157856666I-100000J0D01*
G01*
X301860000Y-157856666D02*
G75*
G02*
X302060000Y-157856666I100000J0D01*
G01*
D11*
%TO.C,K14*%
X255490000Y-142880000D02*
X264490000Y-142880000D01*
X255490000Y-128880000D02*
X264490000Y-128880000D01*
D14*
X266690000Y-140960000D02*
X266690000Y-140960000D01*
X266890000Y-140960000D02*
X266890000Y-140960000D01*
X266890000Y-140960000D02*
G75*
G02*
X266690000Y-140960000I-100000J0D01*
G01*
X266690000Y-140960000D02*
G75*
G02*
X266890000Y-140960000I100000J0D01*
G01*
D11*
%TO.C,K13*%
X255490000Y-159776666D02*
X264490000Y-159776666D01*
X255490000Y-145776666D02*
X264490000Y-145776666D01*
D14*
X266690000Y-157856666D02*
X266690000Y-157856666D01*
X266890000Y-157856666D02*
X266890000Y-157856666D01*
X266890000Y-157856666D02*
G75*
G02*
X266690000Y-157856666I-100000J0D01*
G01*
X266690000Y-157856666D02*
G75*
G02*
X266890000Y-157856666I100000J0D01*
G01*
D11*
%TO.C,K12*%
X220490000Y-142880000D02*
X229490000Y-142880000D01*
X220490000Y-128880000D02*
X229490000Y-128880000D01*
D14*
X231690000Y-140960000D02*
X231690000Y-140960000D01*
X231890000Y-140960000D02*
X231890000Y-140960000D01*
X231890000Y-140960000D02*
G75*
G02*
X231690000Y-140960000I-100000J0D01*
G01*
X231690000Y-140960000D02*
G75*
G02*
X231890000Y-140960000I100000J0D01*
G01*
D11*
%TO.C,K11*%
X220490000Y-159776666D02*
X229490000Y-159776666D01*
X220490000Y-145776666D02*
X229490000Y-145776666D01*
D14*
X231690000Y-157856666D02*
X231690000Y-157856666D01*
X231890000Y-157856666D02*
X231890000Y-157856666D01*
X231890000Y-157856666D02*
G75*
G02*
X231690000Y-157856666I-100000J0D01*
G01*
X231690000Y-157856666D02*
G75*
G02*
X231890000Y-157856666I100000J0D01*
G01*
D11*
%TO.C,K10*%
X365550000Y-142880000D02*
X374550000Y-142880000D01*
X365550000Y-128880000D02*
X374550000Y-128880000D01*
D14*
X376750000Y-140960000D02*
X376750000Y-140960000D01*
X376950000Y-140960000D02*
X376950000Y-140960000D01*
X376950000Y-140960000D02*
G75*
G02*
X376750000Y-140960000I-100000J0D01*
G01*
X376750000Y-140960000D02*
G75*
G02*
X376950000Y-140960000I100000J0D01*
G01*
D11*
%TO.C,K9*%
X130780000Y-142880000D02*
X139780000Y-142880000D01*
X130780000Y-128880000D02*
X139780000Y-128880000D01*
D14*
X141980000Y-140960000D02*
X141980000Y-140960000D01*
X142180000Y-140960000D02*
X142180000Y-140960000D01*
X142180000Y-140960000D02*
G75*
G02*
X141980000Y-140960000I-100000J0D01*
G01*
X141980000Y-140960000D02*
G75*
G02*
X142180000Y-140960000I100000J0D01*
G01*
D11*
%TO.C,K8*%
X130780000Y-159776666D02*
X139780000Y-159776666D01*
X130780000Y-145776666D02*
X139780000Y-145776666D01*
D14*
X141980000Y-157856666D02*
X141980000Y-157856666D01*
X142180000Y-157856666D02*
X142180000Y-157856666D01*
X142180000Y-157856666D02*
G75*
G02*
X141980000Y-157856666I-100000J0D01*
G01*
X141980000Y-157856666D02*
G75*
G02*
X142180000Y-157856666I100000J0D01*
G01*
D11*
%TO.C,K7*%
X96310000Y-142880000D02*
X105310000Y-142880000D01*
X96310000Y-128880000D02*
X105310000Y-128880000D01*
D14*
X107510000Y-140960000D02*
X107510000Y-140960000D01*
X107710000Y-140960000D02*
X107710000Y-140960000D01*
X107710000Y-140960000D02*
G75*
G02*
X107510000Y-140960000I-100000J0D01*
G01*
X107510000Y-140960000D02*
G75*
G02*
X107710000Y-140960000I100000J0D01*
G01*
D11*
%TO.C,K6*%
X96310000Y-159776666D02*
X105310000Y-159776666D01*
X96310000Y-145776666D02*
X105310000Y-145776666D01*
D14*
X107510000Y-157856666D02*
X107510000Y-157856666D01*
X107710000Y-157856666D02*
X107710000Y-157856666D01*
X107710000Y-157856666D02*
G75*
G02*
X107510000Y-157856666I-100000J0D01*
G01*
X107510000Y-157856666D02*
G75*
G02*
X107710000Y-157856666I100000J0D01*
G01*
D11*
%TO.C,K5*%
X170820000Y-142880000D02*
X179820000Y-142880000D01*
X170820000Y-128880000D02*
X179820000Y-128880000D01*
D14*
X182020000Y-140960000D02*
X182020000Y-140960000D01*
X182220000Y-140960000D02*
X182220000Y-140960000D01*
X182220000Y-140960000D02*
G75*
G02*
X182020000Y-140960000I-100000J0D01*
G01*
X182020000Y-140960000D02*
G75*
G02*
X182220000Y-140960000I100000J0D01*
G01*
D11*
%TO.C,K4*%
X59950000Y-142880000D02*
X68950000Y-142880000D01*
X59950000Y-128880000D02*
X68950000Y-128880000D01*
D14*
X71150000Y-140960000D02*
X71150000Y-140960000D01*
X71350000Y-140960000D02*
X71350000Y-140960000D01*
X71350000Y-140960000D02*
G75*
G02*
X71150000Y-140960000I-100000J0D01*
G01*
X71150000Y-140960000D02*
G75*
G02*
X71350000Y-140960000I100000J0D01*
G01*
D11*
%TO.C,K3*%
X59950000Y-159776666D02*
X68950000Y-159776666D01*
X59950000Y-145776666D02*
X68950000Y-145776666D01*
D14*
X71150000Y-157856666D02*
X71150000Y-157856666D01*
X71350000Y-157856666D02*
X71350000Y-157856666D01*
X71350000Y-157856666D02*
G75*
G02*
X71150000Y-157856666I-100000J0D01*
G01*
X71150000Y-157856666D02*
G75*
G02*
X71350000Y-157856666I100000J0D01*
G01*
D11*
%TO.C,K1*%
X25250000Y-159776666D02*
X34250000Y-159776666D01*
X25250000Y-145776666D02*
X34250000Y-145776666D01*
D14*
X36450000Y-157856666D02*
X36450000Y-157856666D01*
X36650000Y-157856666D02*
X36650000Y-157856666D01*
X36650000Y-157856666D02*
G75*
G02*
X36450000Y-157856666I-100000J0D01*
G01*
X36450000Y-157856666D02*
G75*
G02*
X36650000Y-157856666I100000J0D01*
G01*
%TO.C,Input_1*%
D15*
X26792000Y-181429083D02*
X26792000Y-180159083D01*
X27396761Y-180582417D02*
X27396761Y-181429083D01*
X27396761Y-180703369D02*
X27457238Y-180642893D01*
X27578190Y-180582417D01*
X27759619Y-180582417D01*
X27880571Y-180642893D01*
X27941047Y-180763845D01*
X27941047Y-181429083D01*
X28545809Y-180582417D02*
X28545809Y-181852417D01*
X28545809Y-180642893D02*
X28666761Y-180582417D01*
X28908666Y-180582417D01*
X29029619Y-180642893D01*
X29090095Y-180703369D01*
X29150571Y-180824321D01*
X29150571Y-181187179D01*
X29090095Y-181308131D01*
X29029619Y-181368607D01*
X28908666Y-181429083D01*
X28666761Y-181429083D01*
X28545809Y-181368607D01*
X30239142Y-180582417D02*
X30239142Y-181429083D01*
X29694857Y-180582417D02*
X29694857Y-181247655D01*
X29755333Y-181368607D01*
X29876285Y-181429083D01*
X30057714Y-181429083D01*
X30178666Y-181368607D01*
X30239142Y-181308131D01*
X30662476Y-180582417D02*
X31146285Y-180582417D01*
X30843904Y-180159083D02*
X30843904Y-181247655D01*
X30904380Y-181368607D01*
X31025333Y-181429083D01*
X31146285Y-181429083D01*
X31267238Y-181550036D02*
X32234857Y-181550036D01*
X33202476Y-181429083D02*
X32476761Y-181429083D01*
X32839619Y-181429083D02*
X32839619Y-180159083D01*
X32718666Y-180340512D01*
X32597714Y-180461464D01*
X32476761Y-180521940D01*
%TO.C,Input_8*%
X326792000Y-181429083D02*
X326792000Y-180159083D01*
X327396761Y-180582417D02*
X327396761Y-181429083D01*
X327396761Y-180703369D02*
X327457238Y-180642893D01*
X327578190Y-180582417D01*
X327759619Y-180582417D01*
X327880571Y-180642893D01*
X327941047Y-180763845D01*
X327941047Y-181429083D01*
X328545809Y-180582417D02*
X328545809Y-181852417D01*
X328545809Y-180642893D02*
X328666761Y-180582417D01*
X328908666Y-180582417D01*
X329029619Y-180642893D01*
X329090095Y-180703369D01*
X329150571Y-180824321D01*
X329150571Y-181187179D01*
X329090095Y-181308131D01*
X329029619Y-181368607D01*
X328908666Y-181429083D01*
X328666761Y-181429083D01*
X328545809Y-181368607D01*
X330239142Y-180582417D02*
X330239142Y-181429083D01*
X329694857Y-180582417D02*
X329694857Y-181247655D01*
X329755333Y-181368607D01*
X329876285Y-181429083D01*
X330057714Y-181429083D01*
X330178666Y-181368607D01*
X330239142Y-181308131D01*
X330662476Y-180582417D02*
X331146285Y-180582417D01*
X330843904Y-180159083D02*
X330843904Y-181247655D01*
X330904380Y-181368607D01*
X331025333Y-181429083D01*
X331146285Y-181429083D01*
X331267238Y-181550036D02*
X332234857Y-181550036D01*
X332718666Y-180703369D02*
X332597714Y-180642893D01*
X332537238Y-180582417D01*
X332476761Y-180461464D01*
X332476761Y-180400988D01*
X332537238Y-180280036D01*
X332597714Y-180219560D01*
X332718666Y-180159083D01*
X332960571Y-180159083D01*
X333081523Y-180219560D01*
X333142000Y-180280036D01*
X333202476Y-180400988D01*
X333202476Y-180461464D01*
X333142000Y-180582417D01*
X333081523Y-180642893D01*
X332960571Y-180703369D01*
X332718666Y-180703369D01*
X332597714Y-180763845D01*
X332537238Y-180824321D01*
X332476761Y-180945274D01*
X332476761Y-181187179D01*
X332537238Y-181308131D01*
X332597714Y-181368607D01*
X332718666Y-181429083D01*
X332960571Y-181429083D01*
X333081523Y-181368607D01*
X333142000Y-181308131D01*
X333202476Y-181187179D01*
X333202476Y-180945274D01*
X333142000Y-180824321D01*
X333081523Y-180763845D01*
X332960571Y-180703369D01*
%TO.C,Input_7*%
X291792000Y-181429083D02*
X291792000Y-180159083D01*
X292396761Y-180582417D02*
X292396761Y-181429083D01*
X292396761Y-180703369D02*
X292457238Y-180642893D01*
X292578190Y-180582417D01*
X292759619Y-180582417D01*
X292880571Y-180642893D01*
X292941047Y-180763845D01*
X292941047Y-181429083D01*
X293545809Y-180582417D02*
X293545809Y-181852417D01*
X293545809Y-180642893D02*
X293666761Y-180582417D01*
X293908666Y-180582417D01*
X294029619Y-180642893D01*
X294090095Y-180703369D01*
X294150571Y-180824321D01*
X294150571Y-181187179D01*
X294090095Y-181308131D01*
X294029619Y-181368607D01*
X293908666Y-181429083D01*
X293666761Y-181429083D01*
X293545809Y-181368607D01*
X295239142Y-180582417D02*
X295239142Y-181429083D01*
X294694857Y-180582417D02*
X294694857Y-181247655D01*
X294755333Y-181368607D01*
X294876285Y-181429083D01*
X295057714Y-181429083D01*
X295178666Y-181368607D01*
X295239142Y-181308131D01*
X295662476Y-180582417D02*
X296146285Y-180582417D01*
X295843904Y-180159083D02*
X295843904Y-181247655D01*
X295904380Y-181368607D01*
X296025333Y-181429083D01*
X296146285Y-181429083D01*
X296267238Y-181550036D02*
X297234857Y-181550036D01*
X297416285Y-180159083D02*
X298262952Y-180159083D01*
X297718666Y-181429083D01*
%TO.C,Input_6*%
X256792000Y-181429083D02*
X256792000Y-180159083D01*
X257396761Y-180582417D02*
X257396761Y-181429083D01*
X257396761Y-180703369D02*
X257457238Y-180642893D01*
X257578190Y-180582417D01*
X257759619Y-180582417D01*
X257880571Y-180642893D01*
X257941047Y-180763845D01*
X257941047Y-181429083D01*
X258545809Y-180582417D02*
X258545809Y-181852417D01*
X258545809Y-180642893D02*
X258666761Y-180582417D01*
X258908666Y-180582417D01*
X259029619Y-180642893D01*
X259090095Y-180703369D01*
X259150571Y-180824321D01*
X259150571Y-181187179D01*
X259090095Y-181308131D01*
X259029619Y-181368607D01*
X258908666Y-181429083D01*
X258666761Y-181429083D01*
X258545809Y-181368607D01*
X260239142Y-180582417D02*
X260239142Y-181429083D01*
X259694857Y-180582417D02*
X259694857Y-181247655D01*
X259755333Y-181368607D01*
X259876285Y-181429083D01*
X260057714Y-181429083D01*
X260178666Y-181368607D01*
X260239142Y-181308131D01*
X260662476Y-180582417D02*
X261146285Y-180582417D01*
X260843904Y-180159083D02*
X260843904Y-181247655D01*
X260904380Y-181368607D01*
X261025333Y-181429083D01*
X261146285Y-181429083D01*
X261267238Y-181550036D02*
X262234857Y-181550036D01*
X263081523Y-180159083D02*
X262839619Y-180159083D01*
X262718666Y-180219560D01*
X262658190Y-180280036D01*
X262537238Y-180461464D01*
X262476761Y-180703369D01*
X262476761Y-181187179D01*
X262537238Y-181308131D01*
X262597714Y-181368607D01*
X262718666Y-181429083D01*
X262960571Y-181429083D01*
X263081523Y-181368607D01*
X263142000Y-181308131D01*
X263202476Y-181187179D01*
X263202476Y-180884798D01*
X263142000Y-180763845D01*
X263081523Y-180703369D01*
X262960571Y-180642893D01*
X262718666Y-180642893D01*
X262597714Y-180703369D01*
X262537238Y-180763845D01*
X262476761Y-180884798D01*
%TO.C,Input_5*%
X221792000Y-181429083D02*
X221792000Y-180159083D01*
X222396761Y-180582417D02*
X222396761Y-181429083D01*
X222396761Y-180703369D02*
X222457238Y-180642893D01*
X222578190Y-180582417D01*
X222759619Y-180582417D01*
X222880571Y-180642893D01*
X222941047Y-180763845D01*
X222941047Y-181429083D01*
X223545809Y-180582417D02*
X223545809Y-181852417D01*
X223545809Y-180642893D02*
X223666761Y-180582417D01*
X223908666Y-180582417D01*
X224029619Y-180642893D01*
X224090095Y-180703369D01*
X224150571Y-180824321D01*
X224150571Y-181187179D01*
X224090095Y-181308131D01*
X224029619Y-181368607D01*
X223908666Y-181429083D01*
X223666761Y-181429083D01*
X223545809Y-181368607D01*
X225239142Y-180582417D02*
X225239142Y-181429083D01*
X224694857Y-180582417D02*
X224694857Y-181247655D01*
X224755333Y-181368607D01*
X224876285Y-181429083D01*
X225057714Y-181429083D01*
X225178666Y-181368607D01*
X225239142Y-181308131D01*
X225662476Y-180582417D02*
X226146285Y-180582417D01*
X225843904Y-180159083D02*
X225843904Y-181247655D01*
X225904380Y-181368607D01*
X226025333Y-181429083D01*
X226146285Y-181429083D01*
X226267238Y-181550036D02*
X227234857Y-181550036D01*
X228142000Y-180159083D02*
X227537238Y-180159083D01*
X227476761Y-180763845D01*
X227537238Y-180703369D01*
X227658190Y-180642893D01*
X227960571Y-180642893D01*
X228081523Y-180703369D01*
X228142000Y-180763845D01*
X228202476Y-180884798D01*
X228202476Y-181187179D01*
X228142000Y-181308131D01*
X228081523Y-181368607D01*
X227960571Y-181429083D01*
X227658190Y-181429083D01*
X227537238Y-181368607D01*
X227476761Y-181308131D01*
%TO.C,Input_4*%
X131792000Y-181429083D02*
X131792000Y-180159083D01*
X132396761Y-180582417D02*
X132396761Y-181429083D01*
X132396761Y-180703369D02*
X132457238Y-180642893D01*
X132578190Y-180582417D01*
X132759619Y-180582417D01*
X132880571Y-180642893D01*
X132941047Y-180763845D01*
X132941047Y-181429083D01*
X133545809Y-180582417D02*
X133545809Y-181852417D01*
X133545809Y-180642893D02*
X133666761Y-180582417D01*
X133908666Y-180582417D01*
X134029619Y-180642893D01*
X134090095Y-180703369D01*
X134150571Y-180824321D01*
X134150571Y-181187179D01*
X134090095Y-181308131D01*
X134029619Y-181368607D01*
X133908666Y-181429083D01*
X133666761Y-181429083D01*
X133545809Y-181368607D01*
X135239142Y-180582417D02*
X135239142Y-181429083D01*
X134694857Y-180582417D02*
X134694857Y-181247655D01*
X134755333Y-181368607D01*
X134876285Y-181429083D01*
X135057714Y-181429083D01*
X135178666Y-181368607D01*
X135239142Y-181308131D01*
X135662476Y-180582417D02*
X136146285Y-180582417D01*
X135843904Y-180159083D02*
X135843904Y-181247655D01*
X135904380Y-181368607D01*
X136025333Y-181429083D01*
X136146285Y-181429083D01*
X136267238Y-181550036D02*
X137234857Y-181550036D01*
X138081523Y-180582417D02*
X138081523Y-181429083D01*
X137779142Y-180098607D02*
X137476761Y-181005750D01*
X138262952Y-181005750D01*
%TO.C,Input_3*%
X96792000Y-181429083D02*
X96792000Y-180159083D01*
X97396761Y-180582417D02*
X97396761Y-181429083D01*
X97396761Y-180703369D02*
X97457238Y-180642893D01*
X97578190Y-180582417D01*
X97759619Y-180582417D01*
X97880571Y-180642893D01*
X97941047Y-180763845D01*
X97941047Y-181429083D01*
X98545809Y-180582417D02*
X98545809Y-181852417D01*
X98545809Y-180642893D02*
X98666761Y-180582417D01*
X98908666Y-180582417D01*
X99029619Y-180642893D01*
X99090095Y-180703369D01*
X99150571Y-180824321D01*
X99150571Y-181187179D01*
X99090095Y-181308131D01*
X99029619Y-181368607D01*
X98908666Y-181429083D01*
X98666761Y-181429083D01*
X98545809Y-181368607D01*
X100239142Y-180582417D02*
X100239142Y-181429083D01*
X99694857Y-180582417D02*
X99694857Y-181247655D01*
X99755333Y-181368607D01*
X99876285Y-181429083D01*
X100057714Y-181429083D01*
X100178666Y-181368607D01*
X100239142Y-181308131D01*
X100662476Y-180582417D02*
X101146285Y-180582417D01*
X100843904Y-180159083D02*
X100843904Y-181247655D01*
X100904380Y-181368607D01*
X101025333Y-181429083D01*
X101146285Y-181429083D01*
X101267238Y-181550036D02*
X102234857Y-181550036D01*
X102416285Y-180159083D02*
X103202476Y-180159083D01*
X102779142Y-180642893D01*
X102960571Y-180642893D01*
X103081523Y-180703369D01*
X103142000Y-180763845D01*
X103202476Y-180884798D01*
X103202476Y-181187179D01*
X103142000Y-181308131D01*
X103081523Y-181368607D01*
X102960571Y-181429083D01*
X102597714Y-181429083D01*
X102476761Y-181368607D01*
X102416285Y-181308131D01*
%TO.C,Input_2*%
X61792000Y-181429083D02*
X61792000Y-180159083D01*
X62396761Y-180582417D02*
X62396761Y-181429083D01*
X62396761Y-180703369D02*
X62457238Y-180642893D01*
X62578190Y-180582417D01*
X62759619Y-180582417D01*
X62880571Y-180642893D01*
X62941047Y-180763845D01*
X62941047Y-181429083D01*
X63545809Y-180582417D02*
X63545809Y-181852417D01*
X63545809Y-180642893D02*
X63666761Y-180582417D01*
X63908666Y-180582417D01*
X64029619Y-180642893D01*
X64090095Y-180703369D01*
X64150571Y-180824321D01*
X64150571Y-181187179D01*
X64090095Y-181308131D01*
X64029619Y-181368607D01*
X63908666Y-181429083D01*
X63666761Y-181429083D01*
X63545809Y-181368607D01*
X65239142Y-180582417D02*
X65239142Y-181429083D01*
X64694857Y-180582417D02*
X64694857Y-181247655D01*
X64755333Y-181368607D01*
X64876285Y-181429083D01*
X65057714Y-181429083D01*
X65178666Y-181368607D01*
X65239142Y-181308131D01*
X65662476Y-180582417D02*
X66146285Y-180582417D01*
X65843904Y-180159083D02*
X65843904Y-181247655D01*
X65904380Y-181368607D01*
X66025333Y-181429083D01*
X66146285Y-181429083D01*
X66267238Y-181550036D02*
X67234857Y-181550036D01*
X67476761Y-180280036D02*
X67537238Y-180219560D01*
X67658190Y-180159083D01*
X67960571Y-180159083D01*
X68081523Y-180219560D01*
X68142000Y-180280036D01*
X68202476Y-180400988D01*
X68202476Y-180521940D01*
X68142000Y-180703369D01*
X67416285Y-181429083D01*
X68202476Y-181429083D01*
%TO.C,C22*%
D16*
X194253942Y-170567442D02*
X194206323Y-170615061D01*
X194063466Y-170662680D01*
X193968228Y-170662680D01*
X193825371Y-170615061D01*
X193730133Y-170519823D01*
X193682514Y-170424585D01*
X193634895Y-170234109D01*
X193634895Y-170091252D01*
X193682514Y-169900776D01*
X193730133Y-169805538D01*
X193825371Y-169710300D01*
X193968228Y-169662680D01*
X194063466Y-169662680D01*
X194206323Y-169710300D01*
X194253942Y-169757919D01*
X194634895Y-169757919D02*
X194682514Y-169710300D01*
X194777752Y-169662680D01*
X195015847Y-169662680D01*
X195111085Y-169710300D01*
X195158704Y-169757919D01*
X195206323Y-169853157D01*
X195206323Y-169948395D01*
X195158704Y-170091252D01*
X194587276Y-170662680D01*
X195206323Y-170662680D01*
X195587276Y-169757919D02*
X195634895Y-169710300D01*
X195730133Y-169662680D01*
X195968228Y-169662680D01*
X196063466Y-169710300D01*
X196111085Y-169757919D01*
X196158704Y-169853157D01*
X196158704Y-169948395D01*
X196111085Y-170091252D01*
X195539657Y-170662680D01*
X196158704Y-170662680D01*
%TO.C,C24*%
X348876442Y-185312142D02*
X348828823Y-185359761D01*
X348685966Y-185407380D01*
X348590728Y-185407380D01*
X348447871Y-185359761D01*
X348352633Y-185264523D01*
X348305014Y-185169285D01*
X348257395Y-184978809D01*
X348257395Y-184835952D01*
X348305014Y-184645476D01*
X348352633Y-184550238D01*
X348447871Y-184455000D01*
X348590728Y-184407380D01*
X348685966Y-184407380D01*
X348828823Y-184455000D01*
X348876442Y-184502619D01*
X349257395Y-184502619D02*
X349305014Y-184455000D01*
X349400252Y-184407380D01*
X349638347Y-184407380D01*
X349733585Y-184455000D01*
X349781204Y-184502619D01*
X349828823Y-184597857D01*
X349828823Y-184693095D01*
X349781204Y-184835952D01*
X349209776Y-185407380D01*
X349828823Y-185407380D01*
X350685966Y-184740714D02*
X350685966Y-185407380D01*
X350447871Y-184359761D02*
X350209776Y-185074047D01*
X350828823Y-185074047D01*
%TO.C,C23*%
X348972842Y-164436242D02*
X348925223Y-164483861D01*
X348782366Y-164531480D01*
X348687128Y-164531480D01*
X348544271Y-164483861D01*
X348449033Y-164388623D01*
X348401414Y-164293385D01*
X348353795Y-164102909D01*
X348353795Y-163960052D01*
X348401414Y-163769576D01*
X348449033Y-163674338D01*
X348544271Y-163579100D01*
X348687128Y-163531480D01*
X348782366Y-163531480D01*
X348925223Y-163579100D01*
X348972842Y-163626719D01*
X349353795Y-163626719D02*
X349401414Y-163579100D01*
X349496652Y-163531480D01*
X349734747Y-163531480D01*
X349829985Y-163579100D01*
X349877604Y-163626719D01*
X349925223Y-163721957D01*
X349925223Y-163817195D01*
X349877604Y-163960052D01*
X349306176Y-164531480D01*
X349925223Y-164531480D01*
X350258557Y-163531480D02*
X350877604Y-163531480D01*
X350544271Y-163912433D01*
X350687128Y-163912433D01*
X350782366Y-163960052D01*
X350829985Y-164007671D01*
X350877604Y-164102909D01*
X350877604Y-164341004D01*
X350829985Y-164436242D01*
X350782366Y-164483861D01*
X350687128Y-164531480D01*
X350401414Y-164531480D01*
X350306176Y-164483861D01*
X350258557Y-164436242D01*
%TO.C,C21*%
X154002442Y-160067442D02*
X153954823Y-160115061D01*
X153811966Y-160162680D01*
X153716728Y-160162680D01*
X153573871Y-160115061D01*
X153478633Y-160019823D01*
X153431014Y-159924585D01*
X153383395Y-159734109D01*
X153383395Y-159591252D01*
X153431014Y-159400776D01*
X153478633Y-159305538D01*
X153573871Y-159210300D01*
X153716728Y-159162680D01*
X153811966Y-159162680D01*
X153954823Y-159210300D01*
X154002442Y-159257919D01*
X154383395Y-159257919D02*
X154431014Y-159210300D01*
X154526252Y-159162680D01*
X154764347Y-159162680D01*
X154859585Y-159210300D01*
X154907204Y-159257919D01*
X154954823Y-159353157D01*
X154954823Y-159448395D01*
X154907204Y-159591252D01*
X154335776Y-160162680D01*
X154954823Y-160162680D01*
X155907204Y-160162680D02*
X155335776Y-160162680D01*
X155621490Y-160162680D02*
X155621490Y-159162680D01*
X155526252Y-159305538D01*
X155431014Y-159400776D01*
X155335776Y-159448395D01*
%TO.C,U3*%
X319392380Y-105161904D02*
X320201904Y-105161904D01*
X320297142Y-105114285D01*
X320344761Y-105066666D01*
X320392380Y-104971428D01*
X320392380Y-104780952D01*
X320344761Y-104685714D01*
X320297142Y-104638095D01*
X320201904Y-104590476D01*
X319392380Y-104590476D01*
X319392380Y-104209523D02*
X319392380Y-103590476D01*
X319773333Y-103923809D01*
X319773333Y-103780952D01*
X319820952Y-103685714D01*
X319868571Y-103638095D01*
X319963809Y-103590476D01*
X320201904Y-103590476D01*
X320297142Y-103638095D01*
X320344761Y-103685714D01*
X320392380Y-103780952D01*
X320392380Y-104066666D01*
X320344761Y-104161904D01*
X320297142Y-104209523D01*
%TO.C,U2*%
X60602380Y-105161904D02*
X61411904Y-105161904D01*
X61507142Y-105114285D01*
X61554761Y-105066666D01*
X61602380Y-104971428D01*
X61602380Y-104780952D01*
X61554761Y-104685714D01*
X61507142Y-104638095D01*
X61411904Y-104590476D01*
X60602380Y-104590476D01*
X60697619Y-104161904D02*
X60650000Y-104114285D01*
X60602380Y-104019047D01*
X60602380Y-103780952D01*
X60650000Y-103685714D01*
X60697619Y-103638095D01*
X60792857Y-103590476D01*
X60888095Y-103590476D01*
X61030952Y-103638095D01*
X61602380Y-104209523D01*
X61602380Y-103590476D01*
%TO.C,U1*%
X212882380Y-105161904D02*
X213691904Y-105161904D01*
X213787142Y-105114285D01*
X213834761Y-105066666D01*
X213882380Y-104971428D01*
X213882380Y-104780952D01*
X213834761Y-104685714D01*
X213787142Y-104638095D01*
X213691904Y-104590476D01*
X212882380Y-104590476D01*
X213882380Y-103590476D02*
X213882380Y-104161904D01*
X213882380Y-103876190D02*
X212882380Y-103876190D01*
X213025238Y-103971428D01*
X213120476Y-104066666D01*
X213168095Y-104161904D01*
%TO.C,R19*%
X318482380Y-104970357D02*
X318006190Y-105303690D01*
X318482380Y-105541785D02*
X317482380Y-105541785D01*
X317482380Y-105160833D01*
X317530000Y-105065595D01*
X317577619Y-105017976D01*
X317672857Y-104970357D01*
X317815714Y-104970357D01*
X317910952Y-105017976D01*
X317958571Y-105065595D01*
X318006190Y-105160833D01*
X318006190Y-105541785D01*
X318482380Y-104017976D02*
X318482380Y-104589404D01*
X318482380Y-104303690D02*
X317482380Y-104303690D01*
X317625238Y-104398928D01*
X317720476Y-104494166D01*
X317768095Y-104589404D01*
X318482380Y-103541785D02*
X318482380Y-103351309D01*
X318434761Y-103256071D01*
X318387142Y-103208452D01*
X318244285Y-103113214D01*
X318053809Y-103065595D01*
X317672857Y-103065595D01*
X317577619Y-103113214D01*
X317530000Y-103160833D01*
X317482380Y-103256071D01*
X317482380Y-103446547D01*
X317530000Y-103541785D01*
X317577619Y-103589404D01*
X317672857Y-103637023D01*
X317910952Y-103637023D01*
X318006190Y-103589404D01*
X318053809Y-103541785D01*
X318101428Y-103446547D01*
X318101428Y-103256071D01*
X318053809Y-103160833D01*
X318006190Y-103113214D01*
X317910952Y-103065595D01*
%TO.C,R18*%
X59582380Y-105090357D02*
X59106190Y-105423690D01*
X59582380Y-105661785D02*
X58582380Y-105661785D01*
X58582380Y-105280833D01*
X58630000Y-105185595D01*
X58677619Y-105137976D01*
X58772857Y-105090357D01*
X58915714Y-105090357D01*
X59010952Y-105137976D01*
X59058571Y-105185595D01*
X59106190Y-105280833D01*
X59106190Y-105661785D01*
X59582380Y-104137976D02*
X59582380Y-104709404D01*
X59582380Y-104423690D02*
X58582380Y-104423690D01*
X58725238Y-104518928D01*
X58820476Y-104614166D01*
X58868095Y-104709404D01*
X59010952Y-103566547D02*
X58963333Y-103661785D01*
X58915714Y-103709404D01*
X58820476Y-103757023D01*
X58772857Y-103757023D01*
X58677619Y-103709404D01*
X58630000Y-103661785D01*
X58582380Y-103566547D01*
X58582380Y-103376071D01*
X58630000Y-103280833D01*
X58677619Y-103233214D01*
X58772857Y-103185595D01*
X58820476Y-103185595D01*
X58915714Y-103233214D01*
X58963333Y-103280833D01*
X59010952Y-103376071D01*
X59010952Y-103566547D01*
X59058571Y-103661785D01*
X59106190Y-103709404D01*
X59201428Y-103757023D01*
X59391904Y-103757023D01*
X59487142Y-103709404D01*
X59534761Y-103661785D01*
X59582380Y-103566547D01*
X59582380Y-103376071D01*
X59534761Y-103280833D01*
X59487142Y-103233214D01*
X59391904Y-103185595D01*
X59201428Y-103185595D01*
X59106190Y-103233214D01*
X59058571Y-103280833D01*
X59010952Y-103376071D01*
%TO.C,R1*%
X211822380Y-104589166D02*
X211346190Y-104922500D01*
X211822380Y-105160595D02*
X210822380Y-105160595D01*
X210822380Y-104779642D01*
X210870000Y-104684404D01*
X210917619Y-104636785D01*
X211012857Y-104589166D01*
X211155714Y-104589166D01*
X211250952Y-104636785D01*
X211298571Y-104684404D01*
X211346190Y-104779642D01*
X211346190Y-105160595D01*
X211822380Y-103636785D02*
X211822380Y-104208214D01*
X211822380Y-103922500D02*
X210822380Y-103922500D01*
X210965238Y-104017738D01*
X211060476Y-104112976D01*
X211108095Y-104208214D01*
%TO.C,J2*%
X144166666Y-106402380D02*
X144166666Y-107116666D01*
X144119047Y-107259523D01*
X144023809Y-107354761D01*
X143880952Y-107402380D01*
X143785714Y-107402380D01*
X144595238Y-106497619D02*
X144642857Y-106450000D01*
X144738095Y-106402380D01*
X144976190Y-106402380D01*
X145071428Y-106450000D01*
X145119047Y-106497619D01*
X145166666Y-106592857D01*
X145166666Y-106688095D01*
X145119047Y-106830952D01*
X144547619Y-107402380D01*
X145166666Y-107402380D01*
X148230952Y-106152380D02*
X148897619Y-106152380D01*
X148469047Y-107152380D01*
X149802380Y-107152380D02*
X149230952Y-107152380D01*
X149516666Y-107152380D02*
X149516666Y-106152380D01*
X149421428Y-106295238D01*
X149326190Y-106390476D01*
X149230952Y-106438095D01*
X150278571Y-107152380D02*
X150469047Y-107152380D01*
X150564285Y-107104761D01*
X150611904Y-107057142D01*
X150707142Y-106914285D01*
X150754761Y-106723809D01*
X150754761Y-106342857D01*
X150707142Y-106247619D01*
X150659523Y-106200000D01*
X150564285Y-106152380D01*
X150373809Y-106152380D01*
X150278571Y-106200000D01*
X150230952Y-106247619D01*
X150183333Y-106342857D01*
X150183333Y-106580952D01*
X150230952Y-106676190D01*
X150278571Y-106723809D01*
X150373809Y-106771428D01*
X150564285Y-106771428D01*
X150659523Y-106723809D01*
X150707142Y-106676190D01*
X150754761Y-106580952D01*
X151707142Y-107152380D02*
X151135714Y-107152380D01*
X151421428Y-107152380D02*
X151421428Y-106152380D01*
X151326190Y-106295238D01*
X151230952Y-106390476D01*
X151135714Y-106438095D01*
X152278571Y-106580952D02*
X152183333Y-106533333D01*
X152135714Y-106485714D01*
X152088095Y-106390476D01*
X152088095Y-106342857D01*
X152135714Y-106247619D01*
X152183333Y-106200000D01*
X152278571Y-106152380D01*
X152469047Y-106152380D01*
X152564285Y-106200000D01*
X152611904Y-106247619D01*
X152659523Y-106342857D01*
X152659523Y-106390476D01*
X152611904Y-106485714D01*
X152564285Y-106533333D01*
X152469047Y-106580952D01*
X152278571Y-106580952D01*
X152183333Y-106628571D01*
X152135714Y-106676190D01*
X152088095Y-106771428D01*
X152088095Y-106961904D01*
X152135714Y-107057142D01*
X152183333Y-107104761D01*
X152278571Y-107152380D01*
X152469047Y-107152380D01*
X152564285Y-107104761D01*
X152611904Y-107057142D01*
X152659523Y-106961904D01*
X152659523Y-106771428D01*
X152611904Y-106676190D01*
X152564285Y-106628571D01*
X152469047Y-106580952D01*
X153088095Y-106771428D02*
X153850000Y-106771428D01*
X154850000Y-107152380D02*
X154278571Y-107152380D01*
X154564285Y-107152380D02*
X154564285Y-106152380D01*
X154469047Y-106295238D01*
X154373809Y-106390476D01*
X154278571Y-106438095D01*
X155802380Y-107152380D02*
X155230952Y-107152380D01*
X155516666Y-107152380D02*
X155516666Y-106152380D01*
X155421428Y-106295238D01*
X155326190Y-106390476D01*
X155230952Y-106438095D01*
X156421428Y-106152380D02*
X156516666Y-106152380D01*
X156611904Y-106200000D01*
X156659523Y-106247619D01*
X156707142Y-106342857D01*
X156754761Y-106533333D01*
X156754761Y-106771428D01*
X156707142Y-106961904D01*
X156659523Y-107057142D01*
X156611904Y-107104761D01*
X156516666Y-107152380D01*
X156421428Y-107152380D01*
X156326190Y-107104761D01*
X156278571Y-107057142D01*
X156230952Y-106961904D01*
X156183333Y-106771428D01*
X156183333Y-106533333D01*
X156230952Y-106342857D01*
X156278571Y-106247619D01*
X156326190Y-106200000D01*
X156421428Y-106152380D01*
X157659523Y-107152380D02*
X157183333Y-107152380D01*
X157183333Y-106152380D01*
X158326190Y-106628571D02*
X157992857Y-106628571D01*
X157992857Y-107152380D02*
X157992857Y-106152380D01*
X158469047Y-106152380D01*
X148560000Y-99102380D02*
X148560000Y-99340476D01*
X148321904Y-99245238D02*
X148560000Y-99340476D01*
X148798095Y-99245238D01*
X148417142Y-99530952D02*
X148560000Y-99340476D01*
X148702857Y-99530952D01*
%TO.C,K2*%
D15*
X28912619Y-128474523D02*
X28912619Y-127204523D01*
X29638333Y-128474523D02*
X29094047Y-127748809D01*
X29638333Y-127204523D02*
X28912619Y-127930238D01*
X30122142Y-127325476D02*
X30182619Y-127265000D01*
X30303571Y-127204523D01*
X30605952Y-127204523D01*
X30726904Y-127265000D01*
X30787380Y-127325476D01*
X30847857Y-127446428D01*
X30847857Y-127567380D01*
X30787380Y-127748809D01*
X30061666Y-128474523D01*
X30847857Y-128474523D01*
%TO.C,K20*%
X368507857Y-145374523D02*
X368507857Y-144104523D01*
X369233571Y-145374523D02*
X368689285Y-144648809D01*
X369233571Y-144104523D02*
X368507857Y-144830238D01*
X369717380Y-144225476D02*
X369777857Y-144165000D01*
X369898809Y-144104523D01*
X370201190Y-144104523D01*
X370322142Y-144165000D01*
X370382619Y-144225476D01*
X370443095Y-144346428D01*
X370443095Y-144467380D01*
X370382619Y-144648809D01*
X369656904Y-145374523D01*
X370443095Y-145374523D01*
X371229285Y-144104523D02*
X371350238Y-144104523D01*
X371471190Y-144165000D01*
X371531666Y-144225476D01*
X371592142Y-144346428D01*
X371652619Y-144588333D01*
X371652619Y-144890714D01*
X371592142Y-145132619D01*
X371531666Y-145253571D01*
X371471190Y-145314047D01*
X371350238Y-145374523D01*
X371229285Y-145374523D01*
X371108333Y-145314047D01*
X371047857Y-145253571D01*
X370987380Y-145132619D01*
X370926904Y-144890714D01*
X370926904Y-144588333D01*
X370987380Y-144346428D01*
X371047857Y-144225476D01*
X371108333Y-144165000D01*
X371229285Y-144104523D01*
%TO.C,K19*%
X173807857Y-145374523D02*
X173807857Y-144104523D01*
X174533571Y-145374523D02*
X173989285Y-144648809D01*
X174533571Y-144104523D02*
X173807857Y-144830238D01*
X175743095Y-145374523D02*
X175017380Y-145374523D01*
X175380238Y-145374523D02*
X175380238Y-144104523D01*
X175259285Y-144285952D01*
X175138333Y-144406904D01*
X175017380Y-144467380D01*
X176347857Y-145374523D02*
X176589761Y-145374523D01*
X176710714Y-145314047D01*
X176771190Y-145253571D01*
X176892142Y-145072142D01*
X176952619Y-144830238D01*
X176952619Y-144346428D01*
X176892142Y-144225476D01*
X176831666Y-144165000D01*
X176710714Y-144104523D01*
X176468809Y-144104523D01*
X176347857Y-144165000D01*
X176287380Y-144225476D01*
X176226904Y-144346428D01*
X176226904Y-144648809D01*
X176287380Y-144769761D01*
X176347857Y-144830238D01*
X176468809Y-144890714D01*
X176710714Y-144890714D01*
X176831666Y-144830238D01*
X176892142Y-144769761D01*
X176952619Y-144648809D01*
%TO.C,BUS_B1*%
X367074302Y-180281245D02*
X367255731Y-180341721D01*
X367316207Y-180402198D01*
X367376683Y-180523150D01*
X367376683Y-180704579D01*
X367316207Y-180825531D01*
X367255731Y-180886007D01*
X367134779Y-180946483D01*
X366650969Y-180946483D01*
X366650969Y-179676483D01*
X367074302Y-179676483D01*
X367195255Y-179736960D01*
X367255731Y-179797436D01*
X367316207Y-179918388D01*
X367316207Y-180039340D01*
X367255731Y-180160293D01*
X367195255Y-180220769D01*
X367074302Y-180281245D01*
X366650969Y-180281245D01*
X367920969Y-179676483D02*
X367920969Y-180704579D01*
X367981445Y-180825531D01*
X368041921Y-180886007D01*
X368162874Y-180946483D01*
X368404779Y-180946483D01*
X368525731Y-180886007D01*
X368586207Y-180825531D01*
X368646683Y-180704579D01*
X368646683Y-179676483D01*
X369190969Y-180886007D02*
X369372398Y-180946483D01*
X369674779Y-180946483D01*
X369795731Y-180886007D01*
X369856207Y-180825531D01*
X369916683Y-180704579D01*
X369916683Y-180583626D01*
X369856207Y-180462674D01*
X369795731Y-180402198D01*
X369674779Y-180341721D01*
X369432874Y-180281245D01*
X369311921Y-180220769D01*
X369251445Y-180160293D01*
X369190969Y-180039340D01*
X369190969Y-179918388D01*
X369251445Y-179797436D01*
X369311921Y-179736960D01*
X369432874Y-179676483D01*
X369735255Y-179676483D01*
X369916683Y-179736960D01*
X370158588Y-181067436D02*
X371126207Y-181067436D01*
X371851921Y-180281245D02*
X372033350Y-180341721D01*
X372093826Y-180402198D01*
X372154302Y-180523150D01*
X372154302Y-180704579D01*
X372093826Y-180825531D01*
X372033350Y-180886007D01*
X371912398Y-180946483D01*
X371428588Y-180946483D01*
X371428588Y-179676483D01*
X371851921Y-179676483D01*
X371972874Y-179736960D01*
X372033350Y-179797436D01*
X372093826Y-179918388D01*
X372093826Y-180039340D01*
X372033350Y-180160293D01*
X371972874Y-180220769D01*
X371851921Y-180281245D01*
X371428588Y-180281245D01*
X373363826Y-180946483D02*
X372638112Y-180946483D01*
X373000969Y-180946483D02*
X373000969Y-179676483D01*
X372880017Y-179857912D01*
X372759064Y-179978864D01*
X372638112Y-180039340D01*
%TO.C,BUS_A1*%
X172165017Y-180281245D02*
X172346445Y-180341721D01*
X172406921Y-180402198D01*
X172467398Y-180523150D01*
X172467398Y-180704579D01*
X172406921Y-180825531D01*
X172346445Y-180886007D01*
X172225493Y-180946483D01*
X171741683Y-180946483D01*
X171741683Y-179676483D01*
X172165017Y-179676483D01*
X172285969Y-179736960D01*
X172346445Y-179797436D01*
X172406921Y-179918388D01*
X172406921Y-180039340D01*
X172346445Y-180160293D01*
X172285969Y-180220769D01*
X172165017Y-180281245D01*
X171741683Y-180281245D01*
X173011683Y-179676483D02*
X173011683Y-180704579D01*
X173072160Y-180825531D01*
X173132636Y-180886007D01*
X173253588Y-180946483D01*
X173495493Y-180946483D01*
X173616445Y-180886007D01*
X173676921Y-180825531D01*
X173737398Y-180704579D01*
X173737398Y-179676483D01*
X174281683Y-180886007D02*
X174463112Y-180946483D01*
X174765493Y-180946483D01*
X174886445Y-180886007D01*
X174946921Y-180825531D01*
X175007398Y-180704579D01*
X175007398Y-180583626D01*
X174946921Y-180462674D01*
X174886445Y-180402198D01*
X174765493Y-180341721D01*
X174523588Y-180281245D01*
X174402636Y-180220769D01*
X174342160Y-180160293D01*
X174281683Y-180039340D01*
X174281683Y-179918388D01*
X174342160Y-179797436D01*
X174402636Y-179736960D01*
X174523588Y-179676483D01*
X174825969Y-179676483D01*
X175007398Y-179736960D01*
X175249302Y-181067436D02*
X176216921Y-181067436D01*
X176458826Y-180583626D02*
X177063588Y-180583626D01*
X176337874Y-180946483D02*
X176761207Y-179676483D01*
X177184540Y-180946483D01*
X178273112Y-180946483D02*
X177547398Y-180946483D01*
X177910255Y-180946483D02*
X177910255Y-179676483D01*
X177789302Y-179857912D01*
X177668350Y-179978864D01*
X177547398Y-180039340D01*
%TO.C,K18*%
X327707857Y-128474523D02*
X327707857Y-127204523D01*
X328433571Y-128474523D02*
X327889285Y-127748809D01*
X328433571Y-127204523D02*
X327707857Y-127930238D01*
X329643095Y-128474523D02*
X328917380Y-128474523D01*
X329280238Y-128474523D02*
X329280238Y-127204523D01*
X329159285Y-127385952D01*
X329038333Y-127506904D01*
X328917380Y-127567380D01*
X330368809Y-127748809D02*
X330247857Y-127688333D01*
X330187380Y-127627857D01*
X330126904Y-127506904D01*
X330126904Y-127446428D01*
X330187380Y-127325476D01*
X330247857Y-127265000D01*
X330368809Y-127204523D01*
X330610714Y-127204523D01*
X330731666Y-127265000D01*
X330792142Y-127325476D01*
X330852619Y-127446428D01*
X330852619Y-127506904D01*
X330792142Y-127627857D01*
X330731666Y-127688333D01*
X330610714Y-127748809D01*
X330368809Y-127748809D01*
X330247857Y-127809285D01*
X330187380Y-127869761D01*
X330126904Y-127990714D01*
X330126904Y-128232619D01*
X330187380Y-128353571D01*
X330247857Y-128414047D01*
X330368809Y-128474523D01*
X330610714Y-128474523D01*
X330731666Y-128414047D01*
X330792142Y-128353571D01*
X330852619Y-128232619D01*
X330852619Y-127990714D01*
X330792142Y-127869761D01*
X330731666Y-127809285D01*
X330610714Y-127748809D01*
%TO.C,K17*%
X327707857Y-145324523D02*
X327707857Y-144054523D01*
X328433571Y-145324523D02*
X327889285Y-144598809D01*
X328433571Y-144054523D02*
X327707857Y-144780238D01*
X329643095Y-145324523D02*
X328917380Y-145324523D01*
X329280238Y-145324523D02*
X329280238Y-144054523D01*
X329159285Y-144235952D01*
X329038333Y-144356904D01*
X328917380Y-144417380D01*
X330066428Y-144054523D02*
X330913095Y-144054523D01*
X330368809Y-145324523D01*
%TO.C,K16*%
X293607857Y-128474523D02*
X293607857Y-127204523D01*
X294333571Y-128474523D02*
X293789285Y-127748809D01*
X294333571Y-127204523D02*
X293607857Y-127930238D01*
X295543095Y-128474523D02*
X294817380Y-128474523D01*
X295180238Y-128474523D02*
X295180238Y-127204523D01*
X295059285Y-127385952D01*
X294938333Y-127506904D01*
X294817380Y-127567380D01*
X296631666Y-127204523D02*
X296389761Y-127204523D01*
X296268809Y-127265000D01*
X296208333Y-127325476D01*
X296087380Y-127506904D01*
X296026904Y-127748809D01*
X296026904Y-128232619D01*
X296087380Y-128353571D01*
X296147857Y-128414047D01*
X296268809Y-128474523D01*
X296510714Y-128474523D01*
X296631666Y-128414047D01*
X296692142Y-128353571D01*
X296752619Y-128232619D01*
X296752619Y-127930238D01*
X296692142Y-127809285D01*
X296631666Y-127748809D01*
X296510714Y-127688333D01*
X296268809Y-127688333D01*
X296147857Y-127748809D01*
X296087380Y-127809285D01*
X296026904Y-127930238D01*
%TO.C,K15*%
X293607857Y-145324523D02*
X293607857Y-144054523D01*
X294333571Y-145324523D02*
X293789285Y-144598809D01*
X294333571Y-144054523D02*
X293607857Y-144780238D01*
X295543095Y-145324523D02*
X294817380Y-145324523D01*
X295180238Y-145324523D02*
X295180238Y-144054523D01*
X295059285Y-144235952D01*
X294938333Y-144356904D01*
X294817380Y-144417380D01*
X296692142Y-144054523D02*
X296087380Y-144054523D01*
X296026904Y-144659285D01*
X296087380Y-144598809D01*
X296208333Y-144538333D01*
X296510714Y-144538333D01*
X296631666Y-144598809D01*
X296692142Y-144659285D01*
X296752619Y-144780238D01*
X296752619Y-145082619D01*
X296692142Y-145203571D01*
X296631666Y-145264047D01*
X296510714Y-145324523D01*
X296208333Y-145324523D01*
X296087380Y-145264047D01*
X296026904Y-145203571D01*
%TO.C,K14*%
X258457857Y-128474523D02*
X258457857Y-127204523D01*
X259183571Y-128474523D02*
X258639285Y-127748809D01*
X259183571Y-127204523D02*
X258457857Y-127930238D01*
X260393095Y-128474523D02*
X259667380Y-128474523D01*
X260030238Y-128474523D02*
X260030238Y-127204523D01*
X259909285Y-127385952D01*
X259788333Y-127506904D01*
X259667380Y-127567380D01*
X261481666Y-127627857D02*
X261481666Y-128474523D01*
X261179285Y-127144047D02*
X260876904Y-128051190D01*
X261663095Y-128051190D01*
%TO.C,K13*%
X258457857Y-145274523D02*
X258457857Y-144004523D01*
X259183571Y-145274523D02*
X258639285Y-144548809D01*
X259183571Y-144004523D02*
X258457857Y-144730238D01*
X260393095Y-145274523D02*
X259667380Y-145274523D01*
X260030238Y-145274523D02*
X260030238Y-144004523D01*
X259909285Y-144185952D01*
X259788333Y-144306904D01*
X259667380Y-144367380D01*
X260816428Y-144004523D02*
X261602619Y-144004523D01*
X261179285Y-144488333D01*
X261360714Y-144488333D01*
X261481666Y-144548809D01*
X261542142Y-144609285D01*
X261602619Y-144730238D01*
X261602619Y-145032619D01*
X261542142Y-145153571D01*
X261481666Y-145214047D01*
X261360714Y-145274523D01*
X260997857Y-145274523D01*
X260876904Y-145214047D01*
X260816428Y-145153571D01*
%TO.C,K12*%
X223457857Y-128424523D02*
X223457857Y-127154523D01*
X224183571Y-128424523D02*
X223639285Y-127698809D01*
X224183571Y-127154523D02*
X223457857Y-127880238D01*
X225393095Y-128424523D02*
X224667380Y-128424523D01*
X225030238Y-128424523D02*
X225030238Y-127154523D01*
X224909285Y-127335952D01*
X224788333Y-127456904D01*
X224667380Y-127517380D01*
X225876904Y-127275476D02*
X225937380Y-127215000D01*
X226058333Y-127154523D01*
X226360714Y-127154523D01*
X226481666Y-127215000D01*
X226542142Y-127275476D01*
X226602619Y-127396428D01*
X226602619Y-127517380D01*
X226542142Y-127698809D01*
X225816428Y-128424523D01*
X226602619Y-128424523D01*
%TO.C,K11*%
X223457857Y-145374523D02*
X223457857Y-144104523D01*
X224183571Y-145374523D02*
X223639285Y-144648809D01*
X224183571Y-144104523D02*
X223457857Y-144830238D01*
X225393095Y-145374523D02*
X224667380Y-145374523D01*
X225030238Y-145374523D02*
X225030238Y-144104523D01*
X224909285Y-144285952D01*
X224788333Y-144406904D01*
X224667380Y-144467380D01*
X226602619Y-145374523D02*
X225876904Y-145374523D01*
X226239761Y-145374523D02*
X226239761Y-144104523D01*
X226118809Y-144285952D01*
X225997857Y-144406904D01*
X225876904Y-144467380D01*
%TO.C,K10*%
X368507857Y-128424523D02*
X368507857Y-127154523D01*
X369233571Y-128424523D02*
X368689285Y-127698809D01*
X369233571Y-127154523D02*
X368507857Y-127880238D01*
X370443095Y-128424523D02*
X369717380Y-128424523D01*
X370080238Y-128424523D02*
X370080238Y-127154523D01*
X369959285Y-127335952D01*
X369838333Y-127456904D01*
X369717380Y-127517380D01*
X371229285Y-127154523D02*
X371350238Y-127154523D01*
X371471190Y-127215000D01*
X371531666Y-127275476D01*
X371592142Y-127396428D01*
X371652619Y-127638333D01*
X371652619Y-127940714D01*
X371592142Y-128182619D01*
X371531666Y-128303571D01*
X371471190Y-128364047D01*
X371350238Y-128424523D01*
X371229285Y-128424523D01*
X371108333Y-128364047D01*
X371047857Y-128303571D01*
X370987380Y-128182619D01*
X370926904Y-127940714D01*
X370926904Y-127638333D01*
X370987380Y-127396428D01*
X371047857Y-127275476D01*
X371108333Y-127215000D01*
X371229285Y-127154523D01*
%TO.C,K9*%
X134362619Y-128424523D02*
X134362619Y-127154523D01*
X135088333Y-128424523D02*
X134544047Y-127698809D01*
X135088333Y-127154523D02*
X134362619Y-127880238D01*
X135693095Y-128424523D02*
X135935000Y-128424523D01*
X136055952Y-128364047D01*
X136116428Y-128303571D01*
X136237380Y-128122142D01*
X136297857Y-127880238D01*
X136297857Y-127396428D01*
X136237380Y-127275476D01*
X136176904Y-127215000D01*
X136055952Y-127154523D01*
X135814047Y-127154523D01*
X135693095Y-127215000D01*
X135632619Y-127275476D01*
X135572142Y-127396428D01*
X135572142Y-127698809D01*
X135632619Y-127819761D01*
X135693095Y-127880238D01*
X135814047Y-127940714D01*
X136055952Y-127940714D01*
X136176904Y-127880238D01*
X136237380Y-127819761D01*
X136297857Y-127698809D01*
%TO.C,K8*%
X134362619Y-145324523D02*
X134362619Y-144054523D01*
X135088333Y-145324523D02*
X134544047Y-144598809D01*
X135088333Y-144054523D02*
X134362619Y-144780238D01*
X135814047Y-144598809D02*
X135693095Y-144538333D01*
X135632619Y-144477857D01*
X135572142Y-144356904D01*
X135572142Y-144296428D01*
X135632619Y-144175476D01*
X135693095Y-144115000D01*
X135814047Y-144054523D01*
X136055952Y-144054523D01*
X136176904Y-144115000D01*
X136237380Y-144175476D01*
X136297857Y-144296428D01*
X136297857Y-144356904D01*
X136237380Y-144477857D01*
X136176904Y-144538333D01*
X136055952Y-144598809D01*
X135814047Y-144598809D01*
X135693095Y-144659285D01*
X135632619Y-144719761D01*
X135572142Y-144840714D01*
X135572142Y-145082619D01*
X135632619Y-145203571D01*
X135693095Y-145264047D01*
X135814047Y-145324523D01*
X136055952Y-145324523D01*
X136176904Y-145264047D01*
X136237380Y-145203571D01*
X136297857Y-145082619D01*
X136297857Y-144840714D01*
X136237380Y-144719761D01*
X136176904Y-144659285D01*
X136055952Y-144598809D01*
%TO.C,K7*%
X99912619Y-128424523D02*
X99912619Y-127154523D01*
X100638333Y-128424523D02*
X100094047Y-127698809D01*
X100638333Y-127154523D02*
X99912619Y-127880238D01*
X101061666Y-127154523D02*
X101908333Y-127154523D01*
X101364047Y-128424523D01*
%TO.C,K6*%
X99862619Y-145324523D02*
X99862619Y-144054523D01*
X100588333Y-145324523D02*
X100044047Y-144598809D01*
X100588333Y-144054523D02*
X99862619Y-144780238D01*
X101676904Y-144054523D02*
X101435000Y-144054523D01*
X101314047Y-144115000D01*
X101253571Y-144175476D01*
X101132619Y-144356904D01*
X101072142Y-144598809D01*
X101072142Y-145082619D01*
X101132619Y-145203571D01*
X101193095Y-145264047D01*
X101314047Y-145324523D01*
X101555952Y-145324523D01*
X101676904Y-145264047D01*
X101737380Y-145203571D01*
X101797857Y-145082619D01*
X101797857Y-144780238D01*
X101737380Y-144659285D01*
X101676904Y-144598809D01*
X101555952Y-144538333D01*
X101314047Y-144538333D01*
X101193095Y-144598809D01*
X101132619Y-144659285D01*
X101072142Y-144780238D01*
%TO.C,K5*%
X174362619Y-128424523D02*
X174362619Y-127154523D01*
X175088333Y-128424523D02*
X174544047Y-127698809D01*
X175088333Y-127154523D02*
X174362619Y-127880238D01*
X176237380Y-127154523D02*
X175632619Y-127154523D01*
X175572142Y-127759285D01*
X175632619Y-127698809D01*
X175753571Y-127638333D01*
X176055952Y-127638333D01*
X176176904Y-127698809D01*
X176237380Y-127759285D01*
X176297857Y-127880238D01*
X176297857Y-128182619D01*
X176237380Y-128303571D01*
X176176904Y-128364047D01*
X176055952Y-128424523D01*
X175753571Y-128424523D01*
X175632619Y-128364047D01*
X175572142Y-128303571D01*
%TO.C,K4*%
X63512619Y-128474523D02*
X63512619Y-127204523D01*
X64238333Y-128474523D02*
X63694047Y-127748809D01*
X64238333Y-127204523D02*
X63512619Y-127930238D01*
X65326904Y-127627857D02*
X65326904Y-128474523D01*
X65024523Y-127144047D02*
X64722142Y-128051190D01*
X65508333Y-128051190D01*
%TO.C,K3*%
X63562619Y-145374523D02*
X63562619Y-144104523D01*
X64288333Y-145374523D02*
X63744047Y-144648809D01*
X64288333Y-144104523D02*
X63562619Y-144830238D01*
X64711666Y-144104523D02*
X65497857Y-144104523D01*
X65074523Y-144588333D01*
X65255952Y-144588333D01*
X65376904Y-144648809D01*
X65437380Y-144709285D01*
X65497857Y-144830238D01*
X65497857Y-145132619D01*
X65437380Y-145253571D01*
X65376904Y-145314047D01*
X65255952Y-145374523D01*
X64893095Y-145374523D01*
X64772142Y-145314047D01*
X64711666Y-145253571D01*
%TO.C,K1*%
X28862619Y-145374523D02*
X28862619Y-144104523D01*
X29588333Y-145374523D02*
X29044047Y-144648809D01*
X29588333Y-144104523D02*
X28862619Y-144830238D01*
X30797857Y-145374523D02*
X30072142Y-145374523D01*
X30435000Y-145374523D02*
X30435000Y-144104523D01*
X30314047Y-144285952D01*
X30193095Y-144406904D01*
X30072142Y-144467380D01*
%TD*%
M02*
