%TF.GenerationSoftware,KiCad,Pcbnew,(5.1.9)-1*%
%TF.CreationDate,2021-03-13T14:24:32+01:00*%
%TF.ProjectId,Main_Relay_Board,4d61696e-5f52-4656-9c61-795f426f6172,rev?*%
%TF.SameCoordinates,Original*%
%TF.FileFunction,Paste,Top*%
%TF.FilePolarity,Positive*%
%FSLAX46Y46*%
G04 Gerber Fmt 4.6, Leading zero omitted, Abs format (unit mm)*
G04 Created by KiCad (PCBNEW (5.1.9)-1) date 2021-03-13 14:24:32*
%MOMM*%
%LPD*%
G01*
G04 APERTURE LIST*
%ADD10R,2.940000X1.000000*%
G04 APERTURE END LIST*
%TO.C,R19*%
G36*
G01*
X315584998Y-105227500D02*
X316835002Y-105227500D01*
G75*
G02*
X317085000Y-105477498I0J-249998D01*
G01*
X317085000Y-106102502D01*
G75*
G02*
X316835002Y-106352500I-249998J0D01*
G01*
X315584998Y-106352500D01*
G75*
G02*
X315335000Y-106102502I0J249998D01*
G01*
X315335000Y-105477498D01*
G75*
G02*
X315584998Y-105227500I249998J0D01*
G01*
G37*
G36*
G01*
X315584998Y-102302500D02*
X316835002Y-102302500D01*
G75*
G02*
X317085000Y-102552498I0J-249998D01*
G01*
X317085000Y-103177502D01*
G75*
G02*
X316835002Y-103427500I-249998J0D01*
G01*
X315584998Y-103427500D01*
G75*
G02*
X315335000Y-103177502I0J249998D01*
G01*
X315335000Y-102552498D01*
G75*
G02*
X315584998Y-102302500I249998J0D01*
G01*
G37*
%TD*%
%TO.C,R18*%
G36*
G01*
X56684998Y-105347500D02*
X57935002Y-105347500D01*
G75*
G02*
X58185000Y-105597498I0J-249998D01*
G01*
X58185000Y-106222502D01*
G75*
G02*
X57935002Y-106472500I-249998J0D01*
G01*
X56684998Y-106472500D01*
G75*
G02*
X56435000Y-106222502I0J249998D01*
G01*
X56435000Y-105597498D01*
G75*
G02*
X56684998Y-105347500I249998J0D01*
G01*
G37*
G36*
G01*
X56684998Y-102422500D02*
X57935002Y-102422500D01*
G75*
G02*
X58185000Y-102672498I0J-249998D01*
G01*
X58185000Y-103297502D01*
G75*
G02*
X57935002Y-103547500I-249998J0D01*
G01*
X56684998Y-103547500D01*
G75*
G02*
X56435000Y-103297502I0J249998D01*
G01*
X56435000Y-102672498D01*
G75*
G02*
X56684998Y-102422500I249998J0D01*
G01*
G37*
%TD*%
%TO.C,R1*%
G36*
G01*
X208924998Y-105322500D02*
X210175002Y-105322500D01*
G75*
G02*
X210425000Y-105572498I0J-249998D01*
G01*
X210425000Y-106197502D01*
G75*
G02*
X210175002Y-106447500I-249998J0D01*
G01*
X208924998Y-106447500D01*
G75*
G02*
X208675000Y-106197502I0J249998D01*
G01*
X208675000Y-105572498D01*
G75*
G02*
X208924998Y-105322500I249998J0D01*
G01*
G37*
G36*
G01*
X208924998Y-102397500D02*
X210175002Y-102397500D01*
G75*
G02*
X210425000Y-102647498I0J-249998D01*
G01*
X210425000Y-103272502D01*
G75*
G02*
X210175002Y-103522500I-249998J0D01*
G01*
X208924998Y-103522500D01*
G75*
G02*
X208675000Y-103272502I0J249998D01*
G01*
X208675000Y-102647498D01*
G75*
G02*
X208924998Y-102397500I249998J0D01*
G01*
G37*
%TD*%
D10*
%TO.C,K2*%
X34530000Y-140960000D03*
X34530000Y-138420000D03*
X34530000Y-135880000D03*
X34530000Y-133340000D03*
X34530000Y-130800000D03*
X24970000Y-130800000D03*
X24970000Y-133340000D03*
X24970000Y-135880000D03*
X24970000Y-138420000D03*
X24970000Y-140960000D03*
%TD*%
%TO.C,K20*%
X374830000Y-157856666D03*
X374830000Y-155316666D03*
X374830000Y-152776666D03*
X374830000Y-150236666D03*
X374830000Y-147696666D03*
X365270000Y-147696666D03*
X365270000Y-150236666D03*
X365270000Y-152776666D03*
X365270000Y-155316666D03*
X365270000Y-157856666D03*
%TD*%
%TO.C,K19*%
X180100000Y-157856666D03*
X180100000Y-155316666D03*
X180100000Y-152776666D03*
X180100000Y-150236666D03*
X180100000Y-147696666D03*
X170540000Y-147696666D03*
X170540000Y-150236666D03*
X170540000Y-152776666D03*
X170540000Y-155316666D03*
X170540000Y-157856666D03*
%TD*%
%TO.C,K18*%
X334040000Y-140960000D03*
X334040000Y-138420000D03*
X334040000Y-135880000D03*
X334040000Y-133340000D03*
X334040000Y-130800000D03*
X324480000Y-130800000D03*
X324480000Y-133340000D03*
X324480000Y-135880000D03*
X324480000Y-138420000D03*
X324480000Y-140960000D03*
%TD*%
%TO.C,K17*%
X334040000Y-157856666D03*
X334040000Y-155316666D03*
X334040000Y-152776666D03*
X334040000Y-150236666D03*
X334040000Y-147696666D03*
X324480000Y-147696666D03*
X324480000Y-150236666D03*
X324480000Y-152776666D03*
X324480000Y-155316666D03*
X324480000Y-157856666D03*
%TD*%
%TO.C,K16*%
X299940000Y-140960000D03*
X299940000Y-138420000D03*
X299940000Y-135880000D03*
X299940000Y-133340000D03*
X299940000Y-130800000D03*
X290380000Y-130800000D03*
X290380000Y-133340000D03*
X290380000Y-135880000D03*
X290380000Y-138420000D03*
X290380000Y-140960000D03*
%TD*%
%TO.C,K15*%
X299940000Y-157856666D03*
X299940000Y-155316666D03*
X299940000Y-152776666D03*
X299940000Y-150236666D03*
X299940000Y-147696666D03*
X290380000Y-147696666D03*
X290380000Y-150236666D03*
X290380000Y-152776666D03*
X290380000Y-155316666D03*
X290380000Y-157856666D03*
%TD*%
%TO.C,K14*%
X264770000Y-140960000D03*
X264770000Y-138420000D03*
X264770000Y-135880000D03*
X264770000Y-133340000D03*
X264770000Y-130800000D03*
X255210000Y-130800000D03*
X255210000Y-133340000D03*
X255210000Y-135880000D03*
X255210000Y-138420000D03*
X255210000Y-140960000D03*
%TD*%
%TO.C,K13*%
X264770000Y-157856666D03*
X264770000Y-155316666D03*
X264770000Y-152776666D03*
X264770000Y-150236666D03*
X264770000Y-147696666D03*
X255210000Y-147696666D03*
X255210000Y-150236666D03*
X255210000Y-152776666D03*
X255210000Y-155316666D03*
X255210000Y-157856666D03*
%TD*%
%TO.C,K12*%
X229770000Y-140960000D03*
X229770000Y-138420000D03*
X229770000Y-135880000D03*
X229770000Y-133340000D03*
X229770000Y-130800000D03*
X220210000Y-130800000D03*
X220210000Y-133340000D03*
X220210000Y-135880000D03*
X220210000Y-138420000D03*
X220210000Y-140960000D03*
%TD*%
%TO.C,K11*%
X229770000Y-157856666D03*
X229770000Y-155316666D03*
X229770000Y-152776666D03*
X229770000Y-150236666D03*
X229770000Y-147696666D03*
X220210000Y-147696666D03*
X220210000Y-150236666D03*
X220210000Y-152776666D03*
X220210000Y-155316666D03*
X220210000Y-157856666D03*
%TD*%
%TO.C,K10*%
X374830000Y-140960000D03*
X374830000Y-138420000D03*
X374830000Y-135880000D03*
X374830000Y-133340000D03*
X374830000Y-130800000D03*
X365270000Y-130800000D03*
X365270000Y-133340000D03*
X365270000Y-135880000D03*
X365270000Y-138420000D03*
X365270000Y-140960000D03*
%TD*%
%TO.C,K9*%
X140060000Y-140960000D03*
X140060000Y-138420000D03*
X140060000Y-135880000D03*
X140060000Y-133340000D03*
X140060000Y-130800000D03*
X130500000Y-130800000D03*
X130500000Y-133340000D03*
X130500000Y-135880000D03*
X130500000Y-138420000D03*
X130500000Y-140960000D03*
%TD*%
%TO.C,K8*%
X140060000Y-157856666D03*
X140060000Y-155316666D03*
X140060000Y-152776666D03*
X140060000Y-150236666D03*
X140060000Y-147696666D03*
X130500000Y-147696666D03*
X130500000Y-150236666D03*
X130500000Y-152776666D03*
X130500000Y-155316666D03*
X130500000Y-157856666D03*
%TD*%
%TO.C,K7*%
X105590000Y-140960000D03*
X105590000Y-138420000D03*
X105590000Y-135880000D03*
X105590000Y-133340000D03*
X105590000Y-130800000D03*
X96030000Y-130800000D03*
X96030000Y-133340000D03*
X96030000Y-135880000D03*
X96030000Y-138420000D03*
X96030000Y-140960000D03*
%TD*%
%TO.C,K6*%
X105590000Y-157856666D03*
X105590000Y-155316666D03*
X105590000Y-152776666D03*
X105590000Y-150236666D03*
X105590000Y-147696666D03*
X96030000Y-147696666D03*
X96030000Y-150236666D03*
X96030000Y-152776666D03*
X96030000Y-155316666D03*
X96030000Y-157856666D03*
%TD*%
%TO.C,K5*%
X180100000Y-140960000D03*
X180100000Y-138420000D03*
X180100000Y-135880000D03*
X180100000Y-133340000D03*
X180100000Y-130800000D03*
X170540000Y-130800000D03*
X170540000Y-133340000D03*
X170540000Y-135880000D03*
X170540000Y-138420000D03*
X170540000Y-140960000D03*
%TD*%
%TO.C,K4*%
X69230000Y-140960000D03*
X69230000Y-138420000D03*
X69230000Y-135880000D03*
X69230000Y-133340000D03*
X69230000Y-130800000D03*
X59670000Y-130800000D03*
X59670000Y-133340000D03*
X59670000Y-135880000D03*
X59670000Y-138420000D03*
X59670000Y-140960000D03*
%TD*%
%TO.C,K3*%
X69230000Y-157856666D03*
X69230000Y-155316666D03*
X69230000Y-152776666D03*
X69230000Y-150236666D03*
X69230000Y-147696666D03*
X59670000Y-147696666D03*
X59670000Y-150236666D03*
X59670000Y-152776666D03*
X59670000Y-155316666D03*
X59670000Y-157856666D03*
%TD*%
%TO.C,K1*%
X34530000Y-157856666D03*
X34530000Y-155316666D03*
X34530000Y-152776666D03*
X34530000Y-150236666D03*
X34530000Y-147696666D03*
X24970000Y-147696666D03*
X24970000Y-150236666D03*
X24970000Y-152776666D03*
X24970000Y-155316666D03*
X24970000Y-157856666D03*
%TD*%
M02*
