%TF.GenerationSoftware,KiCad,Pcbnew,(5.1.9)-1*%
%TF.CreationDate,2021-03-26T19:38:27+01:00*%
%TF.ProjectId,Main_Relay_Board,4d61696e-5f52-4656-9c61-795f426f6172,rev?*%
%TF.SameCoordinates,Original*%
%TF.FileFunction,Copper,L2,Bot*%
%TF.FilePolarity,Positive*%
%FSLAX46Y46*%
G04 Gerber Fmt 4.6, Leading zero omitted, Abs format (unit mm)*
G04 Created by KiCad (PCBNEW (5.1.9)-1) date 2021-03-26 19:38:27*
%MOMM*%
%LPD*%
G01*
G04 APERTURE LIST*
%TA.AperFunction,ComponentPad*%
%ADD10C,2.700000*%
%TD*%
%TA.AperFunction,ComponentPad*%
%ADD11C,3.450000*%
%TD*%
%TA.AperFunction,ComponentPad*%
%ADD12C,1.800000*%
%TD*%
%TA.AperFunction,ComponentPad*%
%ADD13C,1.600000*%
%TD*%
%TA.AperFunction,ComponentPad*%
%ADD14R,1.600000X1.600000*%
%TD*%
%TA.AperFunction,ComponentPad*%
%ADD15O,1.600000X2.400000*%
%TD*%
%TA.AperFunction,ComponentPad*%
%ADD16R,1.600000X2.400000*%
%TD*%
%TA.AperFunction,ComponentPad*%
%ADD17C,1.524000*%
%TD*%
%TA.AperFunction,ComponentPad*%
%ADD18C,3.352800*%
%TD*%
%TA.AperFunction,SMDPad,CuDef*%
%ADD19R,0.900000X1.200000*%
%TD*%
%TA.AperFunction,ComponentPad*%
%ADD20C,1.400000*%
%TD*%
%TA.AperFunction,SMDPad,CuDef*%
%ADD21R,0.900000X0.800000*%
%TD*%
%TA.AperFunction,ComponentPad*%
%ADD22R,1.800000X1.800000*%
%TD*%
%TA.AperFunction,ViaPad*%
%ADD23C,0.800000*%
%TD*%
%TA.AperFunction,Conductor*%
%ADD24C,0.750000*%
%TD*%
%TA.AperFunction,Conductor*%
%ADD25C,0.250000*%
%TD*%
G04 APERTURE END LIST*
D10*
%TO.P,Input_1,1*%
%TO.N,Phantom_48V_GND*%
X33885720Y-169726480D03*
%TO.P,Input_1,3*%
%TO.N,/Relay/IN1.3*%
X29885720Y-169726480D03*
%TO.P,Input_1,2*%
%TO.N,/Relay/IN1.2*%
X25885720Y-169726480D03*
D11*
%TO.P,Input_1,4*%
%TO.N,/Relay/IN1.4*%
X29885720Y-174726480D03*
D12*
%TO.P,Input_1,5*%
%TO.N,/Relay/IN1.5*%
X29885720Y-164646480D03*
%TD*%
D10*
%TO.P,Input_8,1*%
%TO.N,Phantom_48V_GND*%
X333885720Y-169726480D03*
%TO.P,Input_8,3*%
%TO.N,/Relay/IN8.3*%
X329885720Y-169726480D03*
%TO.P,Input_8,2*%
%TO.N,/Relay/IN8.2*%
X325885720Y-169726480D03*
D11*
%TO.P,Input_8,4*%
%TO.N,/Relay/IN8.4*%
X329885720Y-174726480D03*
D12*
%TO.P,Input_8,5*%
%TO.N,/Relay/IN8.5*%
X329885720Y-164646480D03*
%TD*%
D10*
%TO.P,Input_7,1*%
%TO.N,Phantom_48V_GND*%
X298885720Y-169726480D03*
%TO.P,Input_7,3*%
%TO.N,/Relay/IN7.3*%
X294885720Y-169726480D03*
%TO.P,Input_7,2*%
%TO.N,/Relay/IN7.2*%
X290885720Y-169726480D03*
D11*
%TO.P,Input_7,4*%
%TO.N,/Relay/IN7.4*%
X294885720Y-174726480D03*
D12*
%TO.P,Input_7,5*%
%TO.N,/Relay/IN7.5*%
X294885720Y-164646480D03*
%TD*%
D10*
%TO.P,Input_6,1*%
%TO.N,Phantom_48V_GND*%
X263885720Y-169726480D03*
%TO.P,Input_6,3*%
%TO.N,/Relay/IN6.3*%
X259885720Y-169726480D03*
%TO.P,Input_6,2*%
%TO.N,/Relay/IN6.2*%
X255885720Y-169726480D03*
D11*
%TO.P,Input_6,4*%
%TO.N,/Relay/IN6.4*%
X259885720Y-174726480D03*
D12*
%TO.P,Input_6,5*%
%TO.N,/Relay/IN6.5*%
X259885720Y-164646480D03*
%TD*%
D10*
%TO.P,Input_5,1*%
%TO.N,Phantom_48V_GND*%
X228885720Y-169726480D03*
%TO.P,Input_5,3*%
%TO.N,/Relay/IN5.3*%
X224885720Y-169726480D03*
%TO.P,Input_5,2*%
%TO.N,/Relay/IN5.2*%
X220885720Y-169726480D03*
D11*
%TO.P,Input_5,4*%
%TO.N,/Relay/IN5.4*%
X224885720Y-174726480D03*
D12*
%TO.P,Input_5,5*%
%TO.N,/Relay/IN5.5*%
X224885720Y-164646480D03*
%TD*%
D10*
%TO.P,Input_4,1*%
%TO.N,Phantom_48V_GND*%
X138885720Y-169726480D03*
%TO.P,Input_4,3*%
%TO.N,/Relay/IN4.3*%
X134885720Y-169726480D03*
%TO.P,Input_4,2*%
%TO.N,/Relay/IN4.2*%
X130885720Y-169726480D03*
D11*
%TO.P,Input_4,4*%
%TO.N,/Relay/IN4.4*%
X134885720Y-174726480D03*
D12*
%TO.P,Input_4,5*%
%TO.N,/Relay/IN4.5*%
X134885720Y-164646480D03*
%TD*%
D10*
%TO.P,Input_3,1*%
%TO.N,Phantom_48V_GND*%
X103885720Y-169726480D03*
%TO.P,Input_3,3*%
%TO.N,/Relay/IN3.3*%
X99885720Y-169726480D03*
%TO.P,Input_3,2*%
%TO.N,/Relay/IN3.2*%
X95885720Y-169726480D03*
D11*
%TO.P,Input_3,4*%
%TO.N,/Relay/IN3.4*%
X99885720Y-174726480D03*
D12*
%TO.P,Input_3,5*%
%TO.N,/Relay/IN3.5*%
X99885720Y-164646480D03*
%TD*%
D10*
%TO.P,Input_2,1*%
%TO.N,Phantom_48V_GND*%
X68885720Y-169726480D03*
%TO.P,Input_2,3*%
%TO.N,/Relay/IN2.3*%
X64885720Y-169726480D03*
%TO.P,Input_2,2*%
%TO.N,/Relay/IN2.2*%
X60885720Y-169726480D03*
D11*
%TO.P,Input_2,4*%
%TO.N,/Relay/IN2.4*%
X64885720Y-174726480D03*
D12*
%TO.P,Input_2,5*%
%TO.N,/Relay/IN2.5*%
X64885720Y-164646480D03*
%TD*%
D13*
%TO.P,C22,2*%
%TO.N,Net-(C22-Pad2)*%
X193146800Y-164960300D03*
D14*
%TO.P,C22,1*%
%TO.N,/Relay/OUTA.3*%
X196646800Y-164960300D03*
%TD*%
%TO.P,R47,2*%
%TO.N,Net-(K10-Pad8)*%
%TA.AperFunction,SMDPad,CuDef*%
G36*
G01*
X361654998Y-129952500D02*
X362905002Y-129952500D01*
G75*
G02*
X363155000Y-130202498I0J-249998D01*
G01*
X363155000Y-130827502D01*
G75*
G02*
X362905002Y-131077500I-249998J0D01*
G01*
X361654998Y-131077500D01*
G75*
G02*
X361405000Y-130827502I0J249998D01*
G01*
X361405000Y-130202498D01*
G75*
G02*
X361654998Y-129952500I249998J0D01*
G01*
G37*
%TD.AperFunction*%
%TO.P,R47,1*%
%TO.N,Phantom_48V*%
%TA.AperFunction,SMDPad,CuDef*%
G36*
G01*
X361654998Y-127027500D02*
X362905002Y-127027500D01*
G75*
G02*
X363155000Y-127277498I0J-249998D01*
G01*
X363155000Y-127902502D01*
G75*
G02*
X362905002Y-128152500I-249998J0D01*
G01*
X361654998Y-128152500D01*
G75*
G02*
X361405000Y-127902502I0J249998D01*
G01*
X361405000Y-127277498D01*
G75*
G02*
X361654998Y-127027500I249998J0D01*
G01*
G37*
%TD.AperFunction*%
%TD*%
%TO.P,R46,2*%
%TO.N,Phantom_48V*%
%TA.AperFunction,SMDPad,CuDef*%
G36*
G01*
X379415002Y-128362500D02*
X378164998Y-128362500D01*
G75*
G02*
X377915000Y-128112502I0J249998D01*
G01*
X377915000Y-127487498D01*
G75*
G02*
X378164998Y-127237500I249998J0D01*
G01*
X379415002Y-127237500D01*
G75*
G02*
X379665000Y-127487498I0J-249998D01*
G01*
X379665000Y-128112502D01*
G75*
G02*
X379415002Y-128362500I-249998J0D01*
G01*
G37*
%TD.AperFunction*%
%TO.P,R46,1*%
%TO.N,Net-(K10-Pad3)*%
%TA.AperFunction,SMDPad,CuDef*%
G36*
G01*
X379415002Y-131287500D02*
X378164998Y-131287500D01*
G75*
G02*
X377915000Y-131037502I0J249998D01*
G01*
X377915000Y-130412498D01*
G75*
G02*
X378164998Y-130162500I249998J0D01*
G01*
X379415002Y-130162500D01*
G75*
G02*
X379665000Y-130412498I0J-249998D01*
G01*
X379665000Y-131037502D01*
G75*
G02*
X379415002Y-131287500I-249998J0D01*
G01*
G37*
%TD.AperFunction*%
%TD*%
%TO.P,R45,2*%
%TO.N,Net-(K5-Pad8)*%
%TA.AperFunction,SMDPad,CuDef*%
G36*
G01*
X166274998Y-130017500D02*
X167525002Y-130017500D01*
G75*
G02*
X167775000Y-130267498I0J-249998D01*
G01*
X167775000Y-130892502D01*
G75*
G02*
X167525002Y-131142500I-249998J0D01*
G01*
X166274998Y-131142500D01*
G75*
G02*
X166025000Y-130892502I0J249998D01*
G01*
X166025000Y-130267498D01*
G75*
G02*
X166274998Y-130017500I249998J0D01*
G01*
G37*
%TD.AperFunction*%
%TO.P,R45,1*%
%TO.N,Phantom_48V*%
%TA.AperFunction,SMDPad,CuDef*%
G36*
G01*
X166274998Y-127092500D02*
X167525002Y-127092500D01*
G75*
G02*
X167775000Y-127342498I0J-249998D01*
G01*
X167775000Y-127967502D01*
G75*
G02*
X167525002Y-128217500I-249998J0D01*
G01*
X166274998Y-128217500D01*
G75*
G02*
X166025000Y-127967502I0J249998D01*
G01*
X166025000Y-127342498D01*
G75*
G02*
X166274998Y-127092500I249998J0D01*
G01*
G37*
%TD.AperFunction*%
%TD*%
%TO.P,R44,2*%
%TO.N,Phantom_48V*%
%TA.AperFunction,SMDPad,CuDef*%
G36*
G01*
X184385002Y-128240000D02*
X183134998Y-128240000D01*
G75*
G02*
X182885000Y-127990002I0J249998D01*
G01*
X182885000Y-127364998D01*
G75*
G02*
X183134998Y-127115000I249998J0D01*
G01*
X184385002Y-127115000D01*
G75*
G02*
X184635000Y-127364998I0J-249998D01*
G01*
X184635000Y-127990002D01*
G75*
G02*
X184385002Y-128240000I-249998J0D01*
G01*
G37*
%TD.AperFunction*%
%TO.P,R44,1*%
%TO.N,Net-(K5-Pad3)*%
%TA.AperFunction,SMDPad,CuDef*%
G36*
G01*
X184385002Y-131165000D02*
X183134998Y-131165000D01*
G75*
G02*
X182885000Y-130915002I0J249998D01*
G01*
X182885000Y-130289998D01*
G75*
G02*
X183134998Y-130040000I249998J0D01*
G01*
X184385002Y-130040000D01*
G75*
G02*
X184635000Y-130289998I0J-249998D01*
G01*
X184635000Y-130915002D01*
G75*
G02*
X184385002Y-131165000I-249998J0D01*
G01*
G37*
%TD.AperFunction*%
%TD*%
D13*
%TO.P,C24,2*%
%TO.N,Net-(C24-Pad2)*%
X347769300Y-179705000D03*
D14*
%TO.P,C24,1*%
%TO.N,/Relay/OUTB.3*%
X351269300Y-179705000D03*
%TD*%
D13*
%TO.P,C23,2*%
%TO.N,Net-(C23-Pad2)*%
X351365700Y-169329100D03*
D14*
%TO.P,C23,1*%
%TO.N,/Relay/OUTB.2*%
X347865700Y-169329100D03*
%TD*%
D13*
%TO.P,C21,2*%
%TO.N,Net-(C21-Pad2)*%
X156395300Y-164960300D03*
D14*
%TO.P,C21,1*%
%TO.N,/Relay/OUTA.2*%
X152895300Y-164960300D03*
%TD*%
D15*
%TO.P,U3,28*%
%TO.N,MCP3.16*%
X322270000Y-100590000D03*
%TO.P,U3,14*%
%TO.N,Net-(U3-Pad14)*%
X355290000Y-108210000D03*
%TO.P,U3,27*%
%TO.N,MCP3.15*%
X324810000Y-100590000D03*
%TO.P,U3,13*%
%TO.N,I2C_SDA*%
X352750000Y-108210000D03*
%TO.P,U3,26*%
%TO.N,MCP3.14*%
X327350000Y-100590000D03*
%TO.P,U3,12*%
%TO.N,I2C_SCK*%
X350210000Y-108210000D03*
%TO.P,U3,25*%
%TO.N,MCP3.13*%
X329890000Y-100590000D03*
%TO.P,U3,11*%
%TO.N,Net-(U3-Pad11)*%
X347670000Y-108210000D03*
%TO.P,U3,24*%
%TO.N,MCP3.12*%
X332430000Y-100590000D03*
%TO.P,U3,10*%
%TO.N,GND*%
X345130000Y-108210000D03*
%TO.P,U3,23*%
%TO.N,MCP3.11*%
X334970000Y-100590000D03*
%TO.P,U3,9*%
%TO.N,K1+*%
X342590000Y-108210000D03*
%TO.P,U3,22*%
%TO.N,MCP3.10*%
X337510000Y-100590000D03*
%TO.P,U3,8*%
%TO.N,MCP3.8*%
X340050000Y-108210000D03*
%TO.P,U3,21*%
%TO.N,MCP3.9*%
X340050000Y-100590000D03*
%TO.P,U3,7*%
%TO.N,MCP3.7*%
X337510000Y-108210000D03*
%TO.P,U3,20*%
%TO.N,Net-(U3-Pad20)*%
X342590000Y-100590000D03*
%TO.P,U3,6*%
%TO.N,MCP3.6*%
X334970000Y-108210000D03*
%TO.P,U3,19*%
%TO.N,Net-(U3-Pad19)*%
X345130000Y-100590000D03*
%TO.P,U3,5*%
%TO.N,MCP3.5*%
X332430000Y-108210000D03*
%TO.P,U3,18*%
%TO.N,Net-(R19-Pad1)*%
X347670000Y-100590000D03*
%TO.P,U3,4*%
%TO.N,MCP3.4*%
X329890000Y-108210000D03*
%TO.P,U3,17*%
%TO.N,GND*%
X350210000Y-100590000D03*
%TO.P,U3,3*%
%TO.N,MCP3.3*%
X327350000Y-108210000D03*
%TO.P,U3,16*%
%TO.N,GND*%
X352750000Y-100590000D03*
%TO.P,U3,2*%
%TO.N,MCP3.2*%
X324810000Y-108210000D03*
%TO.P,U3,15*%
%TO.N,K1+*%
X355290000Y-100590000D03*
D16*
%TO.P,U3,1*%
%TO.N,MCP3.1*%
X322270000Y-108210000D03*
%TD*%
D15*
%TO.P,U2,28*%
%TO.N,MCP1.16*%
X63480000Y-100590000D03*
%TO.P,U2,14*%
%TO.N,Net-(U2-Pad14)*%
X96500000Y-108210000D03*
%TO.P,U2,27*%
%TO.N,MCP1.15*%
X66020000Y-100590000D03*
%TO.P,U2,13*%
%TO.N,I2C_SDA*%
X93960000Y-108210000D03*
%TO.P,U2,26*%
%TO.N,MCP1.14*%
X68560000Y-100590000D03*
%TO.P,U2,12*%
%TO.N,I2C_SCK*%
X91420000Y-108210000D03*
%TO.P,U2,25*%
%TO.N,MCP1.13*%
X71100000Y-100590000D03*
%TO.P,U2,11*%
%TO.N,Net-(U2-Pad11)*%
X88880000Y-108210000D03*
%TO.P,U2,24*%
%TO.N,MCP1.12*%
X73640000Y-100590000D03*
%TO.P,U2,10*%
%TO.N,GND*%
X86340000Y-108210000D03*
%TO.P,U2,23*%
%TO.N,MCP1.11*%
X76180000Y-100590000D03*
%TO.P,U2,9*%
%TO.N,K1+*%
X83800000Y-108210000D03*
%TO.P,U2,22*%
%TO.N,MCP1.10*%
X78720000Y-100590000D03*
%TO.P,U2,8*%
%TO.N,MCP1.8*%
X81260000Y-108210000D03*
%TO.P,U2,21*%
%TO.N,MCP1.9*%
X81260000Y-100590000D03*
%TO.P,U2,7*%
%TO.N,MCP1.7*%
X78720000Y-108210000D03*
%TO.P,U2,20*%
%TO.N,Net-(U2-Pad20)*%
X83800000Y-100590000D03*
%TO.P,U2,6*%
%TO.N,MCP1.6*%
X76180000Y-108210000D03*
%TO.P,U2,19*%
%TO.N,Net-(U2-Pad19)*%
X86340000Y-100590000D03*
%TO.P,U2,5*%
%TO.N,MCP1.5*%
X73640000Y-108210000D03*
%TO.P,U2,18*%
%TO.N,Net-(R18-Pad1)*%
X88880000Y-100590000D03*
%TO.P,U2,4*%
%TO.N,MCP1.4*%
X71100000Y-108210000D03*
%TO.P,U2,17*%
%TO.N,GND*%
X91420000Y-100590000D03*
%TO.P,U2,3*%
%TO.N,MCP1.3*%
X68560000Y-108210000D03*
%TO.P,U2,16*%
%TO.N,GND*%
X93960000Y-100590000D03*
%TO.P,U2,2*%
%TO.N,MCP1.2*%
X66020000Y-108210000D03*
%TO.P,U2,15*%
%TO.N,GND*%
X96500000Y-100590000D03*
D16*
%TO.P,U2,1*%
%TO.N,MCP1.1*%
X63480000Y-108210000D03*
%TD*%
D15*
%TO.P,U1,28*%
%TO.N,MCP2.16*%
X215760000Y-100590000D03*
%TO.P,U1,14*%
%TO.N,Net-(U1-Pad14)*%
X248780000Y-108210000D03*
%TO.P,U1,27*%
%TO.N,MCP2.15*%
X218300000Y-100590000D03*
%TO.P,U1,13*%
%TO.N,I2C_SDA*%
X246240000Y-108210000D03*
%TO.P,U1,26*%
%TO.N,MCP2.14*%
X220840000Y-100590000D03*
%TO.P,U1,12*%
%TO.N,I2C_SCK*%
X243700000Y-108210000D03*
%TO.P,U1,25*%
%TO.N,MCP2.13*%
X223380000Y-100590000D03*
%TO.P,U1,11*%
%TO.N,Net-(U1-Pad11)*%
X241160000Y-108210000D03*
%TO.P,U1,24*%
%TO.N,MCP2.12*%
X225920000Y-100590000D03*
%TO.P,U1,10*%
%TO.N,GND*%
X238620000Y-108210000D03*
%TO.P,U1,23*%
%TO.N,MCP2.11*%
X228460000Y-100590000D03*
%TO.P,U1,9*%
%TO.N,K1+*%
X236080000Y-108210000D03*
%TO.P,U1,22*%
%TO.N,MCP2.10*%
X231000000Y-100590000D03*
%TO.P,U1,8*%
%TO.N,MCP2.8*%
X233540000Y-108210000D03*
%TO.P,U1,21*%
%TO.N,MCP2.9*%
X233540000Y-100590000D03*
%TO.P,U1,7*%
%TO.N,MCP2.7*%
X231000000Y-108210000D03*
%TO.P,U1,20*%
%TO.N,Net-(U1-Pad20)*%
X236080000Y-100590000D03*
%TO.P,U1,6*%
%TO.N,MCP2.6*%
X228460000Y-108210000D03*
%TO.P,U1,19*%
%TO.N,Net-(U1-Pad19)*%
X238620000Y-100590000D03*
%TO.P,U1,5*%
%TO.N,MCP2.5*%
X225920000Y-108210000D03*
%TO.P,U1,18*%
%TO.N,Net-(R1-Pad1)*%
X241160000Y-100590000D03*
%TO.P,U1,4*%
%TO.N,MCP2.4*%
X223380000Y-108210000D03*
%TO.P,U1,17*%
%TO.N,GND*%
X243700000Y-100590000D03*
%TO.P,U1,3*%
%TO.N,MCP2.3*%
X220840000Y-108210000D03*
%TO.P,U1,16*%
%TO.N,K1+*%
X246240000Y-100590000D03*
%TO.P,U1,2*%
%TO.N,MCP2.2*%
X218300000Y-108210000D03*
%TO.P,U1,15*%
%TO.N,GND*%
X248780000Y-100590000D03*
D16*
%TO.P,U1,1*%
%TO.N,MCP2.1*%
X215760000Y-108210000D03*
%TD*%
D17*
%TO.P,J2,1*%
%TO.N,I2C_SDA*%
X148560000Y-99650000D03*
%TO.P,J2,2*%
%TO.N,I2C_SCK*%
X148560000Y-102190000D03*
%TO.P,J2,3*%
%TO.N,K1+*%
X151100000Y-99650000D03*
%TO.P,J2,4*%
%TO.N,Net-(J2-Pad4)*%
X151100000Y-102190000D03*
%TO.P,J2,5*%
%TO.N,GND*%
X153640000Y-99650000D03*
%TO.P,J2,6*%
%TO.N,Phantom_48V*%
X153640000Y-102190000D03*
%TO.P,J2,7*%
%TO.N,Net-(J2-Pad7)*%
X156180000Y-99650000D03*
%TO.P,J2,8*%
%TO.N,Net-(J2-Pad8)*%
X156180000Y-102190000D03*
%TO.P,J2,9*%
%TO.N,Net-(J2-Pad9)*%
X158720000Y-99650000D03*
%TO.P,J2,10*%
%TO.N,Phantom_48V_GND*%
X158720000Y-102190000D03*
D18*
%TO.P,J2,11*%
%TO.N,Net-(J2-Pad11)*%
X139428700Y-100920000D03*
%TO.P,J2,12*%
%TO.N,Net-(J2-Pad12)*%
X167851300Y-100920000D03*
%TD*%
%TO.P,R37,2*%
%TO.N,MCP1.14*%
%TA.AperFunction,SMDPad,CuDef*%
G36*
G01*
X117565003Y-139527500D02*
X116314997Y-139527500D01*
G75*
G02*
X116065000Y-139277503I0J249997D01*
G01*
X116065000Y-138652497D01*
G75*
G02*
X116314997Y-138402500I249997J0D01*
G01*
X117565003Y-138402500D01*
G75*
G02*
X117815000Y-138652497I0J-249997D01*
G01*
X117815000Y-139277503D01*
G75*
G02*
X117565003Y-139527500I-249997J0D01*
G01*
G37*
%TD.AperFunction*%
%TO.P,R37,1*%
%TO.N,Net-(C14-Pad1)*%
%TA.AperFunction,SMDPad,CuDef*%
G36*
G01*
X117565003Y-142452500D02*
X116314997Y-142452500D01*
G75*
G02*
X116065000Y-142202503I0J249997D01*
G01*
X116065000Y-141577497D01*
G75*
G02*
X116314997Y-141327500I249997J0D01*
G01*
X117565003Y-141327500D01*
G75*
G02*
X117815000Y-141577497I0J-249997D01*
G01*
X117815000Y-142202503D01*
G75*
G02*
X117565003Y-142452500I-249997J0D01*
G01*
G37*
%TD.AperFunction*%
%TD*%
D19*
%TO.P,D1,2*%
%TO.N,K1-*%
X28030000Y-157900000D03*
%TO.P,D1,1*%
%TO.N,K1+*%
X31330000Y-157900000D03*
%TD*%
D20*
%TO.P,LED10,1*%
%TO.N,Net-(LED10-Pad1)*%
X376815240Y-184775080D03*
%TO.P,LED10,2*%
%TO.N,GND*%
X379355240Y-184775080D03*
%TO.P,LED10,3*%
%TO.N,Net-(LED10-Pad3)*%
X381895240Y-184775080D03*
%TD*%
%TO.P,LED9,1*%
%TO.N,Net-(LED9-Pad1)*%
X181815240Y-184775080D03*
%TO.P,LED9,2*%
%TO.N,GND*%
X184355240Y-184775080D03*
%TO.P,LED9,3*%
%TO.N,Net-(LED9-Pad3)*%
X186895240Y-184775080D03*
%TD*%
%TO.P,LED8,1*%
%TO.N,Net-(LED8-Pad1)*%
X317815240Y-184775080D03*
%TO.P,LED8,2*%
%TO.N,GND*%
X320355240Y-184775080D03*
%TO.P,LED8,3*%
%TO.N,Net-(LED8-Pad3)*%
X322895240Y-184775080D03*
%TD*%
%TO.P,LED7,1*%
%TO.N,Net-(LED7-Pad1)*%
X282815240Y-184775080D03*
%TO.P,LED7,2*%
%TO.N,GND*%
X285355240Y-184775080D03*
%TO.P,LED7,3*%
%TO.N,Net-(LED7-Pad3)*%
X287895240Y-184775080D03*
%TD*%
%TO.P,LED6,1*%
%TO.N,Net-(LED6-Pad1)*%
X247815240Y-184775080D03*
%TO.P,LED6,2*%
%TO.N,GND*%
X250355240Y-184775080D03*
%TO.P,LED6,3*%
%TO.N,Net-(LED6-Pad3)*%
X252895240Y-184775080D03*
%TD*%
%TO.P,LED5,1*%
%TO.N,Net-(LED5-Pad1)*%
X212815240Y-184775080D03*
%TO.P,LED5,2*%
%TO.N,GND*%
X215355240Y-184775080D03*
%TO.P,LED5,3*%
%TO.N,Net-(LED5-Pad3)*%
X217895240Y-184775080D03*
%TD*%
%TO.P,LED4,1*%
%TO.N,Net-(LED4-Pad1)*%
X122815240Y-184775080D03*
%TO.P,LED4,2*%
%TO.N,GND*%
X125355240Y-184775080D03*
%TO.P,LED4,3*%
%TO.N,Net-(LED4-Pad3)*%
X127895240Y-184775080D03*
%TD*%
%TO.P,LED3,1*%
%TO.N,Net-(LED3-Pad1)*%
X87815240Y-184775080D03*
%TO.P,LED3,2*%
%TO.N,GND*%
X90355240Y-184775080D03*
%TO.P,LED3,3*%
%TO.N,Net-(LED3-Pad3)*%
X92895240Y-184775080D03*
%TD*%
%TO.P,LED2,1*%
%TO.N,Net-(LED2-Pad1)*%
X52815240Y-184775080D03*
%TO.P,LED2,2*%
%TO.N,GND*%
X55355240Y-184775080D03*
%TO.P,LED2,3*%
%TO.N,Net-(LED2-Pad3)*%
X57895240Y-184775080D03*
%TD*%
%TO.P,LED1,1*%
%TO.N,Net-(LED1-Pad1)*%
X17815240Y-184764920D03*
%TO.P,LED1,2*%
%TO.N,GND*%
X20355240Y-184764920D03*
%TO.P,LED1,3*%
%TO.N,Net-(LED1-Pad3)*%
X22895240Y-184764920D03*
%TD*%
%TO.P,R43,2*%
%TO.N,MCP3.5*%
%TA.AperFunction,SMDPad,CuDef*%
G36*
G01*
X351695003Y-155517500D02*
X350444997Y-155517500D01*
G75*
G02*
X350195000Y-155267503I0J249997D01*
G01*
X350195000Y-154642497D01*
G75*
G02*
X350444997Y-154392500I249997J0D01*
G01*
X351695003Y-154392500D01*
G75*
G02*
X351945000Y-154642497I0J-249997D01*
G01*
X351945000Y-155267503D01*
G75*
G02*
X351695003Y-155517500I-249997J0D01*
G01*
G37*
%TD.AperFunction*%
%TO.P,R43,1*%
%TO.N,Net-(C20-Pad1)*%
%TA.AperFunction,SMDPad,CuDef*%
G36*
G01*
X351695003Y-158442500D02*
X350444997Y-158442500D01*
G75*
G02*
X350195000Y-158192503I0J249997D01*
G01*
X350195000Y-157567497D01*
G75*
G02*
X350444997Y-157317500I249997J0D01*
G01*
X351695003Y-157317500D01*
G75*
G02*
X351945000Y-157567497I0J-249997D01*
G01*
X351945000Y-158192503D01*
G75*
G02*
X351695003Y-158442500I-249997J0D01*
G01*
G37*
%TD.AperFunction*%
%TD*%
%TO.P,R42,2*%
%TO.N,MCP2.1*%
%TA.AperFunction,SMDPad,CuDef*%
G36*
G01*
X157195003Y-156397500D02*
X155944997Y-156397500D01*
G75*
G02*
X155695000Y-156147503I0J249997D01*
G01*
X155695000Y-155522497D01*
G75*
G02*
X155944997Y-155272500I249997J0D01*
G01*
X157195003Y-155272500D01*
G75*
G02*
X157445000Y-155522497I0J-249997D01*
G01*
X157445000Y-156147503D01*
G75*
G02*
X157195003Y-156397500I-249997J0D01*
G01*
G37*
%TD.AperFunction*%
%TO.P,R42,1*%
%TO.N,Net-(C19-Pad1)*%
%TA.AperFunction,SMDPad,CuDef*%
G36*
G01*
X157195003Y-159322500D02*
X155944997Y-159322500D01*
G75*
G02*
X155695000Y-159072503I0J249997D01*
G01*
X155695000Y-158447497D01*
G75*
G02*
X155944997Y-158197500I249997J0D01*
G01*
X157195003Y-158197500D01*
G75*
G02*
X157445000Y-158447497I0J-249997D01*
G01*
X157445000Y-159072503D01*
G75*
G02*
X157195003Y-159322500I-249997J0D01*
G01*
G37*
%TD.AperFunction*%
%TD*%
D21*
%TO.P,Q20,3*%
%TO.N,K20-*%
X360520000Y-157840000D03*
%TO.P,Q20,2*%
%TO.N,GND*%
X358520000Y-156890000D03*
%TO.P,Q20,1*%
%TO.N,Net-(C20-Pad1)*%
X358520000Y-158790000D03*
%TD*%
%TO.P,Q19,3*%
%TO.N,K19-*%
X165340000Y-157860000D03*
%TO.P,Q19,2*%
%TO.N,GND*%
X163340000Y-156910000D03*
%TO.P,Q19,1*%
%TO.N,Net-(C19-Pad1)*%
X163340000Y-158810000D03*
%TD*%
D19*
%TO.P,D20,2*%
%TO.N,K20-*%
X368450000Y-157880000D03*
%TO.P,D20,1*%
%TO.N,K1+*%
X371750000Y-157880000D03*
%TD*%
%TO.P,D19,2*%
%TO.N,K19-*%
X173590000Y-157880000D03*
%TO.P,D19,1*%
%TO.N,K1+*%
X176890000Y-157880000D03*
%TD*%
%TO.P,C20,2*%
%TO.N,GND*%
%TA.AperFunction,SMDPad,CuDef*%
G36*
G01*
X355780001Y-155505000D02*
X354479999Y-155505000D01*
G75*
G02*
X354230000Y-155255001I0J249999D01*
G01*
X354230000Y-154604999D01*
G75*
G02*
X354479999Y-154355000I249999J0D01*
G01*
X355780001Y-154355000D01*
G75*
G02*
X356030000Y-154604999I0J-249999D01*
G01*
X356030000Y-155255001D01*
G75*
G02*
X355780001Y-155505000I-249999J0D01*
G01*
G37*
%TD.AperFunction*%
%TO.P,C20,1*%
%TO.N,Net-(C20-Pad1)*%
%TA.AperFunction,SMDPad,CuDef*%
G36*
G01*
X355780001Y-158455000D02*
X354479999Y-158455000D01*
G75*
G02*
X354230000Y-158205001I0J249999D01*
G01*
X354230000Y-157554999D01*
G75*
G02*
X354479999Y-157305000I249999J0D01*
G01*
X355780001Y-157305000D01*
G75*
G02*
X356030000Y-157554999I0J-249999D01*
G01*
X356030000Y-158205001D01*
G75*
G02*
X355780001Y-158455000I-249999J0D01*
G01*
G37*
%TD.AperFunction*%
%TD*%
%TO.P,C19,2*%
%TO.N,GND*%
%TA.AperFunction,SMDPad,CuDef*%
G36*
G01*
X160850001Y-156445000D02*
X159549999Y-156445000D01*
G75*
G02*
X159300000Y-156195001I0J249999D01*
G01*
X159300000Y-155544999D01*
G75*
G02*
X159549999Y-155295000I249999J0D01*
G01*
X160850001Y-155295000D01*
G75*
G02*
X161100000Y-155544999I0J-249999D01*
G01*
X161100000Y-156195001D01*
G75*
G02*
X160850001Y-156445000I-249999J0D01*
G01*
G37*
%TD.AperFunction*%
%TO.P,C19,1*%
%TO.N,Net-(C19-Pad1)*%
%TA.AperFunction,SMDPad,CuDef*%
G36*
G01*
X160850001Y-159395000D02*
X159549999Y-159395000D01*
G75*
G02*
X159300000Y-159145001I0J249999D01*
G01*
X159300000Y-158494999D01*
G75*
G02*
X159549999Y-158245000I249999J0D01*
G01*
X160850001Y-158245000D01*
G75*
G02*
X161100000Y-158494999I0J-249999D01*
G01*
X161100000Y-159145001D01*
G75*
G02*
X160850001Y-159395000I-249999J0D01*
G01*
G37*
%TD.AperFunction*%
%TD*%
%TO.P,C7,2*%
%TO.N,GND*%
%TA.AperFunction,SMDPad,CuDef*%
G36*
G01*
X50500001Y-156420000D02*
X49199999Y-156420000D01*
G75*
G02*
X48950000Y-156170001I0J249999D01*
G01*
X48950000Y-155519999D01*
G75*
G02*
X49199999Y-155270000I249999J0D01*
G01*
X50500001Y-155270000D01*
G75*
G02*
X50750000Y-155519999I0J-249999D01*
G01*
X50750000Y-156170001D01*
G75*
G02*
X50500001Y-156420000I-249999J0D01*
G01*
G37*
%TD.AperFunction*%
%TO.P,C7,1*%
%TO.N,Net-(C7-Pad1)*%
%TA.AperFunction,SMDPad,CuDef*%
G36*
G01*
X50500001Y-159370000D02*
X49199999Y-159370000D01*
G75*
G02*
X48950000Y-159120001I0J249999D01*
G01*
X48950000Y-158469999D01*
G75*
G02*
X49199999Y-158220000I249999J0D01*
G01*
X50500001Y-158220000D01*
G75*
G02*
X50750000Y-158469999I0J-249999D01*
G01*
X50750000Y-159120001D01*
G75*
G02*
X50500001Y-159370000I-249999J0D01*
G01*
G37*
%TD.AperFunction*%
%TD*%
D22*
%TO.P,BUS_B1,1*%
%TO.N,Phantom_48V_GND*%
X365852200Y-169749680D03*
D12*
%TO.P,BUS_B1,2*%
%TO.N,/Relay/OUTB.2*%
X373852200Y-169749680D03*
%TO.P,BUS_B1,3*%
%TO.N,/Relay/OUTB.3*%
X369852200Y-169749680D03*
%TO.P,BUS_B1,G1*%
%TO.N,/Relay/BUSB.G*%
X369852200Y-164749680D03*
D11*
%TO.P,BUS_B1,MH1*%
%TO.N,/Relay/BUSBMH*%
X369852200Y-174749680D03*
%TD*%
D22*
%TO.P,BUS_A1,1*%
%TO.N,Phantom_48V_GND*%
X170852200Y-169749680D03*
D12*
%TO.P,BUS_A1,2*%
%TO.N,/Relay/OUTA.2*%
X178852200Y-169749680D03*
%TO.P,BUS_A1,3*%
%TO.N,/Relay/OUTA.3*%
X174852200Y-169749680D03*
%TO.P,BUS_A1,G1*%
%TO.N,/Relay/BUSA.G*%
X174852200Y-164749680D03*
D11*
%TO.P,BUS_A1,MH1*%
%TO.N,/Relay/BUSAMH*%
X174852200Y-174749680D03*
%TD*%
%TO.P,R41,2*%
%TO.N,MCP3.6*%
%TA.AperFunction,SMDPad,CuDef*%
G36*
G01*
X351095003Y-139597500D02*
X349844997Y-139597500D01*
G75*
G02*
X349595000Y-139347503I0J249997D01*
G01*
X349595000Y-138722497D01*
G75*
G02*
X349844997Y-138472500I249997J0D01*
G01*
X351095003Y-138472500D01*
G75*
G02*
X351345000Y-138722497I0J-249997D01*
G01*
X351345000Y-139347503D01*
G75*
G02*
X351095003Y-139597500I-249997J0D01*
G01*
G37*
%TD.AperFunction*%
%TO.P,R41,1*%
%TO.N,Net-(C18-Pad1)*%
%TA.AperFunction,SMDPad,CuDef*%
G36*
G01*
X351095003Y-142522500D02*
X349844997Y-142522500D01*
G75*
G02*
X349595000Y-142272503I0J249997D01*
G01*
X349595000Y-141647497D01*
G75*
G02*
X349844997Y-141397500I249997J0D01*
G01*
X351095003Y-141397500D01*
G75*
G02*
X351345000Y-141647497I0J-249997D01*
G01*
X351345000Y-142272503D01*
G75*
G02*
X351095003Y-142522500I-249997J0D01*
G01*
G37*
%TD.AperFunction*%
%TD*%
%TO.P,R40,2*%
%TO.N,MCP3.1*%
%TA.AperFunction,SMDPad,CuDef*%
G36*
G01*
X311495003Y-156487500D02*
X310244997Y-156487500D01*
G75*
G02*
X309995000Y-156237503I0J249997D01*
G01*
X309995000Y-155612497D01*
G75*
G02*
X310244997Y-155362500I249997J0D01*
G01*
X311495003Y-155362500D01*
G75*
G02*
X311745000Y-155612497I0J-249997D01*
G01*
X311745000Y-156237503D01*
G75*
G02*
X311495003Y-156487500I-249997J0D01*
G01*
G37*
%TD.AperFunction*%
%TO.P,R40,1*%
%TO.N,Net-(C17-Pad1)*%
%TA.AperFunction,SMDPad,CuDef*%
G36*
G01*
X311495003Y-159412500D02*
X310244997Y-159412500D01*
G75*
G02*
X309995000Y-159162503I0J249997D01*
G01*
X309995000Y-158537497D01*
G75*
G02*
X310244997Y-158287500I249997J0D01*
G01*
X311495003Y-158287500D01*
G75*
G02*
X311745000Y-158537497I0J-249997D01*
G01*
X311745000Y-159162503D01*
G75*
G02*
X311495003Y-159412500I-249997J0D01*
G01*
G37*
%TD.AperFunction*%
%TD*%
%TO.P,R39,2*%
%TO.N,MCP1.13*%
%TA.AperFunction,SMDPad,CuDef*%
G36*
G01*
X117425003Y-156437500D02*
X116174997Y-156437500D01*
G75*
G02*
X115925000Y-156187503I0J249997D01*
G01*
X115925000Y-155562497D01*
G75*
G02*
X116174997Y-155312500I249997J0D01*
G01*
X117425003Y-155312500D01*
G75*
G02*
X117675000Y-155562497I0J-249997D01*
G01*
X117675000Y-156187503D01*
G75*
G02*
X117425003Y-156437500I-249997J0D01*
G01*
G37*
%TD.AperFunction*%
%TO.P,R39,1*%
%TO.N,Net-(C16-Pad1)*%
%TA.AperFunction,SMDPad,CuDef*%
G36*
G01*
X117425003Y-159362500D02*
X116174997Y-159362500D01*
G75*
G02*
X115925000Y-159112503I0J249997D01*
G01*
X115925000Y-158487497D01*
G75*
G02*
X116174997Y-158237500I249997J0D01*
G01*
X117425003Y-158237500D01*
G75*
G02*
X117675000Y-158487497I0J-249997D01*
G01*
X117675000Y-159112503D01*
G75*
G02*
X117425003Y-159362500I-249997J0D01*
G01*
G37*
%TD.AperFunction*%
%TD*%
%TO.P,R38,2*%
%TO.N,MCP3.2*%
%TA.AperFunction,SMDPad,CuDef*%
G36*
G01*
X311175003Y-139527500D02*
X309924997Y-139527500D01*
G75*
G02*
X309675000Y-139277503I0J249997D01*
G01*
X309675000Y-138652497D01*
G75*
G02*
X309924997Y-138402500I249997J0D01*
G01*
X311175003Y-138402500D01*
G75*
G02*
X311425000Y-138652497I0J-249997D01*
G01*
X311425000Y-139277503D01*
G75*
G02*
X311175003Y-139527500I-249997J0D01*
G01*
G37*
%TD.AperFunction*%
%TO.P,R38,1*%
%TO.N,Net-(C15-Pad1)*%
%TA.AperFunction,SMDPad,CuDef*%
G36*
G01*
X311175003Y-142452500D02*
X309924997Y-142452500D01*
G75*
G02*
X309675000Y-142202503I0J249997D01*
G01*
X309675000Y-141577497D01*
G75*
G02*
X309924997Y-141327500I249997J0D01*
G01*
X311175003Y-141327500D01*
G75*
G02*
X311425000Y-141577497I0J-249997D01*
G01*
X311425000Y-142202503D01*
G75*
G02*
X311175003Y-142452500I-249997J0D01*
G01*
G37*
%TD.AperFunction*%
%TD*%
%TO.P,R36,2*%
%TO.N,MCP2.2*%
%TA.AperFunction,SMDPad,CuDef*%
G36*
G01*
X157435003Y-139537500D02*
X156184997Y-139537500D01*
G75*
G02*
X155935000Y-139287503I0J249997D01*
G01*
X155935000Y-138662497D01*
G75*
G02*
X156184997Y-138412500I249997J0D01*
G01*
X157435003Y-138412500D01*
G75*
G02*
X157685000Y-138662497I0J-249997D01*
G01*
X157685000Y-139287503D01*
G75*
G02*
X157435003Y-139537500I-249997J0D01*
G01*
G37*
%TD.AperFunction*%
%TO.P,R36,1*%
%TO.N,Net-(C13-Pad1)*%
%TA.AperFunction,SMDPad,CuDef*%
G36*
G01*
X157435003Y-142462500D02*
X156184997Y-142462500D01*
G75*
G02*
X155935000Y-142212503I0J249997D01*
G01*
X155935000Y-141587497D01*
G75*
G02*
X156184997Y-141337500I249997J0D01*
G01*
X157435003Y-141337500D01*
G75*
G02*
X157685000Y-141587497I0J-249997D01*
G01*
X157685000Y-142212503D01*
G75*
G02*
X157435003Y-142462500I-249997J0D01*
G01*
G37*
%TD.AperFunction*%
%TD*%
%TO.P,R35,2*%
%TO.N,MCP2.13*%
%TA.AperFunction,SMDPad,CuDef*%
G36*
G01*
X277645003Y-156487500D02*
X276394997Y-156487500D01*
G75*
G02*
X276145000Y-156237503I0J249997D01*
G01*
X276145000Y-155612497D01*
G75*
G02*
X276394997Y-155362500I249997J0D01*
G01*
X277645003Y-155362500D01*
G75*
G02*
X277895000Y-155612497I0J-249997D01*
G01*
X277895000Y-156237503D01*
G75*
G02*
X277645003Y-156487500I-249997J0D01*
G01*
G37*
%TD.AperFunction*%
%TO.P,R35,1*%
%TO.N,Net-(C12-Pad1)*%
%TA.AperFunction,SMDPad,CuDef*%
G36*
G01*
X277645003Y-159412500D02*
X276394997Y-159412500D01*
G75*
G02*
X276145000Y-159162503I0J249997D01*
G01*
X276145000Y-158537497D01*
G75*
G02*
X276394997Y-158287500I249997J0D01*
G01*
X277645003Y-158287500D01*
G75*
G02*
X277895000Y-158537497I0J-249997D01*
G01*
X277895000Y-159162503D01*
G75*
G02*
X277645003Y-159412500I-249997J0D01*
G01*
G37*
%TD.AperFunction*%
%TD*%
%TO.P,R34,2*%
%TO.N,MCP1.9*%
%TA.AperFunction,SMDPad,CuDef*%
G36*
G01*
X82975003Y-156457500D02*
X81724997Y-156457500D01*
G75*
G02*
X81475000Y-156207503I0J249997D01*
G01*
X81475000Y-155582497D01*
G75*
G02*
X81724997Y-155332500I249997J0D01*
G01*
X82975003Y-155332500D01*
G75*
G02*
X83225000Y-155582497I0J-249997D01*
G01*
X83225000Y-156207503D01*
G75*
G02*
X82975003Y-156457500I-249997J0D01*
G01*
G37*
%TD.AperFunction*%
%TO.P,R34,1*%
%TO.N,Net-(C11-Pad1)*%
%TA.AperFunction,SMDPad,CuDef*%
G36*
G01*
X82975003Y-159382500D02*
X81724997Y-159382500D01*
G75*
G02*
X81475000Y-159132503I0J249997D01*
G01*
X81475000Y-158507497D01*
G75*
G02*
X81724997Y-158257500I249997J0D01*
G01*
X82975003Y-158257500D01*
G75*
G02*
X83225000Y-158507497I0J-249997D01*
G01*
X83225000Y-159132503D01*
G75*
G02*
X82975003Y-159382500I-249997J0D01*
G01*
G37*
%TD.AperFunction*%
%TD*%
%TO.P,R33,2*%
%TO.N,MCP2.14*%
%TA.AperFunction,SMDPad,CuDef*%
G36*
G01*
X277285003Y-139537500D02*
X276034997Y-139537500D01*
G75*
G02*
X275785000Y-139287503I0J249997D01*
G01*
X275785000Y-138662497D01*
G75*
G02*
X276034997Y-138412500I249997J0D01*
G01*
X277285003Y-138412500D01*
G75*
G02*
X277535000Y-138662497I0J-249997D01*
G01*
X277535000Y-139287503D01*
G75*
G02*
X277285003Y-139537500I-249997J0D01*
G01*
G37*
%TD.AperFunction*%
%TO.P,R33,1*%
%TO.N,Net-(C10-Pad1)*%
%TA.AperFunction,SMDPad,CuDef*%
G36*
G01*
X277285003Y-142462500D02*
X276034997Y-142462500D01*
G75*
G02*
X275785000Y-142212503I0J249997D01*
G01*
X275785000Y-141587497D01*
G75*
G02*
X276034997Y-141337500I249997J0D01*
G01*
X277285003Y-141337500D01*
G75*
G02*
X277535000Y-141587497I0J-249997D01*
G01*
X277535000Y-142212503D01*
G75*
G02*
X277285003Y-142462500I-249997J0D01*
G01*
G37*
%TD.AperFunction*%
%TD*%
%TO.P,R32,2*%
%TO.N,MCP1.10*%
%TA.AperFunction,SMDPad,CuDef*%
G36*
G01*
X83185003Y-139587500D02*
X81934997Y-139587500D01*
G75*
G02*
X81685000Y-139337503I0J249997D01*
G01*
X81685000Y-138712497D01*
G75*
G02*
X81934997Y-138462500I249997J0D01*
G01*
X83185003Y-138462500D01*
G75*
G02*
X83435000Y-138712497I0J-249997D01*
G01*
X83435000Y-139337503D01*
G75*
G02*
X83185003Y-139587500I-249997J0D01*
G01*
G37*
%TD.AperFunction*%
%TO.P,R32,1*%
%TO.N,Net-(C9-Pad1)*%
%TA.AperFunction,SMDPad,CuDef*%
G36*
G01*
X83185003Y-142512500D02*
X81934997Y-142512500D01*
G75*
G02*
X81685000Y-142262503I0J249997D01*
G01*
X81685000Y-141637497D01*
G75*
G02*
X81934997Y-141387500I249997J0D01*
G01*
X83185003Y-141387500D01*
G75*
G02*
X83435000Y-141637497I0J-249997D01*
G01*
X83435000Y-142262503D01*
G75*
G02*
X83185003Y-142512500I-249997J0D01*
G01*
G37*
%TD.AperFunction*%
%TD*%
%TO.P,R31,2*%
%TO.N,MCP2.9*%
%TA.AperFunction,SMDPad,CuDef*%
G36*
G01*
X241975003Y-156457500D02*
X240724997Y-156457500D01*
G75*
G02*
X240475000Y-156207503I0J249997D01*
G01*
X240475000Y-155582497D01*
G75*
G02*
X240724997Y-155332500I249997J0D01*
G01*
X241975003Y-155332500D01*
G75*
G02*
X242225000Y-155582497I0J-249997D01*
G01*
X242225000Y-156207503D01*
G75*
G02*
X241975003Y-156457500I-249997J0D01*
G01*
G37*
%TD.AperFunction*%
%TO.P,R31,1*%
%TO.N,Net-(C8-Pad1)*%
%TA.AperFunction,SMDPad,CuDef*%
G36*
G01*
X241975003Y-159382500D02*
X240724997Y-159382500D01*
G75*
G02*
X240475000Y-159132503I0J249997D01*
G01*
X240475000Y-158507497D01*
G75*
G02*
X240724997Y-158257500I249997J0D01*
G01*
X241975003Y-158257500D01*
G75*
G02*
X242225000Y-158507497I0J-249997D01*
G01*
X242225000Y-159132503D01*
G75*
G02*
X241975003Y-159382500I-249997J0D01*
G01*
G37*
%TD.AperFunction*%
%TD*%
%TO.P,R30,2*%
%TO.N,MCP1.5*%
%TA.AperFunction,SMDPad,CuDef*%
G36*
G01*
X46795003Y-156417500D02*
X45544997Y-156417500D01*
G75*
G02*
X45295000Y-156167503I0J249997D01*
G01*
X45295000Y-155542497D01*
G75*
G02*
X45544997Y-155292500I249997J0D01*
G01*
X46795003Y-155292500D01*
G75*
G02*
X47045000Y-155542497I0J-249997D01*
G01*
X47045000Y-156167503D01*
G75*
G02*
X46795003Y-156417500I-249997J0D01*
G01*
G37*
%TD.AperFunction*%
%TO.P,R30,1*%
%TO.N,Net-(C7-Pad1)*%
%TA.AperFunction,SMDPad,CuDef*%
G36*
G01*
X46795003Y-159342500D02*
X45544997Y-159342500D01*
G75*
G02*
X45295000Y-159092503I0J249997D01*
G01*
X45295000Y-158467497D01*
G75*
G02*
X45544997Y-158217500I249997J0D01*
G01*
X46795003Y-158217500D01*
G75*
G02*
X47045000Y-158467497I0J-249997D01*
G01*
X47045000Y-159092503D01*
G75*
G02*
X46795003Y-159342500I-249997J0D01*
G01*
G37*
%TD.AperFunction*%
%TD*%
%TO.P,R29,2*%
%TO.N,MCP2.10*%
%TA.AperFunction,SMDPad,CuDef*%
G36*
G01*
X242535003Y-139567500D02*
X241284997Y-139567500D01*
G75*
G02*
X241035000Y-139317503I0J249997D01*
G01*
X241035000Y-138692497D01*
G75*
G02*
X241284997Y-138442500I249997J0D01*
G01*
X242535003Y-138442500D01*
G75*
G02*
X242785000Y-138692497I0J-249997D01*
G01*
X242785000Y-139317503D01*
G75*
G02*
X242535003Y-139567500I-249997J0D01*
G01*
G37*
%TD.AperFunction*%
%TO.P,R29,1*%
%TO.N,Net-(C6-Pad1)*%
%TA.AperFunction,SMDPad,CuDef*%
G36*
G01*
X242535003Y-142492500D02*
X241284997Y-142492500D01*
G75*
G02*
X241035000Y-142242503I0J249997D01*
G01*
X241035000Y-141617497D01*
G75*
G02*
X241284997Y-141367500I249997J0D01*
G01*
X242535003Y-141367500D01*
G75*
G02*
X242785000Y-141617497I0J-249997D01*
G01*
X242785000Y-142242503D01*
G75*
G02*
X242535003Y-142492500I-249997J0D01*
G01*
G37*
%TD.AperFunction*%
%TD*%
%TO.P,R28,2*%
%TO.N,MCP1.6*%
%TA.AperFunction,SMDPad,CuDef*%
G36*
G01*
X47055003Y-139540000D02*
X45804997Y-139540000D01*
G75*
G02*
X45555000Y-139290003I0J249997D01*
G01*
X45555000Y-138664997D01*
G75*
G02*
X45804997Y-138415000I249997J0D01*
G01*
X47055003Y-138415000D01*
G75*
G02*
X47305000Y-138664997I0J-249997D01*
G01*
X47305000Y-139290003D01*
G75*
G02*
X47055003Y-139540000I-249997J0D01*
G01*
G37*
%TD.AperFunction*%
%TO.P,R28,1*%
%TO.N,Net-(C5-Pad1)*%
%TA.AperFunction,SMDPad,CuDef*%
G36*
G01*
X47055003Y-142465000D02*
X45804997Y-142465000D01*
G75*
G02*
X45555000Y-142215003I0J249997D01*
G01*
X45555000Y-141589997D01*
G75*
G02*
X45804997Y-141340000I249997J0D01*
G01*
X47055003Y-141340000D01*
G75*
G02*
X47305000Y-141589997I0J-249997D01*
G01*
X47305000Y-142215003D01*
G75*
G02*
X47055003Y-142465000I-249997J0D01*
G01*
G37*
%TD.AperFunction*%
%TD*%
%TO.P,R27,2*%
%TO.N,MCP2.5*%
%TA.AperFunction,SMDPad,CuDef*%
G36*
G01*
X206345003Y-155047500D02*
X205094997Y-155047500D01*
G75*
G02*
X204845000Y-154797503I0J249997D01*
G01*
X204845000Y-154172497D01*
G75*
G02*
X205094997Y-153922500I249997J0D01*
G01*
X206345003Y-153922500D01*
G75*
G02*
X206595000Y-154172497I0J-249997D01*
G01*
X206595000Y-154797503D01*
G75*
G02*
X206345003Y-155047500I-249997J0D01*
G01*
G37*
%TD.AperFunction*%
%TO.P,R27,1*%
%TO.N,Net-(C4-Pad1)*%
%TA.AperFunction,SMDPad,CuDef*%
G36*
G01*
X206345003Y-157972500D02*
X205094997Y-157972500D01*
G75*
G02*
X204845000Y-157722503I0J249997D01*
G01*
X204845000Y-157097497D01*
G75*
G02*
X205094997Y-156847500I249997J0D01*
G01*
X206345003Y-156847500D01*
G75*
G02*
X206595000Y-157097497I0J-249997D01*
G01*
X206595000Y-157722503D01*
G75*
G02*
X206345003Y-157972500I-249997J0D01*
G01*
G37*
%TD.AperFunction*%
%TD*%
%TO.P,R26,2*%
%TO.N,MCP1.1*%
%TA.AperFunction,SMDPad,CuDef*%
G36*
G01*
X14665003Y-156450000D02*
X13414997Y-156450000D01*
G75*
G02*
X13165000Y-156200003I0J249997D01*
G01*
X13165000Y-155574997D01*
G75*
G02*
X13414997Y-155325000I249997J0D01*
G01*
X14665003Y-155325000D01*
G75*
G02*
X14915000Y-155574997I0J-249997D01*
G01*
X14915000Y-156200003D01*
G75*
G02*
X14665003Y-156450000I-249997J0D01*
G01*
G37*
%TD.AperFunction*%
%TO.P,R26,1*%
%TO.N,Net-(C3-Pad1)*%
%TA.AperFunction,SMDPad,CuDef*%
G36*
G01*
X14665003Y-159375000D02*
X13414997Y-159375000D01*
G75*
G02*
X13165000Y-159125003I0J249997D01*
G01*
X13165000Y-158499997D01*
G75*
G02*
X13414997Y-158250000I249997J0D01*
G01*
X14665003Y-158250000D01*
G75*
G02*
X14915000Y-158499997I0J-249997D01*
G01*
X14915000Y-159125003D01*
G75*
G02*
X14665003Y-159375000I-249997J0D01*
G01*
G37*
%TD.AperFunction*%
%TD*%
%TO.P,R25,2*%
%TO.N,MCP2.6*%
%TA.AperFunction,SMDPad,CuDef*%
G36*
G01*
X207135003Y-139657500D02*
X205884997Y-139657500D01*
G75*
G02*
X205635000Y-139407503I0J249997D01*
G01*
X205635000Y-138782497D01*
G75*
G02*
X205884997Y-138532500I249997J0D01*
G01*
X207135003Y-138532500D01*
G75*
G02*
X207385000Y-138782497I0J-249997D01*
G01*
X207385000Y-139407503D01*
G75*
G02*
X207135003Y-139657500I-249997J0D01*
G01*
G37*
%TD.AperFunction*%
%TO.P,R25,1*%
%TO.N,Net-(C2-Pad1)*%
%TA.AperFunction,SMDPad,CuDef*%
G36*
G01*
X207135003Y-142582500D02*
X205884997Y-142582500D01*
G75*
G02*
X205635000Y-142332503I0J249997D01*
G01*
X205635000Y-141707497D01*
G75*
G02*
X205884997Y-141457500I249997J0D01*
G01*
X207135003Y-141457500D01*
G75*
G02*
X207385000Y-141707497I0J-249997D01*
G01*
X207385000Y-142332503D01*
G75*
G02*
X207135003Y-142582500I-249997J0D01*
G01*
G37*
%TD.AperFunction*%
%TD*%
%TO.P,R24,2*%
%TO.N,MCP1.2*%
%TA.AperFunction,SMDPad,CuDef*%
G36*
G01*
X15734997Y-146592500D02*
X16985003Y-146592500D01*
G75*
G02*
X17235000Y-146842497I0J-249997D01*
G01*
X17235000Y-147467503D01*
G75*
G02*
X16985003Y-147717500I-249997J0D01*
G01*
X15734997Y-147717500D01*
G75*
G02*
X15485000Y-147467503I0J249997D01*
G01*
X15485000Y-146842497D01*
G75*
G02*
X15734997Y-146592500I249997J0D01*
G01*
G37*
%TD.AperFunction*%
%TO.P,R24,1*%
%TO.N,Net-(C1-Pad1)*%
%TA.AperFunction,SMDPad,CuDef*%
G36*
G01*
X15734997Y-143667500D02*
X16985003Y-143667500D01*
G75*
G02*
X17235000Y-143917497I0J-249997D01*
G01*
X17235000Y-144542503D01*
G75*
G02*
X16985003Y-144792500I-249997J0D01*
G01*
X15734997Y-144792500D01*
G75*
G02*
X15485000Y-144542503I0J249997D01*
G01*
X15485000Y-143917497D01*
G75*
G02*
X15734997Y-143667500I249997J0D01*
G01*
G37*
%TD.AperFunction*%
%TD*%
%TO.P,R23,2*%
%TO.N,Net-(LED10-Pad3)*%
%TA.AperFunction,SMDPad,CuDef*%
G36*
G01*
X381136997Y-180539500D02*
X382387003Y-180539500D01*
G75*
G02*
X382637000Y-180789497I0J-249997D01*
G01*
X382637000Y-181414503D01*
G75*
G02*
X382387003Y-181664500I-249997J0D01*
G01*
X381136997Y-181664500D01*
G75*
G02*
X380887000Y-181414503I0J249997D01*
G01*
X380887000Y-180789497D01*
G75*
G02*
X381136997Y-180539500I249997J0D01*
G01*
G37*
%TD.AperFunction*%
%TO.P,R23,1*%
%TO.N,MCP3.8*%
%TA.AperFunction,SMDPad,CuDef*%
G36*
G01*
X381136997Y-177614500D02*
X382387003Y-177614500D01*
G75*
G02*
X382637000Y-177864497I0J-249997D01*
G01*
X382637000Y-178489503D01*
G75*
G02*
X382387003Y-178739500I-249997J0D01*
G01*
X381136997Y-178739500D01*
G75*
G02*
X380887000Y-178489503I0J249997D01*
G01*
X380887000Y-177864497D01*
G75*
G02*
X381136997Y-177614500I249997J0D01*
G01*
G37*
%TD.AperFunction*%
%TD*%
%TO.P,R22,2*%
%TO.N,Net-(LED9-Pad3)*%
%TA.AperFunction,SMDPad,CuDef*%
G36*
G01*
X186318997Y-180162500D02*
X187569003Y-180162500D01*
G75*
G02*
X187819000Y-180412497I0J-249997D01*
G01*
X187819000Y-181037503D01*
G75*
G02*
X187569003Y-181287500I-249997J0D01*
G01*
X186318997Y-181287500D01*
G75*
G02*
X186069000Y-181037503I0J249997D01*
G01*
X186069000Y-180412497D01*
G75*
G02*
X186318997Y-180162500I249997J0D01*
G01*
G37*
%TD.AperFunction*%
%TO.P,R22,1*%
%TO.N,MCP2.4*%
%TA.AperFunction,SMDPad,CuDef*%
G36*
G01*
X186318997Y-177237500D02*
X187569003Y-177237500D01*
G75*
G02*
X187819000Y-177487497I0J-249997D01*
G01*
X187819000Y-178112503D01*
G75*
G02*
X187569003Y-178362500I-249997J0D01*
G01*
X186318997Y-178362500D01*
G75*
G02*
X186069000Y-178112503I0J249997D01*
G01*
X186069000Y-177487497D01*
G75*
G02*
X186318997Y-177237500I249997J0D01*
G01*
G37*
%TD.AperFunction*%
%TD*%
%TO.P,R21,2*%
%TO.N,MCP3.7*%
%TA.AperFunction,SMDPad,CuDef*%
G36*
G01*
X377307003Y-178739500D02*
X376056997Y-178739500D01*
G75*
G02*
X375807000Y-178489503I0J249997D01*
G01*
X375807000Y-177864497D01*
G75*
G02*
X376056997Y-177614500I249997J0D01*
G01*
X377307003Y-177614500D01*
G75*
G02*
X377557000Y-177864497I0J-249997D01*
G01*
X377557000Y-178489503D01*
G75*
G02*
X377307003Y-178739500I-249997J0D01*
G01*
G37*
%TD.AperFunction*%
%TO.P,R21,1*%
%TO.N,Net-(LED10-Pad1)*%
%TA.AperFunction,SMDPad,CuDef*%
G36*
G01*
X377307003Y-181664500D02*
X376056997Y-181664500D01*
G75*
G02*
X375807000Y-181414503I0J249997D01*
G01*
X375807000Y-180789497D01*
G75*
G02*
X376056997Y-180539500I249997J0D01*
G01*
X377307003Y-180539500D01*
G75*
G02*
X377557000Y-180789497I0J-249997D01*
G01*
X377557000Y-181414503D01*
G75*
G02*
X377307003Y-181664500I-249997J0D01*
G01*
G37*
%TD.AperFunction*%
%TD*%
%TO.P,R20,2*%
%TO.N,MCP2.3*%
%TA.AperFunction,SMDPad,CuDef*%
G36*
G01*
X182489003Y-178362500D02*
X181238997Y-178362500D01*
G75*
G02*
X180989000Y-178112503I0J249997D01*
G01*
X180989000Y-177487497D01*
G75*
G02*
X181238997Y-177237500I249997J0D01*
G01*
X182489003Y-177237500D01*
G75*
G02*
X182739000Y-177487497I0J-249997D01*
G01*
X182739000Y-178112503D01*
G75*
G02*
X182489003Y-178362500I-249997J0D01*
G01*
G37*
%TD.AperFunction*%
%TO.P,R20,1*%
%TO.N,Net-(LED9-Pad1)*%
%TA.AperFunction,SMDPad,CuDef*%
G36*
G01*
X182489003Y-181287500D02*
X181238997Y-181287500D01*
G75*
G02*
X180989000Y-181037503I0J249997D01*
G01*
X180989000Y-180412497D01*
G75*
G02*
X181238997Y-180162500I249997J0D01*
G01*
X182489003Y-180162500D01*
G75*
G02*
X182739000Y-180412497I0J-249997D01*
G01*
X182739000Y-181037503D01*
G75*
G02*
X182489003Y-181287500I-249997J0D01*
G01*
G37*
%TD.AperFunction*%
%TD*%
%TO.P,R17,2*%
%TO.N,MCP1.4*%
%TA.AperFunction,SMDPad,CuDef*%
G36*
G01*
X23505003Y-178490000D02*
X22254997Y-178490000D01*
G75*
G02*
X22005000Y-178240003I0J249997D01*
G01*
X22005000Y-177614997D01*
G75*
G02*
X22254997Y-177365000I249997J0D01*
G01*
X23505003Y-177365000D01*
G75*
G02*
X23755000Y-177614997I0J-249997D01*
G01*
X23755000Y-178240003D01*
G75*
G02*
X23505003Y-178490000I-249997J0D01*
G01*
G37*
%TD.AperFunction*%
%TO.P,R17,1*%
%TO.N,Net-(LED1-Pad3)*%
%TA.AperFunction,SMDPad,CuDef*%
G36*
G01*
X23505003Y-181415000D02*
X22254997Y-181415000D01*
G75*
G02*
X22005000Y-181165003I0J249997D01*
G01*
X22005000Y-180539997D01*
G75*
G02*
X22254997Y-180290000I249997J0D01*
G01*
X23505003Y-180290000D01*
G75*
G02*
X23755000Y-180539997I0J-249997D01*
G01*
X23755000Y-181165003D01*
G75*
G02*
X23505003Y-181415000I-249997J0D01*
G01*
G37*
%TD.AperFunction*%
%TD*%
%TO.P,R16,2*%
%TO.N,MCP2.12*%
%TA.AperFunction,SMDPad,CuDef*%
G36*
G01*
X253525003Y-178590000D02*
X252274997Y-178590000D01*
G75*
G02*
X252025000Y-178340003I0J249997D01*
G01*
X252025000Y-177714997D01*
G75*
G02*
X252274997Y-177465000I249997J0D01*
G01*
X253525003Y-177465000D01*
G75*
G02*
X253775000Y-177714997I0J-249997D01*
G01*
X253775000Y-178340003D01*
G75*
G02*
X253525003Y-178590000I-249997J0D01*
G01*
G37*
%TD.AperFunction*%
%TO.P,R16,1*%
%TO.N,Net-(LED6-Pad3)*%
%TA.AperFunction,SMDPad,CuDef*%
G36*
G01*
X253525003Y-181515000D02*
X252274997Y-181515000D01*
G75*
G02*
X252025000Y-181265003I0J249997D01*
G01*
X252025000Y-180639997D01*
G75*
G02*
X252274997Y-180390000I249997J0D01*
G01*
X253525003Y-180390000D01*
G75*
G02*
X253775000Y-180639997I0J-249997D01*
G01*
X253775000Y-181265003D01*
G75*
G02*
X253525003Y-181515000I-249997J0D01*
G01*
G37*
%TD.AperFunction*%
%TD*%
%TO.P,R15,2*%
%TO.N,MCP1.12*%
%TA.AperFunction,SMDPad,CuDef*%
G36*
G01*
X93495003Y-178530000D02*
X92244997Y-178530000D01*
G75*
G02*
X91995000Y-178280003I0J249997D01*
G01*
X91995000Y-177654997D01*
G75*
G02*
X92244997Y-177405000I249997J0D01*
G01*
X93495003Y-177405000D01*
G75*
G02*
X93745000Y-177654997I0J-249997D01*
G01*
X93745000Y-178280003D01*
G75*
G02*
X93495003Y-178530000I-249997J0D01*
G01*
G37*
%TD.AperFunction*%
%TO.P,R15,1*%
%TO.N,Net-(LED3-Pad3)*%
%TA.AperFunction,SMDPad,CuDef*%
G36*
G01*
X93495003Y-181455000D02*
X92244997Y-181455000D01*
G75*
G02*
X91995000Y-181205003I0J249997D01*
G01*
X91995000Y-180579997D01*
G75*
G02*
X92244997Y-180330000I249997J0D01*
G01*
X93495003Y-180330000D01*
G75*
G02*
X93745000Y-180579997I0J-249997D01*
G01*
X93745000Y-181205003D01*
G75*
G02*
X93495003Y-181455000I-249997J0D01*
G01*
G37*
%TD.AperFunction*%
%TD*%
%TO.P,R14,2*%
%TO.N,MCP1.11*%
%TA.AperFunction,SMDPad,CuDef*%
G36*
G01*
X88475003Y-178530000D02*
X87224997Y-178530000D01*
G75*
G02*
X86975000Y-178280003I0J249997D01*
G01*
X86975000Y-177654997D01*
G75*
G02*
X87224997Y-177405000I249997J0D01*
G01*
X88475003Y-177405000D01*
G75*
G02*
X88725000Y-177654997I0J-249997D01*
G01*
X88725000Y-178280003D01*
G75*
G02*
X88475003Y-178530000I-249997J0D01*
G01*
G37*
%TD.AperFunction*%
%TO.P,R14,1*%
%TO.N,Net-(LED3-Pad1)*%
%TA.AperFunction,SMDPad,CuDef*%
G36*
G01*
X88475003Y-181455000D02*
X87224997Y-181455000D01*
G75*
G02*
X86975000Y-181205003I0J249997D01*
G01*
X86975000Y-180579997D01*
G75*
G02*
X87224997Y-180330000I249997J0D01*
G01*
X88475003Y-180330000D01*
G75*
G02*
X88725000Y-180579997I0J-249997D01*
G01*
X88725000Y-181205003D01*
G75*
G02*
X88475003Y-181455000I-249997J0D01*
G01*
G37*
%TD.AperFunction*%
%TD*%
%TO.P,R13,2*%
%TO.N,MCP1.8*%
%TA.AperFunction,SMDPad,CuDef*%
G36*
G01*
X58485003Y-178590000D02*
X57234997Y-178590000D01*
G75*
G02*
X56985000Y-178340003I0J249997D01*
G01*
X56985000Y-177714997D01*
G75*
G02*
X57234997Y-177465000I249997J0D01*
G01*
X58485003Y-177465000D01*
G75*
G02*
X58735000Y-177714997I0J-249997D01*
G01*
X58735000Y-178340003D01*
G75*
G02*
X58485003Y-178590000I-249997J0D01*
G01*
G37*
%TD.AperFunction*%
%TO.P,R13,1*%
%TO.N,Net-(LED2-Pad3)*%
%TA.AperFunction,SMDPad,CuDef*%
G36*
G01*
X58485003Y-181515000D02*
X57234997Y-181515000D01*
G75*
G02*
X56985000Y-181265003I0J249997D01*
G01*
X56985000Y-180639997D01*
G75*
G02*
X57234997Y-180390000I249997J0D01*
G01*
X58485003Y-180390000D01*
G75*
G02*
X58735000Y-180639997I0J-249997D01*
G01*
X58735000Y-181265003D01*
G75*
G02*
X58485003Y-181515000I-249997J0D01*
G01*
G37*
%TD.AperFunction*%
%TD*%
%TO.P,R12,2*%
%TO.N,MCP2.8*%
%TA.AperFunction,SMDPad,CuDef*%
G36*
G01*
X218495003Y-178490000D02*
X217244997Y-178490000D01*
G75*
G02*
X216995000Y-178240003I0J249997D01*
G01*
X216995000Y-177614997D01*
G75*
G02*
X217244997Y-177365000I249997J0D01*
G01*
X218495003Y-177365000D01*
G75*
G02*
X218745000Y-177614997I0J-249997D01*
G01*
X218745000Y-178240003D01*
G75*
G02*
X218495003Y-178490000I-249997J0D01*
G01*
G37*
%TD.AperFunction*%
%TO.P,R12,1*%
%TO.N,Net-(LED5-Pad3)*%
%TA.AperFunction,SMDPad,CuDef*%
G36*
G01*
X218495003Y-181415000D02*
X217244997Y-181415000D01*
G75*
G02*
X216995000Y-181165003I0J249997D01*
G01*
X216995000Y-180539997D01*
G75*
G02*
X217244997Y-180290000I249997J0D01*
G01*
X218495003Y-180290000D01*
G75*
G02*
X218745000Y-180539997I0J-249997D01*
G01*
X218745000Y-181165003D01*
G75*
G02*
X218495003Y-181415000I-249997J0D01*
G01*
G37*
%TD.AperFunction*%
%TD*%
%TO.P,R11,2*%
%TO.N,MCP1.16*%
%TA.AperFunction,SMDPad,CuDef*%
G36*
G01*
X128515003Y-178400000D02*
X127264997Y-178400000D01*
G75*
G02*
X127015000Y-178150003I0J249997D01*
G01*
X127015000Y-177524997D01*
G75*
G02*
X127264997Y-177275000I249997J0D01*
G01*
X128515003Y-177275000D01*
G75*
G02*
X128765000Y-177524997I0J-249997D01*
G01*
X128765000Y-178150003D01*
G75*
G02*
X128515003Y-178400000I-249997J0D01*
G01*
G37*
%TD.AperFunction*%
%TO.P,R11,1*%
%TO.N,Net-(LED4-Pad3)*%
%TA.AperFunction,SMDPad,CuDef*%
G36*
G01*
X128515003Y-181325000D02*
X127264997Y-181325000D01*
G75*
G02*
X127015000Y-181075003I0J249997D01*
G01*
X127015000Y-180449997D01*
G75*
G02*
X127264997Y-180200000I249997J0D01*
G01*
X128515003Y-180200000D01*
G75*
G02*
X128765000Y-180449997I0J-249997D01*
G01*
X128765000Y-181075003D01*
G75*
G02*
X128515003Y-181325000I-249997J0D01*
G01*
G37*
%TD.AperFunction*%
%TD*%
%TO.P,R10,2*%
%TO.N,MCP3.4*%
%TA.AperFunction,SMDPad,CuDef*%
G36*
G01*
X323545003Y-178580000D02*
X322294997Y-178580000D01*
G75*
G02*
X322045000Y-178330003I0J249997D01*
G01*
X322045000Y-177704997D01*
G75*
G02*
X322294997Y-177455000I249997J0D01*
G01*
X323545003Y-177455000D01*
G75*
G02*
X323795000Y-177704997I0J-249997D01*
G01*
X323795000Y-178330003D01*
G75*
G02*
X323545003Y-178580000I-249997J0D01*
G01*
G37*
%TD.AperFunction*%
%TO.P,R10,1*%
%TO.N,Net-(LED8-Pad3)*%
%TA.AperFunction,SMDPad,CuDef*%
G36*
G01*
X323545003Y-181505000D02*
X322294997Y-181505000D01*
G75*
G02*
X322045000Y-181255003I0J249997D01*
G01*
X322045000Y-180629997D01*
G75*
G02*
X322294997Y-180380000I249997J0D01*
G01*
X323545003Y-180380000D01*
G75*
G02*
X323795000Y-180629997I0J-249997D01*
G01*
X323795000Y-181255003D01*
G75*
G02*
X323545003Y-181505000I-249997J0D01*
G01*
G37*
%TD.AperFunction*%
%TD*%
%TO.P,R9,2*%
%TO.N,MCP1.7*%
%TA.AperFunction,SMDPad,CuDef*%
G36*
G01*
X53435003Y-178540000D02*
X52184997Y-178540000D01*
G75*
G02*
X51935000Y-178290003I0J249997D01*
G01*
X51935000Y-177664997D01*
G75*
G02*
X52184997Y-177415000I249997J0D01*
G01*
X53435003Y-177415000D01*
G75*
G02*
X53685000Y-177664997I0J-249997D01*
G01*
X53685000Y-178290003D01*
G75*
G02*
X53435003Y-178540000I-249997J0D01*
G01*
G37*
%TD.AperFunction*%
%TO.P,R9,1*%
%TO.N,Net-(LED2-Pad1)*%
%TA.AperFunction,SMDPad,CuDef*%
G36*
G01*
X53435003Y-181465000D02*
X52184997Y-181465000D01*
G75*
G02*
X51935000Y-181215003I0J249997D01*
G01*
X51935000Y-180589997D01*
G75*
G02*
X52184997Y-180340000I249997J0D01*
G01*
X53435003Y-180340000D01*
G75*
G02*
X53685000Y-180589997I0J-249997D01*
G01*
X53685000Y-181215003D01*
G75*
G02*
X53435003Y-181465000I-249997J0D01*
G01*
G37*
%TD.AperFunction*%
%TD*%
%TO.P,R8,2*%
%TO.N,MCP1.3*%
%TA.AperFunction,SMDPad,CuDef*%
G36*
G01*
X18415003Y-178520000D02*
X17164997Y-178520000D01*
G75*
G02*
X16915000Y-178270003I0J249997D01*
G01*
X16915000Y-177644997D01*
G75*
G02*
X17164997Y-177395000I249997J0D01*
G01*
X18415003Y-177395000D01*
G75*
G02*
X18665000Y-177644997I0J-249997D01*
G01*
X18665000Y-178270003D01*
G75*
G02*
X18415003Y-178520000I-249997J0D01*
G01*
G37*
%TD.AperFunction*%
%TO.P,R8,1*%
%TO.N,Net-(LED1-Pad1)*%
%TA.AperFunction,SMDPad,CuDef*%
G36*
G01*
X18415003Y-181445000D02*
X17164997Y-181445000D01*
G75*
G02*
X16915000Y-181195003I0J249997D01*
G01*
X16915000Y-180569997D01*
G75*
G02*
X17164997Y-180320000I249997J0D01*
G01*
X18415003Y-180320000D01*
G75*
G02*
X18665000Y-180569997I0J-249997D01*
G01*
X18665000Y-181195003D01*
G75*
G02*
X18415003Y-181445000I-249997J0D01*
G01*
G37*
%TD.AperFunction*%
%TD*%
%TO.P,R7,2*%
%TO.N,MCP2.16*%
%TA.AperFunction,SMDPad,CuDef*%
G36*
G01*
X288475003Y-178560000D02*
X287224997Y-178560000D01*
G75*
G02*
X286975000Y-178310003I0J249997D01*
G01*
X286975000Y-177684997D01*
G75*
G02*
X287224997Y-177435000I249997J0D01*
G01*
X288475003Y-177435000D01*
G75*
G02*
X288725000Y-177684997I0J-249997D01*
G01*
X288725000Y-178310003D01*
G75*
G02*
X288475003Y-178560000I-249997J0D01*
G01*
G37*
%TD.AperFunction*%
%TO.P,R7,1*%
%TO.N,Net-(LED7-Pad3)*%
%TA.AperFunction,SMDPad,CuDef*%
G36*
G01*
X288475003Y-181485000D02*
X287224997Y-181485000D01*
G75*
G02*
X286975000Y-181235003I0J249997D01*
G01*
X286975000Y-180609997D01*
G75*
G02*
X287224997Y-180360000I249997J0D01*
G01*
X288475003Y-180360000D01*
G75*
G02*
X288725000Y-180609997I0J-249997D01*
G01*
X288725000Y-181235003D01*
G75*
G02*
X288475003Y-181485000I-249997J0D01*
G01*
G37*
%TD.AperFunction*%
%TD*%
%TO.P,R6,2*%
%TO.N,MCP2.11*%
%TA.AperFunction,SMDPad,CuDef*%
G36*
G01*
X248395003Y-178360000D02*
X247144997Y-178360000D01*
G75*
G02*
X246895000Y-178110003I0J249997D01*
G01*
X246895000Y-177484997D01*
G75*
G02*
X247144997Y-177235000I249997J0D01*
G01*
X248395003Y-177235000D01*
G75*
G02*
X248645000Y-177484997I0J-249997D01*
G01*
X248645000Y-178110003D01*
G75*
G02*
X248395003Y-178360000I-249997J0D01*
G01*
G37*
%TD.AperFunction*%
%TO.P,R6,1*%
%TO.N,Net-(LED6-Pad1)*%
%TA.AperFunction,SMDPad,CuDef*%
G36*
G01*
X248395003Y-181285000D02*
X247144997Y-181285000D01*
G75*
G02*
X246895000Y-181035003I0J249997D01*
G01*
X246895000Y-180409997D01*
G75*
G02*
X247144997Y-180160000I249997J0D01*
G01*
X248395003Y-180160000D01*
G75*
G02*
X248645000Y-180409997I0J-249997D01*
G01*
X248645000Y-181035003D01*
G75*
G02*
X248395003Y-181285000I-249997J0D01*
G01*
G37*
%TD.AperFunction*%
%TD*%
%TO.P,R5,2*%
%TO.N,MCP2.7*%
%TA.AperFunction,SMDPad,CuDef*%
G36*
G01*
X213435003Y-178500000D02*
X212184997Y-178500000D01*
G75*
G02*
X211935000Y-178250003I0J249997D01*
G01*
X211935000Y-177624997D01*
G75*
G02*
X212184997Y-177375000I249997J0D01*
G01*
X213435003Y-177375000D01*
G75*
G02*
X213685000Y-177624997I0J-249997D01*
G01*
X213685000Y-178250003D01*
G75*
G02*
X213435003Y-178500000I-249997J0D01*
G01*
G37*
%TD.AperFunction*%
%TO.P,R5,1*%
%TO.N,Net-(LED5-Pad1)*%
%TA.AperFunction,SMDPad,CuDef*%
G36*
G01*
X213435003Y-181425000D02*
X212184997Y-181425000D01*
G75*
G02*
X211935000Y-181175003I0J249997D01*
G01*
X211935000Y-180549997D01*
G75*
G02*
X212184997Y-180300000I249997J0D01*
G01*
X213435003Y-180300000D01*
G75*
G02*
X213685000Y-180549997I0J-249997D01*
G01*
X213685000Y-181175003D01*
G75*
G02*
X213435003Y-181425000I-249997J0D01*
G01*
G37*
%TD.AperFunction*%
%TD*%
%TO.P,R4,2*%
%TO.N,MCP1.15*%
%TA.AperFunction,SMDPad,CuDef*%
G36*
G01*
X123405003Y-178480000D02*
X122154997Y-178480000D01*
G75*
G02*
X121905000Y-178230003I0J249997D01*
G01*
X121905000Y-177604997D01*
G75*
G02*
X122154997Y-177355000I249997J0D01*
G01*
X123405003Y-177355000D01*
G75*
G02*
X123655000Y-177604997I0J-249997D01*
G01*
X123655000Y-178230003D01*
G75*
G02*
X123405003Y-178480000I-249997J0D01*
G01*
G37*
%TD.AperFunction*%
%TO.P,R4,1*%
%TO.N,Net-(LED4-Pad1)*%
%TA.AperFunction,SMDPad,CuDef*%
G36*
G01*
X123405003Y-181405000D02*
X122154997Y-181405000D01*
G75*
G02*
X121905000Y-181155003I0J249997D01*
G01*
X121905000Y-180529997D01*
G75*
G02*
X122154997Y-180280000I249997J0D01*
G01*
X123405003Y-180280000D01*
G75*
G02*
X123655000Y-180529997I0J-249997D01*
G01*
X123655000Y-181155003D01*
G75*
G02*
X123405003Y-181405000I-249997J0D01*
G01*
G37*
%TD.AperFunction*%
%TD*%
%TO.P,R3,2*%
%TO.N,MCP3.3*%
%TA.AperFunction,SMDPad,CuDef*%
G36*
G01*
X318425003Y-178550000D02*
X317174997Y-178550000D01*
G75*
G02*
X316925000Y-178300003I0J249997D01*
G01*
X316925000Y-177674997D01*
G75*
G02*
X317174997Y-177425000I249997J0D01*
G01*
X318425003Y-177425000D01*
G75*
G02*
X318675000Y-177674997I0J-249997D01*
G01*
X318675000Y-178300003D01*
G75*
G02*
X318425003Y-178550000I-249997J0D01*
G01*
G37*
%TD.AperFunction*%
%TO.P,R3,1*%
%TO.N,Net-(LED8-Pad1)*%
%TA.AperFunction,SMDPad,CuDef*%
G36*
G01*
X318425003Y-181475000D02*
X317174997Y-181475000D01*
G75*
G02*
X316925000Y-181225003I0J249997D01*
G01*
X316925000Y-180599997D01*
G75*
G02*
X317174997Y-180350000I249997J0D01*
G01*
X318425003Y-180350000D01*
G75*
G02*
X318675000Y-180599997I0J-249997D01*
G01*
X318675000Y-181225003D01*
G75*
G02*
X318425003Y-181475000I-249997J0D01*
G01*
G37*
%TD.AperFunction*%
%TD*%
%TO.P,R2,2*%
%TO.N,MCP2.15*%
%TA.AperFunction,SMDPad,CuDef*%
G36*
G01*
X283445003Y-178530000D02*
X282194997Y-178530000D01*
G75*
G02*
X281945000Y-178280003I0J249997D01*
G01*
X281945000Y-177654997D01*
G75*
G02*
X282194997Y-177405000I249997J0D01*
G01*
X283445003Y-177405000D01*
G75*
G02*
X283695000Y-177654997I0J-249997D01*
G01*
X283695000Y-178280003D01*
G75*
G02*
X283445003Y-178530000I-249997J0D01*
G01*
G37*
%TD.AperFunction*%
%TO.P,R2,1*%
%TO.N,Net-(LED7-Pad1)*%
%TA.AperFunction,SMDPad,CuDef*%
G36*
G01*
X283445003Y-181455000D02*
X282194997Y-181455000D01*
G75*
G02*
X281945000Y-181205003I0J249997D01*
G01*
X281945000Y-180579997D01*
G75*
G02*
X282194997Y-180330000I249997J0D01*
G01*
X283445003Y-180330000D01*
G75*
G02*
X283695000Y-180579997I0J-249997D01*
G01*
X283695000Y-181205003D01*
G75*
G02*
X283445003Y-181455000I-249997J0D01*
G01*
G37*
%TD.AperFunction*%
%TD*%
D21*
%TO.P,Q18,3*%
%TO.N,K18-*%
X359720000Y-140980000D03*
%TO.P,Q18,2*%
%TO.N,GND*%
X357720000Y-140030000D03*
%TO.P,Q18,1*%
%TO.N,Net-(C18-Pad1)*%
X357720000Y-141930000D03*
%TD*%
%TO.P,Q17,3*%
%TO.N,K8-*%
X319610000Y-157910000D03*
%TO.P,Q17,2*%
%TO.N,GND*%
X317610000Y-156960000D03*
%TO.P,Q17,1*%
%TO.N,Net-(C17-Pad1)*%
X317610000Y-158860000D03*
%TD*%
%TO.P,Q16,3*%
%TO.N,K4-*%
X125750000Y-157870000D03*
%TO.P,Q16,2*%
%TO.N,GND*%
X123750000Y-156920000D03*
%TO.P,Q16,1*%
%TO.N,Net-(C16-Pad1)*%
X123750000Y-158820000D03*
%TD*%
%TO.P,Q15,3*%
%TO.N,K16-*%
X319440000Y-140950000D03*
%TO.P,Q15,2*%
%TO.N,GND*%
X317440000Y-140000000D03*
%TO.P,Q15,1*%
%TO.N,Net-(C15-Pad1)*%
X317440000Y-141900000D03*
%TD*%
%TO.P,Q14,3*%
%TO.N,K12-*%
X125570000Y-140970000D03*
%TO.P,Q14,2*%
%TO.N,GND*%
X123570000Y-140020000D03*
%TO.P,Q14,1*%
%TO.N,Net-(C14-Pad1)*%
X123570000Y-141920000D03*
%TD*%
%TO.P,Q13,3*%
%TO.N,K17-*%
X165530000Y-140970000D03*
%TO.P,Q13,2*%
%TO.N,GND*%
X163530000Y-140020000D03*
%TO.P,Q13,1*%
%TO.N,Net-(C13-Pad1)*%
X163530000Y-141920000D03*
%TD*%
%TO.P,Q12,3*%
%TO.N,K7-*%
X285810000Y-157860000D03*
%TO.P,Q12,2*%
%TO.N,GND*%
X283810000Y-156910000D03*
%TO.P,Q12,1*%
%TO.N,Net-(C12-Pad1)*%
X283810000Y-158810000D03*
%TD*%
%TO.P,Q11,3*%
%TO.N,K3-*%
X91130000Y-157890000D03*
%TO.P,Q11,2*%
%TO.N,GND*%
X89130000Y-156940000D03*
%TO.P,Q11,1*%
%TO.N,Net-(C11-Pad1)*%
X89130000Y-158840000D03*
%TD*%
%TO.P,Q10,3*%
%TO.N,K15-*%
X285520000Y-141000000D03*
%TO.P,Q10,2*%
%TO.N,GND*%
X283520000Y-140050000D03*
%TO.P,Q10,1*%
%TO.N,Net-(C10-Pad1)*%
X283520000Y-141950000D03*
%TD*%
%TO.P,Q9,3*%
%TO.N,K11-*%
X91210000Y-140960000D03*
%TO.P,Q9,2*%
%TO.N,GND*%
X89210000Y-140010000D03*
%TO.P,Q9,1*%
%TO.N,Net-(C9-Pad1)*%
X89210000Y-141910000D03*
%TD*%
%TO.P,Q8,3*%
%TO.N,K6-*%
X250160000Y-157840000D03*
%TO.P,Q8,2*%
%TO.N,GND*%
X248160000Y-156890000D03*
%TO.P,Q8,1*%
%TO.N,Net-(C8-Pad1)*%
X248160000Y-158790000D03*
%TD*%
%TO.P,Q7,3*%
%TO.N,K2-*%
X55050000Y-157840000D03*
%TO.P,Q7,2*%
%TO.N,GND*%
X53050000Y-156890000D03*
%TO.P,Q7,1*%
%TO.N,Net-(C7-Pad1)*%
X53050000Y-158790000D03*
%TD*%
%TO.P,Q6,3*%
%TO.N,K14-*%
X250640000Y-140960000D03*
%TO.P,Q6,2*%
%TO.N,GND*%
X248640000Y-140010000D03*
%TO.P,Q6,1*%
%TO.N,Net-(C6-Pad1)*%
X248640000Y-141910000D03*
%TD*%
%TO.P,Q5,3*%
%TO.N,K10-*%
X55080000Y-140980000D03*
%TO.P,Q5,2*%
%TO.N,GND*%
X53080000Y-140030000D03*
%TO.P,Q5,1*%
%TO.N,Net-(C5-Pad1)*%
X53080000Y-141930000D03*
%TD*%
%TO.P,Q4,3*%
%TO.N,K5-*%
X215150000Y-157870000D03*
%TO.P,Q4,2*%
%TO.N,GND*%
X213150000Y-156920000D03*
%TO.P,Q4,1*%
%TO.N,Net-(C4-Pad1)*%
X213150000Y-158820000D03*
%TD*%
%TO.P,Q3,3*%
%TO.N,K1-*%
X20350000Y-157870000D03*
%TO.P,Q3,2*%
%TO.N,GND*%
X18350000Y-156920000D03*
%TO.P,Q3,1*%
%TO.N,Net-(C3-Pad1)*%
X18350000Y-158820000D03*
%TD*%
%TO.P,Q2,3*%
%TO.N,K13-*%
X215400000Y-140990000D03*
%TO.P,Q2,2*%
%TO.N,GND*%
X213400000Y-140040000D03*
%TO.P,Q2,1*%
%TO.N,Net-(C2-Pad1)*%
X213400000Y-141940000D03*
%TD*%
%TO.P,Q1,3*%
%TO.N,K9-*%
X20420000Y-140960000D03*
%TO.P,Q1,2*%
%TO.N,GND*%
X18420000Y-140010000D03*
%TO.P,Q1,1*%
%TO.N,Net-(C1-Pad1)*%
X18420000Y-141910000D03*
%TD*%
D19*
%TO.P,D18,2*%
%TO.N,K18-*%
X368420000Y-140970000D03*
%TO.P,D18,1*%
%TO.N,K1+*%
X371720000Y-140970000D03*
%TD*%
%TO.P,D17,2*%
%TO.N,K17-*%
X173720000Y-141010000D03*
%TO.P,D17,1*%
%TO.N,K1+*%
X177020000Y-141010000D03*
%TD*%
%TO.P,D16,2*%
%TO.N,K16-*%
X327710000Y-140970000D03*
%TO.P,D16,1*%
%TO.N,K1+*%
X331010000Y-140970000D03*
%TD*%
%TO.P,D15,2*%
%TO.N,K15-*%
X293470000Y-140970000D03*
%TO.P,D15,1*%
%TO.N,K1+*%
X296770000Y-140970000D03*
%TD*%
%TO.P,D14,2*%
%TO.N,K14-*%
X258440000Y-140960000D03*
%TO.P,D14,1*%
%TO.N,K1+*%
X261740000Y-140960000D03*
%TD*%
%TO.P,D13,2*%
%TO.N,K13-*%
X223310000Y-140960000D03*
%TO.P,D13,1*%
%TO.N,K1+*%
X226610000Y-140960000D03*
%TD*%
%TO.P,D12,2*%
%TO.N,K12-*%
X133570000Y-140960000D03*
%TO.P,D12,1*%
%TO.N,K1+*%
X136870000Y-140960000D03*
%TD*%
%TO.P,D11,2*%
%TO.N,K11-*%
X99120000Y-140920000D03*
%TO.P,D11,1*%
%TO.N,K1+*%
X102420000Y-140920000D03*
%TD*%
%TO.P,D10,2*%
%TO.N,K10-*%
X62770000Y-140870000D03*
%TO.P,D10,1*%
%TO.N,K1+*%
X66070000Y-140870000D03*
%TD*%
%TO.P,D9,2*%
%TO.N,K9-*%
X28110000Y-141000000D03*
%TO.P,D9,1*%
%TO.N,K1+*%
X31410000Y-141000000D03*
%TD*%
%TO.P,D8,2*%
%TO.N,K8-*%
X327540000Y-157880000D03*
%TO.P,D8,1*%
%TO.N,K1+*%
X330840000Y-157880000D03*
%TD*%
%TO.P,D7,2*%
%TO.N,K7-*%
X293620000Y-157820000D03*
%TO.P,D7,1*%
%TO.N,K1+*%
X296920000Y-157820000D03*
%TD*%
%TO.P,D6,2*%
%TO.N,K6-*%
X258665000Y-157910000D03*
%TO.P,D6,1*%
%TO.N,K1+*%
X261965000Y-157910000D03*
%TD*%
%TO.P,D5,2*%
%TO.N,K5-*%
X223250000Y-157840000D03*
%TO.P,D5,1*%
%TO.N,K1+*%
X226550000Y-157840000D03*
%TD*%
%TO.P,D4,2*%
%TO.N,K4-*%
X133780000Y-157900000D03*
%TO.P,D4,1*%
%TO.N,K1+*%
X137080000Y-157900000D03*
%TD*%
%TO.P,D3,2*%
%TO.N,K3-*%
X99050000Y-157910000D03*
%TO.P,D3,1*%
%TO.N,K1+*%
X102350000Y-157910000D03*
%TD*%
%TO.P,D2,2*%
%TO.N,K2-*%
X62880000Y-157810000D03*
%TO.P,D2,1*%
%TO.N,K1+*%
X66180000Y-157810000D03*
%TD*%
%TO.P,C18,2*%
%TO.N,GND*%
%TA.AperFunction,SMDPad,CuDef*%
G36*
G01*
X354980001Y-139555000D02*
X353679999Y-139555000D01*
G75*
G02*
X353430000Y-139305001I0J249999D01*
G01*
X353430000Y-138654999D01*
G75*
G02*
X353679999Y-138405000I249999J0D01*
G01*
X354980001Y-138405000D01*
G75*
G02*
X355230000Y-138654999I0J-249999D01*
G01*
X355230000Y-139305001D01*
G75*
G02*
X354980001Y-139555000I-249999J0D01*
G01*
G37*
%TD.AperFunction*%
%TO.P,C18,1*%
%TO.N,Net-(C18-Pad1)*%
%TA.AperFunction,SMDPad,CuDef*%
G36*
G01*
X354980001Y-142505000D02*
X353679999Y-142505000D01*
G75*
G02*
X353430000Y-142255001I0J249999D01*
G01*
X353430000Y-141604999D01*
G75*
G02*
X353679999Y-141355000I249999J0D01*
G01*
X354980001Y-141355000D01*
G75*
G02*
X355230000Y-141604999I0J-249999D01*
G01*
X355230000Y-142255001D01*
G75*
G02*
X354980001Y-142505000I-249999J0D01*
G01*
G37*
%TD.AperFunction*%
%TD*%
%TO.P,C17,2*%
%TO.N,GND*%
%TA.AperFunction,SMDPad,CuDef*%
G36*
G01*
X315030001Y-156475000D02*
X313729999Y-156475000D01*
G75*
G02*
X313480000Y-156225001I0J249999D01*
G01*
X313480000Y-155574999D01*
G75*
G02*
X313729999Y-155325000I249999J0D01*
G01*
X315030001Y-155325000D01*
G75*
G02*
X315280000Y-155574999I0J-249999D01*
G01*
X315280000Y-156225001D01*
G75*
G02*
X315030001Y-156475000I-249999J0D01*
G01*
G37*
%TD.AperFunction*%
%TO.P,C17,1*%
%TO.N,Net-(C17-Pad1)*%
%TA.AperFunction,SMDPad,CuDef*%
G36*
G01*
X315030001Y-159425000D02*
X313729999Y-159425000D01*
G75*
G02*
X313480000Y-159175001I0J249999D01*
G01*
X313480000Y-158524999D01*
G75*
G02*
X313729999Y-158275000I249999J0D01*
G01*
X315030001Y-158275000D01*
G75*
G02*
X315280000Y-158524999I0J-249999D01*
G01*
X315280000Y-159175001D01*
G75*
G02*
X315030001Y-159425000I-249999J0D01*
G01*
G37*
%TD.AperFunction*%
%TD*%
%TO.P,C16,2*%
%TO.N,GND*%
%TA.AperFunction,SMDPad,CuDef*%
G36*
G01*
X121130001Y-156455000D02*
X119829999Y-156455000D01*
G75*
G02*
X119580000Y-156205001I0J249999D01*
G01*
X119580000Y-155554999D01*
G75*
G02*
X119829999Y-155305000I249999J0D01*
G01*
X121130001Y-155305000D01*
G75*
G02*
X121380000Y-155554999I0J-249999D01*
G01*
X121380000Y-156205001D01*
G75*
G02*
X121130001Y-156455000I-249999J0D01*
G01*
G37*
%TD.AperFunction*%
%TO.P,C16,1*%
%TO.N,Net-(C16-Pad1)*%
%TA.AperFunction,SMDPad,CuDef*%
G36*
G01*
X121130001Y-159405000D02*
X119829999Y-159405000D01*
G75*
G02*
X119580000Y-159155001I0J249999D01*
G01*
X119580000Y-158504999D01*
G75*
G02*
X119829999Y-158255000I249999J0D01*
G01*
X121130001Y-158255000D01*
G75*
G02*
X121380000Y-158504999I0J-249999D01*
G01*
X121380000Y-159155001D01*
G75*
G02*
X121130001Y-159405000I-249999J0D01*
G01*
G37*
%TD.AperFunction*%
%TD*%
%TO.P,C15,2*%
%TO.N,GND*%
%TA.AperFunction,SMDPad,CuDef*%
G36*
G01*
X314840001Y-139535000D02*
X313539999Y-139535000D01*
G75*
G02*
X313290000Y-139285001I0J249999D01*
G01*
X313290000Y-138634999D01*
G75*
G02*
X313539999Y-138385000I249999J0D01*
G01*
X314840001Y-138385000D01*
G75*
G02*
X315090000Y-138634999I0J-249999D01*
G01*
X315090000Y-139285001D01*
G75*
G02*
X314840001Y-139535000I-249999J0D01*
G01*
G37*
%TD.AperFunction*%
%TO.P,C15,1*%
%TO.N,Net-(C15-Pad1)*%
%TA.AperFunction,SMDPad,CuDef*%
G36*
G01*
X314840001Y-142485000D02*
X313539999Y-142485000D01*
G75*
G02*
X313290000Y-142235001I0J249999D01*
G01*
X313290000Y-141584999D01*
G75*
G02*
X313539999Y-141335000I249999J0D01*
G01*
X314840001Y-141335000D01*
G75*
G02*
X315090000Y-141584999I0J-249999D01*
G01*
X315090000Y-142235001D01*
G75*
G02*
X314840001Y-142485000I-249999J0D01*
G01*
G37*
%TD.AperFunction*%
%TD*%
%TO.P,C14,2*%
%TO.N,GND*%
%TA.AperFunction,SMDPad,CuDef*%
G36*
G01*
X121100001Y-139545000D02*
X119799999Y-139545000D01*
G75*
G02*
X119550000Y-139295001I0J249999D01*
G01*
X119550000Y-138644999D01*
G75*
G02*
X119799999Y-138395000I249999J0D01*
G01*
X121100001Y-138395000D01*
G75*
G02*
X121350000Y-138644999I0J-249999D01*
G01*
X121350000Y-139295001D01*
G75*
G02*
X121100001Y-139545000I-249999J0D01*
G01*
G37*
%TD.AperFunction*%
%TO.P,C14,1*%
%TO.N,Net-(C14-Pad1)*%
%TA.AperFunction,SMDPad,CuDef*%
G36*
G01*
X121100001Y-142495000D02*
X119799999Y-142495000D01*
G75*
G02*
X119550000Y-142245001I0J249999D01*
G01*
X119550000Y-141594999D01*
G75*
G02*
X119799999Y-141345000I249999J0D01*
G01*
X121100001Y-141345000D01*
G75*
G02*
X121350000Y-141594999I0J-249999D01*
G01*
X121350000Y-142245001D01*
G75*
G02*
X121100001Y-142495000I-249999J0D01*
G01*
G37*
%TD.AperFunction*%
%TD*%
%TO.P,C13,2*%
%TO.N,GND*%
%TA.AperFunction,SMDPad,CuDef*%
G36*
G01*
X161030001Y-139575000D02*
X159729999Y-139575000D01*
G75*
G02*
X159480000Y-139325001I0J249999D01*
G01*
X159480000Y-138674999D01*
G75*
G02*
X159729999Y-138425000I249999J0D01*
G01*
X161030001Y-138425000D01*
G75*
G02*
X161280000Y-138674999I0J-249999D01*
G01*
X161280000Y-139325001D01*
G75*
G02*
X161030001Y-139575000I-249999J0D01*
G01*
G37*
%TD.AperFunction*%
%TO.P,C13,1*%
%TO.N,Net-(C13-Pad1)*%
%TA.AperFunction,SMDPad,CuDef*%
G36*
G01*
X161030001Y-142525000D02*
X159729999Y-142525000D01*
G75*
G02*
X159480000Y-142275001I0J249999D01*
G01*
X159480000Y-141624999D01*
G75*
G02*
X159729999Y-141375000I249999J0D01*
G01*
X161030001Y-141375000D01*
G75*
G02*
X161280000Y-141624999I0J-249999D01*
G01*
X161280000Y-142275001D01*
G75*
G02*
X161030001Y-142525000I-249999J0D01*
G01*
G37*
%TD.AperFunction*%
%TD*%
%TO.P,C12,2*%
%TO.N,GND*%
%TA.AperFunction,SMDPad,CuDef*%
G36*
G01*
X281340001Y-156455000D02*
X280039999Y-156455000D01*
G75*
G02*
X279790000Y-156205001I0J249999D01*
G01*
X279790000Y-155554999D01*
G75*
G02*
X280039999Y-155305000I249999J0D01*
G01*
X281340001Y-155305000D01*
G75*
G02*
X281590000Y-155554999I0J-249999D01*
G01*
X281590000Y-156205001D01*
G75*
G02*
X281340001Y-156455000I-249999J0D01*
G01*
G37*
%TD.AperFunction*%
%TO.P,C12,1*%
%TO.N,Net-(C12-Pad1)*%
%TA.AperFunction,SMDPad,CuDef*%
G36*
G01*
X281340001Y-159405000D02*
X280039999Y-159405000D01*
G75*
G02*
X279790000Y-159155001I0J249999D01*
G01*
X279790000Y-158504999D01*
G75*
G02*
X280039999Y-158255000I249999J0D01*
G01*
X281340001Y-158255000D01*
G75*
G02*
X281590000Y-158504999I0J-249999D01*
G01*
X281590000Y-159155001D01*
G75*
G02*
X281340001Y-159405000I-249999J0D01*
G01*
G37*
%TD.AperFunction*%
%TD*%
%TO.P,C11,2*%
%TO.N,GND*%
%TA.AperFunction,SMDPad,CuDef*%
G36*
G01*
X86610001Y-156465000D02*
X85309999Y-156465000D01*
G75*
G02*
X85060000Y-156215001I0J249999D01*
G01*
X85060000Y-155564999D01*
G75*
G02*
X85309999Y-155315000I249999J0D01*
G01*
X86610001Y-155315000D01*
G75*
G02*
X86860000Y-155564999I0J-249999D01*
G01*
X86860000Y-156215001D01*
G75*
G02*
X86610001Y-156465000I-249999J0D01*
G01*
G37*
%TD.AperFunction*%
%TO.P,C11,1*%
%TO.N,Net-(C11-Pad1)*%
%TA.AperFunction,SMDPad,CuDef*%
G36*
G01*
X86610001Y-159415000D02*
X85309999Y-159415000D01*
G75*
G02*
X85060000Y-159165001I0J249999D01*
G01*
X85060000Y-158514999D01*
G75*
G02*
X85309999Y-158265000I249999J0D01*
G01*
X86610001Y-158265000D01*
G75*
G02*
X86860000Y-158514999I0J-249999D01*
G01*
X86860000Y-159165001D01*
G75*
G02*
X86610001Y-159415000I-249999J0D01*
G01*
G37*
%TD.AperFunction*%
%TD*%
%TO.P,C10,2*%
%TO.N,GND*%
%TA.AperFunction,SMDPad,CuDef*%
G36*
G01*
X280980001Y-139535000D02*
X279679999Y-139535000D01*
G75*
G02*
X279430000Y-139285001I0J249999D01*
G01*
X279430000Y-138634999D01*
G75*
G02*
X279679999Y-138385000I249999J0D01*
G01*
X280980001Y-138385000D01*
G75*
G02*
X281230000Y-138634999I0J-249999D01*
G01*
X281230000Y-139285001D01*
G75*
G02*
X280980001Y-139535000I-249999J0D01*
G01*
G37*
%TD.AperFunction*%
%TO.P,C10,1*%
%TO.N,Net-(C10-Pad1)*%
%TA.AperFunction,SMDPad,CuDef*%
G36*
G01*
X280980001Y-142485000D02*
X279679999Y-142485000D01*
G75*
G02*
X279430000Y-142235001I0J249999D01*
G01*
X279430000Y-141584999D01*
G75*
G02*
X279679999Y-141335000I249999J0D01*
G01*
X280980001Y-141335000D01*
G75*
G02*
X281230000Y-141584999I0J-249999D01*
G01*
X281230000Y-142235001D01*
G75*
G02*
X280980001Y-142485000I-249999J0D01*
G01*
G37*
%TD.AperFunction*%
%TD*%
%TO.P,C9,2*%
%TO.N,GND*%
%TA.AperFunction,SMDPad,CuDef*%
G36*
G01*
X86770001Y-139605000D02*
X85469999Y-139605000D01*
G75*
G02*
X85220000Y-139355001I0J249999D01*
G01*
X85220000Y-138704999D01*
G75*
G02*
X85469999Y-138455000I249999J0D01*
G01*
X86770001Y-138455000D01*
G75*
G02*
X87020000Y-138704999I0J-249999D01*
G01*
X87020000Y-139355001D01*
G75*
G02*
X86770001Y-139605000I-249999J0D01*
G01*
G37*
%TD.AperFunction*%
%TO.P,C9,1*%
%TO.N,Net-(C9-Pad1)*%
%TA.AperFunction,SMDPad,CuDef*%
G36*
G01*
X86770001Y-142555000D02*
X85469999Y-142555000D01*
G75*
G02*
X85220000Y-142305001I0J249999D01*
G01*
X85220000Y-141654999D01*
G75*
G02*
X85469999Y-141405000I249999J0D01*
G01*
X86770001Y-141405000D01*
G75*
G02*
X87020000Y-141654999I0J-249999D01*
G01*
X87020000Y-142305001D01*
G75*
G02*
X86770001Y-142555000I-249999J0D01*
G01*
G37*
%TD.AperFunction*%
%TD*%
%TO.P,C8,2*%
%TO.N,GND*%
%TA.AperFunction,SMDPad,CuDef*%
G36*
G01*
X245710001Y-156435000D02*
X244409999Y-156435000D01*
G75*
G02*
X244160000Y-156185001I0J249999D01*
G01*
X244160000Y-155534999D01*
G75*
G02*
X244409999Y-155285000I249999J0D01*
G01*
X245710001Y-155285000D01*
G75*
G02*
X245960000Y-155534999I0J-249999D01*
G01*
X245960000Y-156185001D01*
G75*
G02*
X245710001Y-156435000I-249999J0D01*
G01*
G37*
%TD.AperFunction*%
%TO.P,C8,1*%
%TO.N,Net-(C8-Pad1)*%
%TA.AperFunction,SMDPad,CuDef*%
G36*
G01*
X245710001Y-159385000D02*
X244409999Y-159385000D01*
G75*
G02*
X244160000Y-159135001I0J249999D01*
G01*
X244160000Y-158484999D01*
G75*
G02*
X244409999Y-158235000I249999J0D01*
G01*
X245710001Y-158235000D01*
G75*
G02*
X245960000Y-158484999I0J-249999D01*
G01*
X245960000Y-159135001D01*
G75*
G02*
X245710001Y-159385000I-249999J0D01*
G01*
G37*
%TD.AperFunction*%
%TD*%
%TO.P,C6,2*%
%TO.N,GND*%
%TA.AperFunction,SMDPad,CuDef*%
G36*
G01*
X246140001Y-139555000D02*
X244839999Y-139555000D01*
G75*
G02*
X244590000Y-139305001I0J249999D01*
G01*
X244590000Y-138654999D01*
G75*
G02*
X244839999Y-138405000I249999J0D01*
G01*
X246140001Y-138405000D01*
G75*
G02*
X246390000Y-138654999I0J-249999D01*
G01*
X246390000Y-139305001D01*
G75*
G02*
X246140001Y-139555000I-249999J0D01*
G01*
G37*
%TD.AperFunction*%
%TO.P,C6,1*%
%TO.N,Net-(C6-Pad1)*%
%TA.AperFunction,SMDPad,CuDef*%
G36*
G01*
X246140001Y-142505000D02*
X244839999Y-142505000D01*
G75*
G02*
X244590000Y-142255001I0J249999D01*
G01*
X244590000Y-141604999D01*
G75*
G02*
X244839999Y-141355000I249999J0D01*
G01*
X246140001Y-141355000D01*
G75*
G02*
X246390000Y-141604999I0J-249999D01*
G01*
X246390000Y-142255001D01*
G75*
G02*
X246140001Y-142505000I-249999J0D01*
G01*
G37*
%TD.AperFunction*%
%TD*%
%TO.P,C5,2*%
%TO.N,GND*%
%TA.AperFunction,SMDPad,CuDef*%
G36*
G01*
X50700001Y-139540000D02*
X49399999Y-139540000D01*
G75*
G02*
X49150000Y-139290001I0J249999D01*
G01*
X49150000Y-138639999D01*
G75*
G02*
X49399999Y-138390000I249999J0D01*
G01*
X50700001Y-138390000D01*
G75*
G02*
X50950000Y-138639999I0J-249999D01*
G01*
X50950000Y-139290001D01*
G75*
G02*
X50700001Y-139540000I-249999J0D01*
G01*
G37*
%TD.AperFunction*%
%TO.P,C5,1*%
%TO.N,Net-(C5-Pad1)*%
%TA.AperFunction,SMDPad,CuDef*%
G36*
G01*
X50700001Y-142490000D02*
X49399999Y-142490000D01*
G75*
G02*
X49150000Y-142240001I0J249999D01*
G01*
X49150000Y-141589999D01*
G75*
G02*
X49399999Y-141340000I249999J0D01*
G01*
X50700001Y-141340000D01*
G75*
G02*
X50950000Y-141589999I0J-249999D01*
G01*
X50950000Y-142240001D01*
G75*
G02*
X50700001Y-142490000I-249999J0D01*
G01*
G37*
%TD.AperFunction*%
%TD*%
%TO.P,C4,2*%
%TO.N,GND*%
%TA.AperFunction,SMDPad,CuDef*%
G36*
G01*
X210640001Y-156455000D02*
X209339999Y-156455000D01*
G75*
G02*
X209090000Y-156205001I0J249999D01*
G01*
X209090000Y-155554999D01*
G75*
G02*
X209339999Y-155305000I249999J0D01*
G01*
X210640001Y-155305000D01*
G75*
G02*
X210890000Y-155554999I0J-249999D01*
G01*
X210890000Y-156205001D01*
G75*
G02*
X210640001Y-156455000I-249999J0D01*
G01*
G37*
%TD.AperFunction*%
%TO.P,C4,1*%
%TO.N,Net-(C4-Pad1)*%
%TA.AperFunction,SMDPad,CuDef*%
G36*
G01*
X210640001Y-159405000D02*
X209339999Y-159405000D01*
G75*
G02*
X209090000Y-159155001I0J249999D01*
G01*
X209090000Y-158504999D01*
G75*
G02*
X209339999Y-158255000I249999J0D01*
G01*
X210640001Y-158255000D01*
G75*
G02*
X210890000Y-158504999I0J-249999D01*
G01*
X210890000Y-159155001D01*
G75*
G02*
X210640001Y-159405000I-249999J0D01*
G01*
G37*
%TD.AperFunction*%
%TD*%
%TO.P,C3,2*%
%TO.N,GND*%
%TA.AperFunction,SMDPad,CuDef*%
G36*
G01*
X17100001Y-156440000D02*
X15799999Y-156440000D01*
G75*
G02*
X15550000Y-156190001I0J249999D01*
G01*
X15550000Y-155539999D01*
G75*
G02*
X15799999Y-155290000I249999J0D01*
G01*
X17100001Y-155290000D01*
G75*
G02*
X17350000Y-155539999I0J-249999D01*
G01*
X17350000Y-156190001D01*
G75*
G02*
X17100001Y-156440000I-249999J0D01*
G01*
G37*
%TD.AperFunction*%
%TO.P,C3,1*%
%TO.N,Net-(C3-Pad1)*%
%TA.AperFunction,SMDPad,CuDef*%
G36*
G01*
X17100001Y-159390000D02*
X15799999Y-159390000D01*
G75*
G02*
X15550000Y-159140001I0J249999D01*
G01*
X15550000Y-158489999D01*
G75*
G02*
X15799999Y-158240000I249999J0D01*
G01*
X17100001Y-158240000D01*
G75*
G02*
X17350000Y-158489999I0J-249999D01*
G01*
X17350000Y-159140001D01*
G75*
G02*
X17100001Y-159390000I-249999J0D01*
G01*
G37*
%TD.AperFunction*%
%TD*%
%TO.P,C2,2*%
%TO.N,GND*%
%TA.AperFunction,SMDPad,CuDef*%
G36*
G01*
X210850001Y-139625000D02*
X209549999Y-139625000D01*
G75*
G02*
X209300000Y-139375001I0J249999D01*
G01*
X209300000Y-138724999D01*
G75*
G02*
X209549999Y-138475000I249999J0D01*
G01*
X210850001Y-138475000D01*
G75*
G02*
X211100000Y-138724999I0J-249999D01*
G01*
X211100000Y-139375001D01*
G75*
G02*
X210850001Y-139625000I-249999J0D01*
G01*
G37*
%TD.AperFunction*%
%TO.P,C2,1*%
%TO.N,Net-(C2-Pad1)*%
%TA.AperFunction,SMDPad,CuDef*%
G36*
G01*
X210850001Y-142575000D02*
X209549999Y-142575000D01*
G75*
G02*
X209300000Y-142325001I0J249999D01*
G01*
X209300000Y-141674999D01*
G75*
G02*
X209549999Y-141425000I249999J0D01*
G01*
X210850001Y-141425000D01*
G75*
G02*
X211100000Y-141674999I0J-249999D01*
G01*
X211100000Y-142325001D01*
G75*
G02*
X210850001Y-142575000I-249999J0D01*
G01*
G37*
%TD.AperFunction*%
%TD*%
%TO.P,C1,2*%
%TO.N,GND*%
%TA.AperFunction,SMDPad,CuDef*%
G36*
G01*
X17050001Y-139530000D02*
X15749999Y-139530000D01*
G75*
G02*
X15500000Y-139280001I0J249999D01*
G01*
X15500000Y-138629999D01*
G75*
G02*
X15749999Y-138380000I249999J0D01*
G01*
X17050001Y-138380000D01*
G75*
G02*
X17300000Y-138629999I0J-249999D01*
G01*
X17300000Y-139280001D01*
G75*
G02*
X17050001Y-139530000I-249999J0D01*
G01*
G37*
%TD.AperFunction*%
%TO.P,C1,1*%
%TO.N,Net-(C1-Pad1)*%
%TA.AperFunction,SMDPad,CuDef*%
G36*
G01*
X17050001Y-142480000D02*
X15749999Y-142480000D01*
G75*
G02*
X15500000Y-142230001I0J249999D01*
G01*
X15500000Y-141579999D01*
G75*
G02*
X15749999Y-141330000I249999J0D01*
G01*
X17050001Y-141330000D01*
G75*
G02*
X17300000Y-141579999I0J-249999D01*
G01*
X17300000Y-142230001D01*
G75*
G02*
X17050001Y-142480000I-249999J0D01*
G01*
G37*
%TD.AperFunction*%
%TD*%
D23*
%TO.N,/Relay/BUSA.3*%
X148730000Y-129245000D03*
X112090000Y-128985000D03*
X77390000Y-128960000D03*
X41230000Y-128920000D03*
X41190000Y-121590000D03*
X77435000Y-121590000D03*
X112110000Y-121590000D03*
X148645000Y-121520000D03*
X186875000Y-129275000D03*
X186905000Y-121520000D03*
X272750000Y-129150000D03*
X272845002Y-121480000D03*
X237550000Y-129300000D03*
X237590002Y-121510000D03*
X343430000Y-127420000D03*
X343450000Y-121400000D03*
X307275002Y-129150000D03*
X307270000Y-121420000D03*
%TO.N,/Relay/BUSB.2*%
X90670000Y-129120002D03*
X21000000Y-129000000D03*
X21260027Y-124809999D03*
X55480000Y-128820000D03*
X55584999Y-124809999D03*
X90734998Y-124809998D03*
X126339999Y-129200001D03*
X215449999Y-129260000D03*
X215444998Y-124719998D03*
X251230000Y-129420000D03*
X251285000Y-124640000D03*
X286249998Y-129060000D03*
X320009998Y-129510000D03*
X320040000Y-124510000D03*
X286290000Y-124540000D03*
X126400000Y-124840000D03*
%TO.N,/Relay/BUSB.3*%
X74430000Y-129010000D03*
X145760000Y-129330000D03*
X235860000Y-129260000D03*
X271020000Y-129210000D03*
X340240000Y-127415010D03*
X109919998Y-129020000D03*
X38915000Y-123160000D03*
X38950000Y-128900000D03*
X74470000Y-123080000D03*
X109930000Y-123080000D03*
X235860000Y-123040000D03*
X270985000Y-123010000D03*
X340255000Y-122920000D03*
X305639994Y-122940000D03*
X305650003Y-129210015D03*
X145720000Y-123080000D03*
%TO.N,GND*%
X16420000Y-137230000D03*
X16420000Y-153800000D03*
X50220000Y-153830000D03*
X50190000Y-136830000D03*
X51380000Y-160830000D03*
X86140000Y-136840000D03*
X86130000Y-153490000D03*
X120480000Y-136860000D03*
X120480000Y-153590000D03*
X160340000Y-137070000D03*
X160340000Y-153530000D03*
X210170000Y-136340000D03*
X210140000Y-152300000D03*
X245510000Y-136330000D03*
X245550000Y-152850000D03*
X280310000Y-136390000D03*
X280310000Y-153160000D03*
X314290000Y-135940000D03*
X314300000Y-152410000D03*
X354340000Y-135890000D03*
X354500000Y-151800000D03*
X50200000Y-119820000D03*
X86130000Y-119820000D03*
X120440000Y-119820000D03*
X160310000Y-119820000D03*
X210129998Y-119820000D03*
X245460000Y-119820000D03*
X280280000Y-119820000D03*
X314280000Y-119820000D03*
X354340000Y-119820000D03*
X238580000Y-119820000D03*
X354270000Y-113160000D03*
X354300000Y-116720000D03*
X108780000Y-110970000D03*
X108870028Y-119820000D03*
X86320000Y-115780000D03*
X280310000Y-161165000D03*
X16420000Y-161380000D03*
X86130000Y-161095000D03*
X120480000Y-160930000D03*
X160340000Y-161215000D03*
X210140000Y-160965000D03*
X245550000Y-160700000D03*
X314300000Y-160975000D03*
X357230000Y-160480000D03*
%TO.N,K1-*%
X21920000Y-157870000D03*
%TO.N,K2-*%
X56660000Y-157830000D03*
%TO.N,K3-*%
X92970000Y-157830000D03*
%TO.N,K4-*%
X127370000Y-157840000D03*
%TO.N,K5-*%
X216860000Y-157840000D03*
%TO.N,K6-*%
X251830000Y-157870000D03*
%TO.N,K7-*%
X287330000Y-157840000D03*
%TO.N,K8-*%
X321170000Y-157890000D03*
%TO.N,K9-*%
X22030000Y-140950000D03*
%TO.N,K10-*%
X56680000Y-140970000D03*
%TO.N,K11-*%
X92960000Y-140940000D03*
%TO.N,K12-*%
X127380000Y-140960000D03*
%TO.N,K13-*%
X217040000Y-140930000D03*
%TO.N,K14-*%
X252080000Y-140940000D03*
%TO.N,K15-*%
X287300000Y-140940000D03*
%TO.N,K16-*%
X321040000Y-140960000D03*
%TO.N,K17-*%
X167120000Y-140960000D03*
%TO.N,K18-*%
X361760000Y-140980000D03*
%TO.N,K19-*%
X167480000Y-157810000D03*
%TO.N,K20-*%
X362170000Y-157800000D03*
%TO.N,I2C_SCK*%
X243700000Y-111980000D03*
X350140000Y-112015010D03*
X139175000Y-114375000D03*
%TO.N,K1+*%
X38330000Y-140950000D03*
X38240000Y-157840000D03*
X73000000Y-140900000D03*
X72910000Y-157820000D03*
X109270000Y-157860000D03*
X109310000Y-140920000D03*
X143750000Y-157890000D03*
X143810000Y-140970000D03*
X183750000Y-140960000D03*
X183790000Y-157840000D03*
X233490000Y-157820000D03*
X233560000Y-140950000D03*
X226570000Y-118280000D03*
X268570000Y-140940000D03*
X268430000Y-157870000D03*
X261770000Y-118280000D03*
X303570000Y-140960000D03*
X296660000Y-118280000D03*
X303550000Y-157860000D03*
X338000000Y-157890000D03*
X338060000Y-140960000D03*
X378460000Y-140980000D03*
X371690000Y-118280000D03*
X378550000Y-157880000D03*
X330989998Y-118280000D03*
X236080000Y-105500000D03*
X342590000Y-113370000D03*
X120180000Y-111120000D03*
X177100000Y-117630000D03*
X136890000Y-117630000D03*
X120160000Y-117630000D03*
X102420000Y-117630000D03*
X66070000Y-117690000D03*
X31420000Y-117680000D03*
%TO.N,Phantom_48V_GND*%
X158720000Y-106790000D03*
X194730000Y-106760000D03*
X194741800Y-156806900D03*
X194760000Y-112695000D03*
%TO.N,Phantom_48V*%
X362300000Y-121450000D03*
X356530000Y-96280000D03*
X208130000Y-96310000D03*
X378790000Y-121390000D03*
X183810000Y-116310000D03*
X166950000Y-116310000D03*
X150700000Y-116310000D03*
%TO.N,Net-(K5-Pad3)*%
X183820000Y-135870000D03*
%TO.N,Net-(K5-Pad8)*%
X166860000Y-135920000D03*
%TO.N,Net-(K10-Pad3)*%
X378760000Y-135880000D03*
%TO.N,Net-(K10-Pad8)*%
X362000000Y-135850000D03*
%TD*%
D24*
%TO.N,/Relay/BUSA.3*%
X41230000Y-128920000D02*
X41230000Y-121630000D01*
X41230000Y-121630000D02*
X41190000Y-121590000D01*
X77390000Y-121635000D02*
X77435000Y-121590000D01*
X77390000Y-128960000D02*
X77390000Y-121635000D01*
X112090000Y-121610000D02*
X112110000Y-121590000D01*
X112090000Y-128985000D02*
X112090000Y-121610000D01*
X148730000Y-121605000D02*
X148645000Y-121520000D01*
X148730000Y-129245000D02*
X148730000Y-121605000D01*
X186875000Y-121550000D02*
X186905000Y-121520000D01*
X186875000Y-129275000D02*
X186875000Y-121550000D01*
X272750000Y-129150000D02*
X272750000Y-121575002D01*
X272750000Y-121575002D02*
X272845002Y-121480000D01*
X237550000Y-129300000D02*
X237550000Y-121550002D01*
X237550000Y-121550002D02*
X237590002Y-121510000D01*
X343430000Y-121420000D02*
X343450000Y-121400000D01*
X343430000Y-127420000D02*
X343430000Y-121420000D01*
X307275002Y-121425002D02*
X307270000Y-121420000D01*
X307275002Y-129150000D02*
X307275002Y-121425002D01*
%TO.N,/Relay/BUSB.2*%
X21000000Y-129000000D02*
X21000000Y-125070026D01*
X21000000Y-125070026D02*
X21260027Y-124809999D01*
X55499998Y-128800002D02*
X55480000Y-128820000D01*
X55480000Y-124914998D02*
X55584999Y-124809999D01*
X55480000Y-128820000D02*
X55480000Y-124914998D01*
X90670000Y-124874996D02*
X90734998Y-124809998D01*
X90670000Y-129120002D02*
X90670000Y-124874996D01*
X126350000Y-129190000D02*
X126339999Y-129200001D01*
X215449999Y-124724999D02*
X215444998Y-124719998D01*
X215449999Y-129260000D02*
X215449999Y-124724999D01*
X251230002Y-129419998D02*
X251230000Y-129420000D01*
X251230000Y-124695000D02*
X251285000Y-124640000D01*
X251230000Y-129420000D02*
X251230000Y-124695000D01*
X286260000Y-129049998D02*
X286249998Y-129060000D01*
X320020002Y-129499996D02*
X320009998Y-129510000D01*
X320009998Y-124540002D02*
X320040000Y-124510000D01*
X320009998Y-129510000D02*
X320009998Y-124540002D01*
X286249998Y-124580002D02*
X286290000Y-124540000D01*
X286249998Y-129060000D02*
X286249998Y-124580002D01*
X126339999Y-124900001D02*
X126400000Y-124840000D01*
X126339999Y-129200001D02*
X126339999Y-124900001D01*
%TO.N,/Relay/BUSB.3*%
X74430000Y-129010000D02*
X74430000Y-124879998D01*
X235850000Y-129250000D02*
X235860000Y-129260000D01*
X109909996Y-129009998D02*
X109919998Y-129020000D01*
X38915000Y-123160000D02*
X38915000Y-128865000D01*
X38915000Y-128865000D02*
X38950000Y-128900000D01*
X74430000Y-123120000D02*
X74470000Y-123080000D01*
X74430000Y-124879998D02*
X74430000Y-123120000D01*
X109919998Y-123090002D02*
X109930000Y-123080000D01*
X109919998Y-129020000D02*
X109919998Y-123090002D01*
X235860000Y-129260000D02*
X235860000Y-123040000D01*
X271020000Y-123045000D02*
X270985000Y-123010000D01*
X271020000Y-129210000D02*
X271020000Y-123045000D01*
X340240000Y-122935000D02*
X340255000Y-122920000D01*
X340240000Y-127415010D02*
X340240000Y-122935000D01*
X305639994Y-122940000D02*
X305639994Y-129200006D01*
X305639994Y-129200006D02*
X305650003Y-129210015D01*
X145760000Y-123120000D02*
X145720000Y-123080000D01*
X145760000Y-129330000D02*
X145760000Y-123120000D01*
%TO.N,GND*%
X16400000Y-137250000D02*
X16420000Y-137230000D01*
X16400000Y-138955000D02*
X16400000Y-137250000D01*
X16450000Y-153830000D02*
X16420000Y-153800000D01*
X16450000Y-155865000D02*
X16450000Y-153830000D01*
X17295000Y-155865000D02*
X18350000Y-156920000D01*
X16450000Y-155865000D02*
X17295000Y-155865000D01*
X17365000Y-138955000D02*
X18420000Y-140010000D01*
X16400000Y-138955000D02*
X17365000Y-138955000D01*
X50220000Y-155475000D02*
X49850000Y-155845000D01*
X50220000Y-153830000D02*
X50220000Y-155475000D01*
X52005000Y-155845000D02*
X53050000Y-156890000D01*
X49850000Y-155845000D02*
X52005000Y-155845000D01*
X50190000Y-138825000D02*
X50050000Y-138965000D01*
X50190000Y-136830000D02*
X50190000Y-138825000D01*
X52015000Y-138965000D02*
X53080000Y-140030000D01*
X50050000Y-138965000D02*
X52015000Y-138965000D01*
X51380000Y-160830000D02*
X52590000Y-162040000D01*
X52590000Y-162040000D02*
X52590000Y-167080000D01*
X49640001Y-170029999D02*
X49640001Y-187819999D01*
X52590000Y-167080000D02*
X49640001Y-170029999D01*
X55355240Y-187614760D02*
X55150001Y-187819999D01*
X55355240Y-184775080D02*
X55355240Y-187614760D01*
X49640001Y-187819999D02*
X55150001Y-187819999D01*
X88230000Y-139030000D02*
X89210000Y-140010000D01*
X86120000Y-139030000D02*
X88230000Y-139030000D01*
X86120000Y-136860000D02*
X86140000Y-136840000D01*
X86120000Y-139030000D02*
X86120000Y-136860000D01*
X86130000Y-155720000D02*
X85960000Y-155890000D01*
X86130000Y-153490000D02*
X86130000Y-155720000D01*
X88080000Y-155890000D02*
X89130000Y-156940000D01*
X85960000Y-155890000D02*
X88080000Y-155890000D01*
X122710000Y-155880000D02*
X123750000Y-156920000D01*
X120480000Y-155880000D02*
X122710000Y-155880000D01*
X122520000Y-138970000D02*
X123570000Y-140020000D01*
X120450000Y-138970000D02*
X122520000Y-138970000D01*
X120450000Y-136890000D02*
X120480000Y-136860000D01*
X120450000Y-138970000D02*
X120450000Y-136890000D01*
X120480000Y-155880000D02*
X120480000Y-153590000D01*
X162510000Y-139000000D02*
X163530000Y-140020000D01*
X160380000Y-139000000D02*
X162510000Y-139000000D01*
X160380000Y-137110000D02*
X160340000Y-137070000D01*
X160380000Y-139000000D02*
X160380000Y-137110000D01*
X160340000Y-155730000D02*
X160200000Y-155870000D01*
X160340000Y-153530000D02*
X160340000Y-155730000D01*
X162300000Y-155870000D02*
X163340000Y-156910000D01*
X160200000Y-155870000D02*
X162300000Y-155870000D01*
X212110000Y-155880000D02*
X213150000Y-156920000D01*
X209990000Y-155880000D02*
X212110000Y-155880000D01*
X212410000Y-139050000D02*
X213400000Y-140040000D01*
X210200000Y-139050000D02*
X212410000Y-139050000D01*
X210200000Y-136370000D02*
X210170000Y-136340000D01*
X210200000Y-139050000D02*
X210200000Y-136370000D01*
X210140000Y-155730000D02*
X209990000Y-155880000D01*
X210140000Y-152300000D02*
X210140000Y-155730000D01*
X247130000Y-155860000D02*
X248160000Y-156890000D01*
X245060000Y-155860000D02*
X247130000Y-155860000D01*
X247610000Y-138980000D02*
X248640000Y-140010000D01*
X245490000Y-138980000D02*
X247610000Y-138980000D01*
X245490000Y-136350000D02*
X245510000Y-136330000D01*
X245490000Y-138980000D02*
X245490000Y-136350000D01*
X245550000Y-155370000D02*
X245060000Y-155860000D01*
X245550000Y-152850000D02*
X245550000Y-155370000D01*
X282780000Y-155880000D02*
X283810000Y-156910000D01*
X280690000Y-155880000D02*
X282780000Y-155880000D01*
X282430000Y-138960000D02*
X283520000Y-140050000D01*
X280330000Y-138960000D02*
X282430000Y-138960000D01*
X280330000Y-136410000D02*
X280310000Y-136390000D01*
X280330000Y-138960000D02*
X280330000Y-136410000D01*
X280310000Y-155500000D02*
X280690000Y-155880000D01*
X280310000Y-153160000D02*
X280310000Y-155500000D01*
X316550000Y-155900000D02*
X317610000Y-156960000D01*
X314380000Y-155900000D02*
X316550000Y-155900000D01*
X316400000Y-138960000D02*
X317440000Y-140000000D01*
X314190000Y-138960000D02*
X316400000Y-138960000D01*
X314190000Y-136040000D02*
X314290000Y-135940000D01*
X314190000Y-138960000D02*
X314190000Y-136040000D01*
X314300000Y-155820000D02*
X314380000Y-155900000D01*
X314300000Y-152410000D02*
X314300000Y-155820000D01*
X356560000Y-154930000D02*
X358520000Y-156890000D01*
X355130000Y-154930000D02*
X356560000Y-154930000D01*
X356670000Y-138980000D02*
X357720000Y-140030000D01*
X354330000Y-138980000D02*
X356670000Y-138980000D01*
X354330000Y-135900000D02*
X354340000Y-135890000D01*
X354330000Y-138980000D02*
X354330000Y-135900000D01*
X354500000Y-154300000D02*
X355130000Y-154930000D01*
X354500000Y-151800000D02*
X354500000Y-154300000D01*
X50190000Y-119830000D02*
X50200000Y-119820000D01*
X50190000Y-136830000D02*
X50190000Y-119830000D01*
X86140000Y-119830000D02*
X86130000Y-119820000D01*
X86140000Y-136840000D02*
X86140000Y-119830000D01*
X120480000Y-136860000D02*
X120480000Y-119860000D01*
X120480000Y-119860000D02*
X120440000Y-119820000D01*
X160340000Y-119850000D02*
X160310000Y-119820000D01*
X160340000Y-137070000D02*
X160340000Y-119850000D01*
X210170000Y-136340000D02*
X210170000Y-119860002D01*
X210170000Y-119860002D02*
X210129998Y-119820000D01*
X245510000Y-136330000D02*
X245510000Y-119870000D01*
X245510000Y-119870000D02*
X245460000Y-119820000D01*
X280310000Y-119850000D02*
X280280000Y-119820000D01*
X280310000Y-136390000D02*
X280310000Y-119850000D01*
X314290000Y-119830000D02*
X314280000Y-119820000D01*
X314290000Y-135940000D02*
X314290000Y-119830000D01*
X354340000Y-135890000D02*
X354340000Y-119820000D01*
X238620000Y-119780000D02*
X238580000Y-119820000D01*
X238620000Y-108210000D02*
X238620000Y-119780000D01*
X345130000Y-108210000D02*
X345130000Y-113110000D01*
X345180000Y-113160000D02*
X354270000Y-113160000D01*
X345130000Y-113110000D02*
X345180000Y-113160000D01*
X354300000Y-119780000D02*
X354340000Y-119820000D01*
X354300000Y-116720000D02*
X354300000Y-119780000D01*
X108780000Y-119729972D02*
X108870028Y-119820000D01*
X108780000Y-110970000D02*
X108780000Y-119729972D01*
X86320000Y-119630000D02*
X86130000Y-119820000D01*
X86320000Y-115780000D02*
X86320000Y-119630000D01*
X278325000Y-163150000D02*
X280310000Y-161165000D01*
X278325000Y-187840000D02*
X278325000Y-163150000D01*
X285355240Y-187840000D02*
X278325000Y-187840000D01*
X285355240Y-184775080D02*
X285355240Y-187840000D01*
X83750000Y-163475000D02*
X86130000Y-161095000D01*
X83750000Y-187819999D02*
X83750000Y-163475000D01*
X90355240Y-187819999D02*
X83750000Y-187819999D01*
X90355240Y-184775080D02*
X90355240Y-187819999D01*
X14740000Y-163060000D02*
X16420000Y-161380000D01*
X20355240Y-187819999D02*
X14740000Y-187819999D01*
X14740000Y-187819999D02*
X14740000Y-163060000D01*
X20355240Y-184764920D02*
X20355240Y-187819999D01*
X118000000Y-187840000D02*
X118000000Y-163410000D01*
X118000000Y-163410000D02*
X120480000Y-160930000D01*
X125355240Y-187840000D02*
X118000000Y-187840000D01*
X125355240Y-184775080D02*
X125355240Y-187840000D01*
X160325000Y-161230000D02*
X160340000Y-161215000D01*
X160325000Y-187655000D02*
X160325000Y-161230000D01*
X160376000Y-187706000D02*
X160325000Y-187655000D01*
X184355240Y-187706000D02*
X160376000Y-187706000D01*
X184355240Y-184775080D02*
X184355240Y-187706000D01*
X208800000Y-162305000D02*
X210140000Y-160965000D01*
X208800000Y-187840000D02*
X208800000Y-162305000D01*
X215355240Y-187840000D02*
X208800000Y-187840000D01*
X215355240Y-184775080D02*
X215355240Y-187840000D01*
X243875000Y-162375000D02*
X245550000Y-160700000D01*
X243875000Y-187840000D02*
X243875000Y-162375000D01*
X250355240Y-187840000D02*
X243875000Y-187840000D01*
X250355240Y-184775080D02*
X250355240Y-187840000D01*
X311925000Y-163350000D02*
X314300000Y-160975000D01*
X311925000Y-187840000D02*
X311925000Y-163350000D01*
X320355240Y-187840000D02*
X311925000Y-187840000D01*
X320355240Y-184775080D02*
X320355240Y-187840000D01*
X379355240Y-184775080D02*
X379355240Y-187706000D01*
X379355240Y-187706000D02*
X357230000Y-187706000D01*
X357230000Y-187706000D02*
X357230000Y-160480000D01*
%TO.N,Net-(C1-Pad1)*%
X16405000Y-141910000D02*
X16400000Y-141905000D01*
X16392500Y-141912500D02*
X16400000Y-141905000D01*
X18415000Y-141905000D02*
X18420000Y-141910000D01*
X16400000Y-141905000D02*
X18415000Y-141905000D01*
X16360000Y-141945000D02*
X16400000Y-141905000D01*
X16360000Y-144230000D02*
X16360000Y-141945000D01*
%TO.N,Net-(C2-Pad1)*%
X213340000Y-142000000D02*
X213400000Y-141940000D01*
X210200000Y-142000000D02*
X213340000Y-142000000D01*
X210180000Y-142020000D02*
X210200000Y-142000000D01*
X206510000Y-142020000D02*
X210180000Y-142020000D01*
%TO.N,Net-(C3-Pad1)*%
X16455000Y-158820000D02*
X16450000Y-158815000D01*
X14042500Y-158815000D02*
X14040000Y-158812500D01*
X16447500Y-158812500D02*
X16450000Y-158815000D01*
X14040000Y-158812500D02*
X16447500Y-158812500D01*
X18345000Y-158815000D02*
X18350000Y-158820000D01*
X16450000Y-158815000D02*
X18345000Y-158815000D01*
%TO.N,Net-(C4-Pad1)*%
X213140000Y-158830000D02*
X213150000Y-158820000D01*
X209990000Y-158830000D02*
X213140000Y-158830000D01*
X205720000Y-157410000D02*
X207280000Y-158970000D01*
X209850000Y-158970000D02*
X209990000Y-158830000D01*
X207280000Y-158970000D02*
X209850000Y-158970000D01*
D25*
%TO.N,Net-(C5-Pad1)*%
X53215000Y-141915000D02*
X53220000Y-141920000D01*
D24*
X50037500Y-141902500D02*
X50050000Y-141915000D01*
X46430000Y-141902500D02*
X50037500Y-141902500D01*
X53065000Y-141915000D02*
X53080000Y-141930000D01*
X50050000Y-141915000D02*
X53065000Y-141915000D01*
%TO.N,Net-(C6-Pad1)*%
X241910000Y-141930000D02*
X245490000Y-141930000D01*
X248620000Y-141930000D02*
X248640000Y-141910000D01*
X245490000Y-141930000D02*
X248620000Y-141930000D01*
%TO.N,Net-(C8-Pad1)*%
X245050000Y-158820000D02*
X245060000Y-158810000D01*
X241350000Y-158820000D02*
X245050000Y-158820000D01*
X248140000Y-158810000D02*
X248160000Y-158790000D01*
X245060000Y-158810000D02*
X248140000Y-158810000D01*
D25*
%TO.N,Net-(C9-Pad1)*%
X89230000Y-141980000D02*
X89290000Y-141920000D01*
D24*
X86090000Y-141950000D02*
X86120000Y-141980000D01*
X82560000Y-141950000D02*
X86090000Y-141950000D01*
X89140000Y-141980000D02*
X89210000Y-141910000D01*
X86120000Y-141980000D02*
X89140000Y-141980000D01*
%TO.N,Net-(C10-Pad1)*%
X280320000Y-141900000D02*
X280330000Y-141910000D01*
X276660000Y-141900000D02*
X280320000Y-141900000D01*
X283480000Y-141910000D02*
X283520000Y-141950000D01*
X280330000Y-141910000D02*
X283480000Y-141910000D01*
%TO.N,Net-(C11-Pad1)*%
X85940000Y-158820000D02*
X85960000Y-158840000D01*
X82350000Y-158820000D02*
X85940000Y-158820000D01*
X85960000Y-158840000D02*
X89130000Y-158840000D01*
%TO.N,Net-(C12-Pad1)*%
X280670000Y-158850000D02*
X280690000Y-158830000D01*
X277020000Y-158850000D02*
X280670000Y-158850000D01*
X283790000Y-158830000D02*
X283810000Y-158810000D01*
X280690000Y-158830000D02*
X283790000Y-158830000D01*
%TO.N,Net-(C13-Pad1)*%
X160410000Y-141920000D02*
X160380000Y-141950000D01*
X163530000Y-141920000D02*
X160410000Y-141920000D01*
X160330000Y-141900000D02*
X160380000Y-141950000D01*
X156810000Y-141900000D02*
X160330000Y-141900000D01*
%TO.N,Net-(C14-Pad1)*%
X120420000Y-141890000D02*
X120450000Y-141920000D01*
X116940000Y-141890000D02*
X120420000Y-141890000D01*
X120450000Y-141920000D02*
X123570000Y-141920000D01*
%TO.N,Net-(C15-Pad1)*%
X314170000Y-141890000D02*
X314190000Y-141910000D01*
X310550000Y-141890000D02*
X314170000Y-141890000D01*
X314190000Y-141910000D02*
X317860000Y-141910000D01*
%TO.N,Net-(C16-Pad1)*%
X123740000Y-158830000D02*
X123750000Y-158820000D01*
X120480000Y-158830000D02*
X123740000Y-158830000D01*
X120450000Y-158800000D02*
X120480000Y-158830000D01*
X116800000Y-158800000D02*
X120450000Y-158800000D01*
%TO.N,Net-(C17-Pad1)*%
X310870000Y-158850000D02*
X314380000Y-158850000D01*
X317600000Y-158850000D02*
X317610000Y-158860000D01*
X314380000Y-158850000D02*
X317600000Y-158850000D01*
%TO.N,Net-(C18-Pad1)*%
X354300000Y-141960000D02*
X354330000Y-141930000D01*
X350470000Y-141960000D02*
X354300000Y-141960000D01*
X354330000Y-141930000D02*
X357720000Y-141930000D01*
D25*
%TO.N,Net-(LED1-Pad1)*%
X17815240Y-180907740D02*
X17790000Y-180882500D01*
X17815240Y-184764920D02*
X17815240Y-180907740D01*
%TO.N,Net-(LED1-Pad3)*%
X22895240Y-180867740D02*
X22880000Y-180852500D01*
X22895240Y-184764920D02*
X22895240Y-180867740D01*
%TO.N,Net-(LED2-Pad1)*%
X52815240Y-180907740D02*
X52810000Y-180902500D01*
X52815240Y-184775080D02*
X52815240Y-180907740D01*
%TO.N,Net-(LED2-Pad3)*%
X57895240Y-180987740D02*
X57860000Y-180952500D01*
X57895240Y-184775080D02*
X57895240Y-180987740D01*
%TO.N,Net-(LED3-Pad1)*%
X87815240Y-180927260D02*
X87850000Y-180892500D01*
X87815240Y-184775080D02*
X87815240Y-180927260D01*
%TO.N,Net-(LED3-Pad3)*%
X92895240Y-180917740D02*
X92870000Y-180892500D01*
X92895240Y-184775080D02*
X92895240Y-180917740D01*
%TO.N,Net-(LED4-Pad1)*%
X122815240Y-180877740D02*
X122780000Y-180842500D01*
X122815240Y-184775080D02*
X122815240Y-180877740D01*
%TO.N,Net-(LED4-Pad3)*%
X127895240Y-180767740D02*
X127890000Y-180762500D01*
X127895240Y-184775080D02*
X127895240Y-180767740D01*
%TO.N,Net-(LED5-Pad1)*%
X212815240Y-180867740D02*
X212810000Y-180862500D01*
X212815240Y-184775080D02*
X212815240Y-180867740D01*
%TO.N,Net-(LED5-Pad3)*%
X217895240Y-180877740D02*
X217870000Y-180852500D01*
X217895240Y-184775080D02*
X217895240Y-180877740D01*
%TO.N,Net-(LED6-Pad1)*%
X247815240Y-180767740D02*
X247770000Y-180722500D01*
X247815240Y-184775080D02*
X247815240Y-180767740D01*
%TO.N,Net-(LED6-Pad3)*%
X252895240Y-180957260D02*
X252900000Y-180952500D01*
X252895240Y-184775080D02*
X252895240Y-180957260D01*
%TO.N,Net-(LED7-Pad1)*%
X282815240Y-180897260D02*
X282820000Y-180892500D01*
X282815240Y-184775080D02*
X282815240Y-180897260D01*
%TO.N,Net-(LED7-Pad3)*%
X287895240Y-180967740D02*
X287850000Y-180922500D01*
X287895240Y-184775080D02*
X287895240Y-180967740D01*
%TO.N,Net-(LED8-Pad1)*%
X317815240Y-180927740D02*
X317800000Y-180912500D01*
X317815240Y-184775080D02*
X317815240Y-180927740D01*
%TO.N,Net-(LED8-Pad3)*%
X322895240Y-180967260D02*
X322920000Y-180942500D01*
X322895240Y-184775080D02*
X322895240Y-180967260D01*
%TO.N,Net-(LED9-Pad1)*%
X181815240Y-180773760D02*
X181864000Y-180725000D01*
X181815240Y-184775080D02*
X181815240Y-180773760D01*
%TO.N,Net-(LED9-Pad3)*%
X186895240Y-180773760D02*
X186944000Y-180725000D01*
X186895240Y-184775080D02*
X186895240Y-180773760D01*
%TO.N,Net-(LED10-Pad1)*%
X376815240Y-181235240D02*
X376682000Y-181102000D01*
X376815240Y-184775080D02*
X376815240Y-181235240D01*
%TO.N,Net-(LED10-Pad3)*%
X381895240Y-181235240D02*
X381762000Y-181102000D01*
X381895240Y-184775080D02*
X381895240Y-181235240D01*
D24*
%TO.N,Net-(C7-Pad1)*%
X49835000Y-158780000D02*
X49850000Y-158795000D01*
X46170000Y-158780000D02*
X49835000Y-158780000D01*
X53045000Y-158795000D02*
X53050000Y-158790000D01*
X49850000Y-158795000D02*
X53045000Y-158795000D01*
%TO.N,K1-*%
X21950000Y-157900000D02*
X21920000Y-157870000D01*
X28030000Y-157900000D02*
X21950000Y-157900000D01*
X21920000Y-157870000D02*
X20350000Y-157870000D01*
%TO.N,K2-*%
X62860000Y-157830000D02*
X62880000Y-157810000D01*
X56660000Y-157830000D02*
X62860000Y-157830000D01*
X56650000Y-157840000D02*
X56660000Y-157830000D01*
X55050000Y-157840000D02*
X56650000Y-157840000D01*
%TO.N,Net-(C19-Pad1)*%
X160140000Y-158760000D02*
X160200000Y-158820000D01*
X156570000Y-158760000D02*
X160140000Y-158760000D01*
X163330000Y-158820000D02*
X163340000Y-158810000D01*
X160200000Y-158820000D02*
X163330000Y-158820000D01*
%TO.N,Net-(C20-Pad1)*%
X351070000Y-157880000D02*
X355130000Y-157880000D01*
X355130000Y-157880000D02*
X356090000Y-158840000D01*
X358470000Y-158840000D02*
X358520000Y-158790000D01*
X356090000Y-158840000D02*
X358470000Y-158840000D01*
%TO.N,K3-*%
X91190000Y-157830000D02*
X91130000Y-157890000D01*
X92970000Y-157830000D02*
X91190000Y-157830000D01*
X98970000Y-157830000D02*
X99050000Y-157910000D01*
X92970000Y-157830000D02*
X98970000Y-157830000D01*
%TO.N,K4-*%
X125780000Y-157840000D02*
X125750000Y-157870000D01*
X127370000Y-157840000D02*
X125780000Y-157840000D01*
X133720000Y-157840000D02*
X133780000Y-157900000D01*
X127370000Y-157840000D02*
X133720000Y-157840000D01*
%TO.N,K5-*%
X215180000Y-157840000D02*
X215150000Y-157870000D01*
X216860000Y-157840000D02*
X215180000Y-157840000D01*
X216860000Y-157840000D02*
X223250000Y-157840000D01*
%TO.N,K6-*%
X250190000Y-157870000D02*
X250160000Y-157840000D01*
X251830000Y-157870000D02*
X250190000Y-157870000D01*
X258625000Y-157870000D02*
X258665000Y-157910000D01*
X251830000Y-157870000D02*
X258625000Y-157870000D01*
%TO.N,K7-*%
X285830000Y-157840000D02*
X285810000Y-157860000D01*
X287330000Y-157840000D02*
X285830000Y-157840000D01*
X293600000Y-157840000D02*
X293620000Y-157820000D01*
X287330000Y-157840000D02*
X293600000Y-157840000D01*
%TO.N,K8-*%
X319630000Y-157890000D02*
X319610000Y-157910000D01*
X321170000Y-157890000D02*
X319630000Y-157890000D01*
X327530000Y-157890000D02*
X327540000Y-157880000D01*
X321170000Y-157890000D02*
X327530000Y-157890000D01*
%TO.N,K9-*%
X20430000Y-140950000D02*
X20420000Y-140960000D01*
X22030000Y-140950000D02*
X20430000Y-140950000D01*
X28060000Y-140950000D02*
X28110000Y-141000000D01*
X22030000Y-140950000D02*
X28060000Y-140950000D01*
%TO.N,K10-*%
X56680000Y-140970000D02*
X55220000Y-140970000D01*
X62670000Y-140970000D02*
X62770000Y-140870000D01*
X56680000Y-140970000D02*
X62670000Y-140970000D01*
%TO.N,K11-*%
X91320000Y-140940000D02*
X91290000Y-140970000D01*
X92960000Y-140940000D02*
X91320000Y-140940000D01*
X99100000Y-140940000D02*
X99120000Y-140920000D01*
X92960000Y-140940000D02*
X99100000Y-140940000D01*
%TO.N,K12-*%
X127380000Y-140960000D02*
X133570000Y-140960000D01*
X125580000Y-140960000D02*
X125570000Y-140970000D01*
X127380000Y-140960000D02*
X125580000Y-140960000D01*
%TO.N,K13-*%
X215460000Y-140930000D02*
X215400000Y-140990000D01*
X217040000Y-140930000D02*
X215460000Y-140930000D01*
X223280000Y-140930000D02*
X223310000Y-140960000D01*
X217040000Y-140930000D02*
X223280000Y-140930000D01*
%TO.N,K14-*%
X250660000Y-140940000D02*
X250640000Y-140960000D01*
X252080000Y-140940000D02*
X250660000Y-140940000D01*
X258420000Y-140940000D02*
X258440000Y-140960000D01*
X252080000Y-140940000D02*
X258420000Y-140940000D01*
%TO.N,K15-*%
X285580000Y-140940000D02*
X285520000Y-141000000D01*
X287300000Y-140940000D02*
X285580000Y-140940000D01*
X293440000Y-140940000D02*
X293470000Y-140970000D01*
X287300000Y-140940000D02*
X293440000Y-140940000D01*
%TO.N,K16-*%
X319450000Y-140960000D02*
X319440000Y-140950000D01*
X321040000Y-140960000D02*
X319450000Y-140960000D01*
X327700000Y-140960000D02*
X327710000Y-140970000D01*
X321040000Y-140960000D02*
X327700000Y-140960000D01*
%TO.N,K17-*%
X165540000Y-140960000D02*
X165530000Y-140970000D01*
X167120000Y-140960000D02*
X165540000Y-140960000D01*
X173670000Y-140960000D02*
X173720000Y-141010000D01*
X167120000Y-140960000D02*
X173670000Y-140960000D01*
%TO.N,K18-*%
X368410000Y-140980000D02*
X368420000Y-140970000D01*
X361760000Y-140980000D02*
X368410000Y-140980000D01*
X361760000Y-140980000D02*
X359720000Y-140980000D01*
%TO.N,K19-*%
X165390000Y-157810000D02*
X165340000Y-157860000D01*
X167480000Y-157810000D02*
X165390000Y-157810000D01*
X173520000Y-157810000D02*
X173590000Y-157880000D01*
X167480000Y-157810000D02*
X173520000Y-157810000D01*
%TO.N,K20-*%
X360560000Y-157800000D02*
X360520000Y-157840000D01*
X362170000Y-157800000D02*
X360560000Y-157800000D01*
X368370000Y-157800000D02*
X368450000Y-157880000D01*
X362170000Y-157800000D02*
X368370000Y-157800000D01*
D25*
%TO.N,I2C_SCK*%
X243700000Y-108210000D02*
X243700000Y-111980000D01*
X350210000Y-111945010D02*
X350140000Y-112015010D01*
X350210000Y-108210000D02*
X350210000Y-111945010D01*
X139175000Y-107975000D02*
X139175000Y-114375000D01*
X144960000Y-102190000D02*
X139175000Y-107975000D01*
X148560000Y-102190000D02*
X144960000Y-102190000D01*
%TO.N,MCP2.15*%
X218300000Y-95630000D02*
X218300000Y-100590000D01*
X220060000Y-93870000D02*
X218300000Y-95630000D01*
X280500000Y-93870000D02*
X220060000Y-93870000D01*
X294630000Y-108000000D02*
X280500000Y-93870000D01*
X294630000Y-159090000D02*
X294630000Y-108000000D01*
X282820000Y-170900000D02*
X294630000Y-159090000D01*
X282820000Y-177967500D02*
X282820000Y-170900000D01*
%TO.N,MCP3.3*%
X317800000Y-170250000D02*
X317800000Y-177987500D01*
X328870000Y-159180000D02*
X317800000Y-170250000D01*
X328870000Y-121340000D02*
X328870000Y-159180000D01*
X327350000Y-119820000D02*
X328870000Y-121340000D01*
X327350000Y-108210000D02*
X327350000Y-119820000D01*
%TO.N,MCP1.15*%
X122780000Y-171210000D02*
X122780000Y-177917500D01*
X134910000Y-159080000D02*
X122780000Y-171210000D01*
X134910000Y-119740000D02*
X134910000Y-159080000D01*
X72470000Y-94140000D02*
X109310000Y-94140000D01*
X109310000Y-94140000D02*
X134910000Y-119740000D01*
X66020000Y-100590000D02*
X72470000Y-94140000D01*
%TO.N,MCP2.7*%
X224750000Y-158810000D02*
X212810000Y-170750000D01*
X224750000Y-117250000D02*
X224750000Y-158810000D01*
X212810000Y-170750000D02*
X212810000Y-177937500D01*
X230980000Y-111020000D02*
X224750000Y-117250000D01*
X230980000Y-108230000D02*
X230980000Y-111020000D01*
X231000000Y-108210000D02*
X230980000Y-108230000D01*
%TO.N,MCP2.11*%
X228460000Y-98350000D02*
X228460000Y-100590000D01*
X256000000Y-96990000D02*
X229820000Y-96990000D01*
X229820000Y-96990000D02*
X228460000Y-98350000D01*
X259640000Y-100630000D02*
X256000000Y-96990000D01*
X259640000Y-159600000D02*
X259640000Y-100630000D01*
X247770000Y-171470000D02*
X259640000Y-159600000D01*
X247770000Y-177797500D02*
X247770000Y-171470000D01*
%TO.N,MCP2.16*%
X287850000Y-167690000D02*
X287850000Y-177997500D01*
X295560000Y-159980000D02*
X287850000Y-167690000D01*
X295560000Y-107220000D02*
X295560000Y-159980000D01*
X281400000Y-93060000D02*
X295560000Y-107220000D01*
X217430000Y-93060000D02*
X281400000Y-93060000D01*
X215760000Y-94730000D02*
X217430000Y-93060000D01*
X215760000Y-100590000D02*
X215760000Y-94730000D01*
%TO.N,MCP1.3*%
X68560000Y-108210000D02*
X68560000Y-108660000D01*
X68560000Y-108660000D02*
X63280000Y-113940000D01*
X31600000Y-113940000D02*
X29350000Y-116190000D01*
X63280000Y-113940000D02*
X31600000Y-113940000D01*
X29350000Y-116190000D02*
X29350000Y-158470000D01*
X29350000Y-158470000D02*
X17790000Y-170030000D01*
X17790000Y-170030000D02*
X17790000Y-177957500D01*
%TO.N,MCP1.7*%
X77880000Y-113470000D02*
X78720000Y-112630000D01*
X52810000Y-170250000D02*
X64080000Y-158980000D01*
X52810000Y-177977500D02*
X52810000Y-170250000D01*
X64080000Y-158980000D02*
X64080000Y-117000000D01*
X64080000Y-117000000D02*
X67610000Y-113470000D01*
X67610000Y-113470000D02*
X77880000Y-113470000D01*
X78720000Y-112630000D02*
X78720000Y-108210000D01*
%TO.N,MCP3.4*%
X329870000Y-112960000D02*
X329880000Y-112950000D01*
X322920000Y-166580000D02*
X329870000Y-159630000D01*
X322920000Y-178017500D02*
X322920000Y-166580000D01*
X329890000Y-108210000D02*
X329890000Y-119860000D01*
X329870000Y-119880000D02*
X329870000Y-112960000D01*
X329890000Y-119860000D02*
X329870000Y-119880000D01*
X329870000Y-159630000D02*
X329870000Y-119880000D01*
%TO.N,MCP1.16*%
X70670000Y-93400000D02*
X63480000Y-100590000D01*
X109950000Y-93400000D02*
X70670000Y-93400000D01*
X135770000Y-119220000D02*
X109950000Y-93400000D01*
X135770000Y-159460000D02*
X135770000Y-119220000D01*
X127890000Y-167340000D02*
X135770000Y-159460000D01*
X127890000Y-177837500D02*
X127890000Y-167340000D01*
%TO.N,MCP2.8*%
X217870000Y-167480000D02*
X217870000Y-177927500D01*
X225480000Y-159870000D02*
X217870000Y-167480000D01*
X225480000Y-117440000D02*
X225480000Y-159870000D01*
X233550000Y-109370000D02*
X225480000Y-117440000D01*
X233550000Y-108220000D02*
X233550000Y-109370000D01*
X233540000Y-108210000D02*
X233550000Y-108220000D01*
%TO.N,MCP1.8*%
X81200000Y-112910000D02*
X81200000Y-108270000D01*
X67940000Y-114200000D02*
X79910000Y-114200000D01*
X64920000Y-159280000D02*
X64920000Y-117220000D01*
X57960000Y-166240000D02*
X64920000Y-159280000D01*
X81200000Y-108270000D02*
X81260000Y-108210000D01*
X79910000Y-114200000D02*
X81200000Y-112910000D01*
X64920000Y-117220000D02*
X67940000Y-114200000D01*
X57960000Y-166250000D02*
X57960000Y-166240000D01*
X57860000Y-166350000D02*
X57960000Y-166250000D01*
X57860000Y-178027500D02*
X57860000Y-166350000D01*
%TO.N,MCP1.11*%
X76180000Y-99140000D02*
X76180000Y-100590000D01*
X78250000Y-97070000D02*
X76180000Y-99140000D01*
X98010000Y-97070000D02*
X78250000Y-97070000D01*
X100390000Y-99450000D02*
X98010000Y-97070000D01*
X100390000Y-159380000D02*
X100390000Y-99450000D01*
X87850000Y-171920000D02*
X100390000Y-159380000D01*
X87850000Y-177967500D02*
X87850000Y-171920000D01*
%TO.N,MCP1.12*%
X77820000Y-96410000D02*
X73640000Y-100590000D01*
X98420000Y-96410000D02*
X77820000Y-96410000D01*
X101290000Y-159860000D02*
X101290000Y-99280000D01*
X92870000Y-168280000D02*
X101290000Y-159860000D01*
X101290000Y-99280000D02*
X98420000Y-96410000D01*
X92870000Y-177967500D02*
X92870000Y-168280000D01*
%TO.N,MCP2.12*%
X260540000Y-160960000D02*
X252900000Y-168600000D01*
X260540000Y-100320000D02*
X260540000Y-160960000D01*
X256430000Y-96210000D02*
X260540000Y-100320000D01*
X227210000Y-96210000D02*
X256430000Y-96210000D01*
X252900000Y-168600000D02*
X252900000Y-178027500D01*
X225920000Y-97500000D02*
X227210000Y-96210000D01*
X225920000Y-100590000D02*
X225920000Y-97500000D01*
%TO.N,MCP1.4*%
X71100000Y-108210000D02*
X71100000Y-110470000D01*
X71100000Y-110470000D02*
X69979989Y-111590011D01*
X69979989Y-111590011D02*
X66969989Y-111590011D01*
X66969989Y-111590011D02*
X63810000Y-114750000D01*
X63810000Y-114750000D02*
X31850000Y-114750000D01*
X31850000Y-114750000D02*
X30280000Y-116320000D01*
X30280000Y-116320000D02*
X30280000Y-158480000D01*
X30280000Y-158480000D02*
X22880000Y-165880000D01*
X22880000Y-165880000D02*
X22880000Y-177927500D01*
%TO.N,MCP2.3*%
X174660000Y-160690000D02*
X181864000Y-167894000D01*
X174660000Y-116010000D02*
X174660000Y-160690000D01*
X220840000Y-110250000D02*
X219890000Y-111200000D01*
X220840000Y-108210000D02*
X220840000Y-110250000D01*
X181864000Y-167894000D02*
X181864000Y-177800000D01*
X219890000Y-111200000D02*
X179470000Y-111200000D01*
X179470000Y-111200000D02*
X174660000Y-116010000D01*
%TO.N,MCP3.7*%
X337510000Y-114660000D02*
X337510000Y-108210000D01*
X364730000Y-115520000D02*
X338370000Y-115520000D01*
X369760000Y-120550000D02*
X364730000Y-115520000D01*
X338370000Y-115520000D02*
X337510000Y-114660000D01*
X369760000Y-160210000D02*
X369760000Y-120550000D01*
X376682000Y-167132000D02*
X369760000Y-160210000D01*
X376682000Y-178177000D02*
X376682000Y-167132000D01*
%TO.N,MCP2.4*%
X186944000Y-177800000D02*
X186944000Y-171436214D01*
X175713893Y-116010462D02*
X175713893Y-160206107D01*
X186944000Y-171436214D02*
X175713893Y-160206107D01*
X179754355Y-111970000D02*
X175713893Y-116010462D01*
X223380000Y-108210000D02*
X223380000Y-110620000D01*
X222030000Y-111970000D02*
X179754355Y-111970000D01*
X223380000Y-110620000D02*
X222030000Y-111970000D01*
%TO.N,MCP3.8*%
X365130000Y-114750000D02*
X370630000Y-120250000D01*
X341160000Y-114750000D02*
X365130000Y-114750000D01*
X370630000Y-120250000D02*
X370630000Y-159920000D01*
X340050000Y-113640000D02*
X341160000Y-114750000D01*
X340050000Y-108210000D02*
X340050000Y-113640000D01*
X381762000Y-171052000D02*
X381762000Y-178177000D01*
X370630000Y-159920000D02*
X381762000Y-171052000D01*
%TO.N,MCP1.2*%
X15275000Y-147155000D02*
X16360000Y-147155000D01*
X14300000Y-114850000D02*
X14300000Y-146180000D01*
X14300000Y-146180000D02*
X15275000Y-147155000D01*
X61870000Y-113140000D02*
X16010000Y-113140000D01*
X16010000Y-113140000D02*
X14300000Y-114850000D01*
X66020000Y-108990000D02*
X61870000Y-113140000D01*
X66020000Y-108210000D02*
X66020000Y-108990000D01*
%TO.N,MCP2.6*%
X206520000Y-122060000D02*
X206510000Y-122070000D01*
X206520000Y-121310000D02*
X206520000Y-122060000D01*
X214360000Y-113470000D02*
X206520000Y-121310000D01*
X226310000Y-113470000D02*
X214360000Y-113470000D01*
X206510000Y-122070000D02*
X206510000Y-139095000D01*
X228460000Y-111320000D02*
X226310000Y-113470000D01*
X228460000Y-108210000D02*
X228460000Y-111320000D01*
%TO.N,MCP1.1*%
X13380000Y-155227500D02*
X14040000Y-155887500D01*
X13380000Y-114295000D02*
X13380000Y-155227500D01*
X15345000Y-112330000D02*
X13380000Y-114295000D01*
X59360000Y-112330000D02*
X15345000Y-112330000D01*
X63480000Y-108210000D02*
X59360000Y-112330000D01*
%TO.N,MCP2.5*%
X225920000Y-110900000D02*
X225920000Y-108210000D01*
X224090000Y-112730000D02*
X225920000Y-110900000D01*
X213830000Y-112730000D02*
X224090000Y-112730000D01*
X204030000Y-122530000D02*
X213830000Y-112730000D01*
X204030000Y-143120000D02*
X204030000Y-122530000D01*
X205720000Y-144850000D02*
X205740000Y-144830000D01*
X205740000Y-144830000D02*
X204030000Y-143120000D01*
X205720000Y-154485000D02*
X205720000Y-144850000D01*
%TO.N,MCP1.6*%
X74990000Y-112800000D02*
X76180000Y-111610000D01*
X67430000Y-112800000D02*
X74990000Y-112800000D01*
X64040000Y-116190000D02*
X67430000Y-112800000D01*
X47940000Y-116190000D02*
X64040000Y-116190000D01*
X46670000Y-117460000D02*
X47940000Y-116190000D01*
X76180000Y-111610000D02*
X76180000Y-108210000D01*
X46670000Y-138250000D02*
X46670000Y-117460000D01*
X46430000Y-138490000D02*
X46670000Y-138250000D01*
X46430000Y-138977500D02*
X46430000Y-138490000D01*
%TO.N,MCP2.10*%
X241910000Y-120550000D02*
X241910000Y-139005000D01*
X251670000Y-110790000D02*
X241910000Y-120550000D01*
X251670000Y-98610000D02*
X251670000Y-110790000D01*
X250740000Y-97680000D02*
X251670000Y-98610000D01*
X231660000Y-97680000D02*
X250740000Y-97680000D01*
X231000000Y-98340000D02*
X231660000Y-97680000D01*
X231000000Y-100590000D02*
X231000000Y-98340000D01*
%TO.N,MCP1.5*%
X73640000Y-108210000D02*
X73640000Y-111600000D01*
X67240000Y-112130000D02*
X63920000Y-115450000D01*
X73640000Y-111600000D02*
X73110000Y-112130000D01*
X73110000Y-112130000D02*
X67240000Y-112130000D01*
X63920000Y-115450000D02*
X45380000Y-115450000D01*
X45380000Y-115450000D02*
X44150000Y-116680000D01*
X44150000Y-116680000D02*
X44150000Y-142490000D01*
X44150000Y-142490000D02*
X45607500Y-143947500D01*
X45607500Y-143947500D02*
X45607500Y-155292500D01*
X45607500Y-155292500D02*
X46170000Y-155855000D01*
%TO.N,MCP2.9*%
X233540000Y-99000000D02*
X233540000Y-100590000D01*
X234110000Y-98430000D02*
X233540000Y-99000000D01*
X250370000Y-98430000D02*
X234110000Y-98430000D01*
X250920000Y-98980000D02*
X250370000Y-98430000D01*
X250920000Y-110330000D02*
X250920000Y-98980000D01*
X240350000Y-120900000D02*
X250920000Y-110330000D01*
X240350000Y-143840000D02*
X240350000Y-120900000D01*
X241350000Y-144840000D02*
X240350000Y-143840000D01*
X241350000Y-155895000D02*
X241350000Y-144840000D01*
%TO.N,MCP1.10*%
X78720000Y-98373590D02*
X78720000Y-100590000D01*
X79323590Y-97770000D02*
X78720000Y-98373590D01*
X97560000Y-97770000D02*
X79323590Y-97770000D01*
X99280000Y-110670000D02*
X99280000Y-99490000D01*
X97600000Y-112350000D02*
X99280000Y-110670000D01*
X85085000Y-112350000D02*
X97600000Y-112350000D01*
X82560000Y-114875000D02*
X85085000Y-112350000D01*
X99280000Y-99490000D02*
X97560000Y-97770000D01*
X82560000Y-139025000D02*
X82560000Y-114875000D01*
%TO.N,MCP2.14*%
X276660000Y-108250000D02*
X276660000Y-138975000D01*
X263120000Y-94710000D02*
X276660000Y-108250000D01*
X222420000Y-94710000D02*
X263120000Y-94710000D01*
X220840000Y-96290000D02*
X222420000Y-94710000D01*
X220840000Y-100590000D02*
X220840000Y-96290000D01*
%TO.N,MCP1.9*%
X81260000Y-99290000D02*
X81260000Y-100590000D01*
X82120000Y-98430000D02*
X81260000Y-99290000D01*
X97290000Y-98430000D02*
X82120000Y-98430000D01*
X98540000Y-110320000D02*
X98540000Y-99680000D01*
X98540000Y-99680000D02*
X97290000Y-98430000D01*
X80580000Y-115260000D02*
X84190000Y-111650000D01*
X84190000Y-111650000D02*
X97210000Y-111650000D01*
X80580000Y-143660000D02*
X80580000Y-115260000D01*
X82350000Y-145430000D02*
X80580000Y-143660000D01*
X97210000Y-111650000D02*
X98540000Y-110320000D01*
X82350000Y-155895000D02*
X82350000Y-145430000D01*
%TO.N,MCP2.13*%
X277020000Y-145590000D02*
X277020000Y-155925000D01*
X274875000Y-143445000D02*
X277020000Y-145590000D01*
X274875000Y-107575000D02*
X274875000Y-143445000D01*
X262740000Y-95440000D02*
X274875000Y-107575000D01*
X224640000Y-95440000D02*
X262740000Y-95440000D01*
X223380000Y-96700000D02*
X224640000Y-95440000D01*
X223380000Y-100590000D02*
X223380000Y-96700000D01*
%TO.N,MCP2.2*%
X156810000Y-114740000D02*
X156810000Y-138975000D01*
X161100000Y-110450000D02*
X156810000Y-114740000D01*
X218300000Y-109540000D02*
X217390000Y-110450000D01*
X218300000Y-108210000D02*
X218300000Y-109540000D01*
X217390000Y-110450000D02*
X161100000Y-110450000D01*
%TO.N,MCP1.14*%
X99490000Y-94910000D02*
X74240000Y-94910000D01*
X74240000Y-94910000D02*
X68560000Y-100590000D01*
X116940000Y-112360000D02*
X99490000Y-94910000D01*
X116940000Y-138965000D02*
X116940000Y-112360000D01*
%TO.N,MCP3.2*%
X310550000Y-111700000D02*
X310550000Y-138965000D01*
X311960000Y-110290000D02*
X310550000Y-111700000D01*
X324180000Y-110290000D02*
X311960000Y-110290000D01*
X324810000Y-109660000D02*
X324180000Y-110290000D01*
X324810000Y-108210000D02*
X324810000Y-109660000D01*
%TO.N,MCP1.13*%
X114220000Y-143520000D02*
X116800000Y-146100000D01*
X114220000Y-110950000D02*
X114220000Y-143520000D01*
X116800000Y-146100000D02*
X116800000Y-155875000D01*
X98910000Y-95640000D02*
X114220000Y-110950000D01*
X75640000Y-95640000D02*
X98910000Y-95640000D01*
X71100000Y-100180000D02*
X75640000Y-95640000D01*
X71100000Y-100590000D02*
X71100000Y-100180000D01*
%TO.N,MCP3.1*%
X309590000Y-108210000D02*
X322270000Y-108210000D01*
X308950000Y-108850000D02*
X309590000Y-108210000D01*
X308950000Y-154005000D02*
X308950000Y-108850000D01*
X310870000Y-155925000D02*
X308950000Y-154005000D01*
%TO.N,MCP3.6*%
X350470000Y-119300000D02*
X350470000Y-139035000D01*
X347430000Y-116260000D02*
X350470000Y-119300000D01*
X335850000Y-116260000D02*
X347430000Y-116260000D01*
X334970000Y-115380000D02*
X335850000Y-116260000D01*
X334970000Y-108210000D02*
X334970000Y-115380000D01*
%TO.N,MCP2.1*%
X153710000Y-116020000D02*
X159980000Y-109750000D01*
X153710000Y-152975000D02*
X153710000Y-116020000D01*
X214220000Y-109750000D02*
X215760000Y-108210000D01*
X159980000Y-109750000D02*
X214220000Y-109750000D01*
X156570000Y-155835000D02*
X153710000Y-152975000D01*
%TO.N,MCP3.5*%
X351070000Y-146090000D02*
X351070000Y-154955000D01*
X348380000Y-143400000D02*
X351070000Y-146090000D01*
X347020000Y-117090000D02*
X348380000Y-118450000D01*
X348380000Y-118450000D02*
X348380000Y-143400000D01*
X333860000Y-117090000D02*
X347020000Y-117090000D01*
X332430000Y-115660000D02*
X333860000Y-117090000D01*
X332430000Y-108210000D02*
X332430000Y-115660000D01*
D24*
%TO.N,K1+*%
X31460000Y-140950000D02*
X31410000Y-141000000D01*
X38330000Y-140950000D02*
X31460000Y-140950000D01*
X31390000Y-157840000D02*
X31330000Y-157900000D01*
X38240000Y-157840000D02*
X31390000Y-157840000D01*
X66100000Y-140900000D02*
X66070000Y-140870000D01*
X73000000Y-140900000D02*
X66100000Y-140900000D01*
X66180000Y-157810000D02*
X72900000Y-157810000D01*
X72900000Y-157810000D02*
X72910000Y-157820000D01*
X31330000Y-141080000D02*
X31410000Y-141000000D01*
X31330000Y-157900000D02*
X31330000Y-141080000D01*
X66180000Y-140980000D02*
X66070000Y-140870000D01*
X66180000Y-157810000D02*
X66180000Y-140980000D01*
X102350000Y-140990000D02*
X102420000Y-140920000D01*
X102350000Y-157910000D02*
X102350000Y-140990000D01*
X102400000Y-157860000D02*
X102350000Y-157910000D01*
X109270000Y-157860000D02*
X102400000Y-157860000D01*
X109310000Y-140920000D02*
X102420000Y-140920000D01*
X137090000Y-157890000D02*
X137080000Y-157900000D01*
X143750000Y-157890000D02*
X137090000Y-157890000D01*
X136880000Y-140970000D02*
X136870000Y-140960000D01*
X143810000Y-140970000D02*
X136880000Y-140970000D01*
X136850000Y-140980000D02*
X136870000Y-140960000D01*
X136850000Y-157670000D02*
X136850000Y-140980000D01*
X137080000Y-157900000D02*
X136850000Y-157670000D01*
X177070000Y-140960000D02*
X177020000Y-141010000D01*
X183750000Y-140960000D02*
X177070000Y-140960000D01*
X176930000Y-157840000D02*
X176890000Y-157880000D01*
X183790000Y-157840000D02*
X176930000Y-157840000D01*
X177020000Y-157750000D02*
X176890000Y-157880000D01*
X177020000Y-141010000D02*
X177020000Y-157750000D01*
X226570000Y-157820000D02*
X226550000Y-157840000D01*
X233490000Y-157820000D02*
X226570000Y-157820000D01*
X226550000Y-141020000D02*
X226610000Y-140960000D01*
X226550000Y-157840000D02*
X226550000Y-141020000D01*
X226620000Y-140950000D02*
X226610000Y-140960000D01*
X233560000Y-140950000D02*
X226620000Y-140950000D01*
X226610000Y-118320000D02*
X226570000Y-118280000D01*
X226610000Y-140960000D02*
X226610000Y-118320000D01*
X261760000Y-140940000D02*
X261740000Y-140960000D01*
X268570000Y-140940000D02*
X261760000Y-140940000D01*
X261740000Y-157685000D02*
X261965000Y-157910000D01*
X261740000Y-140960000D02*
X261740000Y-157685000D01*
X262005000Y-157870000D02*
X261965000Y-157910000D01*
X268430000Y-157870000D02*
X262005000Y-157870000D01*
X261740000Y-118310000D02*
X261770000Y-118280000D01*
X261740000Y-140960000D02*
X261740000Y-118310000D01*
X296780000Y-140960000D02*
X296770000Y-140970000D01*
X303570000Y-140960000D02*
X296780000Y-140960000D01*
X296770000Y-157670000D02*
X296920000Y-157820000D01*
X296770000Y-140970000D02*
X296770000Y-157670000D01*
X296770000Y-118390000D02*
X296660000Y-118280000D01*
X296770000Y-140970000D02*
X296770000Y-118390000D01*
X296960000Y-157860000D02*
X296920000Y-157820000D01*
X303550000Y-157860000D02*
X296960000Y-157860000D01*
X330850000Y-157890000D02*
X330840000Y-157880000D01*
X338000000Y-157890000D02*
X330850000Y-157890000D01*
X330840000Y-141140000D02*
X331010000Y-140970000D01*
X330840000Y-157880000D02*
X330840000Y-141140000D01*
X331020000Y-140960000D02*
X331010000Y-140970000D01*
X338060000Y-140960000D02*
X331020000Y-140960000D01*
X371730000Y-140980000D02*
X371720000Y-140970000D01*
X378460000Y-140980000D02*
X371730000Y-140980000D01*
X371720000Y-118310000D02*
X371690000Y-118280000D01*
X371720000Y-140970000D02*
X371720000Y-118310000D01*
X371720000Y-157850000D02*
X371750000Y-157880000D01*
X371720000Y-140970000D02*
X371720000Y-157850000D01*
X378550000Y-157880000D02*
X371750000Y-157880000D01*
X331010000Y-140970000D02*
X331010000Y-118300002D01*
X331010000Y-118300002D02*
X330989998Y-118280000D01*
X228920000Y-118280000D02*
X226570000Y-118280000D01*
X236080000Y-111120000D02*
X228920000Y-118280000D01*
X236080000Y-105500000D02*
X236080000Y-111120000D01*
X342590000Y-108210000D02*
X342590000Y-113370000D01*
X246240000Y-104450000D02*
X246240000Y-100590000D01*
X245190000Y-105500000D02*
X246240000Y-104450000D01*
X236080000Y-105500000D02*
X245190000Y-105500000D01*
X177020000Y-117710000D02*
X177100000Y-117630000D01*
X177020000Y-141010000D02*
X177020000Y-117710000D01*
X136870000Y-140960000D02*
X136870000Y-117650000D01*
X136870000Y-117650000D02*
X136890000Y-117630000D01*
X120180000Y-111120000D02*
X120180000Y-117610000D01*
X120180000Y-117610000D02*
X120160000Y-117630000D01*
X102420000Y-140920000D02*
X102420000Y-117630000D01*
X66070000Y-117690000D02*
X66070000Y-120250000D01*
X66070000Y-140870000D02*
X66070000Y-120250000D01*
X31410000Y-141000000D02*
X31410000Y-120280000D01*
X31410000Y-120280000D02*
X31410000Y-117690000D01*
X31410000Y-117690000D02*
X31420000Y-117680000D01*
X355290000Y-104085000D02*
X355290000Y-100590000D01*
X354725000Y-104650000D02*
X355290000Y-104085000D01*
X343375000Y-104650000D02*
X354725000Y-104650000D01*
X342590000Y-105435000D02*
X343375000Y-104650000D01*
X342590000Y-108210000D02*
X342590000Y-105435000D01*
%TO.N,Phantom_48V_GND*%
X194700000Y-106790000D02*
X194730000Y-106760000D01*
X158720000Y-106790000D02*
X194700000Y-106790000D01*
X194760000Y-156788700D02*
X194741800Y-156806900D01*
X194760000Y-112695000D02*
X194760000Y-156788700D01*
%TO.N,Phantom_48V*%
X362280000Y-121470000D02*
X362300000Y-121450000D01*
X362280000Y-127590000D02*
X362280000Y-121470000D01*
X373730000Y-96280000D02*
X356530000Y-96280000D01*
X378790000Y-101340000D02*
X373730000Y-96280000D01*
X378790000Y-121390000D02*
X378790000Y-101340000D01*
X378790000Y-127800000D02*
X378790000Y-121390000D01*
X183820000Y-116320000D02*
X183810000Y-116310000D01*
X183760000Y-127677500D02*
X183760000Y-116360000D01*
X183760000Y-116360000D02*
X183810000Y-116310000D01*
X165370000Y-96310000D02*
X208130000Y-96310000D01*
X153280000Y-104770000D02*
X161580000Y-104770000D01*
X163300000Y-98380000D02*
X165370000Y-96310000D01*
X163300000Y-103050000D02*
X163300000Y-98380000D01*
X161580000Y-104770000D02*
X163300000Y-103050000D01*
X152770000Y-105280000D02*
X153280000Y-104770000D01*
X166900000Y-127655000D02*
X166900000Y-116360000D01*
X166900000Y-116360000D02*
X166950000Y-116310000D01*
X153640000Y-102190000D02*
X153640000Y-104400000D01*
X153640000Y-104400000D02*
X150700000Y-107340000D01*
X150700000Y-107340000D02*
X150700000Y-116310000D01*
%TO.N,Net-(K5-Pad3)*%
X183760000Y-135810000D02*
X183820000Y-135870000D01*
X183760000Y-130602500D02*
X183760000Y-135810000D01*
%TO.N,Net-(K5-Pad8)*%
X166860000Y-130620000D02*
X166900000Y-130580000D01*
X166860000Y-135920000D02*
X166860000Y-130620000D01*
%TO.N,Net-(K10-Pad3)*%
X378760000Y-130755000D02*
X378790000Y-130725000D01*
X378760000Y-135880000D02*
X378760000Y-130755000D01*
%TO.N,Net-(K10-Pad8)*%
X362000000Y-130795000D02*
X362280000Y-130515000D01*
X362000000Y-135850000D02*
X362000000Y-130795000D01*
%TD*%
M02*
