%TF.GenerationSoftware,KiCad,Pcbnew,(5.1.9)-1*%
%TF.CreationDate,2021-03-27T08:43:11+01:00*%
%TF.ProjectId,Microcontroller,4d696372-6f63-46f6-9e74-726f6c6c6572,rev?*%
%TF.SameCoordinates,Original*%
%TF.FileFunction,Soldermask,Bot*%
%TF.FilePolarity,Negative*%
%FSLAX46Y46*%
G04 Gerber Fmt 4.6, Leading zero omitted, Abs format (unit mm)*
G04 Created by KiCad (PCBNEW (5.1.9)-1) date 2021-03-27 08:43:11*
%MOMM*%
%LPD*%
G01*
G04 APERTURE LIST*
%ADD10R,1.160000X1.160000*%
%ADD11C,1.160000*%
%ADD12C,1.800000*%
%ADD13R,1.800000X1.800000*%
%ADD14C,1.524000*%
%ADD15C,3.352800*%
%ADD16C,1.600000*%
%ADD17R,1.600000X1.600000*%
%ADD18C,4.000000*%
%ADD19C,1.016000*%
%ADD20O,1.727200X1.727200*%
%ADD21R,1.727200X1.727200*%
%ADD22O,1.600000X1.600000*%
G04 APERTURE END LIST*
%TO.C,R11*%
G36*
G01*
X217754500Y-149469001D02*
X217754500Y-148218999D01*
G75*
G02*
X218004499Y-147969000I249999J0D01*
G01*
X218629501Y-147969000D01*
G75*
G02*
X218879500Y-148218999I0J-249999D01*
G01*
X218879500Y-149469001D01*
G75*
G02*
X218629501Y-149719000I-249999J0D01*
G01*
X218004499Y-149719000D01*
G75*
G02*
X217754500Y-149469001I0J249999D01*
G01*
G37*
G36*
G01*
X214829500Y-149469001D02*
X214829500Y-148218999D01*
G75*
G02*
X215079499Y-147969000I249999J0D01*
G01*
X215704501Y-147969000D01*
G75*
G02*
X215954500Y-148218999I0J-249999D01*
G01*
X215954500Y-149469001D01*
G75*
G02*
X215704501Y-149719000I-249999J0D01*
G01*
X215079499Y-149719000D01*
G75*
G02*
X214829500Y-149469001I0J249999D01*
G01*
G37*
%TD*%
D10*
%TO.C,IC1*%
X188520000Y-135350000D03*
D11*
X191060000Y-135350000D03*
X193600000Y-135350000D03*
X196140000Y-135350000D03*
X198680000Y-135350000D03*
X201220000Y-135350000D03*
X203760000Y-135350000D03*
X206300000Y-135350000D03*
X206300000Y-127730000D03*
X203760000Y-127730000D03*
X201220000Y-127730000D03*
X198680000Y-127730000D03*
X196140000Y-127730000D03*
X193600000Y-127730000D03*
X191060000Y-127730000D03*
X188520000Y-127730000D03*
%TD*%
D12*
%TO.C,D1*%
X218186000Y-142494000D03*
D13*
X215646000Y-142494000D03*
%TD*%
D14*
%TO.C,J2*%
X66250000Y-146390000D03*
X66250000Y-148930000D03*
X68790000Y-146390000D03*
X68790000Y-148930000D03*
X71330000Y-146390000D03*
X71330000Y-148930000D03*
X73870000Y-146390000D03*
X73870000Y-148930000D03*
X76410000Y-146390000D03*
X76410000Y-148930000D03*
D15*
X57118700Y-147660000D03*
X85541300Y-147660000D03*
%TD*%
D14*
%TO.C,J1*%
X41590000Y-122570000D03*
X39050000Y-122570000D03*
X41590000Y-125110000D03*
X39050000Y-125110000D03*
X41590000Y-127650000D03*
X39050000Y-127650000D03*
X41590000Y-130190000D03*
X39050000Y-130190000D03*
X41590000Y-132730000D03*
X39050000Y-132730000D03*
D15*
X40320000Y-113438700D03*
X40320000Y-141861300D03*
%TD*%
D16*
%TO.C,C22*%
X184770000Y-143600000D03*
D17*
X182270000Y-143600000D03*
%TD*%
D16*
%TO.C,C21*%
X203330000Y-143490000D03*
D17*
X200830000Y-143490000D03*
%TD*%
D16*
%TO.C,C20*%
X197010000Y-143490000D03*
D17*
X194510000Y-143490000D03*
%TD*%
D16*
%TO.C,C19*%
X191030000Y-143550000D03*
D17*
X188530000Y-143550000D03*
%TD*%
D18*
%TO.C,J4*%
X182910000Y-112300000D03*
X207910000Y-112300000D03*
D16*
X191255000Y-109760000D03*
X194025000Y-109760000D03*
X196795000Y-109760000D03*
X199565000Y-109760000D03*
X189870000Y-112600000D03*
X192640000Y-112600000D03*
X195410000Y-112600000D03*
X198180000Y-112600000D03*
D17*
X200950000Y-112600000D03*
%TD*%
D18*
%TO.C,J3*%
X111710000Y-112280000D03*
X136710000Y-112280000D03*
D16*
X128365000Y-109740000D03*
X125595000Y-109740000D03*
X122825000Y-109740000D03*
X120055000Y-109740000D03*
X129750000Y-112580000D03*
X126980000Y-112580000D03*
X124210000Y-112580000D03*
X121440000Y-112580000D03*
D17*
X118670000Y-112580000D03*
%TD*%
D19*
%TO.C,XA1*%
X166300000Y-132000000D03*
X120580000Y-132000000D03*
X166300000Y-147240000D03*
D20*
X145980000Y-147240000D03*
X153600000Y-132000000D03*
D21*
X163760000Y-132000000D03*
D20*
X163760000Y-147240000D03*
X130740000Y-147240000D03*
X158680000Y-147240000D03*
X151060000Y-132000000D03*
X156140000Y-147240000D03*
X151060000Y-147240000D03*
X125660000Y-147240000D03*
X153600000Y-147240000D03*
X161220000Y-132000000D03*
X156140000Y-132000000D03*
X158680000Y-132000000D03*
X148520000Y-132000000D03*
X145980000Y-132000000D03*
X143440000Y-132000000D03*
X140900000Y-132000000D03*
X138360000Y-132000000D03*
X135820000Y-132000000D03*
X133280000Y-132000000D03*
X130740000Y-132000000D03*
X128200000Y-132000000D03*
D19*
X120580000Y-147240000D03*
D20*
X128200000Y-147240000D03*
X123120000Y-147240000D03*
X123120000Y-132000000D03*
X125660000Y-132000000D03*
X148520000Y-147240000D03*
X133280000Y-147240000D03*
X135820000Y-147240000D03*
X138360000Y-147240000D03*
X140900000Y-147240000D03*
X143440000Y-147240000D03*
X161220000Y-147240000D03*
%TD*%
D22*
%TO.C,SW2*%
X91830000Y-125850000D03*
X84210000Y-133470000D03*
X91830000Y-128390000D03*
X84210000Y-130930000D03*
X91830000Y-130930000D03*
X84210000Y-128390000D03*
X91830000Y-133470000D03*
D17*
X84210000Y-125850000D03*
%TD*%
D22*
%TO.C,SW1*%
X91820000Y-109440000D03*
X84200000Y-117060000D03*
X91820000Y-111980000D03*
X84200000Y-114520000D03*
X91820000Y-114520000D03*
X84200000Y-111980000D03*
X91820000Y-117060000D03*
D17*
X84200000Y-109440000D03*
%TD*%
M02*
