M48
; DRILL file {KiCad (5.1.9)-1} date 03/13/21 15:06:12
; FORMAT={-:-/ absolute / inch / decimal}
; #@! TF.CreationDate,2021-03-13T15:06:12+01:00
; #@! TF.GenerationSoftware,Kicad,Pcbnew,(5.1.9)-1
FMAT,2
INCH
T1C0.0157
T2C0.0299
T3C0.0315
T4C0.0394
T5C0.0400
T6C0.1120
T7C0.1260
T8C0.0400
%
G90
G05
T1
X1.4528Y-5.3409
X1.6209Y-5.3409
X1.8551Y-5.2299
X1.8571Y-5.0598
X2.0535Y-5.6413
X2.0551Y-5.2217
X2.5252Y-4.7945
X2.5256Y-5.374
X2.6079Y-5.3756
X2.6083Y-4.7941
X2.7083Y-5.3803
X2.7083Y-4.9264
X2.713Y-4.3744
X2.8087Y-5.0756
X2.8087Y-5.3815
X3.615Y-4.8205
X3.8693Y-4.7614
X3.8693Y-5.1232
X3.9496Y-5.128
X3.9508Y-4.7071
X5.9509Y-4.8231
X7.4327Y-4.7276
X7.622Y-4.7268
X7.722Y-4.6516
T2
X7.422Y-5.0287
X7.422Y-5.3287
X7.522Y-5.0287
X7.522Y-5.3287
X7.622Y-5.0287
X7.622Y-5.3287
X7.722Y-5.0287
X7.722Y-5.3287
X7.822Y-5.0287
X7.822Y-5.3287
X7.922Y-5.0287
X7.922Y-5.3287
X8.022Y-5.0287
X8.022Y-5.3287
X8.122Y-5.0287
X8.122Y-5.3287
T3
X3.315Y-4.3087
X3.315Y-4.4087
X3.315Y-4.5087
X3.315Y-4.6087
X3.3154Y-4.9547
X3.3154Y-5.0547
X3.3154Y-5.1547
X3.3154Y-5.2547
X3.615Y-4.3087
X3.615Y-4.4087
X3.615Y-4.5087
X3.615Y-4.6087
X3.6154Y-4.9547
X3.6154Y-5.0547
X3.6154Y-5.1547
X3.6154Y-5.2547
X7.176Y-5.6535
X7.2744Y-5.6535
X7.4224Y-5.6516
X7.5209Y-5.6516
X7.6579Y-5.6492
X7.7563Y-5.6492
X7.9067Y-5.6492
X8.0051Y-5.6492
T4
X4.672Y-4.4323
X4.7266Y-4.3205
X4.7811Y-4.4323
X4.8356Y-4.3205
X4.8902Y-4.4323
X4.9447Y-4.3205
X4.9992Y-4.4323
X5.0537Y-4.3205
X5.1083Y-4.4323
X7.4752Y-4.4331
X7.5297Y-4.3213
X7.5843Y-4.4331
X7.6388Y-4.3213
X7.6933Y-4.4331
X7.7478Y-4.3213
X7.8024Y-4.4331
X7.8569Y-4.3213
X7.9114Y-4.4331
T5
X1.5374Y-4.8256
X1.5374Y-4.9256
X1.5374Y-5.0256
X1.5374Y-5.1256
X1.5374Y-5.2256
X1.6374Y-4.8256
X1.6374Y-4.9256
X1.6374Y-5.0256
X1.6374Y-5.1256
X1.6374Y-5.2256
X2.6083Y-5.7634
X2.6083Y-5.8634
X2.7083Y-5.7634
X2.7083Y-5.8634
X2.8083Y-5.7634
X2.8083Y-5.8634
X2.9083Y-5.7634
X2.9083Y-5.8634
X3.0083Y-5.7634
X3.0083Y-5.8634
X4.8472Y-5.1969
X4.8472Y-5.7969
X4.9472Y-5.1969
X4.9472Y-5.7969
X5.0472Y-5.1969
X5.0472Y-5.7969
X5.1472Y-5.1969
X5.1472Y-5.7969
X5.2472Y-5.1969
X5.2472Y-5.7969
X5.3472Y-5.1969
X5.3472Y-5.7969
X5.4472Y-5.1969
X5.4472Y-5.7969
X5.5472Y-5.1969
X5.5472Y-5.7969
X5.6472Y-5.1969
X5.6472Y-5.7969
X5.7472Y-5.1969
X5.7472Y-5.7969
X5.8472Y-5.1969
X5.8472Y-5.7969
X5.9472Y-5.1969
X5.9472Y-5.7969
X6.0472Y-5.1969
X6.0472Y-5.7969
X6.1472Y-5.1969
X6.1472Y-5.7969
X6.2472Y-5.1969
X6.2472Y-5.7969
X6.3472Y-5.1969
X6.3472Y-5.7969
X6.4472Y-5.1969
X6.4472Y-5.7969
T6
X1.5874Y-4.4661
X1.5874Y-5.5851
X2.2488Y-5.8134
X3.3678Y-5.8134
T7
X4.398Y-4.4205
X5.3823Y-4.4205
X7.2012Y-4.4213
X8.1854Y-4.4213
T8
X4.7472Y-5.1969
X4.7472Y-5.7969
X6.5472Y-5.1969
X6.5472Y-5.7969
T0
M30
