%TF.GenerationSoftware,KiCad,Pcbnew,(5.1.9)-1*%
%TF.CreationDate,2021-03-27T08:43:11+01:00*%
%TF.ProjectId,Microcontroller,4d696372-6f63-46f6-9e74-726f6c6c6572,rev?*%
%TF.SameCoordinates,Original*%
%TF.FileFunction,Copper,L1,Top*%
%TF.FilePolarity,Positive*%
%FSLAX46Y46*%
G04 Gerber Fmt 4.6, Leading zero omitted, Abs format (unit mm)*
G04 Created by KiCad (PCBNEW (5.1.9)-1) date 2021-03-27 08:43:11*
%MOMM*%
%LPD*%
G01*
G04 APERTURE LIST*
%TA.AperFunction,ComponentPad*%
%ADD10R,1.160000X1.160000*%
%TD*%
%TA.AperFunction,ComponentPad*%
%ADD11C,1.160000*%
%TD*%
%TA.AperFunction,ComponentPad*%
%ADD12C,1.800000*%
%TD*%
%TA.AperFunction,ComponentPad*%
%ADD13R,1.800000X1.800000*%
%TD*%
%TA.AperFunction,ComponentPad*%
%ADD14C,1.524000*%
%TD*%
%TA.AperFunction,ComponentPad*%
%ADD15C,3.352800*%
%TD*%
%TA.AperFunction,ComponentPad*%
%ADD16C,1.600000*%
%TD*%
%TA.AperFunction,ComponentPad*%
%ADD17R,1.600000X1.600000*%
%TD*%
%TA.AperFunction,ComponentPad*%
%ADD18C,4.000000*%
%TD*%
%TA.AperFunction,ComponentPad*%
%ADD19O,1.727200X1.727200*%
%TD*%
%TA.AperFunction,ComponentPad*%
%ADD20R,1.727200X1.727200*%
%TD*%
%TA.AperFunction,ComponentPad*%
%ADD21O,1.600000X1.600000*%
%TD*%
%TA.AperFunction,ViaPad*%
%ADD22C,0.800000*%
%TD*%
%TA.AperFunction,Conductor*%
%ADD23C,0.750000*%
%TD*%
G04 APERTURE END LIST*
D10*
%TO.P,IC1,1*%
%TO.N,Net-(C19-Pad1)*%
X188520000Y-135350000D03*
D11*
%TO.P,IC1,2*%
%TO.N,Net-(C22-Pad1)*%
X191060000Y-135350000D03*
%TO.P,IC1,3*%
%TO.N,Net-(C19-Pad2)*%
X193600000Y-135350000D03*
%TO.P,IC1,4*%
%TO.N,Net-(C20-Pad1)*%
X196140000Y-135350000D03*
%TO.P,IC1,5*%
%TO.N,Net-(C20-Pad2)*%
X198680000Y-135350000D03*
%TO.P,IC1,6*%
%TO.N,Net-(C21-Pad2)*%
X201220000Y-135350000D03*
%TO.P,IC1,7*%
%TO.N,Net-(IC1-Pad7)*%
X203760000Y-135350000D03*
%TO.P,IC1,8*%
%TO.N,Net-(IC1-Pad8)*%
X206300000Y-135350000D03*
%TO.P,IC1,9*%
%TO.N,Net-(IC1-Pad9)*%
X206300000Y-127730000D03*
%TO.P,IC1,10*%
%TO.N,Net-(IC1-Pad10)*%
X203760000Y-127730000D03*
%TO.P,IC1,11*%
%TO.N,Net-(IC1-Pad11)*%
X201220000Y-127730000D03*
%TO.P,IC1,12*%
%TO.N,Net-(IC1-Pad12)*%
X198680000Y-127730000D03*
%TO.P,IC1,13*%
%TO.N,Net-(IC1-Pad13)*%
X196140000Y-127730000D03*
%TO.P,IC1,14*%
%TO.N,Net-(IC1-Pad14)*%
X193600000Y-127730000D03*
%TO.P,IC1,15*%
%TO.N,GND*%
X191060000Y-127730000D03*
%TO.P,IC1,16*%
%TO.N,/5V*%
X188520000Y-127730000D03*
%TD*%
D12*
%TO.P,D1,2*%
%TO.N,Net-(D1-Pad2)*%
X218186000Y-142494000D03*
D13*
%TO.P,D1,1*%
%TO.N,GND*%
X215646000Y-142494000D03*
%TD*%
D14*
%TO.P,J2,1*%
%TO.N,/I2C_SDA*%
X66250000Y-146390000D03*
%TO.P,J2,2*%
%TO.N,/I2C_SCK*%
X66250000Y-148930000D03*
%TO.P,J2,3*%
%TO.N,/5V*%
X68790000Y-146390000D03*
%TO.P,J2,4*%
%TO.N,Net-(J2-Pad4)*%
X68790000Y-148930000D03*
%TO.P,J2,5*%
%TO.N,GND*%
X71330000Y-146390000D03*
%TO.P,J2,6*%
%TO.N,Net-(J1-Pad6)*%
X71330000Y-148930000D03*
%TO.P,J2,7*%
%TO.N,Net-(J2-Pad7)*%
X73870000Y-146390000D03*
%TO.P,J2,8*%
%TO.N,Net-(J2-Pad8)*%
X73870000Y-148930000D03*
%TO.P,J2,9*%
%TO.N,Net-(J2-Pad9)*%
X76410000Y-146390000D03*
%TO.P,J2,10*%
%TO.N,Net-(J1-Pad10)*%
X76410000Y-148930000D03*
D15*
%TO.P,J2,11*%
%TO.N,Net-(J2-Pad11)*%
X57118700Y-147660000D03*
%TO.P,J2,12*%
%TO.N,Net-(J2-Pad12)*%
X85541300Y-147660000D03*
%TD*%
D14*
%TO.P,J1,1*%
%TO.N,Net-(J1-Pad1)*%
X41590000Y-122570000D03*
%TO.P,J1,2*%
%TO.N,Net-(J1-Pad2)*%
X39050000Y-122570000D03*
%TO.P,J1,3*%
%TO.N,/5V*%
X41590000Y-125110000D03*
%TO.P,J1,4*%
%TO.N,Net-(J1-Pad4)*%
X39050000Y-125110000D03*
%TO.P,J1,5*%
%TO.N,GND*%
X41590000Y-127650000D03*
%TO.P,J1,6*%
%TO.N,Net-(J1-Pad6)*%
X39050000Y-127650000D03*
%TO.P,J1,7*%
%TO.N,Net-(J1-Pad7)*%
X41590000Y-130190000D03*
%TO.P,J1,8*%
%TO.N,Net-(J1-Pad8)*%
X39050000Y-130190000D03*
%TO.P,J1,9*%
%TO.N,Net-(J1-Pad9)*%
X41590000Y-132730000D03*
%TO.P,J1,10*%
%TO.N,Net-(J1-Pad10)*%
X39050000Y-132730000D03*
D15*
%TO.P,J1,11*%
%TO.N,Net-(J1-Pad11)*%
X40320000Y-113438700D03*
%TO.P,J1,12*%
%TO.N,Net-(J1-Pad12)*%
X40320000Y-141861300D03*
%TD*%
D16*
%TO.P,C22,2*%
%TO.N,/5V*%
X184770000Y-143600000D03*
D17*
%TO.P,C22,1*%
%TO.N,Net-(C22-Pad1)*%
X182270000Y-143600000D03*
%TD*%
D16*
%TO.P,C21,2*%
%TO.N,Net-(C21-Pad2)*%
X203330000Y-143490000D03*
D17*
%TO.P,C21,1*%
%TO.N,GND*%
X200830000Y-143490000D03*
%TD*%
D16*
%TO.P,C20,2*%
%TO.N,Net-(C20-Pad2)*%
X197010000Y-143490000D03*
D17*
%TO.P,C20,1*%
%TO.N,Net-(C20-Pad1)*%
X194510000Y-143490000D03*
%TD*%
D16*
%TO.P,C19,2*%
%TO.N,Net-(C19-Pad2)*%
X191030000Y-143550000D03*
D17*
%TO.P,C19,1*%
%TO.N,Net-(C19-Pad1)*%
X188530000Y-143550000D03*
%TD*%
D18*
%TO.P,J4,0*%
%TO.N,N/C*%
X182910000Y-112300000D03*
X207910000Y-112300000D03*
D16*
%TO.P,J4,9*%
%TO.N,Net-(J4-Pad9)*%
X191255000Y-109760000D03*
%TO.P,J4,8*%
%TO.N,Net-(J4-Pad7)*%
X194025000Y-109760000D03*
%TO.P,J4,7*%
X196795000Y-109760000D03*
%TO.P,J4,6*%
%TO.N,Net-(J4-Pad6)*%
X199565000Y-109760000D03*
%TO.P,J4,5*%
%TO.N,GND*%
X189870000Y-112600000D03*
%TO.P,J4,4*%
%TO.N,Net-(J4-Pad4)*%
X192640000Y-112600000D03*
%TO.P,J4,3*%
%TO.N,Net-(IC1-Pad14)*%
X195410000Y-112600000D03*
%TO.P,J4,2*%
%TO.N,Net-(IC1-Pad13)*%
X198180000Y-112600000D03*
D17*
%TO.P,J4,1*%
%TO.N,Net-(J4-Pad1)*%
X200950000Y-112600000D03*
%TD*%
D18*
%TO.P,J3,0*%
%TO.N,N/C*%
X111710000Y-112280000D03*
X136710000Y-112280000D03*
D16*
%TO.P,J3,9*%
%TO.N,Net-(J3-Pad9)*%
X128365000Y-109740000D03*
%TO.P,J3,8*%
%TO.N,Net-(J3-Pad7)*%
X125595000Y-109740000D03*
%TO.P,J3,7*%
X122825000Y-109740000D03*
%TO.P,J3,6*%
%TO.N,Net-(J3-Pad4)*%
X120055000Y-109740000D03*
%TO.P,J3,5*%
%TO.N,GND*%
X129750000Y-112580000D03*
%TO.P,J3,4*%
%TO.N,Net-(J3-Pad4)*%
X126980000Y-112580000D03*
%TO.P,J3,3*%
%TO.N,Net-(IC1-Pad13)*%
X124210000Y-112580000D03*
%TO.P,J3,2*%
%TO.N,Net-(IC1-Pad14)*%
X121440000Y-112580000D03*
D17*
%TO.P,J3,1*%
%TO.N,Net-(J3-Pad1)*%
X118670000Y-112580000D03*
%TD*%
D19*
%TO.P,XA1,*%
%TO.N,*%
X145980000Y-147240000D03*
%TO.P,XA1,RST2*%
%TO.N,Net-(XA1-PadRST2)*%
X153600000Y-132000000D03*
D20*
%TO.P,XA1,MOSI*%
%TO.N,Net-(XA1-PadMOSI)*%
X163760000Y-132000000D03*
D19*
%TO.P,XA1,SCK*%
%TO.N,Net-(XA1-PadSCK)*%
X163760000Y-147240000D03*
%TO.P,XA1,A0*%
%TO.N,Net-(R10-Pad1)*%
X130740000Y-147240000D03*
%TO.P,XA1,VIN*%
%TO.N,Net-(XA1-PadVIN)*%
X158680000Y-147240000D03*
%TO.P,XA1,GND2*%
%TO.N,GND*%
X151060000Y-132000000D03*
%TO.P,XA1,GND1*%
X156140000Y-147240000D03*
%TO.P,XA1,5V*%
%TO.N,/5V*%
X151060000Y-147240000D03*
%TO.P,XA1,3V3*%
%TO.N,Net-(XA1-Pad3V3)*%
X125660000Y-147240000D03*
%TO.P,XA1,RST1*%
%TO.N,Net-(XA1-PadRST1)*%
X153600000Y-147240000D03*
%TO.P,XA1,SS*%
%TO.N,Net-(XA1-PadSS)*%
X161220000Y-132000000D03*
%TO.P,XA1,D0*%
%TO.N,Net-(XA1-PadD0)*%
X156140000Y-132000000D03*
%TO.P,XA1,D1*%
%TO.N,Net-(XA1-PadD1)*%
X158680000Y-132000000D03*
%TO.P,XA1,D2*%
%TO.N,/I2C_SDA*%
X148520000Y-132000000D03*
%TO.P,XA1,D3*%
%TO.N,/I2C_SCK*%
X145980000Y-132000000D03*
%TO.P,XA1,D4*%
%TO.N,Net-(XA1-PadD4)*%
X143440000Y-132000000D03*
%TO.P,XA1,D5*%
%TO.N,Net-(XA1-PadD5)*%
X140900000Y-132000000D03*
%TO.P,XA1,D6*%
%TO.N,Net-(XA1-PadD6)*%
X138360000Y-132000000D03*
%TO.P,XA1,D7*%
%TO.N,Net-(XA1-PadD7)*%
X135820000Y-132000000D03*
%TO.P,XA1,D8*%
%TO.N,Net-(XA1-PadD8)*%
X133280000Y-132000000D03*
%TO.P,XA1,D9*%
%TO.N,Net-(XA1-PadD9)*%
X130740000Y-132000000D03*
%TO.P,XA1,D10*%
%TO.N,Net-(IC1-Pad12)*%
X128200000Y-132000000D03*
%TO.P,XA1,AREF*%
%TO.N,Net-(XA1-PadAREF)*%
X128200000Y-147240000D03*
%TO.P,XA1,D13*%
%TO.N,Net-(XA1-PadD13)*%
X123120000Y-147240000D03*
%TO.P,XA1,D12*%
%TO.N,Net-(XA1-PadD12)*%
X123120000Y-132000000D03*
%TO.P,XA1,D11*%
%TO.N,Net-(IC1-Pad11)*%
X125660000Y-132000000D03*
%TO.P,XA1,*%
%TO.N,*%
X148520000Y-147240000D03*
%TO.P,XA1,A1*%
%TO.N,Net-(R1-Pad2)*%
X133280000Y-147240000D03*
%TO.P,XA1,A2*%
%TO.N,Net-(XA1-PadA2)*%
X135820000Y-147240000D03*
%TO.P,XA1,A3*%
%TO.N,Net-(XA1-PadA3)*%
X138360000Y-147240000D03*
%TO.P,XA1,A4*%
%TO.N,Net-(XA1-PadA4)*%
X140900000Y-147240000D03*
%TO.P,XA1,A5*%
%TO.N,Net-(XA1-PadA5)*%
X143440000Y-147240000D03*
%TO.P,XA1,MISO*%
%TO.N,Net-(XA1-PadMISO)*%
X161220000Y-147240000D03*
%TD*%
D21*
%TO.P,SW2,8*%
%TO.N,/5V*%
X91830000Y-125850000D03*
%TO.P,SW2,4*%
%TO.N,Net-(R10-Pad2)*%
X84210000Y-133470000D03*
%TO.P,SW2,7*%
%TO.N,/5V*%
X91830000Y-128390000D03*
%TO.P,SW2,3*%
%TO.N,Net-(R8-Pad2)*%
X84210000Y-130930000D03*
%TO.P,SW2,6*%
%TO.N,/5V*%
X91830000Y-130930000D03*
%TO.P,SW2,2*%
%TO.N,Net-(R6-Pad2)*%
X84210000Y-128390000D03*
%TO.P,SW2,5*%
%TO.N,/5V*%
X91830000Y-133470000D03*
D17*
%TO.P,SW2,1*%
%TO.N,Net-(R4-Pad2)*%
X84210000Y-125850000D03*
%TD*%
D21*
%TO.P,SW1,8*%
%TO.N,/5V*%
X91820000Y-109440000D03*
%TO.P,SW1,4*%
%TO.N,Net-(R9-Pad2)*%
X84200000Y-117060000D03*
%TO.P,SW1,7*%
%TO.N,/5V*%
X91820000Y-111980000D03*
%TO.P,SW1,3*%
%TO.N,Net-(R7-Pad2)*%
X84200000Y-114520000D03*
%TO.P,SW1,6*%
%TO.N,/5V*%
X91820000Y-114520000D03*
%TO.P,SW1,2*%
%TO.N,Net-(R5-Pad2)*%
X84200000Y-111980000D03*
%TO.P,SW1,5*%
%TO.N,/5V*%
X91820000Y-117060000D03*
D17*
%TO.P,SW1,1*%
%TO.N,Net-(R3-Pad2)*%
X84200000Y-109440000D03*
%TD*%
%TO.P,R47,2*%
%TO.N,/I2C_SCK*%
%TA.AperFunction,SMDPad,CuDef*%
G36*
G01*
X144324998Y-124870000D02*
X145575002Y-124870000D01*
G75*
G02*
X145825000Y-125119998I0J-249998D01*
G01*
X145825000Y-125745002D01*
G75*
G02*
X145575002Y-125995000I-249998J0D01*
G01*
X144324998Y-125995000D01*
G75*
G02*
X144075000Y-125745002I0J249998D01*
G01*
X144075000Y-125119998D01*
G75*
G02*
X144324998Y-124870000I249998J0D01*
G01*
G37*
%TD.AperFunction*%
%TO.P,R47,1*%
%TO.N,/5V*%
%TA.AperFunction,SMDPad,CuDef*%
G36*
G01*
X144324998Y-121945000D02*
X145575002Y-121945000D01*
G75*
G02*
X145825000Y-122194998I0J-249998D01*
G01*
X145825000Y-122820002D01*
G75*
G02*
X145575002Y-123070000I-249998J0D01*
G01*
X144324998Y-123070000D01*
G75*
G02*
X144075000Y-122820002I0J249998D01*
G01*
X144075000Y-122194998D01*
G75*
G02*
X144324998Y-121945000I249998J0D01*
G01*
G37*
%TD.AperFunction*%
%TD*%
%TO.P,R46,2*%
%TO.N,/I2C_SDA*%
%TA.AperFunction,SMDPad,CuDef*%
G36*
G01*
X148064998Y-124870000D02*
X149315002Y-124870000D01*
G75*
G02*
X149565000Y-125119998I0J-249998D01*
G01*
X149565000Y-125745002D01*
G75*
G02*
X149315002Y-125995000I-249998J0D01*
G01*
X148064998Y-125995000D01*
G75*
G02*
X147815000Y-125745002I0J249998D01*
G01*
X147815000Y-125119998D01*
G75*
G02*
X148064998Y-124870000I249998J0D01*
G01*
G37*
%TD.AperFunction*%
%TO.P,R46,1*%
%TO.N,/5V*%
%TA.AperFunction,SMDPad,CuDef*%
G36*
G01*
X148064998Y-121945000D02*
X149315002Y-121945000D01*
G75*
G02*
X149565000Y-122194998I0J-249998D01*
G01*
X149565000Y-122820002D01*
G75*
G02*
X149315002Y-123070000I-249998J0D01*
G01*
X148064998Y-123070000D01*
G75*
G02*
X147815000Y-122820002I0J249998D01*
G01*
X147815000Y-122194998D01*
G75*
G02*
X148064998Y-121945000I249998J0D01*
G01*
G37*
%TD.AperFunction*%
%TD*%
%TO.P,R10,2*%
%TO.N,Net-(R10-Pad2)*%
%TA.AperFunction,SMDPad,CuDef*%
G36*
G01*
X78252500Y-134125002D02*
X78252500Y-132874998D01*
G75*
G02*
X78502498Y-132625000I249998J0D01*
G01*
X79127502Y-132625000D01*
G75*
G02*
X79377500Y-132874998I0J-249998D01*
G01*
X79377500Y-134125002D01*
G75*
G02*
X79127502Y-134375000I-249998J0D01*
G01*
X78502498Y-134375000D01*
G75*
G02*
X78252500Y-134125002I0J249998D01*
G01*
G37*
%TD.AperFunction*%
%TO.P,R10,1*%
%TO.N,Net-(R10-Pad1)*%
%TA.AperFunction,SMDPad,CuDef*%
G36*
G01*
X75327500Y-134125002D02*
X75327500Y-132874998D01*
G75*
G02*
X75577498Y-132625000I249998J0D01*
G01*
X76202502Y-132625000D01*
G75*
G02*
X76452500Y-132874998I0J-249998D01*
G01*
X76452500Y-134125002D01*
G75*
G02*
X76202502Y-134375000I-249998J0D01*
G01*
X75577498Y-134375000D01*
G75*
G02*
X75327500Y-134125002I0J249998D01*
G01*
G37*
%TD.AperFunction*%
%TD*%
%TO.P,R9,2*%
%TO.N,Net-(R9-Pad2)*%
%TA.AperFunction,SMDPad,CuDef*%
G36*
G01*
X78277500Y-119585002D02*
X78277500Y-118334998D01*
G75*
G02*
X78527498Y-118085000I249998J0D01*
G01*
X79152502Y-118085000D01*
G75*
G02*
X79402500Y-118334998I0J-249998D01*
G01*
X79402500Y-119585002D01*
G75*
G02*
X79152502Y-119835000I-249998J0D01*
G01*
X78527498Y-119835000D01*
G75*
G02*
X78277500Y-119585002I0J249998D01*
G01*
G37*
%TD.AperFunction*%
%TO.P,R9,1*%
%TO.N,Net-(R1-Pad2)*%
%TA.AperFunction,SMDPad,CuDef*%
G36*
G01*
X75352500Y-119585002D02*
X75352500Y-118334998D01*
G75*
G02*
X75602498Y-118085000I249998J0D01*
G01*
X76227502Y-118085000D01*
G75*
G02*
X76477500Y-118334998I0J-249998D01*
G01*
X76477500Y-119585002D01*
G75*
G02*
X76227502Y-119835000I-249998J0D01*
G01*
X75602498Y-119835000D01*
G75*
G02*
X75352500Y-119585002I0J249998D01*
G01*
G37*
%TD.AperFunction*%
%TD*%
%TO.P,R8,2*%
%TO.N,Net-(R8-Pad2)*%
%TA.AperFunction,SMDPad,CuDef*%
G36*
G01*
X78267500Y-130415002D02*
X78267500Y-129164998D01*
G75*
G02*
X78517498Y-128915000I249998J0D01*
G01*
X79142502Y-128915000D01*
G75*
G02*
X79392500Y-129164998I0J-249998D01*
G01*
X79392500Y-130415002D01*
G75*
G02*
X79142502Y-130665000I-249998J0D01*
G01*
X78517498Y-130665000D01*
G75*
G02*
X78267500Y-130415002I0J249998D01*
G01*
G37*
%TD.AperFunction*%
%TO.P,R8,1*%
%TO.N,Net-(R10-Pad1)*%
%TA.AperFunction,SMDPad,CuDef*%
G36*
G01*
X75342500Y-130415002D02*
X75342500Y-129164998D01*
G75*
G02*
X75592498Y-128915000I249998J0D01*
G01*
X76217502Y-128915000D01*
G75*
G02*
X76467500Y-129164998I0J-249998D01*
G01*
X76467500Y-130415002D01*
G75*
G02*
X76217502Y-130665000I-249998J0D01*
G01*
X75592498Y-130665000D01*
G75*
G02*
X75342500Y-130415002I0J249998D01*
G01*
G37*
%TD.AperFunction*%
%TD*%
%TO.P,R7,2*%
%TO.N,Net-(R7-Pad2)*%
%TA.AperFunction,SMDPad,CuDef*%
G36*
G01*
X78257500Y-115935002D02*
X78257500Y-114684998D01*
G75*
G02*
X78507498Y-114435000I249998J0D01*
G01*
X79132502Y-114435000D01*
G75*
G02*
X79382500Y-114684998I0J-249998D01*
G01*
X79382500Y-115935002D01*
G75*
G02*
X79132502Y-116185000I-249998J0D01*
G01*
X78507498Y-116185000D01*
G75*
G02*
X78257500Y-115935002I0J249998D01*
G01*
G37*
%TD.AperFunction*%
%TO.P,R7,1*%
%TO.N,Net-(R1-Pad2)*%
%TA.AperFunction,SMDPad,CuDef*%
G36*
G01*
X75332500Y-115935002D02*
X75332500Y-114684998D01*
G75*
G02*
X75582498Y-114435000I249998J0D01*
G01*
X76207502Y-114435000D01*
G75*
G02*
X76457500Y-114684998I0J-249998D01*
G01*
X76457500Y-115935002D01*
G75*
G02*
X76207502Y-116185000I-249998J0D01*
G01*
X75582498Y-116185000D01*
G75*
G02*
X75332500Y-115935002I0J249998D01*
G01*
G37*
%TD.AperFunction*%
%TD*%
%TO.P,R6,2*%
%TO.N,Net-(R6-Pad2)*%
%TA.AperFunction,SMDPad,CuDef*%
G36*
G01*
X78257500Y-126805002D02*
X78257500Y-125554998D01*
G75*
G02*
X78507498Y-125305000I249998J0D01*
G01*
X79132502Y-125305000D01*
G75*
G02*
X79382500Y-125554998I0J-249998D01*
G01*
X79382500Y-126805002D01*
G75*
G02*
X79132502Y-127055000I-249998J0D01*
G01*
X78507498Y-127055000D01*
G75*
G02*
X78257500Y-126805002I0J249998D01*
G01*
G37*
%TD.AperFunction*%
%TO.P,R6,1*%
%TO.N,Net-(R10-Pad1)*%
%TA.AperFunction,SMDPad,CuDef*%
G36*
G01*
X75332500Y-126805002D02*
X75332500Y-125554998D01*
G75*
G02*
X75582498Y-125305000I249998J0D01*
G01*
X76207502Y-125305000D01*
G75*
G02*
X76457500Y-125554998I0J-249998D01*
G01*
X76457500Y-126805002D01*
G75*
G02*
X76207502Y-127055000I-249998J0D01*
G01*
X75582498Y-127055000D01*
G75*
G02*
X75332500Y-126805002I0J249998D01*
G01*
G37*
%TD.AperFunction*%
%TD*%
%TO.P,R5,2*%
%TO.N,Net-(R5-Pad2)*%
%TA.AperFunction,SMDPad,CuDef*%
G36*
G01*
X78247500Y-112345002D02*
X78247500Y-111094998D01*
G75*
G02*
X78497498Y-110845000I249998J0D01*
G01*
X79122502Y-110845000D01*
G75*
G02*
X79372500Y-111094998I0J-249998D01*
G01*
X79372500Y-112345002D01*
G75*
G02*
X79122502Y-112595000I-249998J0D01*
G01*
X78497498Y-112595000D01*
G75*
G02*
X78247500Y-112345002I0J249998D01*
G01*
G37*
%TD.AperFunction*%
%TO.P,R5,1*%
%TO.N,Net-(R1-Pad2)*%
%TA.AperFunction,SMDPad,CuDef*%
G36*
G01*
X75322500Y-112345002D02*
X75322500Y-111094998D01*
G75*
G02*
X75572498Y-110845000I249998J0D01*
G01*
X76197502Y-110845000D01*
G75*
G02*
X76447500Y-111094998I0J-249998D01*
G01*
X76447500Y-112345002D01*
G75*
G02*
X76197502Y-112595000I-249998J0D01*
G01*
X75572498Y-112595000D01*
G75*
G02*
X75322500Y-112345002I0J249998D01*
G01*
G37*
%TD.AperFunction*%
%TD*%
%TO.P,R4,2*%
%TO.N,Net-(R4-Pad2)*%
%TA.AperFunction,SMDPad,CuDef*%
G36*
G01*
X78207500Y-123355002D02*
X78207500Y-122104998D01*
G75*
G02*
X78457498Y-121855000I249998J0D01*
G01*
X79082502Y-121855000D01*
G75*
G02*
X79332500Y-122104998I0J-249998D01*
G01*
X79332500Y-123355002D01*
G75*
G02*
X79082502Y-123605000I-249998J0D01*
G01*
X78457498Y-123605000D01*
G75*
G02*
X78207500Y-123355002I0J249998D01*
G01*
G37*
%TD.AperFunction*%
%TO.P,R4,1*%
%TO.N,Net-(R10-Pad1)*%
%TA.AperFunction,SMDPad,CuDef*%
G36*
G01*
X75282500Y-123355002D02*
X75282500Y-122104998D01*
G75*
G02*
X75532498Y-121855000I249998J0D01*
G01*
X76157502Y-121855000D01*
G75*
G02*
X76407500Y-122104998I0J-249998D01*
G01*
X76407500Y-123355002D01*
G75*
G02*
X76157502Y-123605000I-249998J0D01*
G01*
X75532498Y-123605000D01*
G75*
G02*
X75282500Y-123355002I0J249998D01*
G01*
G37*
%TD.AperFunction*%
%TD*%
%TO.P,R3,2*%
%TO.N,Net-(R3-Pad2)*%
%TA.AperFunction,SMDPad,CuDef*%
G36*
G01*
X78267500Y-108825002D02*
X78267500Y-107574998D01*
G75*
G02*
X78517498Y-107325000I249998J0D01*
G01*
X79142502Y-107325000D01*
G75*
G02*
X79392500Y-107574998I0J-249998D01*
G01*
X79392500Y-108825002D01*
G75*
G02*
X79142502Y-109075000I-249998J0D01*
G01*
X78517498Y-109075000D01*
G75*
G02*
X78267500Y-108825002I0J249998D01*
G01*
G37*
%TD.AperFunction*%
%TO.P,R3,1*%
%TO.N,Net-(R1-Pad2)*%
%TA.AperFunction,SMDPad,CuDef*%
G36*
G01*
X75342500Y-108825002D02*
X75342500Y-107574998D01*
G75*
G02*
X75592498Y-107325000I249998J0D01*
G01*
X76217502Y-107325000D01*
G75*
G02*
X76467500Y-107574998I0J-249998D01*
G01*
X76467500Y-108825002D01*
G75*
G02*
X76217502Y-109075000I-249998J0D01*
G01*
X75592498Y-109075000D01*
G75*
G02*
X75342500Y-108825002I0J249998D01*
G01*
G37*
%TD.AperFunction*%
%TD*%
%TO.P,R2,2*%
%TO.N,Net-(R10-Pad1)*%
%TA.AperFunction,SMDPad,CuDef*%
G36*
G01*
X71307500Y-123325002D02*
X71307500Y-122074998D01*
G75*
G02*
X71557498Y-121825000I249998J0D01*
G01*
X72182502Y-121825000D01*
G75*
G02*
X72432500Y-122074998I0J-249998D01*
G01*
X72432500Y-123325002D01*
G75*
G02*
X72182502Y-123575000I-249998J0D01*
G01*
X71557498Y-123575000D01*
G75*
G02*
X71307500Y-123325002I0J249998D01*
G01*
G37*
%TD.AperFunction*%
%TO.P,R2,1*%
%TO.N,GND*%
%TA.AperFunction,SMDPad,CuDef*%
G36*
G01*
X68382500Y-123325002D02*
X68382500Y-122074998D01*
G75*
G02*
X68632498Y-121825000I249998J0D01*
G01*
X69257502Y-121825000D01*
G75*
G02*
X69507500Y-122074998I0J-249998D01*
G01*
X69507500Y-123325002D01*
G75*
G02*
X69257502Y-123575000I-249998J0D01*
G01*
X68632498Y-123575000D01*
G75*
G02*
X68382500Y-123325002I0J249998D01*
G01*
G37*
%TD.AperFunction*%
%TD*%
%TO.P,R1,2*%
%TO.N,Net-(R1-Pad2)*%
%TA.AperFunction,SMDPad,CuDef*%
G36*
G01*
X71237500Y-108815002D02*
X71237500Y-107564998D01*
G75*
G02*
X71487498Y-107315000I249998J0D01*
G01*
X72112502Y-107315000D01*
G75*
G02*
X72362500Y-107564998I0J-249998D01*
G01*
X72362500Y-108815002D01*
G75*
G02*
X72112502Y-109065000I-249998J0D01*
G01*
X71487498Y-109065000D01*
G75*
G02*
X71237500Y-108815002I0J249998D01*
G01*
G37*
%TD.AperFunction*%
%TO.P,R1,1*%
%TO.N,GND*%
%TA.AperFunction,SMDPad,CuDef*%
G36*
G01*
X68312500Y-108815002D02*
X68312500Y-107564998D01*
G75*
G02*
X68562498Y-107315000I249998J0D01*
G01*
X69187502Y-107315000D01*
G75*
G02*
X69437500Y-107564998I0J-249998D01*
G01*
X69437500Y-108815002D01*
G75*
G02*
X69187502Y-109065000I-249998J0D01*
G01*
X68562498Y-109065000D01*
G75*
G02*
X68312500Y-108815002I0J249998D01*
G01*
G37*
%TD.AperFunction*%
%TD*%
D22*
%TO.N,Net-(IC1-Pad13)*%
X196140000Y-118150000D03*
%TO.N,Net-(IC1-Pad14)*%
X188790000Y-120080000D03*
X193600000Y-120060000D03*
%TO.N,GND*%
X68910000Y-111110000D03*
X71340000Y-132842000D03*
%TO.N,/5V*%
X91820000Y-122440002D03*
X151152500Y-122507500D03*
X68790000Y-131318000D03*
%TO.N,/I2C_SDA*%
X98280000Y-120940000D03*
X98280000Y-130130000D03*
%TO.N,/I2C_SCK*%
X100320000Y-130250000D03*
X100350000Y-119560000D03*
%TD*%
D23*
%TO.N,Net-(C19-Pad1)*%
X188530000Y-135360000D02*
X188520000Y-135350000D01*
X188530000Y-143550000D02*
X188530000Y-135360000D01*
%TO.N,Net-(IC1-Pad11)*%
X125660000Y-134550000D02*
X125660000Y-132000000D01*
X127140000Y-136030000D02*
X125660000Y-134550000D01*
X170760000Y-136030000D02*
X127140000Y-136030000D01*
X175060000Y-131730000D02*
X170760000Y-136030000D01*
X197790000Y-131730000D02*
X175060000Y-131730000D01*
X201220000Y-128300000D02*
X197790000Y-131730000D01*
X201220000Y-127730000D02*
X201220000Y-128300000D01*
%TO.N,Net-(IC1-Pad12)*%
X170280000Y-134520000D02*
X128960000Y-134520000D01*
X174550000Y-130250000D02*
X170280000Y-134520000D01*
X196850000Y-130250000D02*
X174550000Y-130250000D01*
X128960000Y-134520000D02*
X128200000Y-133760000D01*
X198680000Y-128420000D02*
X196850000Y-130250000D01*
X128200000Y-133760000D02*
X128200000Y-132000000D01*
X198680000Y-127730000D02*
X198680000Y-128420000D01*
%TO.N,Net-(IC1-Pad13)*%
X196140000Y-114640000D02*
X198180000Y-112600000D01*
X196140000Y-118150000D02*
X196140000Y-114640000D01*
X196140000Y-127730000D02*
X196140000Y-118150000D01*
%TO.N,Net-(IC1-Pad14)*%
X193600000Y-114410000D02*
X195410000Y-112600000D01*
X128940000Y-120080000D02*
X188790000Y-120080000D01*
X121440000Y-112580000D02*
X128940000Y-120080000D01*
X193600000Y-120060000D02*
X193600000Y-114410000D01*
X193600000Y-127730000D02*
X193600000Y-120060000D01*
%TO.N,GND*%
X68875000Y-122630000D02*
X68945000Y-122700000D01*
X191060000Y-113790000D02*
X189870000Y-112600000D01*
X184210000Y-118260000D02*
X189870000Y-112600000D01*
X135430000Y-118260000D02*
X184210000Y-118260000D01*
X129750000Y-112580000D02*
X135430000Y-118260000D01*
X191060000Y-122610000D02*
X191060000Y-113790000D01*
X191060000Y-127730000D02*
X191060000Y-122610000D01*
X156630000Y-122610000D02*
X191060000Y-122610000D01*
X151060000Y-128180000D02*
X156630000Y-122610000D01*
X151060000Y-132000000D02*
X151060000Y-128180000D01*
X68875000Y-111145000D02*
X68910000Y-111110000D01*
X68875000Y-111235000D02*
X68875000Y-111145000D01*
X68875000Y-108190000D02*
X68875000Y-111235000D01*
X68875000Y-111235000D02*
X68875000Y-122630000D01*
X46782000Y-132842000D02*
X71340000Y-132842000D01*
X41590000Y-127650000D02*
X46782000Y-132842000D01*
X71340000Y-127982000D02*
X71340000Y-128920000D01*
X71340000Y-128920000D02*
X71340000Y-132842000D01*
X68945000Y-125587000D02*
X71340000Y-127982000D01*
X68945000Y-122700000D02*
X68945000Y-125587000D01*
%TO.N,/5V*%
X91830000Y-133470000D02*
X91830000Y-130930000D01*
X91830000Y-128390000D02*
X91830000Y-130930000D01*
X91830000Y-125850000D02*
X91830000Y-128390000D01*
X91820000Y-109440000D02*
X91820000Y-111980000D01*
X91820000Y-114520000D02*
X91820000Y-111980000D01*
X91820000Y-117060000D02*
X91820000Y-114520000D01*
X144950000Y-122507500D02*
X148690000Y-122507500D01*
X91830000Y-125850000D02*
X91830000Y-122810000D01*
X91820000Y-117060000D02*
X91820000Y-122440002D01*
X91830000Y-122810000D02*
X91820000Y-122800000D01*
X91820000Y-122800000D02*
X91820000Y-122440002D01*
X148690000Y-122507500D02*
X151152500Y-122507500D01*
X62230000Y-131318000D02*
X68790000Y-131318000D01*
X56022000Y-125110000D02*
X62230000Y-131318000D01*
X41590000Y-125110000D02*
X56022000Y-125110000D01*
%TO.N,Net-(J1-Pad10)*%
X39050000Y-136332000D02*
X39050000Y-132730000D01*
X77160000Y-140700000D02*
X43418000Y-140700000D01*
X78840000Y-147240000D02*
X78840000Y-142380000D01*
X77150000Y-148930000D02*
X78840000Y-147240000D01*
X43418000Y-140700000D02*
X39050000Y-136332000D01*
X78840000Y-142380000D02*
X77160000Y-140700000D01*
X76410000Y-148930000D02*
X77150000Y-148930000D01*
%TO.N,Net-(R1-Pad2)*%
X71810000Y-108200000D02*
X71800000Y-108190000D01*
X75905000Y-108200000D02*
X71810000Y-108200000D01*
X75885000Y-108220000D02*
X75905000Y-108200000D01*
X75885000Y-111720000D02*
X75885000Y-108220000D01*
X75915000Y-115330000D02*
X75895000Y-115310000D01*
X75915000Y-118960000D02*
X75915000Y-115330000D01*
X75895000Y-111730000D02*
X75885000Y-111720000D01*
X75895000Y-115310000D02*
X75895000Y-111730000D01*
X107440000Y-140440000D02*
X130120000Y-140440000D01*
X130120000Y-140440000D02*
X133280000Y-143600000D01*
X105380000Y-138380000D02*
X107440000Y-140440000D01*
X105380000Y-107920000D02*
X105380000Y-138380000D01*
X103220000Y-105760000D02*
X105380000Y-107920000D01*
X76670000Y-105760000D02*
X103220000Y-105760000D01*
X75905000Y-106525000D02*
X76670000Y-105760000D01*
X133280000Y-143600000D02*
X133280000Y-147240000D01*
X75905000Y-108200000D02*
X75905000Y-106525000D01*
%TO.N,Net-(R10-Pad1)*%
X75845000Y-126130000D02*
X75895000Y-126180000D01*
X75845000Y-122730000D02*
X75845000Y-126130000D01*
X75905000Y-126190000D02*
X75895000Y-126180000D01*
X75905000Y-129790000D02*
X75905000Y-126190000D01*
X75890000Y-129805000D02*
X75905000Y-129790000D01*
X75890000Y-133500000D02*
X75890000Y-129805000D01*
X75815000Y-122700000D02*
X75845000Y-122730000D01*
X71870000Y-122700000D02*
X75815000Y-122700000D01*
X130740000Y-144100000D02*
X130740000Y-147240000D01*
X128780000Y-142140000D02*
X130740000Y-144100000D01*
X83890000Y-142140000D02*
X128780000Y-142140000D01*
X75890000Y-134140000D02*
X83890000Y-142140000D01*
X75890000Y-133500000D02*
X75890000Y-134140000D01*
%TO.N,Net-(R3-Pad2)*%
X81960000Y-109440000D02*
X84200000Y-109440000D01*
X80720000Y-108200000D02*
X81960000Y-109440000D01*
X78830000Y-108200000D02*
X80720000Y-108200000D01*
%TO.N,Net-(R4-Pad2)*%
X82130000Y-125850000D02*
X84210000Y-125850000D01*
X79010000Y-122730000D02*
X82130000Y-125850000D01*
X78770000Y-122730000D02*
X79010000Y-122730000D01*
%TO.N,Net-(R5-Pad2)*%
X83940000Y-111720000D02*
X84200000Y-111980000D01*
X78810000Y-111720000D02*
X83940000Y-111720000D01*
%TO.N,Net-(R6-Pad2)*%
X81820000Y-128390000D02*
X84210000Y-128390000D01*
X79610000Y-126180000D02*
X81820000Y-128390000D01*
X78820000Y-126180000D02*
X79610000Y-126180000D01*
%TO.N,Net-(R7-Pad2)*%
X81210000Y-115310000D02*
X78820000Y-115310000D01*
X82000000Y-114520000D02*
X81210000Y-115310000D01*
X84200000Y-114520000D02*
X82000000Y-114520000D01*
%TO.N,Net-(R8-Pad2)*%
X84170000Y-130970000D02*
X84210000Y-130930000D01*
X80900000Y-130970000D02*
X84170000Y-130970000D01*
X79720000Y-129790000D02*
X80900000Y-130970000D01*
X78830000Y-129790000D02*
X79720000Y-129790000D01*
%TO.N,Net-(R9-Pad2)*%
X81950000Y-117060000D02*
X84200000Y-117060000D01*
X80050000Y-118960000D02*
X81950000Y-117060000D01*
X78840000Y-118960000D02*
X80050000Y-118960000D01*
%TO.N,Net-(R10-Pad2)*%
X84180000Y-133500000D02*
X84210000Y-133470000D01*
X78815000Y-133500000D02*
X84180000Y-133500000D01*
%TO.N,/I2C_SDA*%
X148520000Y-125602500D02*
X148690000Y-125432500D01*
X148520000Y-132000000D02*
X148520000Y-125602500D01*
X98280000Y-120940000D02*
X98280000Y-130130000D01*
%TO.N,/I2C_SCK*%
X145980000Y-126462500D02*
X144950000Y-125432500D01*
X145980000Y-132000000D02*
X145980000Y-126462500D01*
X100320000Y-119590000D02*
X100350000Y-119560000D01*
X100320000Y-130250000D02*
X100320000Y-119590000D01*
%TO.N,Net-(J3-Pad7)*%
X122825000Y-109740000D02*
X125595000Y-109740000D01*
%TO.N,Net-(J4-Pad7)*%
X194025000Y-109760000D02*
X196795000Y-109760000D01*
%TD*%
M02*
