%TF.GenerationSoftware,KiCad,Pcbnew,(5.1.9)-1*%
%TF.CreationDate,2021-03-27T08:43:11+01:00*%
%TF.ProjectId,Microcontroller,4d696372-6f63-46f6-9e74-726f6c6c6572,rev?*%
%TF.SameCoordinates,Original*%
%TF.FileFunction,Legend,Top*%
%TF.FilePolarity,Positive*%
%FSLAX46Y46*%
G04 Gerber Fmt 4.6, Leading zero omitted, Abs format (unit mm)*
G04 Created by KiCad (PCBNEW (5.1.9)-1) date 2021-03-27 08:43:11*
%MOMM*%
%LPD*%
G01*
G04 APERTURE LIST*
%ADD10C,0.300000*%
%ADD11C,0.200000*%
%ADD12C,0.120000*%
%ADD13C,0.152400*%
%ADD14C,0.150000*%
%ADD15C,0.254000*%
%ADD16C,0.075000*%
G04 APERTURE END LIST*
D10*
X216804761Y-136121428D02*
X218423809Y-136121428D01*
X218614285Y-136026190D01*
X218709523Y-135930952D01*
X218804761Y-135740476D01*
X218804761Y-135359523D01*
X218709523Y-135169047D01*
X218614285Y-135073809D01*
X218423809Y-134978571D01*
X216804761Y-134978571D01*
X218804761Y-134026190D02*
X216804761Y-134026190D01*
X216804761Y-133264285D01*
X216900000Y-133073809D01*
X216995238Y-132978571D01*
X217185714Y-132883333D01*
X217471428Y-132883333D01*
X217661904Y-132978571D01*
X217757142Y-133073809D01*
X217852380Y-133264285D01*
X217852380Y-134026190D01*
X216804761Y-132216666D02*
X216804761Y-130883333D01*
X218804761Y-132216666D01*
X218804761Y-130883333D01*
X218709523Y-128692857D02*
X218804761Y-128407142D01*
X218804761Y-127930952D01*
X218709523Y-127740476D01*
X218614285Y-127645238D01*
X218423809Y-127550000D01*
X218233333Y-127550000D01*
X218042857Y-127645238D01*
X217947619Y-127740476D01*
X217852380Y-127930952D01*
X217757142Y-128311904D01*
X217661904Y-128502380D01*
X217566666Y-128597619D01*
X217376190Y-128692857D01*
X217185714Y-128692857D01*
X216995238Y-128597619D01*
X216900000Y-128502380D01*
X216804761Y-128311904D01*
X216804761Y-127835714D01*
X216900000Y-127550000D01*
X217471428Y-126883333D02*
X218804761Y-126502380D01*
X217852380Y-126121428D01*
X218804761Y-125740476D01*
X217471428Y-125359523D01*
X218804761Y-124597619D02*
X217471428Y-124597619D01*
X216804761Y-124597619D02*
X216900000Y-124692857D01*
X216995238Y-124597619D01*
X216900000Y-124502380D01*
X216804761Y-124597619D01*
X216995238Y-124597619D01*
X217471428Y-123930952D02*
X217471428Y-123169047D01*
X216804761Y-123645238D02*
X218519047Y-123645238D01*
X218709523Y-123550000D01*
X218804761Y-123359523D01*
X218804761Y-123169047D01*
X218709523Y-121645238D02*
X218804761Y-121835714D01*
X218804761Y-122216666D01*
X218709523Y-122407142D01*
X218614285Y-122502380D01*
X218423809Y-122597619D01*
X217852380Y-122597619D01*
X217661904Y-122502380D01*
X217566666Y-122407142D01*
X217471428Y-122216666D01*
X217471428Y-121835714D01*
X217566666Y-121645238D01*
X218804761Y-120788095D02*
X216804761Y-120788095D01*
X218804761Y-119930952D02*
X217757142Y-119930952D01*
X217566666Y-120026190D01*
X217471428Y-120216666D01*
X217471428Y-120502380D01*
X217566666Y-120692857D01*
X217661904Y-120788095D01*
X218709523Y-118216666D02*
X218804761Y-118407142D01*
X218804761Y-118788095D01*
X218709523Y-118978571D01*
X218519047Y-119073809D01*
X217757142Y-119073809D01*
X217566666Y-118978571D01*
X217471428Y-118788095D01*
X217471428Y-118407142D01*
X217566666Y-118216666D01*
X217757142Y-118121428D01*
X217947619Y-118121428D01*
X218138095Y-119073809D01*
X218804761Y-117264285D02*
X217471428Y-117264285D01*
X217852380Y-117264285D02*
X217661904Y-117169047D01*
X217566666Y-117073809D01*
X217471428Y-116883333D01*
X217471428Y-116692857D01*
X222104761Y-134359523D02*
X220104761Y-134359523D01*
X221533333Y-133692857D01*
X220104761Y-133026190D01*
X222104761Y-133026190D01*
X221914285Y-130930952D02*
X222009523Y-131026190D01*
X222104761Y-131311904D01*
X222104761Y-131502380D01*
X222009523Y-131788095D01*
X221819047Y-131978571D01*
X221628571Y-132073809D01*
X221247619Y-132169047D01*
X220961904Y-132169047D01*
X220580952Y-132073809D01*
X220390476Y-131978571D01*
X220200000Y-131788095D01*
X220104761Y-131502380D01*
X220104761Y-131311904D01*
X220200000Y-131026190D01*
X220295238Y-130930952D01*
X220104761Y-130073809D02*
X221723809Y-130073809D01*
X221914285Y-129978571D01*
X222009523Y-129883333D01*
X222104761Y-129692857D01*
X222104761Y-129311904D01*
X222009523Y-129121428D01*
X221914285Y-129026190D01*
X221723809Y-128930952D01*
X220104761Y-128930952D01*
X221057142Y-125788095D02*
X221152380Y-125502380D01*
X221247619Y-125407142D01*
X221438095Y-125311904D01*
X221723809Y-125311904D01*
X221914285Y-125407142D01*
X222009523Y-125502380D01*
X222104761Y-125692857D01*
X222104761Y-126454761D01*
X220104761Y-126454761D01*
X220104761Y-125788095D01*
X220200000Y-125597619D01*
X220295238Y-125502380D01*
X220485714Y-125407142D01*
X220676190Y-125407142D01*
X220866666Y-125502380D01*
X220961904Y-125597619D01*
X221057142Y-125788095D01*
X221057142Y-126454761D01*
X222104761Y-124169047D02*
X222009523Y-124359523D01*
X221914285Y-124454761D01*
X221723809Y-124549999D01*
X221152380Y-124549999D01*
X220961904Y-124454761D01*
X220866666Y-124359523D01*
X220771428Y-124169047D01*
X220771428Y-123883333D01*
X220866666Y-123692857D01*
X220961904Y-123597619D01*
X221152380Y-123502380D01*
X221723809Y-123502380D01*
X221914285Y-123597619D01*
X222009523Y-123692857D01*
X222104761Y-123883333D01*
X222104761Y-124169047D01*
X222104761Y-121788095D02*
X221057142Y-121788095D01*
X220866666Y-121883333D01*
X220771428Y-122073809D01*
X220771428Y-122454761D01*
X220866666Y-122645238D01*
X222009523Y-121788095D02*
X222104761Y-121978571D01*
X222104761Y-122454761D01*
X222009523Y-122645238D01*
X221819047Y-122740476D01*
X221628571Y-122740476D01*
X221438095Y-122645238D01*
X221342857Y-122454761D01*
X221342857Y-121978571D01*
X221247619Y-121788095D01*
X222104761Y-120835714D02*
X220771428Y-120835714D01*
X221152380Y-120835714D02*
X220961904Y-120740476D01*
X220866666Y-120645238D01*
X220771428Y-120454761D01*
X220771428Y-120264285D01*
X222104761Y-118740476D02*
X220104761Y-118740476D01*
X222009523Y-118740476D02*
X222104761Y-118930952D01*
X222104761Y-119311904D01*
X222009523Y-119502380D01*
X221914285Y-119597619D01*
X221723809Y-119692857D01*
X221152380Y-119692857D01*
X220961904Y-119597619D01*
X220866666Y-119502380D01*
X220771428Y-119311904D01*
X220771428Y-118930952D01*
X220866666Y-118740476D01*
X224357142Y-140550000D02*
X224452380Y-140264285D01*
X224547619Y-140169047D01*
X224738095Y-140073809D01*
X225023809Y-140073809D01*
X225214285Y-140169047D01*
X225309523Y-140264285D01*
X225404761Y-140454761D01*
X225404761Y-141216666D01*
X223404761Y-141216666D01*
X223404761Y-140550000D01*
X223500000Y-140359523D01*
X223595238Y-140264285D01*
X223785714Y-140169047D01*
X223976190Y-140169047D01*
X224166666Y-140264285D01*
X224261904Y-140359523D01*
X224357142Y-140550000D01*
X224357142Y-141216666D01*
X223404761Y-139502380D02*
X225404761Y-138835714D01*
X223404761Y-138169047D01*
X225404761Y-137502380D02*
X223404761Y-137502380D01*
X225404761Y-136359523D02*
X224261904Y-137216666D01*
X223404761Y-136359523D02*
X224547619Y-137502380D01*
X225309523Y-135597619D02*
X225404761Y-135311904D01*
X225404761Y-134835714D01*
X225309523Y-134645238D01*
X225214285Y-134550000D01*
X225023809Y-134454761D01*
X224833333Y-134454761D01*
X224642857Y-134550000D01*
X224547619Y-134645238D01*
X224452380Y-134835714D01*
X224357142Y-135216666D01*
X224261904Y-135407142D01*
X224166666Y-135502380D01*
X223976190Y-135597619D01*
X223785714Y-135597619D01*
X223595238Y-135502380D01*
X223500000Y-135407142D01*
X223404761Y-135216666D01*
X223404761Y-134740476D01*
X223500000Y-134454761D01*
X225404761Y-133311904D02*
X225309523Y-133502380D01*
X225214285Y-133597619D01*
X225023809Y-133692857D01*
X224452380Y-133692857D01*
X224261904Y-133597619D01*
X224166666Y-133502380D01*
X224071428Y-133311904D01*
X224071428Y-133026190D01*
X224166666Y-132835714D01*
X224261904Y-132740476D01*
X224452380Y-132645238D01*
X225023809Y-132645238D01*
X225214285Y-132740476D01*
X225309523Y-132835714D01*
X225404761Y-133026190D01*
X225404761Y-133311904D01*
X224071428Y-130930952D02*
X225404761Y-130930952D01*
X224071428Y-131788095D02*
X225119047Y-131788095D01*
X225309523Y-131692857D01*
X225404761Y-131502380D01*
X225404761Y-131216666D01*
X225309523Y-131026190D01*
X225214285Y-130930952D01*
X224071428Y-129978571D02*
X225404761Y-129978571D01*
X224261904Y-129978571D02*
X224166666Y-129883333D01*
X224071428Y-129692857D01*
X224071428Y-129407142D01*
X224166666Y-129216666D01*
X224357142Y-129121428D01*
X225404761Y-129121428D01*
X225404761Y-127311904D02*
X223404761Y-127311904D01*
X225309523Y-127311904D02*
X225404761Y-127502380D01*
X225404761Y-127883333D01*
X225309523Y-128073809D01*
X225214285Y-128169047D01*
X225023809Y-128264285D01*
X224452380Y-128264285D01*
X224261904Y-128169047D01*
X224166666Y-128073809D01*
X224071428Y-127883333D01*
X224071428Y-127502380D01*
X224166666Y-127311904D01*
X223595238Y-124930952D02*
X223500000Y-124835714D01*
X223404761Y-124645238D01*
X223404761Y-124169047D01*
X223500000Y-123978571D01*
X223595238Y-123883333D01*
X223785714Y-123788095D01*
X223976190Y-123788095D01*
X224261904Y-123883333D01*
X225404761Y-125026190D01*
X225404761Y-123788095D01*
X223404761Y-122550000D02*
X223404761Y-122359523D01*
X223500000Y-122169047D01*
X223595238Y-122073809D01*
X223785714Y-121978571D01*
X224166666Y-121883333D01*
X224642857Y-121883333D01*
X225023809Y-121978571D01*
X225214285Y-122073809D01*
X225309523Y-122169047D01*
X225404761Y-122359523D01*
X225404761Y-122550000D01*
X225309523Y-122740476D01*
X225214285Y-122835714D01*
X225023809Y-122930952D01*
X224642857Y-123026190D01*
X224166666Y-123026190D01*
X223785714Y-122930952D01*
X223595238Y-122835714D01*
X223500000Y-122740476D01*
X223404761Y-122550000D01*
X223595238Y-121121428D02*
X223500000Y-121026190D01*
X223404761Y-120835714D01*
X223404761Y-120359523D01*
X223500000Y-120169047D01*
X223595238Y-120073809D01*
X223785714Y-119978571D01*
X223976190Y-119978571D01*
X224261904Y-120073809D01*
X225404761Y-121216666D01*
X225404761Y-119978571D01*
X225404761Y-118073809D02*
X225404761Y-119216666D01*
X225404761Y-118645238D02*
X223404761Y-118645238D01*
X223690476Y-118835714D01*
X223880952Y-119026190D01*
X223976190Y-119216666D01*
X224642857Y-117216666D02*
X224642857Y-115692857D01*
X223404761Y-114359523D02*
X223404761Y-114169047D01*
X223500000Y-113978571D01*
X223595238Y-113883333D01*
X223785714Y-113788095D01*
X224166666Y-113692857D01*
X224642857Y-113692857D01*
X225023809Y-113788095D01*
X225214285Y-113883333D01*
X225309523Y-113978571D01*
X225404761Y-114169047D01*
X225404761Y-114359523D01*
X225309523Y-114550000D01*
X225214285Y-114645238D01*
X225023809Y-114740476D01*
X224642857Y-114835714D01*
X224166666Y-114835714D01*
X223785714Y-114740476D01*
X223595238Y-114645238D01*
X223500000Y-114550000D01*
X223404761Y-114359523D01*
X223404761Y-113026190D02*
X223404761Y-111788095D01*
X224166666Y-112454761D01*
X224166666Y-112169047D01*
X224261904Y-111978571D01*
X224357142Y-111883333D01*
X224547619Y-111788095D01*
X225023809Y-111788095D01*
X225214285Y-111883333D01*
X225309523Y-111978571D01*
X225404761Y-112169047D01*
X225404761Y-112740476D01*
X225309523Y-112930952D01*
X225214285Y-113026190D01*
X94535714Y-126828571D02*
X94535714Y-125328571D01*
X95250000Y-125828571D02*
X95250000Y-126828571D01*
X95250000Y-125971428D02*
X95321428Y-125900000D01*
X95464285Y-125828571D01*
X95678571Y-125828571D01*
X95821428Y-125900000D01*
X95892857Y-126042857D01*
X95892857Y-126828571D01*
X96607142Y-125828571D02*
X96607142Y-127328571D01*
X96607142Y-125900000D02*
X96750000Y-125828571D01*
X97035714Y-125828571D01*
X97178571Y-125900000D01*
X97250000Y-125971428D01*
X97321428Y-126114285D01*
X97321428Y-126542857D01*
X97250000Y-126685714D01*
X97178571Y-126757142D01*
X97035714Y-126828571D01*
X96750000Y-126828571D01*
X96607142Y-126757142D01*
X98607142Y-125828571D02*
X98607142Y-126828571D01*
X97964285Y-125828571D02*
X97964285Y-126614285D01*
X98035714Y-126757142D01*
X98178571Y-126828571D01*
X98392857Y-126828571D01*
X98535714Y-126757142D01*
X98607142Y-126685714D01*
X99107142Y-125828571D02*
X99678571Y-125828571D01*
X99321428Y-125328571D02*
X99321428Y-126614285D01*
X99392857Y-126757142D01*
X99535714Y-126828571D01*
X99678571Y-126828571D01*
X93678571Y-129307142D02*
X93892857Y-129378571D01*
X94250000Y-129378571D01*
X94392857Y-129307142D01*
X94464285Y-129235714D01*
X94535714Y-129092857D01*
X94535714Y-128950000D01*
X94464285Y-128807142D01*
X94392857Y-128735714D01*
X94250000Y-128664285D01*
X93964285Y-128592857D01*
X93821428Y-128521428D01*
X93750000Y-128450000D01*
X93678571Y-128307142D01*
X93678571Y-128164285D01*
X93750000Y-128021428D01*
X93821428Y-127950000D01*
X93964285Y-127878571D01*
X94321428Y-127878571D01*
X94535714Y-127950000D01*
X95035714Y-128378571D02*
X95321428Y-129378571D01*
X95607142Y-128664285D01*
X95892857Y-129378571D01*
X96178571Y-128378571D01*
X96750000Y-129378571D02*
X96750000Y-128378571D01*
X96750000Y-127878571D02*
X96678571Y-127950000D01*
X96750000Y-128021428D01*
X96821428Y-127950000D01*
X96750000Y-127878571D01*
X96750000Y-128021428D01*
X97250000Y-128378571D02*
X97821428Y-128378571D01*
X97464285Y-127878571D02*
X97464285Y-129164285D01*
X97535714Y-129307142D01*
X97678571Y-129378571D01*
X97821428Y-129378571D01*
X98964285Y-129307142D02*
X98821428Y-129378571D01*
X98535714Y-129378571D01*
X98392857Y-129307142D01*
X98321428Y-129235714D01*
X98250000Y-129092857D01*
X98250000Y-128664285D01*
X98321428Y-128521428D01*
X98392857Y-128450000D01*
X98535714Y-128378571D01*
X98821428Y-128378571D01*
X98964285Y-128450000D01*
X99607142Y-129378571D02*
X99607142Y-127878571D01*
X100250000Y-129378571D02*
X100250000Y-128592857D01*
X100178571Y-128450000D01*
X100035714Y-128378571D01*
X99821428Y-128378571D01*
X99678571Y-128450000D01*
X99607142Y-128521428D01*
X96250000Y-131928571D02*
X96250000Y-130428571D01*
X96964285Y-131928571D02*
X96964285Y-130428571D01*
X97321428Y-130428571D01*
X97535714Y-130500000D01*
X97678571Y-130642857D01*
X97750000Y-130785714D01*
X97821428Y-131071428D01*
X97821428Y-131285714D01*
X97750000Y-131571428D01*
X97678571Y-131714285D01*
X97535714Y-131857142D01*
X97321428Y-131928571D01*
X96964285Y-131928571D01*
X94112857Y-109108571D02*
X94398571Y-109108571D01*
X94541428Y-109180000D01*
X94684285Y-109322857D01*
X94755714Y-109608571D01*
X94755714Y-110108571D01*
X94684285Y-110394285D01*
X94541428Y-110537142D01*
X94398571Y-110608571D01*
X94112857Y-110608571D01*
X93970000Y-110537142D01*
X93827142Y-110394285D01*
X93755714Y-110108571D01*
X93755714Y-109608571D01*
X93827142Y-109322857D01*
X93970000Y-109180000D01*
X94112857Y-109108571D01*
X96041428Y-109608571D02*
X96041428Y-110608571D01*
X95398571Y-109608571D02*
X95398571Y-110394285D01*
X95470000Y-110537142D01*
X95612857Y-110608571D01*
X95827142Y-110608571D01*
X95970000Y-110537142D01*
X96041428Y-110465714D01*
X96541428Y-109608571D02*
X97112857Y-109608571D01*
X96755714Y-109108571D02*
X96755714Y-110394285D01*
X96827142Y-110537142D01*
X96970000Y-110608571D01*
X97112857Y-110608571D01*
X97612857Y-109608571D02*
X97612857Y-111108571D01*
X97612857Y-109680000D02*
X97755714Y-109608571D01*
X98041428Y-109608571D01*
X98184285Y-109680000D01*
X98255714Y-109751428D01*
X98327142Y-109894285D01*
X98327142Y-110322857D01*
X98255714Y-110465714D01*
X98184285Y-110537142D01*
X98041428Y-110608571D01*
X97755714Y-110608571D01*
X97612857Y-110537142D01*
X99612857Y-109608571D02*
X99612857Y-110608571D01*
X98970000Y-109608571D02*
X98970000Y-110394285D01*
X99041428Y-110537142D01*
X99184285Y-110608571D01*
X99398571Y-110608571D01*
X99541428Y-110537142D01*
X99612857Y-110465714D01*
X100112857Y-109608571D02*
X100684285Y-109608571D01*
X100327142Y-109108571D02*
X100327142Y-110394285D01*
X100398571Y-110537142D01*
X100541428Y-110608571D01*
X100684285Y-110608571D01*
X93827142Y-113087142D02*
X94041428Y-113158571D01*
X94398571Y-113158571D01*
X94541428Y-113087142D01*
X94612857Y-113015714D01*
X94684285Y-112872857D01*
X94684285Y-112730000D01*
X94612857Y-112587142D01*
X94541428Y-112515714D01*
X94398571Y-112444285D01*
X94112857Y-112372857D01*
X93970000Y-112301428D01*
X93898571Y-112230000D01*
X93827142Y-112087142D01*
X93827142Y-111944285D01*
X93898571Y-111801428D01*
X93970000Y-111730000D01*
X94112857Y-111658571D01*
X94470000Y-111658571D01*
X94684285Y-111730000D01*
X95184285Y-112158571D02*
X95470000Y-113158571D01*
X95755714Y-112444285D01*
X96041428Y-113158571D01*
X96327142Y-112158571D01*
X96898571Y-113158571D02*
X96898571Y-112158571D01*
X96898571Y-111658571D02*
X96827142Y-111730000D01*
X96898571Y-111801428D01*
X96970000Y-111730000D01*
X96898571Y-111658571D01*
X96898571Y-111801428D01*
X97398571Y-112158571D02*
X97970000Y-112158571D01*
X97612857Y-111658571D02*
X97612857Y-112944285D01*
X97684285Y-113087142D01*
X97827142Y-113158571D01*
X97970000Y-113158571D01*
X99112857Y-113087142D02*
X98970000Y-113158571D01*
X98684285Y-113158571D01*
X98541428Y-113087142D01*
X98470000Y-113015714D01*
X98398571Y-112872857D01*
X98398571Y-112444285D01*
X98470000Y-112301428D01*
X98541428Y-112230000D01*
X98684285Y-112158571D01*
X98970000Y-112158571D01*
X99112857Y-112230000D01*
X99755714Y-113158571D02*
X99755714Y-111658571D01*
X100398571Y-113158571D02*
X100398571Y-112372857D01*
X100327142Y-112230000D01*
X100184285Y-112158571D01*
X99970000Y-112158571D01*
X99827142Y-112230000D01*
X99755714Y-112301428D01*
X96970000Y-115708571D02*
X96970000Y-114208571D01*
X97684285Y-115708571D02*
X97684285Y-114208571D01*
X98041428Y-114208571D01*
X98255714Y-114280000D01*
X98398571Y-114422857D01*
X98470000Y-114565714D01*
X98541428Y-114851428D01*
X98541428Y-115065714D01*
X98470000Y-115351428D01*
X98398571Y-115494285D01*
X98255714Y-115637142D01*
X98041428Y-115708571D01*
X97684285Y-115708571D01*
D11*
%TO.C,IC1*%
X187695000Y-135930000D02*
X187695000Y-127605000D01*
X207125000Y-135475000D02*
X207125000Y-127605000D01*
D12*
%TO.C,D1*%
X215356000Y-141258000D02*
X215356000Y-141414000D01*
X215356000Y-143574000D02*
X215356000Y-143730000D01*
X217957130Y-143573837D02*
G75*
G02*
X215875039Y-143574000I-1041130J1079837D01*
G01*
X217957130Y-141414163D02*
G75*
G03*
X215875039Y-141414000I-1041130J-1079837D01*
G01*
X218588335Y-143572608D02*
G75*
G02*
X215356000Y-143729516I-1672335J1078608D01*
G01*
X218588335Y-141415392D02*
G75*
G03*
X215356000Y-141258484I-1672335J-1078608D01*
G01*
D13*
%TO.C,J2*%
X55201000Y-152155800D02*
X87459000Y-152155800D01*
X87459000Y-152155800D02*
X87459000Y-148259225D01*
X87459000Y-143291200D02*
X55201000Y-143291200D01*
X55201000Y-143291200D02*
X55201000Y-147060775D01*
X55201000Y-148259225D02*
X55201000Y-152155800D01*
X87459000Y-147060775D02*
X87459000Y-143291200D01*
X66631000Y-144485000D02*
G75*
G03*
X66631000Y-144485000I-381000J0D01*
G01*
%TO.C,J1*%
X35824200Y-111521000D02*
X35824200Y-143779000D01*
X35824200Y-143779000D02*
X39720775Y-143779000D01*
X44688800Y-143779000D02*
X44688800Y-111521000D01*
X44688800Y-111521000D02*
X40919225Y-111521000D01*
X39720775Y-111521000D02*
X35824200Y-111521000D01*
X40919225Y-143779000D02*
X44688800Y-143779000D01*
X43876000Y-122570000D02*
G75*
G03*
X43876000Y-122570000I-381000J0D01*
G01*
D12*
%TO.C,C22*%
X186140000Y-143600000D02*
G75*
G03*
X186140000Y-143600000I-2620000J0D01*
G01*
X183520000Y-141020000D02*
X183520000Y-146180000D01*
X183560000Y-141020000D02*
X183560000Y-146180000D01*
X183600000Y-141021000D02*
X183600000Y-146179000D01*
X183640000Y-141022000D02*
X183640000Y-146178000D01*
X183680000Y-141024000D02*
X183680000Y-146176000D01*
X183720000Y-141027000D02*
X183720000Y-146173000D01*
X183760000Y-141031000D02*
X183760000Y-142560000D01*
X183760000Y-144640000D02*
X183760000Y-146169000D01*
X183800000Y-141035000D02*
X183800000Y-142560000D01*
X183800000Y-144640000D02*
X183800000Y-146165000D01*
X183840000Y-141039000D02*
X183840000Y-142560000D01*
X183840000Y-144640000D02*
X183840000Y-146161000D01*
X183880000Y-141044000D02*
X183880000Y-142560000D01*
X183880000Y-144640000D02*
X183880000Y-146156000D01*
X183920000Y-141050000D02*
X183920000Y-142560000D01*
X183920000Y-144640000D02*
X183920000Y-146150000D01*
X183960000Y-141057000D02*
X183960000Y-142560000D01*
X183960000Y-144640000D02*
X183960000Y-146143000D01*
X184000000Y-141064000D02*
X184000000Y-142560000D01*
X184000000Y-144640000D02*
X184000000Y-146136000D01*
X184040000Y-141072000D02*
X184040000Y-142560000D01*
X184040000Y-144640000D02*
X184040000Y-146128000D01*
X184080000Y-141080000D02*
X184080000Y-142560000D01*
X184080000Y-144640000D02*
X184080000Y-146120000D01*
X184120000Y-141089000D02*
X184120000Y-142560000D01*
X184120000Y-144640000D02*
X184120000Y-146111000D01*
X184160000Y-141099000D02*
X184160000Y-142560000D01*
X184160000Y-144640000D02*
X184160000Y-146101000D01*
X184200000Y-141109000D02*
X184200000Y-142560000D01*
X184200000Y-144640000D02*
X184200000Y-146091000D01*
X184241000Y-141120000D02*
X184241000Y-142560000D01*
X184241000Y-144640000D02*
X184241000Y-146080000D01*
X184281000Y-141132000D02*
X184281000Y-142560000D01*
X184281000Y-144640000D02*
X184281000Y-146068000D01*
X184321000Y-141145000D02*
X184321000Y-142560000D01*
X184321000Y-144640000D02*
X184321000Y-146055000D01*
X184361000Y-141158000D02*
X184361000Y-142560000D01*
X184361000Y-144640000D02*
X184361000Y-146042000D01*
X184401000Y-141172000D02*
X184401000Y-142560000D01*
X184401000Y-144640000D02*
X184401000Y-146028000D01*
X184441000Y-141186000D02*
X184441000Y-142560000D01*
X184441000Y-144640000D02*
X184441000Y-146014000D01*
X184481000Y-141202000D02*
X184481000Y-142560000D01*
X184481000Y-144640000D02*
X184481000Y-145998000D01*
X184521000Y-141218000D02*
X184521000Y-142560000D01*
X184521000Y-144640000D02*
X184521000Y-145982000D01*
X184561000Y-141235000D02*
X184561000Y-142560000D01*
X184561000Y-144640000D02*
X184561000Y-145965000D01*
X184601000Y-141252000D02*
X184601000Y-142560000D01*
X184601000Y-144640000D02*
X184601000Y-145948000D01*
X184641000Y-141271000D02*
X184641000Y-142560000D01*
X184641000Y-144640000D02*
X184641000Y-145929000D01*
X184681000Y-141290000D02*
X184681000Y-142560000D01*
X184681000Y-144640000D02*
X184681000Y-145910000D01*
X184721000Y-141310000D02*
X184721000Y-142560000D01*
X184721000Y-144640000D02*
X184721000Y-145890000D01*
X184761000Y-141332000D02*
X184761000Y-142560000D01*
X184761000Y-144640000D02*
X184761000Y-145868000D01*
X184801000Y-141353000D02*
X184801000Y-142560000D01*
X184801000Y-144640000D02*
X184801000Y-145847000D01*
X184841000Y-141376000D02*
X184841000Y-142560000D01*
X184841000Y-144640000D02*
X184841000Y-145824000D01*
X184881000Y-141400000D02*
X184881000Y-142560000D01*
X184881000Y-144640000D02*
X184881000Y-145800000D01*
X184921000Y-141425000D02*
X184921000Y-142560000D01*
X184921000Y-144640000D02*
X184921000Y-145775000D01*
X184961000Y-141451000D02*
X184961000Y-142560000D01*
X184961000Y-144640000D02*
X184961000Y-145749000D01*
X185001000Y-141478000D02*
X185001000Y-142560000D01*
X185001000Y-144640000D02*
X185001000Y-145722000D01*
X185041000Y-141505000D02*
X185041000Y-142560000D01*
X185041000Y-144640000D02*
X185041000Y-145695000D01*
X185081000Y-141535000D02*
X185081000Y-142560000D01*
X185081000Y-144640000D02*
X185081000Y-145665000D01*
X185121000Y-141565000D02*
X185121000Y-142560000D01*
X185121000Y-144640000D02*
X185121000Y-145635000D01*
X185161000Y-141596000D02*
X185161000Y-142560000D01*
X185161000Y-144640000D02*
X185161000Y-145604000D01*
X185201000Y-141629000D02*
X185201000Y-142560000D01*
X185201000Y-144640000D02*
X185201000Y-145571000D01*
X185241000Y-141663000D02*
X185241000Y-142560000D01*
X185241000Y-144640000D02*
X185241000Y-145537000D01*
X185281000Y-141699000D02*
X185281000Y-142560000D01*
X185281000Y-144640000D02*
X185281000Y-145501000D01*
X185321000Y-141736000D02*
X185321000Y-142560000D01*
X185321000Y-144640000D02*
X185321000Y-145464000D01*
X185361000Y-141774000D02*
X185361000Y-142560000D01*
X185361000Y-144640000D02*
X185361000Y-145426000D01*
X185401000Y-141815000D02*
X185401000Y-142560000D01*
X185401000Y-144640000D02*
X185401000Y-145385000D01*
X185441000Y-141857000D02*
X185441000Y-142560000D01*
X185441000Y-144640000D02*
X185441000Y-145343000D01*
X185481000Y-141901000D02*
X185481000Y-142560000D01*
X185481000Y-144640000D02*
X185481000Y-145299000D01*
X185521000Y-141947000D02*
X185521000Y-142560000D01*
X185521000Y-144640000D02*
X185521000Y-145253000D01*
X185561000Y-141995000D02*
X185561000Y-142560000D01*
X185561000Y-144640000D02*
X185561000Y-145205000D01*
X185601000Y-142046000D02*
X185601000Y-142560000D01*
X185601000Y-144640000D02*
X185601000Y-145154000D01*
X185641000Y-142100000D02*
X185641000Y-142560000D01*
X185641000Y-144640000D02*
X185641000Y-145100000D01*
X185681000Y-142157000D02*
X185681000Y-142560000D01*
X185681000Y-144640000D02*
X185681000Y-145043000D01*
X185721000Y-142217000D02*
X185721000Y-142560000D01*
X185721000Y-144640000D02*
X185721000Y-144983000D01*
X185761000Y-142281000D02*
X185761000Y-142560000D01*
X185761000Y-144640000D02*
X185761000Y-144919000D01*
X185801000Y-142349000D02*
X185801000Y-142560000D01*
X185801000Y-144640000D02*
X185801000Y-144851000D01*
X185841000Y-142422000D02*
X185841000Y-144778000D01*
X185881000Y-142502000D02*
X185881000Y-144698000D01*
X185921000Y-142589000D02*
X185921000Y-144611000D01*
X185961000Y-142685000D02*
X185961000Y-144515000D01*
X186001000Y-142795000D02*
X186001000Y-144405000D01*
X186041000Y-142923000D02*
X186041000Y-144277000D01*
X186081000Y-143082000D02*
X186081000Y-144118000D01*
X186121000Y-143316000D02*
X186121000Y-143884000D01*
X180715225Y-142125000D02*
X181215225Y-142125000D01*
X180965225Y-141875000D02*
X180965225Y-142375000D01*
%TO.C,C21*%
X204700000Y-143490000D02*
G75*
G03*
X204700000Y-143490000I-2620000J0D01*
G01*
X202080000Y-140910000D02*
X202080000Y-146070000D01*
X202120000Y-140910000D02*
X202120000Y-146070000D01*
X202160000Y-140911000D02*
X202160000Y-146069000D01*
X202200000Y-140912000D02*
X202200000Y-146068000D01*
X202240000Y-140914000D02*
X202240000Y-146066000D01*
X202280000Y-140917000D02*
X202280000Y-146063000D01*
X202320000Y-140921000D02*
X202320000Y-142450000D01*
X202320000Y-144530000D02*
X202320000Y-146059000D01*
X202360000Y-140925000D02*
X202360000Y-142450000D01*
X202360000Y-144530000D02*
X202360000Y-146055000D01*
X202400000Y-140929000D02*
X202400000Y-142450000D01*
X202400000Y-144530000D02*
X202400000Y-146051000D01*
X202440000Y-140934000D02*
X202440000Y-142450000D01*
X202440000Y-144530000D02*
X202440000Y-146046000D01*
X202480000Y-140940000D02*
X202480000Y-142450000D01*
X202480000Y-144530000D02*
X202480000Y-146040000D01*
X202520000Y-140947000D02*
X202520000Y-142450000D01*
X202520000Y-144530000D02*
X202520000Y-146033000D01*
X202560000Y-140954000D02*
X202560000Y-142450000D01*
X202560000Y-144530000D02*
X202560000Y-146026000D01*
X202600000Y-140962000D02*
X202600000Y-142450000D01*
X202600000Y-144530000D02*
X202600000Y-146018000D01*
X202640000Y-140970000D02*
X202640000Y-142450000D01*
X202640000Y-144530000D02*
X202640000Y-146010000D01*
X202680000Y-140979000D02*
X202680000Y-142450000D01*
X202680000Y-144530000D02*
X202680000Y-146001000D01*
X202720000Y-140989000D02*
X202720000Y-142450000D01*
X202720000Y-144530000D02*
X202720000Y-145991000D01*
X202760000Y-140999000D02*
X202760000Y-142450000D01*
X202760000Y-144530000D02*
X202760000Y-145981000D01*
X202801000Y-141010000D02*
X202801000Y-142450000D01*
X202801000Y-144530000D02*
X202801000Y-145970000D01*
X202841000Y-141022000D02*
X202841000Y-142450000D01*
X202841000Y-144530000D02*
X202841000Y-145958000D01*
X202881000Y-141035000D02*
X202881000Y-142450000D01*
X202881000Y-144530000D02*
X202881000Y-145945000D01*
X202921000Y-141048000D02*
X202921000Y-142450000D01*
X202921000Y-144530000D02*
X202921000Y-145932000D01*
X202961000Y-141062000D02*
X202961000Y-142450000D01*
X202961000Y-144530000D02*
X202961000Y-145918000D01*
X203001000Y-141076000D02*
X203001000Y-142450000D01*
X203001000Y-144530000D02*
X203001000Y-145904000D01*
X203041000Y-141092000D02*
X203041000Y-142450000D01*
X203041000Y-144530000D02*
X203041000Y-145888000D01*
X203081000Y-141108000D02*
X203081000Y-142450000D01*
X203081000Y-144530000D02*
X203081000Y-145872000D01*
X203121000Y-141125000D02*
X203121000Y-142450000D01*
X203121000Y-144530000D02*
X203121000Y-145855000D01*
X203161000Y-141142000D02*
X203161000Y-142450000D01*
X203161000Y-144530000D02*
X203161000Y-145838000D01*
X203201000Y-141161000D02*
X203201000Y-142450000D01*
X203201000Y-144530000D02*
X203201000Y-145819000D01*
X203241000Y-141180000D02*
X203241000Y-142450000D01*
X203241000Y-144530000D02*
X203241000Y-145800000D01*
X203281000Y-141200000D02*
X203281000Y-142450000D01*
X203281000Y-144530000D02*
X203281000Y-145780000D01*
X203321000Y-141222000D02*
X203321000Y-142450000D01*
X203321000Y-144530000D02*
X203321000Y-145758000D01*
X203361000Y-141243000D02*
X203361000Y-142450000D01*
X203361000Y-144530000D02*
X203361000Y-145737000D01*
X203401000Y-141266000D02*
X203401000Y-142450000D01*
X203401000Y-144530000D02*
X203401000Y-145714000D01*
X203441000Y-141290000D02*
X203441000Y-142450000D01*
X203441000Y-144530000D02*
X203441000Y-145690000D01*
X203481000Y-141315000D02*
X203481000Y-142450000D01*
X203481000Y-144530000D02*
X203481000Y-145665000D01*
X203521000Y-141341000D02*
X203521000Y-142450000D01*
X203521000Y-144530000D02*
X203521000Y-145639000D01*
X203561000Y-141368000D02*
X203561000Y-142450000D01*
X203561000Y-144530000D02*
X203561000Y-145612000D01*
X203601000Y-141395000D02*
X203601000Y-142450000D01*
X203601000Y-144530000D02*
X203601000Y-145585000D01*
X203641000Y-141425000D02*
X203641000Y-142450000D01*
X203641000Y-144530000D02*
X203641000Y-145555000D01*
X203681000Y-141455000D02*
X203681000Y-142450000D01*
X203681000Y-144530000D02*
X203681000Y-145525000D01*
X203721000Y-141486000D02*
X203721000Y-142450000D01*
X203721000Y-144530000D02*
X203721000Y-145494000D01*
X203761000Y-141519000D02*
X203761000Y-142450000D01*
X203761000Y-144530000D02*
X203761000Y-145461000D01*
X203801000Y-141553000D02*
X203801000Y-142450000D01*
X203801000Y-144530000D02*
X203801000Y-145427000D01*
X203841000Y-141589000D02*
X203841000Y-142450000D01*
X203841000Y-144530000D02*
X203841000Y-145391000D01*
X203881000Y-141626000D02*
X203881000Y-142450000D01*
X203881000Y-144530000D02*
X203881000Y-145354000D01*
X203921000Y-141664000D02*
X203921000Y-142450000D01*
X203921000Y-144530000D02*
X203921000Y-145316000D01*
X203961000Y-141705000D02*
X203961000Y-142450000D01*
X203961000Y-144530000D02*
X203961000Y-145275000D01*
X204001000Y-141747000D02*
X204001000Y-142450000D01*
X204001000Y-144530000D02*
X204001000Y-145233000D01*
X204041000Y-141791000D02*
X204041000Y-142450000D01*
X204041000Y-144530000D02*
X204041000Y-145189000D01*
X204081000Y-141837000D02*
X204081000Y-142450000D01*
X204081000Y-144530000D02*
X204081000Y-145143000D01*
X204121000Y-141885000D02*
X204121000Y-142450000D01*
X204121000Y-144530000D02*
X204121000Y-145095000D01*
X204161000Y-141936000D02*
X204161000Y-142450000D01*
X204161000Y-144530000D02*
X204161000Y-145044000D01*
X204201000Y-141990000D02*
X204201000Y-142450000D01*
X204201000Y-144530000D02*
X204201000Y-144990000D01*
X204241000Y-142047000D02*
X204241000Y-142450000D01*
X204241000Y-144530000D02*
X204241000Y-144933000D01*
X204281000Y-142107000D02*
X204281000Y-142450000D01*
X204281000Y-144530000D02*
X204281000Y-144873000D01*
X204321000Y-142171000D02*
X204321000Y-142450000D01*
X204321000Y-144530000D02*
X204321000Y-144809000D01*
X204361000Y-142239000D02*
X204361000Y-142450000D01*
X204361000Y-144530000D02*
X204361000Y-144741000D01*
X204401000Y-142312000D02*
X204401000Y-144668000D01*
X204441000Y-142392000D02*
X204441000Y-144588000D01*
X204481000Y-142479000D02*
X204481000Y-144501000D01*
X204521000Y-142575000D02*
X204521000Y-144405000D01*
X204561000Y-142685000D02*
X204561000Y-144295000D01*
X204601000Y-142813000D02*
X204601000Y-144167000D01*
X204641000Y-142972000D02*
X204641000Y-144008000D01*
X204681000Y-143206000D02*
X204681000Y-143774000D01*
X199275225Y-142015000D02*
X199775225Y-142015000D01*
X199525225Y-141765000D02*
X199525225Y-142265000D01*
%TO.C,C20*%
X198380000Y-143490000D02*
G75*
G03*
X198380000Y-143490000I-2620000J0D01*
G01*
X195760000Y-140910000D02*
X195760000Y-146070000D01*
X195800000Y-140910000D02*
X195800000Y-146070000D01*
X195840000Y-140911000D02*
X195840000Y-146069000D01*
X195880000Y-140912000D02*
X195880000Y-146068000D01*
X195920000Y-140914000D02*
X195920000Y-146066000D01*
X195960000Y-140917000D02*
X195960000Y-146063000D01*
X196000000Y-140921000D02*
X196000000Y-142450000D01*
X196000000Y-144530000D02*
X196000000Y-146059000D01*
X196040000Y-140925000D02*
X196040000Y-142450000D01*
X196040000Y-144530000D02*
X196040000Y-146055000D01*
X196080000Y-140929000D02*
X196080000Y-142450000D01*
X196080000Y-144530000D02*
X196080000Y-146051000D01*
X196120000Y-140934000D02*
X196120000Y-142450000D01*
X196120000Y-144530000D02*
X196120000Y-146046000D01*
X196160000Y-140940000D02*
X196160000Y-142450000D01*
X196160000Y-144530000D02*
X196160000Y-146040000D01*
X196200000Y-140947000D02*
X196200000Y-142450000D01*
X196200000Y-144530000D02*
X196200000Y-146033000D01*
X196240000Y-140954000D02*
X196240000Y-142450000D01*
X196240000Y-144530000D02*
X196240000Y-146026000D01*
X196280000Y-140962000D02*
X196280000Y-142450000D01*
X196280000Y-144530000D02*
X196280000Y-146018000D01*
X196320000Y-140970000D02*
X196320000Y-142450000D01*
X196320000Y-144530000D02*
X196320000Y-146010000D01*
X196360000Y-140979000D02*
X196360000Y-142450000D01*
X196360000Y-144530000D02*
X196360000Y-146001000D01*
X196400000Y-140989000D02*
X196400000Y-142450000D01*
X196400000Y-144530000D02*
X196400000Y-145991000D01*
X196440000Y-140999000D02*
X196440000Y-142450000D01*
X196440000Y-144530000D02*
X196440000Y-145981000D01*
X196481000Y-141010000D02*
X196481000Y-142450000D01*
X196481000Y-144530000D02*
X196481000Y-145970000D01*
X196521000Y-141022000D02*
X196521000Y-142450000D01*
X196521000Y-144530000D02*
X196521000Y-145958000D01*
X196561000Y-141035000D02*
X196561000Y-142450000D01*
X196561000Y-144530000D02*
X196561000Y-145945000D01*
X196601000Y-141048000D02*
X196601000Y-142450000D01*
X196601000Y-144530000D02*
X196601000Y-145932000D01*
X196641000Y-141062000D02*
X196641000Y-142450000D01*
X196641000Y-144530000D02*
X196641000Y-145918000D01*
X196681000Y-141076000D02*
X196681000Y-142450000D01*
X196681000Y-144530000D02*
X196681000Y-145904000D01*
X196721000Y-141092000D02*
X196721000Y-142450000D01*
X196721000Y-144530000D02*
X196721000Y-145888000D01*
X196761000Y-141108000D02*
X196761000Y-142450000D01*
X196761000Y-144530000D02*
X196761000Y-145872000D01*
X196801000Y-141125000D02*
X196801000Y-142450000D01*
X196801000Y-144530000D02*
X196801000Y-145855000D01*
X196841000Y-141142000D02*
X196841000Y-142450000D01*
X196841000Y-144530000D02*
X196841000Y-145838000D01*
X196881000Y-141161000D02*
X196881000Y-142450000D01*
X196881000Y-144530000D02*
X196881000Y-145819000D01*
X196921000Y-141180000D02*
X196921000Y-142450000D01*
X196921000Y-144530000D02*
X196921000Y-145800000D01*
X196961000Y-141200000D02*
X196961000Y-142450000D01*
X196961000Y-144530000D02*
X196961000Y-145780000D01*
X197001000Y-141222000D02*
X197001000Y-142450000D01*
X197001000Y-144530000D02*
X197001000Y-145758000D01*
X197041000Y-141243000D02*
X197041000Y-142450000D01*
X197041000Y-144530000D02*
X197041000Y-145737000D01*
X197081000Y-141266000D02*
X197081000Y-142450000D01*
X197081000Y-144530000D02*
X197081000Y-145714000D01*
X197121000Y-141290000D02*
X197121000Y-142450000D01*
X197121000Y-144530000D02*
X197121000Y-145690000D01*
X197161000Y-141315000D02*
X197161000Y-142450000D01*
X197161000Y-144530000D02*
X197161000Y-145665000D01*
X197201000Y-141341000D02*
X197201000Y-142450000D01*
X197201000Y-144530000D02*
X197201000Y-145639000D01*
X197241000Y-141368000D02*
X197241000Y-142450000D01*
X197241000Y-144530000D02*
X197241000Y-145612000D01*
X197281000Y-141395000D02*
X197281000Y-142450000D01*
X197281000Y-144530000D02*
X197281000Y-145585000D01*
X197321000Y-141425000D02*
X197321000Y-142450000D01*
X197321000Y-144530000D02*
X197321000Y-145555000D01*
X197361000Y-141455000D02*
X197361000Y-142450000D01*
X197361000Y-144530000D02*
X197361000Y-145525000D01*
X197401000Y-141486000D02*
X197401000Y-142450000D01*
X197401000Y-144530000D02*
X197401000Y-145494000D01*
X197441000Y-141519000D02*
X197441000Y-142450000D01*
X197441000Y-144530000D02*
X197441000Y-145461000D01*
X197481000Y-141553000D02*
X197481000Y-142450000D01*
X197481000Y-144530000D02*
X197481000Y-145427000D01*
X197521000Y-141589000D02*
X197521000Y-142450000D01*
X197521000Y-144530000D02*
X197521000Y-145391000D01*
X197561000Y-141626000D02*
X197561000Y-142450000D01*
X197561000Y-144530000D02*
X197561000Y-145354000D01*
X197601000Y-141664000D02*
X197601000Y-142450000D01*
X197601000Y-144530000D02*
X197601000Y-145316000D01*
X197641000Y-141705000D02*
X197641000Y-142450000D01*
X197641000Y-144530000D02*
X197641000Y-145275000D01*
X197681000Y-141747000D02*
X197681000Y-142450000D01*
X197681000Y-144530000D02*
X197681000Y-145233000D01*
X197721000Y-141791000D02*
X197721000Y-142450000D01*
X197721000Y-144530000D02*
X197721000Y-145189000D01*
X197761000Y-141837000D02*
X197761000Y-142450000D01*
X197761000Y-144530000D02*
X197761000Y-145143000D01*
X197801000Y-141885000D02*
X197801000Y-142450000D01*
X197801000Y-144530000D02*
X197801000Y-145095000D01*
X197841000Y-141936000D02*
X197841000Y-142450000D01*
X197841000Y-144530000D02*
X197841000Y-145044000D01*
X197881000Y-141990000D02*
X197881000Y-142450000D01*
X197881000Y-144530000D02*
X197881000Y-144990000D01*
X197921000Y-142047000D02*
X197921000Y-142450000D01*
X197921000Y-144530000D02*
X197921000Y-144933000D01*
X197961000Y-142107000D02*
X197961000Y-142450000D01*
X197961000Y-144530000D02*
X197961000Y-144873000D01*
X198001000Y-142171000D02*
X198001000Y-142450000D01*
X198001000Y-144530000D02*
X198001000Y-144809000D01*
X198041000Y-142239000D02*
X198041000Y-142450000D01*
X198041000Y-144530000D02*
X198041000Y-144741000D01*
X198081000Y-142312000D02*
X198081000Y-144668000D01*
X198121000Y-142392000D02*
X198121000Y-144588000D01*
X198161000Y-142479000D02*
X198161000Y-144501000D01*
X198201000Y-142575000D02*
X198201000Y-144405000D01*
X198241000Y-142685000D02*
X198241000Y-144295000D01*
X198281000Y-142813000D02*
X198281000Y-144167000D01*
X198321000Y-142972000D02*
X198321000Y-144008000D01*
X198361000Y-143206000D02*
X198361000Y-143774000D01*
X192955225Y-142015000D02*
X193455225Y-142015000D01*
X193205225Y-141765000D02*
X193205225Y-142265000D01*
%TO.C,C19*%
X192400000Y-143550000D02*
G75*
G03*
X192400000Y-143550000I-2620000J0D01*
G01*
X189780000Y-140970000D02*
X189780000Y-146130000D01*
X189820000Y-140970000D02*
X189820000Y-146130000D01*
X189860000Y-140971000D02*
X189860000Y-146129000D01*
X189900000Y-140972000D02*
X189900000Y-146128000D01*
X189940000Y-140974000D02*
X189940000Y-146126000D01*
X189980000Y-140977000D02*
X189980000Y-146123000D01*
X190020000Y-140981000D02*
X190020000Y-142510000D01*
X190020000Y-144590000D02*
X190020000Y-146119000D01*
X190060000Y-140985000D02*
X190060000Y-142510000D01*
X190060000Y-144590000D02*
X190060000Y-146115000D01*
X190100000Y-140989000D02*
X190100000Y-142510000D01*
X190100000Y-144590000D02*
X190100000Y-146111000D01*
X190140000Y-140994000D02*
X190140000Y-142510000D01*
X190140000Y-144590000D02*
X190140000Y-146106000D01*
X190180000Y-141000000D02*
X190180000Y-142510000D01*
X190180000Y-144590000D02*
X190180000Y-146100000D01*
X190220000Y-141007000D02*
X190220000Y-142510000D01*
X190220000Y-144590000D02*
X190220000Y-146093000D01*
X190260000Y-141014000D02*
X190260000Y-142510000D01*
X190260000Y-144590000D02*
X190260000Y-146086000D01*
X190300000Y-141022000D02*
X190300000Y-142510000D01*
X190300000Y-144590000D02*
X190300000Y-146078000D01*
X190340000Y-141030000D02*
X190340000Y-142510000D01*
X190340000Y-144590000D02*
X190340000Y-146070000D01*
X190380000Y-141039000D02*
X190380000Y-142510000D01*
X190380000Y-144590000D02*
X190380000Y-146061000D01*
X190420000Y-141049000D02*
X190420000Y-142510000D01*
X190420000Y-144590000D02*
X190420000Y-146051000D01*
X190460000Y-141059000D02*
X190460000Y-142510000D01*
X190460000Y-144590000D02*
X190460000Y-146041000D01*
X190501000Y-141070000D02*
X190501000Y-142510000D01*
X190501000Y-144590000D02*
X190501000Y-146030000D01*
X190541000Y-141082000D02*
X190541000Y-142510000D01*
X190541000Y-144590000D02*
X190541000Y-146018000D01*
X190581000Y-141095000D02*
X190581000Y-142510000D01*
X190581000Y-144590000D02*
X190581000Y-146005000D01*
X190621000Y-141108000D02*
X190621000Y-142510000D01*
X190621000Y-144590000D02*
X190621000Y-145992000D01*
X190661000Y-141122000D02*
X190661000Y-142510000D01*
X190661000Y-144590000D02*
X190661000Y-145978000D01*
X190701000Y-141136000D02*
X190701000Y-142510000D01*
X190701000Y-144590000D02*
X190701000Y-145964000D01*
X190741000Y-141152000D02*
X190741000Y-142510000D01*
X190741000Y-144590000D02*
X190741000Y-145948000D01*
X190781000Y-141168000D02*
X190781000Y-142510000D01*
X190781000Y-144590000D02*
X190781000Y-145932000D01*
X190821000Y-141185000D02*
X190821000Y-142510000D01*
X190821000Y-144590000D02*
X190821000Y-145915000D01*
X190861000Y-141202000D02*
X190861000Y-142510000D01*
X190861000Y-144590000D02*
X190861000Y-145898000D01*
X190901000Y-141221000D02*
X190901000Y-142510000D01*
X190901000Y-144590000D02*
X190901000Y-145879000D01*
X190941000Y-141240000D02*
X190941000Y-142510000D01*
X190941000Y-144590000D02*
X190941000Y-145860000D01*
X190981000Y-141260000D02*
X190981000Y-142510000D01*
X190981000Y-144590000D02*
X190981000Y-145840000D01*
X191021000Y-141282000D02*
X191021000Y-142510000D01*
X191021000Y-144590000D02*
X191021000Y-145818000D01*
X191061000Y-141303000D02*
X191061000Y-142510000D01*
X191061000Y-144590000D02*
X191061000Y-145797000D01*
X191101000Y-141326000D02*
X191101000Y-142510000D01*
X191101000Y-144590000D02*
X191101000Y-145774000D01*
X191141000Y-141350000D02*
X191141000Y-142510000D01*
X191141000Y-144590000D02*
X191141000Y-145750000D01*
X191181000Y-141375000D02*
X191181000Y-142510000D01*
X191181000Y-144590000D02*
X191181000Y-145725000D01*
X191221000Y-141401000D02*
X191221000Y-142510000D01*
X191221000Y-144590000D02*
X191221000Y-145699000D01*
X191261000Y-141428000D02*
X191261000Y-142510000D01*
X191261000Y-144590000D02*
X191261000Y-145672000D01*
X191301000Y-141455000D02*
X191301000Y-142510000D01*
X191301000Y-144590000D02*
X191301000Y-145645000D01*
X191341000Y-141485000D02*
X191341000Y-142510000D01*
X191341000Y-144590000D02*
X191341000Y-145615000D01*
X191381000Y-141515000D02*
X191381000Y-142510000D01*
X191381000Y-144590000D02*
X191381000Y-145585000D01*
X191421000Y-141546000D02*
X191421000Y-142510000D01*
X191421000Y-144590000D02*
X191421000Y-145554000D01*
X191461000Y-141579000D02*
X191461000Y-142510000D01*
X191461000Y-144590000D02*
X191461000Y-145521000D01*
X191501000Y-141613000D02*
X191501000Y-142510000D01*
X191501000Y-144590000D02*
X191501000Y-145487000D01*
X191541000Y-141649000D02*
X191541000Y-142510000D01*
X191541000Y-144590000D02*
X191541000Y-145451000D01*
X191581000Y-141686000D02*
X191581000Y-142510000D01*
X191581000Y-144590000D02*
X191581000Y-145414000D01*
X191621000Y-141724000D02*
X191621000Y-142510000D01*
X191621000Y-144590000D02*
X191621000Y-145376000D01*
X191661000Y-141765000D02*
X191661000Y-142510000D01*
X191661000Y-144590000D02*
X191661000Y-145335000D01*
X191701000Y-141807000D02*
X191701000Y-142510000D01*
X191701000Y-144590000D02*
X191701000Y-145293000D01*
X191741000Y-141851000D02*
X191741000Y-142510000D01*
X191741000Y-144590000D02*
X191741000Y-145249000D01*
X191781000Y-141897000D02*
X191781000Y-142510000D01*
X191781000Y-144590000D02*
X191781000Y-145203000D01*
X191821000Y-141945000D02*
X191821000Y-142510000D01*
X191821000Y-144590000D02*
X191821000Y-145155000D01*
X191861000Y-141996000D02*
X191861000Y-142510000D01*
X191861000Y-144590000D02*
X191861000Y-145104000D01*
X191901000Y-142050000D02*
X191901000Y-142510000D01*
X191901000Y-144590000D02*
X191901000Y-145050000D01*
X191941000Y-142107000D02*
X191941000Y-142510000D01*
X191941000Y-144590000D02*
X191941000Y-144993000D01*
X191981000Y-142167000D02*
X191981000Y-142510000D01*
X191981000Y-144590000D02*
X191981000Y-144933000D01*
X192021000Y-142231000D02*
X192021000Y-142510000D01*
X192021000Y-144590000D02*
X192021000Y-144869000D01*
X192061000Y-142299000D02*
X192061000Y-142510000D01*
X192061000Y-144590000D02*
X192061000Y-144801000D01*
X192101000Y-142372000D02*
X192101000Y-144728000D01*
X192141000Y-142452000D02*
X192141000Y-144648000D01*
X192181000Y-142539000D02*
X192181000Y-144561000D01*
X192221000Y-142635000D02*
X192221000Y-144465000D01*
X192261000Y-142745000D02*
X192261000Y-144355000D01*
X192301000Y-142873000D02*
X192301000Y-144227000D01*
X192341000Y-143032000D02*
X192341000Y-144068000D01*
X192381000Y-143266000D02*
X192381000Y-143834000D01*
X186975225Y-142075000D02*
X187475225Y-142075000D01*
X187225225Y-141825000D02*
X187225225Y-142325000D01*
%TO.C,J4*%
X210895000Y-104880000D02*
X210895000Y-115360000D01*
X210895000Y-115360000D02*
X179925000Y-115360000D01*
X179925000Y-115360000D02*
X179925000Y-104880000D01*
X201200000Y-116254338D02*
X200700000Y-116254338D01*
X200700000Y-116254338D02*
X200950000Y-115821325D01*
X200950000Y-115821325D02*
X201200000Y-116254338D01*
%TO.C,J3*%
X139695000Y-104860000D02*
X139695000Y-115340000D01*
X139695000Y-115340000D02*
X108725000Y-115340000D01*
X108725000Y-115340000D02*
X108725000Y-104860000D01*
X118920000Y-116234338D02*
X118420000Y-116234338D01*
X118420000Y-116234338D02*
X118670000Y-115801325D01*
X118670000Y-115801325D02*
X118920000Y-116234338D01*
D14*
%TO.C,XA1*%
X117200000Y-148620000D02*
X167680000Y-148620000D01*
X119200000Y-130620000D02*
X119200000Y-148620000D01*
X117200000Y-130586000D02*
X167680000Y-130586000D01*
X167680000Y-130620000D02*
X167680000Y-148620000D01*
X117200000Y-130586000D02*
X117200000Y-148620000D01*
D12*
%TO.C,SW2*%
X87343333Y-132835000D02*
X87343333Y-134105000D01*
X85990000Y-134035000D02*
X87343333Y-134035000D01*
X85990000Y-133915000D02*
X87343333Y-133915000D01*
X85990000Y-133795000D02*
X87343333Y-133795000D01*
X85990000Y-133675000D02*
X87343333Y-133675000D01*
X85990000Y-133555000D02*
X87343333Y-133555000D01*
X85990000Y-133435000D02*
X87343333Y-133435000D01*
X85990000Y-133315000D02*
X87343333Y-133315000D01*
X85990000Y-133195000D02*
X87343333Y-133195000D01*
X85990000Y-133075000D02*
X87343333Y-133075000D01*
X85990000Y-132955000D02*
X87343333Y-132955000D01*
X90050000Y-132835000D02*
X85990000Y-132835000D01*
X90050000Y-134105000D02*
X90050000Y-132835000D01*
X85990000Y-134105000D02*
X90050000Y-134105000D01*
X85990000Y-132835000D02*
X85990000Y-134105000D01*
X87343333Y-130295000D02*
X87343333Y-131565000D01*
X85990000Y-131495000D02*
X87343333Y-131495000D01*
X85990000Y-131375000D02*
X87343333Y-131375000D01*
X85990000Y-131255000D02*
X87343333Y-131255000D01*
X85990000Y-131135000D02*
X87343333Y-131135000D01*
X85990000Y-131015000D02*
X87343333Y-131015000D01*
X85990000Y-130895000D02*
X87343333Y-130895000D01*
X85990000Y-130775000D02*
X87343333Y-130775000D01*
X85990000Y-130655000D02*
X87343333Y-130655000D01*
X85990000Y-130535000D02*
X87343333Y-130535000D01*
X85990000Y-130415000D02*
X87343333Y-130415000D01*
X90050000Y-130295000D02*
X85990000Y-130295000D01*
X90050000Y-131565000D02*
X90050000Y-130295000D01*
X85990000Y-131565000D02*
X90050000Y-131565000D01*
X85990000Y-130295000D02*
X85990000Y-131565000D01*
X87343333Y-127755000D02*
X87343333Y-129025000D01*
X85990000Y-128955000D02*
X87343333Y-128955000D01*
X85990000Y-128835000D02*
X87343333Y-128835000D01*
X85990000Y-128715000D02*
X87343333Y-128715000D01*
X85990000Y-128595000D02*
X87343333Y-128595000D01*
X85990000Y-128475000D02*
X87343333Y-128475000D01*
X85990000Y-128355000D02*
X87343333Y-128355000D01*
X85990000Y-128235000D02*
X87343333Y-128235000D01*
X85990000Y-128115000D02*
X87343333Y-128115000D01*
X85990000Y-127995000D02*
X87343333Y-127995000D01*
X85990000Y-127875000D02*
X87343333Y-127875000D01*
X90050000Y-127755000D02*
X85990000Y-127755000D01*
X90050000Y-129025000D02*
X90050000Y-127755000D01*
X85990000Y-129025000D02*
X90050000Y-129025000D01*
X85990000Y-127755000D02*
X85990000Y-129025000D01*
X87343333Y-125215000D02*
X87343333Y-126485000D01*
X85990000Y-126415000D02*
X87343333Y-126415000D01*
X85990000Y-126295000D02*
X87343333Y-126295000D01*
X85990000Y-126175000D02*
X87343333Y-126175000D01*
X85990000Y-126055000D02*
X87343333Y-126055000D01*
X85990000Y-125935000D02*
X87343333Y-125935000D01*
X85990000Y-125815000D02*
X87343333Y-125815000D01*
X85990000Y-125695000D02*
X87343333Y-125695000D01*
X85990000Y-125575000D02*
X87343333Y-125575000D01*
X85990000Y-125455000D02*
X87343333Y-125455000D01*
X85990000Y-125335000D02*
X87343333Y-125335000D01*
X90050000Y-125215000D02*
X85990000Y-125215000D01*
X90050000Y-126485000D02*
X90050000Y-125215000D01*
X85990000Y-126485000D02*
X90050000Y-126485000D01*
X85990000Y-125215000D02*
X85990000Y-126485000D01*
X82830000Y-123190000D02*
X82830000Y-124573000D01*
X82830000Y-123190000D02*
X84214000Y-123190000D01*
X92970000Y-123430000D02*
X92970000Y-135890000D01*
X83070000Y-123430000D02*
X83070000Y-135890000D01*
X83070000Y-135890000D02*
X92970000Y-135890000D01*
X83070000Y-123430000D02*
X92970000Y-123430000D01*
%TO.C,SW1*%
X87333333Y-116425000D02*
X87333333Y-117695000D01*
X85980000Y-117625000D02*
X87333333Y-117625000D01*
X85980000Y-117505000D02*
X87333333Y-117505000D01*
X85980000Y-117385000D02*
X87333333Y-117385000D01*
X85980000Y-117265000D02*
X87333333Y-117265000D01*
X85980000Y-117145000D02*
X87333333Y-117145000D01*
X85980000Y-117025000D02*
X87333333Y-117025000D01*
X85980000Y-116905000D02*
X87333333Y-116905000D01*
X85980000Y-116785000D02*
X87333333Y-116785000D01*
X85980000Y-116665000D02*
X87333333Y-116665000D01*
X85980000Y-116545000D02*
X87333333Y-116545000D01*
X90040000Y-116425000D02*
X85980000Y-116425000D01*
X90040000Y-117695000D02*
X90040000Y-116425000D01*
X85980000Y-117695000D02*
X90040000Y-117695000D01*
X85980000Y-116425000D02*
X85980000Y-117695000D01*
X87333333Y-113885000D02*
X87333333Y-115155000D01*
X85980000Y-115085000D02*
X87333333Y-115085000D01*
X85980000Y-114965000D02*
X87333333Y-114965000D01*
X85980000Y-114845000D02*
X87333333Y-114845000D01*
X85980000Y-114725000D02*
X87333333Y-114725000D01*
X85980000Y-114605000D02*
X87333333Y-114605000D01*
X85980000Y-114485000D02*
X87333333Y-114485000D01*
X85980000Y-114365000D02*
X87333333Y-114365000D01*
X85980000Y-114245000D02*
X87333333Y-114245000D01*
X85980000Y-114125000D02*
X87333333Y-114125000D01*
X85980000Y-114005000D02*
X87333333Y-114005000D01*
X90040000Y-113885000D02*
X85980000Y-113885000D01*
X90040000Y-115155000D02*
X90040000Y-113885000D01*
X85980000Y-115155000D02*
X90040000Y-115155000D01*
X85980000Y-113885000D02*
X85980000Y-115155000D01*
X87333333Y-111345000D02*
X87333333Y-112615000D01*
X85980000Y-112545000D02*
X87333333Y-112545000D01*
X85980000Y-112425000D02*
X87333333Y-112425000D01*
X85980000Y-112305000D02*
X87333333Y-112305000D01*
X85980000Y-112185000D02*
X87333333Y-112185000D01*
X85980000Y-112065000D02*
X87333333Y-112065000D01*
X85980000Y-111945000D02*
X87333333Y-111945000D01*
X85980000Y-111825000D02*
X87333333Y-111825000D01*
X85980000Y-111705000D02*
X87333333Y-111705000D01*
X85980000Y-111585000D02*
X87333333Y-111585000D01*
X85980000Y-111465000D02*
X87333333Y-111465000D01*
X90040000Y-111345000D02*
X85980000Y-111345000D01*
X90040000Y-112615000D02*
X90040000Y-111345000D01*
X85980000Y-112615000D02*
X90040000Y-112615000D01*
X85980000Y-111345000D02*
X85980000Y-112615000D01*
X87333333Y-108805000D02*
X87333333Y-110075000D01*
X85980000Y-110005000D02*
X87333333Y-110005000D01*
X85980000Y-109885000D02*
X87333333Y-109885000D01*
X85980000Y-109765000D02*
X87333333Y-109765000D01*
X85980000Y-109645000D02*
X87333333Y-109645000D01*
X85980000Y-109525000D02*
X87333333Y-109525000D01*
X85980000Y-109405000D02*
X87333333Y-109405000D01*
X85980000Y-109285000D02*
X87333333Y-109285000D01*
X85980000Y-109165000D02*
X87333333Y-109165000D01*
X85980000Y-109045000D02*
X87333333Y-109045000D01*
X85980000Y-108925000D02*
X87333333Y-108925000D01*
X90040000Y-108805000D02*
X85980000Y-108805000D01*
X90040000Y-110075000D02*
X90040000Y-108805000D01*
X85980000Y-110075000D02*
X90040000Y-110075000D01*
X85980000Y-108805000D02*
X85980000Y-110075000D01*
X82820000Y-106780000D02*
X82820000Y-108163000D01*
X82820000Y-106780000D02*
X84204000Y-106780000D01*
X92960000Y-107020000D02*
X92960000Y-119480000D01*
X83060000Y-107020000D02*
X83060000Y-119480000D01*
X83060000Y-119480000D02*
X92960000Y-119480000D01*
X83060000Y-107020000D02*
X92960000Y-107020000D01*
%TO.C,R47*%
X144040000Y-123242936D02*
X144040000Y-124697064D01*
X145860000Y-123242936D02*
X145860000Y-124697064D01*
%TO.C,R46*%
X147780000Y-123242936D02*
X147780000Y-124697064D01*
X149600000Y-123242936D02*
X149600000Y-124697064D01*
%TO.C,R10*%
X76625436Y-134410000D02*
X78079564Y-134410000D01*
X76625436Y-132590000D02*
X78079564Y-132590000D01*
%TO.C,R9*%
X76650436Y-119870000D02*
X78104564Y-119870000D01*
X76650436Y-118050000D02*
X78104564Y-118050000D01*
%TO.C,R8*%
X76640436Y-130700000D02*
X78094564Y-130700000D01*
X76640436Y-128880000D02*
X78094564Y-128880000D01*
%TO.C,R7*%
X76630436Y-116220000D02*
X78084564Y-116220000D01*
X76630436Y-114400000D02*
X78084564Y-114400000D01*
%TO.C,R6*%
X76630436Y-127090000D02*
X78084564Y-127090000D01*
X76630436Y-125270000D02*
X78084564Y-125270000D01*
%TO.C,R5*%
X76620436Y-112630000D02*
X78074564Y-112630000D01*
X76620436Y-110810000D02*
X78074564Y-110810000D01*
%TO.C,R4*%
X76580436Y-123640000D02*
X78034564Y-123640000D01*
X76580436Y-121820000D02*
X78034564Y-121820000D01*
%TO.C,R3*%
X76640436Y-109110000D02*
X78094564Y-109110000D01*
X76640436Y-107290000D02*
X78094564Y-107290000D01*
%TO.C,R2*%
X69680436Y-123610000D02*
X71134564Y-123610000D01*
X69680436Y-121790000D02*
X71134564Y-121790000D01*
%TO.C,R1*%
X69610436Y-109100000D02*
X71064564Y-109100000D01*
X69610436Y-107280000D02*
X71064564Y-107280000D01*
%TO.C,IC1*%
D15*
X197984523Y-132779761D02*
X196714523Y-132779761D01*
X197863571Y-131449285D02*
X197924047Y-131509761D01*
X197984523Y-131691190D01*
X197984523Y-131812142D01*
X197924047Y-131993571D01*
X197803095Y-132114523D01*
X197682142Y-132175000D01*
X197440238Y-132235476D01*
X197258809Y-132235476D01*
X197016904Y-132175000D01*
X196895952Y-132114523D01*
X196775000Y-131993571D01*
X196714523Y-131812142D01*
X196714523Y-131691190D01*
X196775000Y-131509761D01*
X196835476Y-131449285D01*
X197984523Y-130239761D02*
X197984523Y-130965476D01*
X197984523Y-130602619D02*
X196714523Y-130602619D01*
X196895952Y-130723571D01*
X197016904Y-130844523D01*
X197077380Y-130965476D01*
%TO.C,D1*%
D14*
X216177904Y-139986380D02*
X216177904Y-138986380D01*
X216416000Y-138986380D01*
X216558857Y-139034000D01*
X216654095Y-139129238D01*
X216701714Y-139224476D01*
X216749333Y-139414952D01*
X216749333Y-139557809D01*
X216701714Y-139748285D01*
X216654095Y-139843523D01*
X216558857Y-139938761D01*
X216416000Y-139986380D01*
X216177904Y-139986380D01*
X217701714Y-139986380D02*
X217130285Y-139986380D01*
X217416000Y-139986380D02*
X217416000Y-138986380D01*
X217320761Y-139129238D01*
X217225523Y-139224476D01*
X217130285Y-139272095D01*
%TO.C,J2*%
X70996666Y-147112380D02*
X70996666Y-147826666D01*
X70949047Y-147969523D01*
X70853809Y-148064761D01*
X70710952Y-148112380D01*
X70615714Y-148112380D01*
X71425238Y-147207619D02*
X71472857Y-147160000D01*
X71568095Y-147112380D01*
X71806190Y-147112380D01*
X71901428Y-147160000D01*
X71949047Y-147207619D01*
X71996666Y-147302857D01*
X71996666Y-147398095D01*
X71949047Y-147540952D01*
X71377619Y-148112380D01*
X71996666Y-148112380D01*
D10*
X63590476Y-136504761D02*
X64733333Y-136504761D01*
X64161904Y-138504761D02*
X64161904Y-136504761D01*
X65780952Y-136504761D02*
X66161904Y-136504761D01*
X66352380Y-136600000D01*
X66542857Y-136790476D01*
X66638095Y-137171428D01*
X66638095Y-137838095D01*
X66542857Y-138219047D01*
X66352380Y-138409523D01*
X66161904Y-138504761D01*
X65780952Y-138504761D01*
X65590476Y-138409523D01*
X65400000Y-138219047D01*
X65304761Y-137838095D01*
X65304761Y-137171428D01*
X65400000Y-136790476D01*
X65590476Y-136600000D01*
X65780952Y-136504761D01*
X70161904Y-138504761D02*
X69495238Y-137552380D01*
X69019047Y-138504761D02*
X69019047Y-136504761D01*
X69780952Y-136504761D01*
X69971428Y-136600000D01*
X70066666Y-136695238D01*
X70161904Y-136885714D01*
X70161904Y-137171428D01*
X70066666Y-137361904D01*
X69971428Y-137457142D01*
X69780952Y-137552380D01*
X69019047Y-137552380D01*
X71019047Y-137457142D02*
X71685714Y-137457142D01*
X71971428Y-138504761D02*
X71019047Y-138504761D01*
X71019047Y-136504761D01*
X71971428Y-136504761D01*
X73780952Y-138504761D02*
X72828571Y-138504761D01*
X72828571Y-136504761D01*
X74352380Y-137933333D02*
X75304761Y-137933333D01*
X74161904Y-138504761D02*
X74828571Y-136504761D01*
X75495238Y-138504761D01*
X76542857Y-137552380D02*
X76542857Y-138504761D01*
X75876190Y-136504761D02*
X76542857Y-137552380D01*
X77209523Y-136504761D01*
D14*
X66250000Y-145842380D02*
X66250000Y-146080476D01*
X66011904Y-145985238D02*
X66250000Y-146080476D01*
X66488095Y-145985238D01*
X66107142Y-146270952D02*
X66250000Y-146080476D01*
X66392857Y-146270952D01*
%TO.C,J1*%
X39772380Y-127983333D02*
X40486666Y-127983333D01*
X40629523Y-128030952D01*
X40724761Y-128126190D01*
X40772380Y-128269047D01*
X40772380Y-128364285D01*
X40772380Y-126983333D02*
X40772380Y-127554761D01*
X40772380Y-127269047D02*
X39772380Y-127269047D01*
X39915238Y-127364285D01*
X40010476Y-127459523D01*
X40058095Y-127554761D01*
D10*
X50857142Y-133916666D02*
X50857142Y-134583333D01*
X51904761Y-134583333D02*
X49904761Y-134583333D01*
X49904761Y-133630952D01*
X51904761Y-131726190D02*
X50952380Y-132392857D01*
X51904761Y-132869047D02*
X49904761Y-132869047D01*
X49904761Y-132107142D01*
X50000000Y-131916666D01*
X50095238Y-131821428D01*
X50285714Y-131726190D01*
X50571428Y-131726190D01*
X50761904Y-131821428D01*
X50857142Y-131916666D01*
X50952380Y-132107142D01*
X50952380Y-132869047D01*
X49904761Y-130488095D02*
X49904761Y-130107142D01*
X50000000Y-129916666D01*
X50190476Y-129726190D01*
X50571428Y-129630952D01*
X51238095Y-129630952D01*
X51619047Y-129726190D01*
X51809523Y-129916666D01*
X51904761Y-130107142D01*
X51904761Y-130488095D01*
X51809523Y-130678571D01*
X51619047Y-130869047D01*
X51238095Y-130964285D01*
X50571428Y-130964285D01*
X50190476Y-130869047D01*
X50000000Y-130678571D01*
X49904761Y-130488095D01*
X51904761Y-128773809D02*
X49904761Y-128773809D01*
X51333333Y-128107142D01*
X49904761Y-127440476D01*
X51904761Y-127440476D01*
X51904761Y-124964285D02*
X49904761Y-124964285D01*
X49904761Y-124202380D01*
X50000000Y-124011904D01*
X50095238Y-123916666D01*
X50285714Y-123821428D01*
X50571428Y-123821428D01*
X50761904Y-123916666D01*
X50857142Y-124011904D01*
X50952380Y-124202380D01*
X50952380Y-124964285D01*
X51809523Y-123059523D02*
X51904761Y-122773809D01*
X51904761Y-122297619D01*
X51809523Y-122107142D01*
X51714285Y-122011904D01*
X51523809Y-121916666D01*
X51333333Y-121916666D01*
X51142857Y-122011904D01*
X51047619Y-122107142D01*
X50952380Y-122297619D01*
X50857142Y-122678571D01*
X50761904Y-122869047D01*
X50666666Y-122964285D01*
X50476190Y-123059523D01*
X50285714Y-123059523D01*
X50095238Y-122964285D01*
X50000000Y-122869047D01*
X49904761Y-122678571D01*
X49904761Y-122202380D01*
X50000000Y-121916666D01*
X49904761Y-121059523D02*
X51523809Y-121059523D01*
X51714285Y-120964285D01*
X51809523Y-120869047D01*
X51904761Y-120678571D01*
X51904761Y-120297619D01*
X51809523Y-120107142D01*
X51714285Y-120011904D01*
X51523809Y-119916666D01*
X49904761Y-119916666D01*
D14*
X41042380Y-122570000D02*
X41280476Y-122570000D01*
X41185238Y-122808095D02*
X41280476Y-122570000D01*
X41185238Y-122331904D01*
X41470952Y-122712857D02*
X41280476Y-122570000D01*
X41470952Y-122427142D01*
%TO.C,C22*%
X182877142Y-140207142D02*
X182829523Y-140254761D01*
X182686666Y-140302380D01*
X182591428Y-140302380D01*
X182448571Y-140254761D01*
X182353333Y-140159523D01*
X182305714Y-140064285D01*
X182258095Y-139873809D01*
X182258095Y-139730952D01*
X182305714Y-139540476D01*
X182353333Y-139445238D01*
X182448571Y-139350000D01*
X182591428Y-139302380D01*
X182686666Y-139302380D01*
X182829523Y-139350000D01*
X182877142Y-139397619D01*
X183258095Y-139397619D02*
X183305714Y-139350000D01*
X183400952Y-139302380D01*
X183639047Y-139302380D01*
X183734285Y-139350000D01*
X183781904Y-139397619D01*
X183829523Y-139492857D01*
X183829523Y-139588095D01*
X183781904Y-139730952D01*
X183210476Y-140302380D01*
X183829523Y-140302380D01*
X184210476Y-139397619D02*
X184258095Y-139350000D01*
X184353333Y-139302380D01*
X184591428Y-139302380D01*
X184686666Y-139350000D01*
X184734285Y-139397619D01*
X184781904Y-139492857D01*
X184781904Y-139588095D01*
X184734285Y-139730952D01*
X184162857Y-140302380D01*
X184781904Y-140302380D01*
%TO.C,C21*%
X201437142Y-140097142D02*
X201389523Y-140144761D01*
X201246666Y-140192380D01*
X201151428Y-140192380D01*
X201008571Y-140144761D01*
X200913333Y-140049523D01*
X200865714Y-139954285D01*
X200818095Y-139763809D01*
X200818095Y-139620952D01*
X200865714Y-139430476D01*
X200913333Y-139335238D01*
X201008571Y-139240000D01*
X201151428Y-139192380D01*
X201246666Y-139192380D01*
X201389523Y-139240000D01*
X201437142Y-139287619D01*
X201818095Y-139287619D02*
X201865714Y-139240000D01*
X201960952Y-139192380D01*
X202199047Y-139192380D01*
X202294285Y-139240000D01*
X202341904Y-139287619D01*
X202389523Y-139382857D01*
X202389523Y-139478095D01*
X202341904Y-139620952D01*
X201770476Y-140192380D01*
X202389523Y-140192380D01*
X203341904Y-140192380D02*
X202770476Y-140192380D01*
X203056190Y-140192380D02*
X203056190Y-139192380D01*
X202960952Y-139335238D01*
X202865714Y-139430476D01*
X202770476Y-139478095D01*
%TO.C,C20*%
X195117142Y-140097142D02*
X195069523Y-140144761D01*
X194926666Y-140192380D01*
X194831428Y-140192380D01*
X194688571Y-140144761D01*
X194593333Y-140049523D01*
X194545714Y-139954285D01*
X194498095Y-139763809D01*
X194498095Y-139620952D01*
X194545714Y-139430476D01*
X194593333Y-139335238D01*
X194688571Y-139240000D01*
X194831428Y-139192380D01*
X194926666Y-139192380D01*
X195069523Y-139240000D01*
X195117142Y-139287619D01*
X195498095Y-139287619D02*
X195545714Y-139240000D01*
X195640952Y-139192380D01*
X195879047Y-139192380D01*
X195974285Y-139240000D01*
X196021904Y-139287619D01*
X196069523Y-139382857D01*
X196069523Y-139478095D01*
X196021904Y-139620952D01*
X195450476Y-140192380D01*
X196069523Y-140192380D01*
X196688571Y-139192380D02*
X196783809Y-139192380D01*
X196879047Y-139240000D01*
X196926666Y-139287619D01*
X196974285Y-139382857D01*
X197021904Y-139573333D01*
X197021904Y-139811428D01*
X196974285Y-140001904D01*
X196926666Y-140097142D01*
X196879047Y-140144761D01*
X196783809Y-140192380D01*
X196688571Y-140192380D01*
X196593333Y-140144761D01*
X196545714Y-140097142D01*
X196498095Y-140001904D01*
X196450476Y-139811428D01*
X196450476Y-139573333D01*
X196498095Y-139382857D01*
X196545714Y-139287619D01*
X196593333Y-139240000D01*
X196688571Y-139192380D01*
%TO.C,C19*%
X189137142Y-140157142D02*
X189089523Y-140204761D01*
X188946666Y-140252380D01*
X188851428Y-140252380D01*
X188708571Y-140204761D01*
X188613333Y-140109523D01*
X188565714Y-140014285D01*
X188518095Y-139823809D01*
X188518095Y-139680952D01*
X188565714Y-139490476D01*
X188613333Y-139395238D01*
X188708571Y-139300000D01*
X188851428Y-139252380D01*
X188946666Y-139252380D01*
X189089523Y-139300000D01*
X189137142Y-139347619D01*
X190089523Y-140252380D02*
X189518095Y-140252380D01*
X189803809Y-140252380D02*
X189803809Y-139252380D01*
X189708571Y-139395238D01*
X189613333Y-139490476D01*
X189518095Y-139538095D01*
X190565714Y-140252380D02*
X190756190Y-140252380D01*
X190851428Y-140204761D01*
X190899047Y-140157142D01*
X190994285Y-140014285D01*
X191041904Y-139823809D01*
X191041904Y-139442857D01*
X190994285Y-139347619D01*
X190946666Y-139300000D01*
X190851428Y-139252380D01*
X190660952Y-139252380D01*
X190565714Y-139300000D01*
X190518095Y-139347619D01*
X190470476Y-139442857D01*
X190470476Y-139680952D01*
X190518095Y-139776190D01*
X190565714Y-139823809D01*
X190660952Y-139871428D01*
X190851428Y-139871428D01*
X190946666Y-139823809D01*
X190994285Y-139776190D01*
X191041904Y-139680952D01*
%TO.C,J4*%
X195076666Y-115752380D02*
X195076666Y-116466666D01*
X195029047Y-116609523D01*
X194933809Y-116704761D01*
X194790952Y-116752380D01*
X194695714Y-116752380D01*
X195981428Y-116085714D02*
X195981428Y-116752380D01*
X195743333Y-115704761D02*
X195505238Y-116419047D01*
X196124285Y-116419047D01*
D10*
X189652380Y-117504761D02*
X190795238Y-117504761D01*
X190223809Y-119504761D02*
X190223809Y-117504761D01*
X191842857Y-117504761D02*
X192223809Y-117504761D01*
X192414285Y-117600000D01*
X192604761Y-117790476D01*
X192700000Y-118171428D01*
X192700000Y-118838095D01*
X192604761Y-119219047D01*
X192414285Y-119409523D01*
X192223809Y-119504761D01*
X191842857Y-119504761D01*
X191652380Y-119409523D01*
X191461904Y-119219047D01*
X191366666Y-118838095D01*
X191366666Y-118171428D01*
X191461904Y-117790476D01*
X191652380Y-117600000D01*
X191842857Y-117504761D01*
X195080952Y-119504761D02*
X195080952Y-117504761D01*
X196223809Y-119504761D01*
X196223809Y-117504761D01*
X197176190Y-118457142D02*
X197842857Y-118457142D01*
X198128571Y-119504761D02*
X197176190Y-119504761D01*
X197176190Y-117504761D01*
X198128571Y-117504761D01*
X198795238Y-117504761D02*
X200128571Y-119504761D01*
X200128571Y-117504761D02*
X198795238Y-119504761D01*
X200604761Y-117504761D02*
X201747619Y-117504761D01*
X201176190Y-119504761D02*
X201176190Y-117504761D01*
%TO.C,J3*%
D14*
X123876666Y-115732380D02*
X123876666Y-116446666D01*
X123829047Y-116589523D01*
X123733809Y-116684761D01*
X123590952Y-116732380D01*
X123495714Y-116732380D01*
X124257619Y-115732380D02*
X124876666Y-115732380D01*
X124543333Y-116113333D01*
X124686190Y-116113333D01*
X124781428Y-116160952D01*
X124829047Y-116208571D01*
X124876666Y-116303809D01*
X124876666Y-116541904D01*
X124829047Y-116637142D01*
X124781428Y-116684761D01*
X124686190Y-116732380D01*
X124400476Y-116732380D01*
X124305238Y-116684761D01*
X124257619Y-116637142D01*
D10*
X112047619Y-118007142D02*
X111380952Y-118007142D01*
X111380952Y-119054761D02*
X111380952Y-117054761D01*
X112333333Y-117054761D01*
X114238095Y-119054761D02*
X113571428Y-118102380D01*
X113095238Y-119054761D02*
X113095238Y-117054761D01*
X113857142Y-117054761D01*
X114047619Y-117150000D01*
X114142857Y-117245238D01*
X114238095Y-117435714D01*
X114238095Y-117721428D01*
X114142857Y-117911904D01*
X114047619Y-118007142D01*
X113857142Y-118102380D01*
X113095238Y-118102380D01*
X115476190Y-117054761D02*
X115857142Y-117054761D01*
X116047619Y-117150000D01*
X116238095Y-117340476D01*
X116333333Y-117721428D01*
X116333333Y-118388095D01*
X116238095Y-118769047D01*
X116047619Y-118959523D01*
X115857142Y-119054761D01*
X115476190Y-119054761D01*
X115285714Y-118959523D01*
X115095238Y-118769047D01*
X115000000Y-118388095D01*
X115000000Y-117721428D01*
X115095238Y-117340476D01*
X115285714Y-117150000D01*
X115476190Y-117054761D01*
X117190476Y-119054761D02*
X117190476Y-117054761D01*
X117857142Y-118483333D01*
X118523809Y-117054761D01*
X118523809Y-119054761D01*
X121000000Y-119054761D02*
X121000000Y-117054761D01*
X121761904Y-117054761D01*
X121952380Y-117150000D01*
X122047619Y-117245238D01*
X122142857Y-117435714D01*
X122142857Y-117721428D01*
X122047619Y-117911904D01*
X121952380Y-118007142D01*
X121761904Y-118102380D01*
X121000000Y-118102380D01*
X124142857Y-119054761D02*
X123476190Y-118102380D01*
X123000000Y-119054761D02*
X123000000Y-117054761D01*
X123761904Y-117054761D01*
X123952380Y-117150000D01*
X124047619Y-117245238D01*
X124142857Y-117435714D01*
X124142857Y-117721428D01*
X124047619Y-117911904D01*
X123952380Y-118007142D01*
X123761904Y-118102380D01*
X123000000Y-118102380D01*
X125000000Y-118007142D02*
X125666666Y-118007142D01*
X125952380Y-119054761D02*
X125000000Y-119054761D01*
X125000000Y-117054761D01*
X125952380Y-117054761D01*
X126523809Y-117054761D02*
X127190476Y-119054761D01*
X127857142Y-117054761D01*
X128523809Y-119054761D02*
X128523809Y-117054761D01*
X129857142Y-117054761D02*
X130238095Y-117054761D01*
X130428571Y-117150000D01*
X130619047Y-117340476D01*
X130714285Y-117721428D01*
X130714285Y-118388095D01*
X130619047Y-118769047D01*
X130428571Y-118959523D01*
X130238095Y-119054761D01*
X129857142Y-119054761D01*
X129666666Y-118959523D01*
X129476190Y-118769047D01*
X129380952Y-118388095D01*
X129380952Y-117721428D01*
X129476190Y-117340476D01*
X129666666Y-117150000D01*
X129857142Y-117054761D01*
X131571428Y-117054761D02*
X131571428Y-118673809D01*
X131666666Y-118864285D01*
X131761904Y-118959523D01*
X131952380Y-119054761D01*
X132333333Y-119054761D01*
X132523809Y-118959523D01*
X132619047Y-118864285D01*
X132714285Y-118673809D01*
X132714285Y-117054761D01*
X133571428Y-118959523D02*
X133857142Y-119054761D01*
X134333333Y-119054761D01*
X134523809Y-118959523D01*
X134619047Y-118864285D01*
X134714285Y-118673809D01*
X134714285Y-118483333D01*
X134619047Y-118292857D01*
X134523809Y-118197619D01*
X134333333Y-118102380D01*
X133952380Y-118007142D01*
X133761904Y-117911904D01*
X133666666Y-117816666D01*
X133571428Y-117626190D01*
X133571428Y-117435714D01*
X133666666Y-117245238D01*
X133761904Y-117150000D01*
X133952380Y-117054761D01*
X134428571Y-117054761D01*
X134714285Y-117150000D01*
%TO.C,XA1*%
D14*
X120501904Y-129022380D02*
X121168571Y-130022380D01*
X121168571Y-129022380D02*
X120501904Y-130022380D01*
X121501904Y-129736666D02*
X121978095Y-129736666D01*
X121406666Y-130022380D02*
X121740000Y-129022380D01*
X122073333Y-130022380D01*
X122930476Y-130022380D02*
X122359047Y-130022380D01*
X122644761Y-130022380D02*
X122644761Y-129022380D01*
X122549523Y-129165238D01*
X122454285Y-129260476D01*
X122359047Y-129308095D01*
X126860666Y-129736666D02*
X127336857Y-129736666D01*
X126765428Y-130022380D02*
X127098761Y-129022380D01*
X127432095Y-130022380D01*
X127765428Y-130022380D02*
X127765428Y-129355714D01*
X127765428Y-129546190D02*
X127813047Y-129450952D01*
X127860666Y-129403333D01*
X127955904Y-129355714D01*
X128051142Y-129355714D01*
X128813047Y-130022380D02*
X128813047Y-129022380D01*
X128813047Y-129974761D02*
X128717809Y-130022380D01*
X128527333Y-130022380D01*
X128432095Y-129974761D01*
X128384476Y-129927142D01*
X128336857Y-129831904D01*
X128336857Y-129546190D01*
X128384476Y-129450952D01*
X128432095Y-129403333D01*
X128527333Y-129355714D01*
X128717809Y-129355714D01*
X128813047Y-129403333D01*
X129717809Y-129355714D02*
X129717809Y-130022380D01*
X129289238Y-129355714D02*
X129289238Y-129879523D01*
X129336857Y-129974761D01*
X129432095Y-130022380D01*
X129574952Y-130022380D01*
X129670190Y-129974761D01*
X129717809Y-129927142D01*
X130194000Y-130022380D02*
X130194000Y-129355714D01*
X130194000Y-129022380D02*
X130146380Y-129070000D01*
X130194000Y-129117619D01*
X130241619Y-129070000D01*
X130194000Y-129022380D01*
X130194000Y-129117619D01*
X130670190Y-129355714D02*
X130670190Y-130022380D01*
X130670190Y-129450952D02*
X130717809Y-129403333D01*
X130813047Y-129355714D01*
X130955904Y-129355714D01*
X131051142Y-129403333D01*
X131098761Y-129498571D01*
X131098761Y-130022380D01*
X131717809Y-130022380D02*
X131622571Y-129974761D01*
X131574952Y-129927142D01*
X131527333Y-129831904D01*
X131527333Y-129546190D01*
X131574952Y-129450952D01*
X131622571Y-129403333D01*
X131717809Y-129355714D01*
X131860666Y-129355714D01*
X131955904Y-129403333D01*
X132003523Y-129450952D01*
X132051142Y-129546190D01*
X132051142Y-129831904D01*
X132003523Y-129927142D01*
X131955904Y-129974761D01*
X131860666Y-130022380D01*
X131717809Y-130022380D01*
X132241619Y-130117619D02*
X133003523Y-130117619D01*
X133241619Y-130022380D02*
X133241619Y-129022380D01*
X133574952Y-129736666D01*
X133908285Y-129022380D01*
X133908285Y-130022380D01*
X134384476Y-130022380D02*
X134384476Y-129355714D01*
X134384476Y-129022380D02*
X134336857Y-129070000D01*
X134384476Y-129117619D01*
X134432095Y-129070000D01*
X134384476Y-129022380D01*
X134384476Y-129117619D01*
X135289238Y-129974761D02*
X135194000Y-130022380D01*
X135003523Y-130022380D01*
X134908285Y-129974761D01*
X134860666Y-129927142D01*
X134813047Y-129831904D01*
X134813047Y-129546190D01*
X134860666Y-129450952D01*
X134908285Y-129403333D01*
X135003523Y-129355714D01*
X135194000Y-129355714D01*
X135289238Y-129403333D01*
X135717809Y-130022380D02*
X135717809Y-129355714D01*
X135717809Y-129546190D02*
X135765428Y-129450952D01*
X135813047Y-129403333D01*
X135908285Y-129355714D01*
X136003523Y-129355714D01*
X136479714Y-130022380D02*
X136384476Y-129974761D01*
X136336857Y-129927142D01*
X136289238Y-129831904D01*
X136289238Y-129546190D01*
X136336857Y-129450952D01*
X136384476Y-129403333D01*
X136479714Y-129355714D01*
X136622571Y-129355714D01*
X136717809Y-129403333D01*
X136765428Y-129450952D01*
X136813047Y-129546190D01*
X136813047Y-129831904D01*
X136765428Y-129927142D01*
X136717809Y-129974761D01*
X136622571Y-130022380D01*
X136479714Y-130022380D01*
X137003523Y-130117619D02*
X137765428Y-130117619D01*
X137955904Y-129974761D02*
X138098761Y-130022380D01*
X138336857Y-130022380D01*
X138432095Y-129974761D01*
X138479714Y-129927142D01*
X138527333Y-129831904D01*
X138527333Y-129736666D01*
X138479714Y-129641428D01*
X138432095Y-129593809D01*
X138336857Y-129546190D01*
X138146380Y-129498571D01*
X138051142Y-129450952D01*
X138003523Y-129403333D01*
X137955904Y-129308095D01*
X137955904Y-129212857D01*
X138003523Y-129117619D01*
X138051142Y-129070000D01*
X138146380Y-129022380D01*
X138384476Y-129022380D01*
X138527333Y-129070000D01*
X139098761Y-130022380D02*
X139003523Y-129974761D01*
X138955904Y-129927142D01*
X138908285Y-129831904D01*
X138908285Y-129546190D01*
X138955904Y-129450952D01*
X139003523Y-129403333D01*
X139098761Y-129355714D01*
X139241619Y-129355714D01*
X139336857Y-129403333D01*
X139384476Y-129450952D01*
X139432095Y-129546190D01*
X139432095Y-129831904D01*
X139384476Y-129927142D01*
X139336857Y-129974761D01*
X139241619Y-130022380D01*
X139098761Y-130022380D01*
X140289238Y-129974761D02*
X140194000Y-130022380D01*
X140003523Y-130022380D01*
X139908285Y-129974761D01*
X139860666Y-129927142D01*
X139813047Y-129831904D01*
X139813047Y-129546190D01*
X139860666Y-129450952D01*
X139908285Y-129403333D01*
X140003523Y-129355714D01*
X140194000Y-129355714D01*
X140289238Y-129403333D01*
X140717809Y-130022380D02*
X140717809Y-129022380D01*
X140813047Y-129641428D02*
X141098761Y-130022380D01*
X141098761Y-129355714D02*
X140717809Y-129736666D01*
X141908285Y-129974761D02*
X141813047Y-130022380D01*
X141622571Y-130022380D01*
X141527333Y-129974761D01*
X141479714Y-129879523D01*
X141479714Y-129498571D01*
X141527333Y-129403333D01*
X141622571Y-129355714D01*
X141813047Y-129355714D01*
X141908285Y-129403333D01*
X141955904Y-129498571D01*
X141955904Y-129593809D01*
X141479714Y-129689047D01*
X142241619Y-129355714D02*
X142622571Y-129355714D01*
X142384476Y-129022380D02*
X142384476Y-129879523D01*
X142432095Y-129974761D01*
X142527333Y-130022380D01*
X142622571Y-130022380D01*
D16*
X124921904Y-145552190D02*
X125231428Y-145552190D01*
X125064761Y-145742666D01*
X125136190Y-145742666D01*
X125183809Y-145766476D01*
X125207619Y-145790285D01*
X125231428Y-145837904D01*
X125231428Y-145956952D01*
X125207619Y-146004571D01*
X125183809Y-146028380D01*
X125136190Y-146052190D01*
X124993333Y-146052190D01*
X124945714Y-146028380D01*
X124921904Y-146004571D01*
X125445714Y-146004571D02*
X125469523Y-146028380D01*
X125445714Y-146052190D01*
X125421904Y-146028380D01*
X125445714Y-146004571D01*
X125445714Y-146052190D01*
X125636190Y-145552190D02*
X125945714Y-145552190D01*
X125779047Y-145742666D01*
X125850476Y-145742666D01*
X125898095Y-145766476D01*
X125921904Y-145790285D01*
X125945714Y-145837904D01*
X125945714Y-145956952D01*
X125921904Y-146004571D01*
X125898095Y-146028380D01*
X125850476Y-146052190D01*
X125707619Y-146052190D01*
X125660000Y-146028380D01*
X125636190Y-146004571D01*
X126088571Y-145552190D02*
X126255238Y-146052190D01*
X126421904Y-145552190D01*
X117910190Y-140233952D02*
X118314952Y-140233952D01*
X118362571Y-140210142D01*
X118386380Y-140186333D01*
X118410190Y-140138714D01*
X118410190Y-140043476D01*
X118386380Y-139995857D01*
X118362571Y-139972047D01*
X118314952Y-139948238D01*
X117910190Y-139948238D01*
X118386380Y-139733952D02*
X118410190Y-139662523D01*
X118410190Y-139543476D01*
X118386380Y-139495857D01*
X118362571Y-139472047D01*
X118314952Y-139448238D01*
X118267333Y-139448238D01*
X118219714Y-139472047D01*
X118195904Y-139495857D01*
X118172095Y-139543476D01*
X118148285Y-139638714D01*
X118124476Y-139686333D01*
X118100666Y-139710142D01*
X118053047Y-139733952D01*
X118005428Y-139733952D01*
X117957809Y-139710142D01*
X117934000Y-139686333D01*
X117910190Y-139638714D01*
X117910190Y-139519666D01*
X117934000Y-139448238D01*
X118148285Y-139067285D02*
X118172095Y-138995857D01*
X118195904Y-138972047D01*
X118243523Y-138948238D01*
X118314952Y-138948238D01*
X118362571Y-138972047D01*
X118386380Y-138995857D01*
X118410190Y-139043476D01*
X118410190Y-139233952D01*
X117910190Y-139233952D01*
X117910190Y-139067285D01*
X117934000Y-139019666D01*
X117957809Y-138995857D01*
X118005428Y-138972047D01*
X118053047Y-138972047D01*
X118100666Y-138995857D01*
X118124476Y-139019666D01*
X118148285Y-139067285D01*
X118148285Y-139233952D01*
%TO.C,SW2*%
D14*
X86686666Y-122834761D02*
X86829523Y-122882380D01*
X87067619Y-122882380D01*
X87162857Y-122834761D01*
X87210476Y-122787142D01*
X87258095Y-122691904D01*
X87258095Y-122596666D01*
X87210476Y-122501428D01*
X87162857Y-122453809D01*
X87067619Y-122406190D01*
X86877142Y-122358571D01*
X86781904Y-122310952D01*
X86734285Y-122263333D01*
X86686666Y-122168095D01*
X86686666Y-122072857D01*
X86734285Y-121977619D01*
X86781904Y-121930000D01*
X86877142Y-121882380D01*
X87115238Y-121882380D01*
X87258095Y-121930000D01*
X87591428Y-121882380D02*
X87829523Y-122882380D01*
X88020000Y-122168095D01*
X88210476Y-122882380D01*
X88448571Y-121882380D01*
X88781904Y-121977619D02*
X88829523Y-121930000D01*
X88924761Y-121882380D01*
X89162857Y-121882380D01*
X89258095Y-121930000D01*
X89305714Y-121977619D01*
X89353333Y-122072857D01*
X89353333Y-122168095D01*
X89305714Y-122310952D01*
X88734285Y-122882380D01*
X89353333Y-122882380D01*
%TO.C,SW1*%
X86676666Y-106424761D02*
X86819523Y-106472380D01*
X87057619Y-106472380D01*
X87152857Y-106424761D01*
X87200476Y-106377142D01*
X87248095Y-106281904D01*
X87248095Y-106186666D01*
X87200476Y-106091428D01*
X87152857Y-106043809D01*
X87057619Y-105996190D01*
X86867142Y-105948571D01*
X86771904Y-105900952D01*
X86724285Y-105853333D01*
X86676666Y-105758095D01*
X86676666Y-105662857D01*
X86724285Y-105567619D01*
X86771904Y-105520000D01*
X86867142Y-105472380D01*
X87105238Y-105472380D01*
X87248095Y-105520000D01*
X87581428Y-105472380D02*
X87819523Y-106472380D01*
X88010000Y-105758095D01*
X88200476Y-106472380D01*
X88438571Y-105472380D01*
X89343333Y-106472380D02*
X88771904Y-106472380D01*
X89057619Y-106472380D02*
X89057619Y-105472380D01*
X88962380Y-105615238D01*
X88867142Y-105710476D01*
X88771904Y-105758095D01*
%TO.C,R47*%
X147222380Y-124612857D02*
X146746190Y-124946190D01*
X147222380Y-125184285D02*
X146222380Y-125184285D01*
X146222380Y-124803333D01*
X146270000Y-124708095D01*
X146317619Y-124660476D01*
X146412857Y-124612857D01*
X146555714Y-124612857D01*
X146650952Y-124660476D01*
X146698571Y-124708095D01*
X146746190Y-124803333D01*
X146746190Y-125184285D01*
X146555714Y-123755714D02*
X147222380Y-123755714D01*
X146174761Y-123993809D02*
X146889047Y-124231904D01*
X146889047Y-123612857D01*
X146222380Y-123327142D02*
X146222380Y-122660476D01*
X147222380Y-123089047D01*
%TO.C,R46*%
X150962380Y-124612857D02*
X150486190Y-124946190D01*
X150962380Y-125184285D02*
X149962380Y-125184285D01*
X149962380Y-124803333D01*
X150010000Y-124708095D01*
X150057619Y-124660476D01*
X150152857Y-124612857D01*
X150295714Y-124612857D01*
X150390952Y-124660476D01*
X150438571Y-124708095D01*
X150486190Y-124803333D01*
X150486190Y-125184285D01*
X150295714Y-123755714D02*
X150962380Y-123755714D01*
X149914761Y-123993809D02*
X150629047Y-124231904D01*
X150629047Y-123612857D01*
X149962380Y-122803333D02*
X149962380Y-122993809D01*
X150010000Y-123089047D01*
X150057619Y-123136666D01*
X150200476Y-123231904D01*
X150390952Y-123279523D01*
X150771904Y-123279523D01*
X150867142Y-123231904D01*
X150914761Y-123184285D01*
X150962380Y-123089047D01*
X150962380Y-122898571D01*
X150914761Y-122803333D01*
X150867142Y-122755714D01*
X150771904Y-122708095D01*
X150533809Y-122708095D01*
X150438571Y-122755714D01*
X150390952Y-122803333D01*
X150343333Y-122898571D01*
X150343333Y-123089047D01*
X150390952Y-123184285D01*
X150438571Y-123231904D01*
X150533809Y-123279523D01*
%TO.C,R10*%
X76709642Y-132132380D02*
X76376309Y-131656190D01*
X76138214Y-132132380D02*
X76138214Y-131132380D01*
X76519166Y-131132380D01*
X76614404Y-131180000D01*
X76662023Y-131227619D01*
X76709642Y-131322857D01*
X76709642Y-131465714D01*
X76662023Y-131560952D01*
X76614404Y-131608571D01*
X76519166Y-131656190D01*
X76138214Y-131656190D01*
X77662023Y-132132380D02*
X77090595Y-132132380D01*
X77376309Y-132132380D02*
X77376309Y-131132380D01*
X77281071Y-131275238D01*
X77185833Y-131370476D01*
X77090595Y-131418095D01*
X78281071Y-131132380D02*
X78376309Y-131132380D01*
X78471547Y-131180000D01*
X78519166Y-131227619D01*
X78566785Y-131322857D01*
X78614404Y-131513333D01*
X78614404Y-131751428D01*
X78566785Y-131941904D01*
X78519166Y-132037142D01*
X78471547Y-132084761D01*
X78376309Y-132132380D01*
X78281071Y-132132380D01*
X78185833Y-132084761D01*
X78138214Y-132037142D01*
X78090595Y-131941904D01*
X78042976Y-131751428D01*
X78042976Y-131513333D01*
X78090595Y-131322857D01*
X78138214Y-131227619D01*
X78185833Y-131180000D01*
X78281071Y-131132380D01*
%TO.C,R9*%
X77210833Y-117592380D02*
X76877500Y-117116190D01*
X76639404Y-117592380D02*
X76639404Y-116592380D01*
X77020357Y-116592380D01*
X77115595Y-116640000D01*
X77163214Y-116687619D01*
X77210833Y-116782857D01*
X77210833Y-116925714D01*
X77163214Y-117020952D01*
X77115595Y-117068571D01*
X77020357Y-117116190D01*
X76639404Y-117116190D01*
X77687023Y-117592380D02*
X77877500Y-117592380D01*
X77972738Y-117544761D01*
X78020357Y-117497142D01*
X78115595Y-117354285D01*
X78163214Y-117163809D01*
X78163214Y-116782857D01*
X78115595Y-116687619D01*
X78067976Y-116640000D01*
X77972738Y-116592380D01*
X77782261Y-116592380D01*
X77687023Y-116640000D01*
X77639404Y-116687619D01*
X77591785Y-116782857D01*
X77591785Y-117020952D01*
X77639404Y-117116190D01*
X77687023Y-117163809D01*
X77782261Y-117211428D01*
X77972738Y-117211428D01*
X78067976Y-117163809D01*
X78115595Y-117116190D01*
X78163214Y-117020952D01*
%TO.C,R8*%
X77200833Y-128422380D02*
X76867500Y-127946190D01*
X76629404Y-128422380D02*
X76629404Y-127422380D01*
X77010357Y-127422380D01*
X77105595Y-127470000D01*
X77153214Y-127517619D01*
X77200833Y-127612857D01*
X77200833Y-127755714D01*
X77153214Y-127850952D01*
X77105595Y-127898571D01*
X77010357Y-127946190D01*
X76629404Y-127946190D01*
X77772261Y-127850952D02*
X77677023Y-127803333D01*
X77629404Y-127755714D01*
X77581785Y-127660476D01*
X77581785Y-127612857D01*
X77629404Y-127517619D01*
X77677023Y-127470000D01*
X77772261Y-127422380D01*
X77962738Y-127422380D01*
X78057976Y-127470000D01*
X78105595Y-127517619D01*
X78153214Y-127612857D01*
X78153214Y-127660476D01*
X78105595Y-127755714D01*
X78057976Y-127803333D01*
X77962738Y-127850952D01*
X77772261Y-127850952D01*
X77677023Y-127898571D01*
X77629404Y-127946190D01*
X77581785Y-128041428D01*
X77581785Y-128231904D01*
X77629404Y-128327142D01*
X77677023Y-128374761D01*
X77772261Y-128422380D01*
X77962738Y-128422380D01*
X78057976Y-128374761D01*
X78105595Y-128327142D01*
X78153214Y-128231904D01*
X78153214Y-128041428D01*
X78105595Y-127946190D01*
X78057976Y-127898571D01*
X77962738Y-127850952D01*
%TO.C,R7*%
X77190833Y-113942380D02*
X76857500Y-113466190D01*
X76619404Y-113942380D02*
X76619404Y-112942380D01*
X77000357Y-112942380D01*
X77095595Y-112990000D01*
X77143214Y-113037619D01*
X77190833Y-113132857D01*
X77190833Y-113275714D01*
X77143214Y-113370952D01*
X77095595Y-113418571D01*
X77000357Y-113466190D01*
X76619404Y-113466190D01*
X77524166Y-112942380D02*
X78190833Y-112942380D01*
X77762261Y-113942380D01*
%TO.C,R6*%
X77190833Y-124812380D02*
X76857500Y-124336190D01*
X76619404Y-124812380D02*
X76619404Y-123812380D01*
X77000357Y-123812380D01*
X77095595Y-123860000D01*
X77143214Y-123907619D01*
X77190833Y-124002857D01*
X77190833Y-124145714D01*
X77143214Y-124240952D01*
X77095595Y-124288571D01*
X77000357Y-124336190D01*
X76619404Y-124336190D01*
X78047976Y-123812380D02*
X77857500Y-123812380D01*
X77762261Y-123860000D01*
X77714642Y-123907619D01*
X77619404Y-124050476D01*
X77571785Y-124240952D01*
X77571785Y-124621904D01*
X77619404Y-124717142D01*
X77667023Y-124764761D01*
X77762261Y-124812380D01*
X77952738Y-124812380D01*
X78047976Y-124764761D01*
X78095595Y-124717142D01*
X78143214Y-124621904D01*
X78143214Y-124383809D01*
X78095595Y-124288571D01*
X78047976Y-124240952D01*
X77952738Y-124193333D01*
X77762261Y-124193333D01*
X77667023Y-124240952D01*
X77619404Y-124288571D01*
X77571785Y-124383809D01*
%TO.C,R5*%
X77180833Y-110352380D02*
X76847500Y-109876190D01*
X76609404Y-110352380D02*
X76609404Y-109352380D01*
X76990357Y-109352380D01*
X77085595Y-109400000D01*
X77133214Y-109447619D01*
X77180833Y-109542857D01*
X77180833Y-109685714D01*
X77133214Y-109780952D01*
X77085595Y-109828571D01*
X76990357Y-109876190D01*
X76609404Y-109876190D01*
X78085595Y-109352380D02*
X77609404Y-109352380D01*
X77561785Y-109828571D01*
X77609404Y-109780952D01*
X77704642Y-109733333D01*
X77942738Y-109733333D01*
X78037976Y-109780952D01*
X78085595Y-109828571D01*
X78133214Y-109923809D01*
X78133214Y-110161904D01*
X78085595Y-110257142D01*
X78037976Y-110304761D01*
X77942738Y-110352380D01*
X77704642Y-110352380D01*
X77609404Y-110304761D01*
X77561785Y-110257142D01*
%TO.C,R4*%
X77140833Y-121362380D02*
X76807500Y-120886190D01*
X76569404Y-121362380D02*
X76569404Y-120362380D01*
X76950357Y-120362380D01*
X77045595Y-120410000D01*
X77093214Y-120457619D01*
X77140833Y-120552857D01*
X77140833Y-120695714D01*
X77093214Y-120790952D01*
X77045595Y-120838571D01*
X76950357Y-120886190D01*
X76569404Y-120886190D01*
X77997976Y-120695714D02*
X77997976Y-121362380D01*
X77759880Y-120314761D02*
X77521785Y-121029047D01*
X78140833Y-121029047D01*
%TO.C,R3*%
X77200833Y-106832380D02*
X76867500Y-106356190D01*
X76629404Y-106832380D02*
X76629404Y-105832380D01*
X77010357Y-105832380D01*
X77105595Y-105880000D01*
X77153214Y-105927619D01*
X77200833Y-106022857D01*
X77200833Y-106165714D01*
X77153214Y-106260952D01*
X77105595Y-106308571D01*
X77010357Y-106356190D01*
X76629404Y-106356190D01*
X77534166Y-105832380D02*
X78153214Y-105832380D01*
X77819880Y-106213333D01*
X77962738Y-106213333D01*
X78057976Y-106260952D01*
X78105595Y-106308571D01*
X78153214Y-106403809D01*
X78153214Y-106641904D01*
X78105595Y-106737142D01*
X78057976Y-106784761D01*
X77962738Y-106832380D01*
X77677023Y-106832380D01*
X77581785Y-106784761D01*
X77534166Y-106737142D01*
%TO.C,R2*%
X70240833Y-121332380D02*
X69907500Y-120856190D01*
X69669404Y-121332380D02*
X69669404Y-120332380D01*
X70050357Y-120332380D01*
X70145595Y-120380000D01*
X70193214Y-120427619D01*
X70240833Y-120522857D01*
X70240833Y-120665714D01*
X70193214Y-120760952D01*
X70145595Y-120808571D01*
X70050357Y-120856190D01*
X69669404Y-120856190D01*
X70621785Y-120427619D02*
X70669404Y-120380000D01*
X70764642Y-120332380D01*
X71002738Y-120332380D01*
X71097976Y-120380000D01*
X71145595Y-120427619D01*
X71193214Y-120522857D01*
X71193214Y-120618095D01*
X71145595Y-120760952D01*
X70574166Y-121332380D01*
X71193214Y-121332380D01*
%TO.C,R1*%
X70170833Y-106822380D02*
X69837500Y-106346190D01*
X69599404Y-106822380D02*
X69599404Y-105822380D01*
X69980357Y-105822380D01*
X70075595Y-105870000D01*
X70123214Y-105917619D01*
X70170833Y-106012857D01*
X70170833Y-106155714D01*
X70123214Y-106250952D01*
X70075595Y-106298571D01*
X69980357Y-106346190D01*
X69599404Y-106346190D01*
X71123214Y-106822380D02*
X70551785Y-106822380D01*
X70837500Y-106822380D02*
X70837500Y-105822380D01*
X70742261Y-105965238D01*
X70647023Y-106060476D01*
X70551785Y-106108095D01*
%TD*%
M02*
