%TF.GenerationSoftware,KiCad,Pcbnew,(5.1.9)-1*%
%TF.CreationDate,2021-03-26T17:10:42+01:00*%
%TF.ProjectId,Power Supply,506f7765-7220-4537-9570-706c792e6b69,rev?*%
%TF.SameCoordinates,Original*%
%TF.FileFunction,Legend,Top*%
%TF.FilePolarity,Positive*%
%FSLAX46Y46*%
G04 Gerber Fmt 4.6, Leading zero omitted, Abs format (unit mm)*
G04 Created by KiCad (PCBNEW (5.1.9)-1) date 2021-03-26 17:10:42*
%MOMM*%
%LPD*%
G01*
G04 APERTURE LIST*
%ADD10C,0.300000*%
%ADD11C,0.100000*%
%ADD12C,0.152400*%
%ADD13C,0.120000*%
%ADD14C,0.254000*%
%ADD15C,0.150000*%
G04 APERTURE END LIST*
D10*
X78385714Y-115757142D02*
X78385714Y-112757142D01*
X80100000Y-115757142D01*
X80100000Y-112757142D01*
X81528571Y-114185714D02*
X82528571Y-114185714D01*
X82957142Y-115757142D02*
X81528571Y-115757142D01*
X81528571Y-112757142D01*
X82957142Y-112757142D01*
X83814285Y-112757142D02*
X85528571Y-112757142D01*
X84671428Y-115757142D02*
X84671428Y-112757142D01*
X89814285Y-114185714D02*
X88814285Y-114185714D01*
X88814285Y-115757142D02*
X88814285Y-112757142D01*
X90242857Y-112757142D01*
X91385714Y-115757142D02*
X91385714Y-112757142D01*
X94242857Y-115757142D02*
X92814285Y-115757142D01*
X92814285Y-112757142D01*
X94814285Y-112757142D02*
X96528571Y-112757142D01*
X95671428Y-115757142D02*
X95671428Y-112757142D01*
X97528571Y-114185714D02*
X98528571Y-114185714D01*
X98957142Y-115757142D02*
X97528571Y-115757142D01*
X97528571Y-112757142D01*
X98957142Y-112757142D01*
X101957142Y-115757142D02*
X100957142Y-114328571D01*
X100242857Y-115757142D02*
X100242857Y-112757142D01*
X101385714Y-112757142D01*
X101671428Y-112900000D01*
X101814285Y-113042857D01*
X101957142Y-113328571D01*
X101957142Y-113757142D01*
X101814285Y-114042857D01*
X101671428Y-114185714D01*
X101385714Y-114328571D01*
X100242857Y-114328571D01*
X149992857Y-126407142D02*
X149992857Y-128835714D01*
X150135714Y-129121428D01*
X150278571Y-129264285D01*
X150564285Y-129407142D01*
X151135714Y-129407142D01*
X151421428Y-129264285D01*
X151564285Y-129121428D01*
X151707142Y-128835714D01*
X151707142Y-126407142D01*
X153135714Y-129407142D02*
X153135714Y-126407142D01*
X154278571Y-126407142D01*
X154564285Y-126550000D01*
X154707142Y-126692857D01*
X154850000Y-126978571D01*
X154850000Y-127407142D01*
X154707142Y-127692857D01*
X154564285Y-127835714D01*
X154278571Y-127978571D01*
X153135714Y-127978571D01*
X155850000Y-126407142D02*
X157850000Y-126407142D01*
X155850000Y-129407142D01*
X157850000Y-129407142D01*
X161135714Y-129264285D02*
X161564285Y-129407142D01*
X162278571Y-129407142D01*
X162564285Y-129264285D01*
X162707142Y-129121428D01*
X162850000Y-128835714D01*
X162850000Y-128550000D01*
X162707142Y-128264285D01*
X162564285Y-128121428D01*
X162278571Y-127978571D01*
X161707142Y-127835714D01*
X161421428Y-127692857D01*
X161278571Y-127550000D01*
X161135714Y-127264285D01*
X161135714Y-126978571D01*
X161278571Y-126692857D01*
X161421428Y-126550000D01*
X161707142Y-126407142D01*
X162421428Y-126407142D01*
X162850000Y-126550000D01*
X163850000Y-127407142D02*
X164421428Y-129407142D01*
X164992857Y-127978571D01*
X165564285Y-129407142D01*
X166135714Y-127407142D01*
X167278571Y-129407142D02*
X167278571Y-127407142D01*
X167278571Y-126407142D02*
X167135714Y-126550000D01*
X167278571Y-126692857D01*
X167421428Y-126550000D01*
X167278571Y-126407142D01*
X167278571Y-126692857D01*
X168278571Y-127407142D02*
X169421428Y-127407142D01*
X168707142Y-126407142D02*
X168707142Y-128978571D01*
X168850000Y-129264285D01*
X169135714Y-129407142D01*
X169421428Y-129407142D01*
X171707142Y-129264285D02*
X171421428Y-129407142D01*
X170850000Y-129407142D01*
X170564285Y-129264285D01*
X170421428Y-129121428D01*
X170278571Y-128835714D01*
X170278571Y-127978571D01*
X170421428Y-127692857D01*
X170564285Y-127550000D01*
X170850000Y-127407142D01*
X171421428Y-127407142D01*
X171707142Y-127550000D01*
X172992857Y-129407142D02*
X172992857Y-126407142D01*
X174278571Y-129407142D02*
X174278571Y-127835714D01*
X174135714Y-127550000D01*
X173850000Y-127407142D01*
X173421428Y-127407142D01*
X173135714Y-127550000D01*
X172992857Y-127692857D01*
X176850000Y-129264285D02*
X176564285Y-129407142D01*
X175992857Y-129407142D01*
X175707142Y-129264285D01*
X175564285Y-128978571D01*
X175564285Y-127835714D01*
X175707142Y-127550000D01*
X175992857Y-127407142D01*
X176564285Y-127407142D01*
X176850000Y-127550000D01*
X176992857Y-127835714D01*
X176992857Y-128121428D01*
X175564285Y-128407142D01*
X178278571Y-129407142D02*
X178278571Y-127407142D01*
X178278571Y-127978571D02*
X178421428Y-127692857D01*
X178564285Y-127550000D01*
X178850000Y-127407142D01*
X179135714Y-127407142D01*
X152921428Y-134207142D02*
X152921428Y-131207142D01*
X154064285Y-131207142D01*
X154350000Y-131350000D01*
X154492857Y-131492857D01*
X154635714Y-131778571D01*
X154635714Y-132207142D01*
X154492857Y-132492857D01*
X154350000Y-132635714D01*
X154064285Y-132778571D01*
X152921428Y-132778571D01*
X155778571Y-134064285D02*
X156207142Y-134207142D01*
X156921428Y-134207142D01*
X157207142Y-134064285D01*
X157350000Y-133921428D01*
X157492857Y-133635714D01*
X157492857Y-133350000D01*
X157350000Y-133064285D01*
X157207142Y-132921428D01*
X156921428Y-132778571D01*
X156350000Y-132635714D01*
X156064285Y-132492857D01*
X155921428Y-132350000D01*
X155778571Y-132064285D01*
X155778571Y-131778571D01*
X155921428Y-131492857D01*
X156064285Y-131350000D01*
X156350000Y-131207142D01*
X157064285Y-131207142D01*
X157492857Y-131350000D01*
X158778571Y-131207142D02*
X158778571Y-133635714D01*
X158921428Y-133921428D01*
X159064285Y-134064285D01*
X159350000Y-134207142D01*
X159921428Y-134207142D01*
X160207142Y-134064285D01*
X160350000Y-133921428D01*
X160492857Y-133635714D01*
X160492857Y-131207142D01*
X165207142Y-132635714D02*
X165635714Y-132778571D01*
X165778571Y-132921428D01*
X165921428Y-133207142D01*
X165921428Y-133635714D01*
X165778571Y-133921428D01*
X165635714Y-134064285D01*
X165350000Y-134207142D01*
X164207142Y-134207142D01*
X164207142Y-131207142D01*
X165207142Y-131207142D01*
X165492857Y-131350000D01*
X165635714Y-131492857D01*
X165778571Y-131778571D01*
X165778571Y-132064285D01*
X165635714Y-132350000D01*
X165492857Y-132492857D01*
X165207142Y-132635714D01*
X164207142Y-132635714D01*
X167635714Y-134207142D02*
X167350000Y-134064285D01*
X167207142Y-133921428D01*
X167064285Y-133635714D01*
X167064285Y-132778571D01*
X167207142Y-132492857D01*
X167350000Y-132350000D01*
X167635714Y-132207142D01*
X168064285Y-132207142D01*
X168350000Y-132350000D01*
X168492857Y-132492857D01*
X168635714Y-132778571D01*
X168635714Y-133635714D01*
X168492857Y-133921428D01*
X168350000Y-134064285D01*
X168064285Y-134207142D01*
X167635714Y-134207142D01*
X171207142Y-134207142D02*
X171207142Y-132635714D01*
X171064285Y-132350000D01*
X170778571Y-132207142D01*
X170207142Y-132207142D01*
X169921428Y-132350000D01*
X171207142Y-134064285D02*
X170921428Y-134207142D01*
X170207142Y-134207142D01*
X169921428Y-134064285D01*
X169778571Y-133778571D01*
X169778571Y-133492857D01*
X169921428Y-133207142D01*
X170207142Y-133064285D01*
X170921428Y-133064285D01*
X171207142Y-132921428D01*
X172635714Y-134207142D02*
X172635714Y-132207142D01*
X172635714Y-132778571D02*
X172778571Y-132492857D01*
X172921428Y-132350000D01*
X173207142Y-132207142D01*
X173492857Y-132207142D01*
X175778571Y-134207142D02*
X175778571Y-131207142D01*
X175778571Y-134064285D02*
X175492857Y-134207142D01*
X174921428Y-134207142D01*
X174635714Y-134064285D01*
X174492857Y-133921428D01*
X174350000Y-133635714D01*
X174350000Y-132778571D01*
X174492857Y-132492857D01*
X174635714Y-132350000D01*
X174921428Y-132207142D01*
X175492857Y-132207142D01*
X175778571Y-132350000D01*
X143350000Y-137435714D02*
X143778571Y-137578571D01*
X143921428Y-137721428D01*
X144064285Y-138007142D01*
X144064285Y-138435714D01*
X143921428Y-138721428D01*
X143778571Y-138864285D01*
X143492857Y-139007142D01*
X142350000Y-139007142D01*
X142350000Y-136007142D01*
X143350000Y-136007142D01*
X143635714Y-136150000D01*
X143778571Y-136292857D01*
X143921428Y-136578571D01*
X143921428Y-136864285D01*
X143778571Y-137150000D01*
X143635714Y-137292857D01*
X143350000Y-137435714D01*
X142350000Y-137435714D01*
X144921428Y-136007142D02*
X145921428Y-139007142D01*
X146921428Y-136007142D01*
X147921428Y-139007142D02*
X147921428Y-136007142D01*
X149635714Y-139007142D02*
X148350000Y-137292857D01*
X149635714Y-136007142D02*
X147921428Y-137721428D01*
X150778571Y-138864285D02*
X151207142Y-139007142D01*
X151921428Y-139007142D01*
X152207142Y-138864285D01*
X152350000Y-138721428D01*
X152492857Y-138435714D01*
X152492857Y-138150000D01*
X152350000Y-137864285D01*
X152207142Y-137721428D01*
X151921428Y-137578571D01*
X151350000Y-137435714D01*
X151064285Y-137292857D01*
X150921428Y-137150000D01*
X150778571Y-136864285D01*
X150778571Y-136578571D01*
X150921428Y-136292857D01*
X151064285Y-136150000D01*
X151350000Y-136007142D01*
X152064285Y-136007142D01*
X152492857Y-136150000D01*
X154207142Y-139007142D02*
X153921428Y-138864285D01*
X153778571Y-138721428D01*
X153635714Y-138435714D01*
X153635714Y-137578571D01*
X153778571Y-137292857D01*
X153921428Y-137150000D01*
X154207142Y-137007142D01*
X154635714Y-137007142D01*
X154921428Y-137150000D01*
X155064285Y-137292857D01*
X155207142Y-137578571D01*
X155207142Y-138435714D01*
X155064285Y-138721428D01*
X154921428Y-138864285D01*
X154635714Y-139007142D01*
X154207142Y-139007142D01*
X157778571Y-137007142D02*
X157778571Y-139007142D01*
X156492857Y-137007142D02*
X156492857Y-138578571D01*
X156635714Y-138864285D01*
X156921428Y-139007142D01*
X157350000Y-139007142D01*
X157635714Y-138864285D01*
X157778571Y-138721428D01*
X159207142Y-137007142D02*
X159207142Y-139007142D01*
X159207142Y-137292857D02*
X159350000Y-137150000D01*
X159635714Y-137007142D01*
X160064285Y-137007142D01*
X160350000Y-137150000D01*
X160492857Y-137435714D01*
X160492857Y-139007142D01*
X163207142Y-139007142D02*
X163207142Y-136007142D01*
X163207142Y-138864285D02*
X162921428Y-139007142D01*
X162350000Y-139007142D01*
X162064285Y-138864285D01*
X161921428Y-138721428D01*
X161778571Y-138435714D01*
X161778571Y-137578571D01*
X161921428Y-137292857D01*
X162064285Y-137150000D01*
X162350000Y-137007142D01*
X162921428Y-137007142D01*
X163207142Y-137150000D01*
X166778571Y-136292857D02*
X166921428Y-136150000D01*
X167207142Y-136007142D01*
X167921428Y-136007142D01*
X168207142Y-136150000D01*
X168350000Y-136292857D01*
X168492857Y-136578571D01*
X168492857Y-136864285D01*
X168350000Y-137292857D01*
X166635714Y-139007142D01*
X168492857Y-139007142D01*
X170350000Y-136007142D02*
X170635714Y-136007142D01*
X170921428Y-136150000D01*
X171064285Y-136292857D01*
X171207142Y-136578571D01*
X171350000Y-137150000D01*
X171350000Y-137864285D01*
X171207142Y-138435714D01*
X171064285Y-138721428D01*
X170921428Y-138864285D01*
X170635714Y-139007142D01*
X170350000Y-139007142D01*
X170064285Y-138864285D01*
X169921428Y-138721428D01*
X169778571Y-138435714D01*
X169635714Y-137864285D01*
X169635714Y-137150000D01*
X169778571Y-136578571D01*
X169921428Y-136292857D01*
X170064285Y-136150000D01*
X170350000Y-136007142D01*
X172492857Y-136292857D02*
X172635714Y-136150000D01*
X172921428Y-136007142D01*
X173635714Y-136007142D01*
X173921428Y-136150000D01*
X174064285Y-136292857D01*
X174207142Y-136578571D01*
X174207142Y-136864285D01*
X174064285Y-137292857D01*
X172350000Y-139007142D01*
X174207142Y-139007142D01*
X177064285Y-139007142D02*
X175350000Y-139007142D01*
X176207142Y-139007142D02*
X176207142Y-136007142D01*
X175921428Y-136435714D01*
X175635714Y-136721428D01*
X175350000Y-136864285D01*
X178350000Y-137864285D02*
X180635714Y-137864285D01*
X182635714Y-136007142D02*
X182921428Y-136007142D01*
X183207142Y-136150000D01*
X183350000Y-136292857D01*
X183492857Y-136578571D01*
X183635714Y-137150000D01*
X183635714Y-137864285D01*
X183492857Y-138435714D01*
X183350000Y-138721428D01*
X183207142Y-138864285D01*
X182921428Y-139007142D01*
X182635714Y-139007142D01*
X182350000Y-138864285D01*
X182207142Y-138721428D01*
X182064285Y-138435714D01*
X181921428Y-137864285D01*
X181921428Y-137150000D01*
X182064285Y-136578571D01*
X182207142Y-136292857D01*
X182350000Y-136150000D01*
X182635714Y-136007142D01*
X184635714Y-136007142D02*
X186492857Y-136007142D01*
X185492857Y-137150000D01*
X185921428Y-137150000D01*
X186207142Y-137292857D01*
X186350000Y-137435714D01*
X186492857Y-137721428D01*
X186492857Y-138435714D01*
X186350000Y-138721428D01*
X186207142Y-138864285D01*
X185921428Y-139007142D01*
X185064285Y-139007142D01*
X184778571Y-138864285D01*
X184635714Y-138721428D01*
X109378571Y-128304761D02*
X109378571Y-126304761D01*
X110521428Y-128304761D01*
X110521428Y-126304761D01*
X120219047Y-128404761D02*
X119266666Y-128404761D01*
X119266666Y-126404761D01*
D11*
%TO.C,J2*%
X109582000Y-134858000D02*
X109582000Y-132858000D01*
X110382000Y-134858000D02*
X110382000Y-132858000D01*
%TO.C,J1*%
X119234000Y-134858000D02*
X119234000Y-132858000D01*
X120034000Y-134858000D02*
X120034000Y-132858000D01*
D12*
%TO.C,J3*%
X219278200Y-96901000D02*
X219278200Y-129159000D01*
X219278200Y-129159000D02*
X223174775Y-129159000D01*
X228142800Y-129159000D02*
X228142800Y-96901000D01*
X228142800Y-96901000D02*
X224373225Y-96901000D01*
X223174775Y-96901000D02*
X219278200Y-96901000D01*
X224373225Y-129159000D02*
X228142800Y-129159000D01*
X227330000Y-107950000D02*
G75*
G03*
X227330000Y-107950000I-381000J0D01*
G01*
D13*
%TO.C,U2*%
X125754000Y-100372000D02*
X125754000Y-129752000D01*
X125754000Y-129752000D02*
X149074000Y-129752000D01*
X149074000Y-129752000D02*
X149074000Y-100372000D01*
X149074000Y-100372000D02*
X141300666Y-100372000D01*
X141300666Y-100372000D02*
X141300666Y-100732000D01*
X141300666Y-100732000D02*
X133527334Y-100732000D01*
X133527334Y-100732000D02*
X133527334Y-100372000D01*
X133527334Y-100372000D02*
X125754000Y-100372000D01*
%TO.C,U1*%
X162584000Y-101008000D02*
X162584000Y-123528000D01*
X162584000Y-123528000D02*
X185904000Y-123528000D01*
X185904000Y-123528000D02*
X185904000Y-101008000D01*
X185904000Y-101008000D02*
X178130666Y-101008000D01*
X178130666Y-101008000D02*
X178130666Y-101368000D01*
X178130666Y-101368000D02*
X170357334Y-101368000D01*
X170357334Y-101368000D02*
X170357334Y-101008000D01*
X170357334Y-101008000D02*
X162584000Y-101008000D01*
%TO.C,C4*%
X214122000Y-132334000D02*
G75*
G03*
X214122000Y-132334000I-5120000J0D01*
G01*
X209002000Y-127254000D02*
X209002000Y-137414000D01*
X209042000Y-127254000D02*
X209042000Y-137414000D01*
X209082000Y-127254000D02*
X209082000Y-137414000D01*
X209122000Y-127255000D02*
X209122000Y-137413000D01*
X209162000Y-127256000D02*
X209162000Y-137412000D01*
X209202000Y-127257000D02*
X209202000Y-137411000D01*
X209242000Y-127259000D02*
X209242000Y-137409000D01*
X209282000Y-127261000D02*
X209282000Y-137407000D01*
X209322000Y-127264000D02*
X209322000Y-137404000D01*
X209362000Y-127266000D02*
X209362000Y-137402000D01*
X209402000Y-127269000D02*
X209402000Y-137399000D01*
X209442000Y-127272000D02*
X209442000Y-137396000D01*
X209482000Y-127276000D02*
X209482000Y-137392000D01*
X209522000Y-127280000D02*
X209522000Y-137388000D01*
X209562000Y-127284000D02*
X209562000Y-137384000D01*
X209602000Y-127289000D02*
X209602000Y-137379000D01*
X209642000Y-127294000D02*
X209642000Y-137374000D01*
X209682000Y-127299000D02*
X209682000Y-137369000D01*
X209723000Y-127304000D02*
X209723000Y-137364000D01*
X209763000Y-127310000D02*
X209763000Y-137358000D01*
X209803000Y-127316000D02*
X209803000Y-137352000D01*
X209843000Y-127323000D02*
X209843000Y-137345000D01*
X209883000Y-127330000D02*
X209883000Y-137338000D01*
X209923000Y-127337000D02*
X209923000Y-137331000D01*
X209963000Y-127344000D02*
X209963000Y-137324000D01*
X210003000Y-127352000D02*
X210003000Y-137316000D01*
X210043000Y-127360000D02*
X210043000Y-137308000D01*
X210083000Y-127369000D02*
X210083000Y-137299000D01*
X210123000Y-127378000D02*
X210123000Y-137290000D01*
X210163000Y-127387000D02*
X210163000Y-137281000D01*
X210203000Y-127396000D02*
X210203000Y-137272000D01*
X210243000Y-127406000D02*
X210243000Y-137262000D01*
X210283000Y-127416000D02*
X210283000Y-131093000D01*
X210283000Y-133575000D02*
X210283000Y-137252000D01*
X210323000Y-127427000D02*
X210323000Y-131093000D01*
X210323000Y-133575000D02*
X210323000Y-137241000D01*
X210363000Y-127437000D02*
X210363000Y-131093000D01*
X210363000Y-133575000D02*
X210363000Y-137231000D01*
X210403000Y-127449000D02*
X210403000Y-131093000D01*
X210403000Y-133575000D02*
X210403000Y-137219000D01*
X210443000Y-127460000D02*
X210443000Y-131093000D01*
X210443000Y-133575000D02*
X210443000Y-137208000D01*
X210483000Y-127472000D02*
X210483000Y-131093000D01*
X210483000Y-133575000D02*
X210483000Y-137196000D01*
X210523000Y-127484000D02*
X210523000Y-131093000D01*
X210523000Y-133575000D02*
X210523000Y-137184000D01*
X210563000Y-127497000D02*
X210563000Y-131093000D01*
X210563000Y-133575000D02*
X210563000Y-137171000D01*
X210603000Y-127510000D02*
X210603000Y-131093000D01*
X210603000Y-133575000D02*
X210603000Y-137158000D01*
X210643000Y-127523000D02*
X210643000Y-131093000D01*
X210643000Y-133575000D02*
X210643000Y-137145000D01*
X210683000Y-127537000D02*
X210683000Y-131093000D01*
X210683000Y-133575000D02*
X210683000Y-137131000D01*
X210723000Y-127551000D02*
X210723000Y-131093000D01*
X210723000Y-133575000D02*
X210723000Y-137117000D01*
X210763000Y-127566000D02*
X210763000Y-131093000D01*
X210763000Y-133575000D02*
X210763000Y-137102000D01*
X210803000Y-127580000D02*
X210803000Y-131093000D01*
X210803000Y-133575000D02*
X210803000Y-137088000D01*
X210843000Y-127596000D02*
X210843000Y-131093000D01*
X210843000Y-133575000D02*
X210843000Y-137072000D01*
X210883000Y-127611000D02*
X210883000Y-131093000D01*
X210883000Y-133575000D02*
X210883000Y-137057000D01*
X210923000Y-127627000D02*
X210923000Y-131093000D01*
X210923000Y-133575000D02*
X210923000Y-137041000D01*
X210963000Y-127644000D02*
X210963000Y-131093000D01*
X210963000Y-133575000D02*
X210963000Y-137024000D01*
X211003000Y-127660000D02*
X211003000Y-131093000D01*
X211003000Y-133575000D02*
X211003000Y-137008000D01*
X211043000Y-127677000D02*
X211043000Y-131093000D01*
X211043000Y-133575000D02*
X211043000Y-136991000D01*
X211083000Y-127695000D02*
X211083000Y-131093000D01*
X211083000Y-133575000D02*
X211083000Y-136973000D01*
X211123000Y-127713000D02*
X211123000Y-131093000D01*
X211123000Y-133575000D02*
X211123000Y-136955000D01*
X211163000Y-127731000D02*
X211163000Y-131093000D01*
X211163000Y-133575000D02*
X211163000Y-136937000D01*
X211203000Y-127750000D02*
X211203000Y-131093000D01*
X211203000Y-133575000D02*
X211203000Y-136918000D01*
X211243000Y-127770000D02*
X211243000Y-131093000D01*
X211243000Y-133575000D02*
X211243000Y-136898000D01*
X211283000Y-127789000D02*
X211283000Y-131093000D01*
X211283000Y-133575000D02*
X211283000Y-136879000D01*
X211323000Y-127809000D02*
X211323000Y-131093000D01*
X211323000Y-133575000D02*
X211323000Y-136859000D01*
X211363000Y-127830000D02*
X211363000Y-131093000D01*
X211363000Y-133575000D02*
X211363000Y-136838000D01*
X211403000Y-127851000D02*
X211403000Y-131093000D01*
X211403000Y-133575000D02*
X211403000Y-136817000D01*
X211443000Y-127872000D02*
X211443000Y-131093000D01*
X211443000Y-133575000D02*
X211443000Y-136796000D01*
X211483000Y-127894000D02*
X211483000Y-131093000D01*
X211483000Y-133575000D02*
X211483000Y-136774000D01*
X211523000Y-127917000D02*
X211523000Y-131093000D01*
X211523000Y-133575000D02*
X211523000Y-136751000D01*
X211563000Y-127939000D02*
X211563000Y-131093000D01*
X211563000Y-133575000D02*
X211563000Y-136729000D01*
X211603000Y-127963000D02*
X211603000Y-131093000D01*
X211603000Y-133575000D02*
X211603000Y-136705000D01*
X211643000Y-127987000D02*
X211643000Y-131093000D01*
X211643000Y-133575000D02*
X211643000Y-136681000D01*
X211683000Y-128011000D02*
X211683000Y-131093000D01*
X211683000Y-133575000D02*
X211683000Y-136657000D01*
X211723000Y-128036000D02*
X211723000Y-131093000D01*
X211723000Y-133575000D02*
X211723000Y-136632000D01*
X211763000Y-128061000D02*
X211763000Y-131093000D01*
X211763000Y-133575000D02*
X211763000Y-136607000D01*
X211803000Y-128087000D02*
X211803000Y-131093000D01*
X211803000Y-133575000D02*
X211803000Y-136581000D01*
X211843000Y-128113000D02*
X211843000Y-131093000D01*
X211843000Y-133575000D02*
X211843000Y-136555000D01*
X211883000Y-128140000D02*
X211883000Y-131093000D01*
X211883000Y-133575000D02*
X211883000Y-136528000D01*
X211923000Y-128168000D02*
X211923000Y-131093000D01*
X211923000Y-133575000D02*
X211923000Y-136500000D01*
X211963000Y-128196000D02*
X211963000Y-131093000D01*
X211963000Y-133575000D02*
X211963000Y-136472000D01*
X212003000Y-128224000D02*
X212003000Y-131093000D01*
X212003000Y-133575000D02*
X212003000Y-136444000D01*
X212043000Y-128254000D02*
X212043000Y-131093000D01*
X212043000Y-133575000D02*
X212043000Y-136414000D01*
X212083000Y-128284000D02*
X212083000Y-131093000D01*
X212083000Y-133575000D02*
X212083000Y-136384000D01*
X212123000Y-128314000D02*
X212123000Y-131093000D01*
X212123000Y-133575000D02*
X212123000Y-136354000D01*
X212163000Y-128345000D02*
X212163000Y-131093000D01*
X212163000Y-133575000D02*
X212163000Y-136323000D01*
X212203000Y-128377000D02*
X212203000Y-131093000D01*
X212203000Y-133575000D02*
X212203000Y-136291000D01*
X212243000Y-128409000D02*
X212243000Y-131093000D01*
X212243000Y-133575000D02*
X212243000Y-136259000D01*
X212283000Y-128442000D02*
X212283000Y-131093000D01*
X212283000Y-133575000D02*
X212283000Y-136226000D01*
X212323000Y-128476000D02*
X212323000Y-131093000D01*
X212323000Y-133575000D02*
X212323000Y-136192000D01*
X212363000Y-128510000D02*
X212363000Y-131093000D01*
X212363000Y-133575000D02*
X212363000Y-136158000D01*
X212403000Y-128545000D02*
X212403000Y-131093000D01*
X212403000Y-133575000D02*
X212403000Y-136123000D01*
X212443000Y-128581000D02*
X212443000Y-131093000D01*
X212443000Y-133575000D02*
X212443000Y-136087000D01*
X212483000Y-128618000D02*
X212483000Y-131093000D01*
X212483000Y-133575000D02*
X212483000Y-136050000D01*
X212523000Y-128655000D02*
X212523000Y-131093000D01*
X212523000Y-133575000D02*
X212523000Y-136013000D01*
X212563000Y-128694000D02*
X212563000Y-131093000D01*
X212563000Y-133575000D02*
X212563000Y-135974000D01*
X212603000Y-128733000D02*
X212603000Y-131093000D01*
X212603000Y-133575000D02*
X212603000Y-135935000D01*
X212643000Y-128773000D02*
X212643000Y-131093000D01*
X212643000Y-133575000D02*
X212643000Y-135895000D01*
X212683000Y-128814000D02*
X212683000Y-131093000D01*
X212683000Y-133575000D02*
X212683000Y-135854000D01*
X212723000Y-128856000D02*
X212723000Y-131093000D01*
X212723000Y-133575000D02*
X212723000Y-135812000D01*
X212763000Y-128898000D02*
X212763000Y-135770000D01*
X212803000Y-128942000D02*
X212803000Y-135726000D01*
X212843000Y-128987000D02*
X212843000Y-135681000D01*
X212883000Y-129033000D02*
X212883000Y-135635000D01*
X212923000Y-129080000D02*
X212923000Y-135588000D01*
X212963000Y-129128000D02*
X212963000Y-135540000D01*
X213003000Y-129178000D02*
X213003000Y-135490000D01*
X213043000Y-129228000D02*
X213043000Y-135440000D01*
X213083000Y-129280000D02*
X213083000Y-135388000D01*
X213123000Y-129334000D02*
X213123000Y-135334000D01*
X213163000Y-129389000D02*
X213163000Y-135279000D01*
X213203000Y-129445000D02*
X213203000Y-135223000D01*
X213243000Y-129504000D02*
X213243000Y-135164000D01*
X213283000Y-129564000D02*
X213283000Y-135104000D01*
X213323000Y-129625000D02*
X213323000Y-135043000D01*
X213363000Y-129689000D02*
X213363000Y-134979000D01*
X213403000Y-129755000D02*
X213403000Y-134913000D01*
X213443000Y-129824000D02*
X213443000Y-134844000D01*
X213483000Y-129895000D02*
X213483000Y-134773000D01*
X213523000Y-129969000D02*
X213523000Y-134699000D01*
X213563000Y-130045000D02*
X213563000Y-134623000D01*
X213603000Y-130125000D02*
X213603000Y-134543000D01*
X213643000Y-130209000D02*
X213643000Y-134459000D01*
X213683000Y-130297000D02*
X213683000Y-134371000D01*
X213723000Y-130390000D02*
X213723000Y-134278000D01*
X213763000Y-130488000D02*
X213763000Y-134180000D01*
X213803000Y-130592000D02*
X213803000Y-134076000D01*
X213843000Y-130704000D02*
X213843000Y-133964000D01*
X213883000Y-130824000D02*
X213883000Y-133844000D01*
X213923000Y-130956000D02*
X213923000Y-133712000D01*
X213963000Y-131104000D02*
X213963000Y-133564000D01*
X214003000Y-131272000D02*
X214003000Y-133396000D01*
X214043000Y-131472000D02*
X214043000Y-133196000D01*
X214083000Y-131735000D02*
X214083000Y-132933000D01*
X203522354Y-129459000D02*
X204522354Y-129459000D01*
X204022354Y-128959000D02*
X204022354Y-129959000D01*
%TO.C,C3*%
X200660000Y-132588000D02*
G75*
G03*
X200660000Y-132588000I-5120000J0D01*
G01*
X195540000Y-127508000D02*
X195540000Y-137668000D01*
X195580000Y-127508000D02*
X195580000Y-137668000D01*
X195620000Y-127508000D02*
X195620000Y-137668000D01*
X195660000Y-127509000D02*
X195660000Y-137667000D01*
X195700000Y-127510000D02*
X195700000Y-137666000D01*
X195740000Y-127511000D02*
X195740000Y-137665000D01*
X195780000Y-127513000D02*
X195780000Y-137663000D01*
X195820000Y-127515000D02*
X195820000Y-137661000D01*
X195860000Y-127518000D02*
X195860000Y-137658000D01*
X195900000Y-127520000D02*
X195900000Y-137656000D01*
X195940000Y-127523000D02*
X195940000Y-137653000D01*
X195980000Y-127526000D02*
X195980000Y-137650000D01*
X196020000Y-127530000D02*
X196020000Y-137646000D01*
X196060000Y-127534000D02*
X196060000Y-137642000D01*
X196100000Y-127538000D02*
X196100000Y-137638000D01*
X196140000Y-127543000D02*
X196140000Y-137633000D01*
X196180000Y-127548000D02*
X196180000Y-137628000D01*
X196220000Y-127553000D02*
X196220000Y-137623000D01*
X196261000Y-127558000D02*
X196261000Y-137618000D01*
X196301000Y-127564000D02*
X196301000Y-137612000D01*
X196341000Y-127570000D02*
X196341000Y-137606000D01*
X196381000Y-127577000D02*
X196381000Y-137599000D01*
X196421000Y-127584000D02*
X196421000Y-137592000D01*
X196461000Y-127591000D02*
X196461000Y-137585000D01*
X196501000Y-127598000D02*
X196501000Y-137578000D01*
X196541000Y-127606000D02*
X196541000Y-137570000D01*
X196581000Y-127614000D02*
X196581000Y-137562000D01*
X196621000Y-127623000D02*
X196621000Y-137553000D01*
X196661000Y-127632000D02*
X196661000Y-137544000D01*
X196701000Y-127641000D02*
X196701000Y-137535000D01*
X196741000Y-127650000D02*
X196741000Y-137526000D01*
X196781000Y-127660000D02*
X196781000Y-137516000D01*
X196821000Y-127670000D02*
X196821000Y-131347000D01*
X196821000Y-133829000D02*
X196821000Y-137506000D01*
X196861000Y-127681000D02*
X196861000Y-131347000D01*
X196861000Y-133829000D02*
X196861000Y-137495000D01*
X196901000Y-127691000D02*
X196901000Y-131347000D01*
X196901000Y-133829000D02*
X196901000Y-137485000D01*
X196941000Y-127703000D02*
X196941000Y-131347000D01*
X196941000Y-133829000D02*
X196941000Y-137473000D01*
X196981000Y-127714000D02*
X196981000Y-131347000D01*
X196981000Y-133829000D02*
X196981000Y-137462000D01*
X197021000Y-127726000D02*
X197021000Y-131347000D01*
X197021000Y-133829000D02*
X197021000Y-137450000D01*
X197061000Y-127738000D02*
X197061000Y-131347000D01*
X197061000Y-133829000D02*
X197061000Y-137438000D01*
X197101000Y-127751000D02*
X197101000Y-131347000D01*
X197101000Y-133829000D02*
X197101000Y-137425000D01*
X197141000Y-127764000D02*
X197141000Y-131347000D01*
X197141000Y-133829000D02*
X197141000Y-137412000D01*
X197181000Y-127777000D02*
X197181000Y-131347000D01*
X197181000Y-133829000D02*
X197181000Y-137399000D01*
X197221000Y-127791000D02*
X197221000Y-131347000D01*
X197221000Y-133829000D02*
X197221000Y-137385000D01*
X197261000Y-127805000D02*
X197261000Y-131347000D01*
X197261000Y-133829000D02*
X197261000Y-137371000D01*
X197301000Y-127820000D02*
X197301000Y-131347000D01*
X197301000Y-133829000D02*
X197301000Y-137356000D01*
X197341000Y-127834000D02*
X197341000Y-131347000D01*
X197341000Y-133829000D02*
X197341000Y-137342000D01*
X197381000Y-127850000D02*
X197381000Y-131347000D01*
X197381000Y-133829000D02*
X197381000Y-137326000D01*
X197421000Y-127865000D02*
X197421000Y-131347000D01*
X197421000Y-133829000D02*
X197421000Y-137311000D01*
X197461000Y-127881000D02*
X197461000Y-131347000D01*
X197461000Y-133829000D02*
X197461000Y-137295000D01*
X197501000Y-127898000D02*
X197501000Y-131347000D01*
X197501000Y-133829000D02*
X197501000Y-137278000D01*
X197541000Y-127914000D02*
X197541000Y-131347000D01*
X197541000Y-133829000D02*
X197541000Y-137262000D01*
X197581000Y-127931000D02*
X197581000Y-131347000D01*
X197581000Y-133829000D02*
X197581000Y-137245000D01*
X197621000Y-127949000D02*
X197621000Y-131347000D01*
X197621000Y-133829000D02*
X197621000Y-137227000D01*
X197661000Y-127967000D02*
X197661000Y-131347000D01*
X197661000Y-133829000D02*
X197661000Y-137209000D01*
X197701000Y-127985000D02*
X197701000Y-131347000D01*
X197701000Y-133829000D02*
X197701000Y-137191000D01*
X197741000Y-128004000D02*
X197741000Y-131347000D01*
X197741000Y-133829000D02*
X197741000Y-137172000D01*
X197781000Y-128024000D02*
X197781000Y-131347000D01*
X197781000Y-133829000D02*
X197781000Y-137152000D01*
X197821000Y-128043000D02*
X197821000Y-131347000D01*
X197821000Y-133829000D02*
X197821000Y-137133000D01*
X197861000Y-128063000D02*
X197861000Y-131347000D01*
X197861000Y-133829000D02*
X197861000Y-137113000D01*
X197901000Y-128084000D02*
X197901000Y-131347000D01*
X197901000Y-133829000D02*
X197901000Y-137092000D01*
X197941000Y-128105000D02*
X197941000Y-131347000D01*
X197941000Y-133829000D02*
X197941000Y-137071000D01*
X197981000Y-128126000D02*
X197981000Y-131347000D01*
X197981000Y-133829000D02*
X197981000Y-137050000D01*
X198021000Y-128148000D02*
X198021000Y-131347000D01*
X198021000Y-133829000D02*
X198021000Y-137028000D01*
X198061000Y-128171000D02*
X198061000Y-131347000D01*
X198061000Y-133829000D02*
X198061000Y-137005000D01*
X198101000Y-128193000D02*
X198101000Y-131347000D01*
X198101000Y-133829000D02*
X198101000Y-136983000D01*
X198141000Y-128217000D02*
X198141000Y-131347000D01*
X198141000Y-133829000D02*
X198141000Y-136959000D01*
X198181000Y-128241000D02*
X198181000Y-131347000D01*
X198181000Y-133829000D02*
X198181000Y-136935000D01*
X198221000Y-128265000D02*
X198221000Y-131347000D01*
X198221000Y-133829000D02*
X198221000Y-136911000D01*
X198261000Y-128290000D02*
X198261000Y-131347000D01*
X198261000Y-133829000D02*
X198261000Y-136886000D01*
X198301000Y-128315000D02*
X198301000Y-131347000D01*
X198301000Y-133829000D02*
X198301000Y-136861000D01*
X198341000Y-128341000D02*
X198341000Y-131347000D01*
X198341000Y-133829000D02*
X198341000Y-136835000D01*
X198381000Y-128367000D02*
X198381000Y-131347000D01*
X198381000Y-133829000D02*
X198381000Y-136809000D01*
X198421000Y-128394000D02*
X198421000Y-131347000D01*
X198421000Y-133829000D02*
X198421000Y-136782000D01*
X198461000Y-128422000D02*
X198461000Y-131347000D01*
X198461000Y-133829000D02*
X198461000Y-136754000D01*
X198501000Y-128450000D02*
X198501000Y-131347000D01*
X198501000Y-133829000D02*
X198501000Y-136726000D01*
X198541000Y-128478000D02*
X198541000Y-131347000D01*
X198541000Y-133829000D02*
X198541000Y-136698000D01*
X198581000Y-128508000D02*
X198581000Y-131347000D01*
X198581000Y-133829000D02*
X198581000Y-136668000D01*
X198621000Y-128538000D02*
X198621000Y-131347000D01*
X198621000Y-133829000D02*
X198621000Y-136638000D01*
X198661000Y-128568000D02*
X198661000Y-131347000D01*
X198661000Y-133829000D02*
X198661000Y-136608000D01*
X198701000Y-128599000D02*
X198701000Y-131347000D01*
X198701000Y-133829000D02*
X198701000Y-136577000D01*
X198741000Y-128631000D02*
X198741000Y-131347000D01*
X198741000Y-133829000D02*
X198741000Y-136545000D01*
X198781000Y-128663000D02*
X198781000Y-131347000D01*
X198781000Y-133829000D02*
X198781000Y-136513000D01*
X198821000Y-128696000D02*
X198821000Y-131347000D01*
X198821000Y-133829000D02*
X198821000Y-136480000D01*
X198861000Y-128730000D02*
X198861000Y-131347000D01*
X198861000Y-133829000D02*
X198861000Y-136446000D01*
X198901000Y-128764000D02*
X198901000Y-131347000D01*
X198901000Y-133829000D02*
X198901000Y-136412000D01*
X198941000Y-128799000D02*
X198941000Y-131347000D01*
X198941000Y-133829000D02*
X198941000Y-136377000D01*
X198981000Y-128835000D02*
X198981000Y-131347000D01*
X198981000Y-133829000D02*
X198981000Y-136341000D01*
X199021000Y-128872000D02*
X199021000Y-131347000D01*
X199021000Y-133829000D02*
X199021000Y-136304000D01*
X199061000Y-128909000D02*
X199061000Y-131347000D01*
X199061000Y-133829000D02*
X199061000Y-136267000D01*
X199101000Y-128948000D02*
X199101000Y-131347000D01*
X199101000Y-133829000D02*
X199101000Y-136228000D01*
X199141000Y-128987000D02*
X199141000Y-131347000D01*
X199141000Y-133829000D02*
X199141000Y-136189000D01*
X199181000Y-129027000D02*
X199181000Y-131347000D01*
X199181000Y-133829000D02*
X199181000Y-136149000D01*
X199221000Y-129068000D02*
X199221000Y-131347000D01*
X199221000Y-133829000D02*
X199221000Y-136108000D01*
X199261000Y-129110000D02*
X199261000Y-131347000D01*
X199261000Y-133829000D02*
X199261000Y-136066000D01*
X199301000Y-129152000D02*
X199301000Y-136024000D01*
X199341000Y-129196000D02*
X199341000Y-135980000D01*
X199381000Y-129241000D02*
X199381000Y-135935000D01*
X199421000Y-129287000D02*
X199421000Y-135889000D01*
X199461000Y-129334000D02*
X199461000Y-135842000D01*
X199501000Y-129382000D02*
X199501000Y-135794000D01*
X199541000Y-129432000D02*
X199541000Y-135744000D01*
X199581000Y-129482000D02*
X199581000Y-135694000D01*
X199621000Y-129534000D02*
X199621000Y-135642000D01*
X199661000Y-129588000D02*
X199661000Y-135588000D01*
X199701000Y-129643000D02*
X199701000Y-135533000D01*
X199741000Y-129699000D02*
X199741000Y-135477000D01*
X199781000Y-129758000D02*
X199781000Y-135418000D01*
X199821000Y-129818000D02*
X199821000Y-135358000D01*
X199861000Y-129879000D02*
X199861000Y-135297000D01*
X199901000Y-129943000D02*
X199901000Y-135233000D01*
X199941000Y-130009000D02*
X199941000Y-135167000D01*
X199981000Y-130078000D02*
X199981000Y-135098000D01*
X200021000Y-130149000D02*
X200021000Y-135027000D01*
X200061000Y-130223000D02*
X200061000Y-134953000D01*
X200101000Y-130299000D02*
X200101000Y-134877000D01*
X200141000Y-130379000D02*
X200141000Y-134797000D01*
X200181000Y-130463000D02*
X200181000Y-134713000D01*
X200221000Y-130551000D02*
X200221000Y-134625000D01*
X200261000Y-130644000D02*
X200261000Y-134532000D01*
X200301000Y-130742000D02*
X200301000Y-134434000D01*
X200341000Y-130846000D02*
X200341000Y-134330000D01*
X200381000Y-130958000D02*
X200381000Y-134218000D01*
X200421000Y-131078000D02*
X200421000Y-134098000D01*
X200461000Y-131210000D02*
X200461000Y-133966000D01*
X200501000Y-131358000D02*
X200501000Y-133818000D01*
X200541000Y-131526000D02*
X200541000Y-133650000D01*
X200581000Y-131726000D02*
X200581000Y-133450000D01*
X200621000Y-131989000D02*
X200621000Y-133187000D01*
X190060354Y-129713000D02*
X191060354Y-129713000D01*
X190560354Y-129213000D02*
X190560354Y-130213000D01*
%TO.C,C2*%
X216006000Y-134618252D02*
X216006000Y-133195748D01*
X217826000Y-134618252D02*
X217826000Y-133195748D01*
%TO.C,C1*%
X189124000Y-133703748D02*
X189124000Y-135126252D01*
X187304000Y-133703748D02*
X187304000Y-135126252D01*
%TO.C,J2*%
D14*
X109286523Y-134281333D02*
X110193666Y-134281333D01*
X110375095Y-134341809D01*
X110496047Y-134462761D01*
X110556523Y-134644190D01*
X110556523Y-134765142D01*
X109407476Y-133737047D02*
X109347000Y-133676571D01*
X109286523Y-133555619D01*
X109286523Y-133253238D01*
X109347000Y-133132285D01*
X109407476Y-133071809D01*
X109528428Y-133011333D01*
X109649380Y-133011333D01*
X109830809Y-133071809D01*
X110556523Y-133797523D01*
X110556523Y-133011333D01*
%TO.C,J1*%
X118938523Y-134281333D02*
X119845666Y-134281333D01*
X120027095Y-134341809D01*
X120148047Y-134462761D01*
X120208523Y-134644190D01*
X120208523Y-134765142D01*
X120208523Y-133011333D02*
X120208523Y-133737047D01*
X120208523Y-133374190D02*
X118938523Y-133374190D01*
X119119952Y-133495142D01*
X119240904Y-133616095D01*
X119301380Y-133737047D01*
%TO.C,J3*%
D15*
X223226380Y-113363333D02*
X223940666Y-113363333D01*
X224083523Y-113410952D01*
X224178761Y-113506190D01*
X224226380Y-113649047D01*
X224226380Y-113744285D01*
X223226380Y-112982380D02*
X223226380Y-112363333D01*
X223607333Y-112696666D01*
X223607333Y-112553809D01*
X223654952Y-112458571D01*
X223702571Y-112410952D01*
X223797809Y-112363333D01*
X224035904Y-112363333D01*
X224131142Y-112410952D01*
X224178761Y-112458571D01*
X224226380Y-112553809D01*
X224226380Y-112839523D01*
X224178761Y-112934761D01*
X224131142Y-112982380D01*
D10*
X215704761Y-124688095D02*
X215704761Y-123545238D01*
X217704761Y-124116666D02*
X215704761Y-124116666D01*
X215704761Y-122497619D02*
X215704761Y-122116666D01*
X215800000Y-121926190D01*
X215990476Y-121735714D01*
X216371428Y-121640476D01*
X217038095Y-121640476D01*
X217419047Y-121735714D01*
X217609523Y-121926190D01*
X217704761Y-122116666D01*
X217704761Y-122497619D01*
X217609523Y-122688095D01*
X217419047Y-122878571D01*
X217038095Y-122973809D01*
X216371428Y-122973809D01*
X215990476Y-122878571D01*
X215800000Y-122688095D01*
X215704761Y-122497619D01*
X217704761Y-119259523D02*
X215704761Y-119259523D01*
X217133333Y-118592857D01*
X215704761Y-117926190D01*
X217704761Y-117926190D01*
X217514285Y-115830952D02*
X217609523Y-115926190D01*
X217704761Y-116211904D01*
X217704761Y-116402380D01*
X217609523Y-116688095D01*
X217419047Y-116878571D01*
X217228571Y-116973809D01*
X216847619Y-117069047D01*
X216561904Y-117069047D01*
X216180952Y-116973809D01*
X215990476Y-116878571D01*
X215800000Y-116688095D01*
X215704761Y-116402380D01*
X215704761Y-116211904D01*
X215800000Y-115926190D01*
X215895238Y-115830952D01*
X215704761Y-114973809D02*
X217323809Y-114973809D01*
X217514285Y-114878571D01*
X217609523Y-114783333D01*
X217704761Y-114592857D01*
X217704761Y-114211904D01*
X217609523Y-114021428D01*
X217514285Y-113926190D01*
X217323809Y-113830952D01*
X215704761Y-113830952D01*
X216657142Y-110688095D02*
X216752380Y-110402380D01*
X216847619Y-110307142D01*
X217038095Y-110211904D01*
X217323809Y-110211904D01*
X217514285Y-110307142D01*
X217609523Y-110402380D01*
X217704761Y-110592857D01*
X217704761Y-111354761D01*
X215704761Y-111354761D01*
X215704761Y-110688095D01*
X215800000Y-110497619D01*
X215895238Y-110402380D01*
X216085714Y-110307142D01*
X216276190Y-110307142D01*
X216466666Y-110402380D01*
X216561904Y-110497619D01*
X216657142Y-110688095D01*
X216657142Y-111354761D01*
X215704761Y-108973809D02*
X215704761Y-108592857D01*
X215800000Y-108402380D01*
X215990476Y-108211904D01*
X216371428Y-108116666D01*
X217038095Y-108116666D01*
X217419047Y-108211904D01*
X217609523Y-108402380D01*
X217704761Y-108592857D01*
X217704761Y-108973809D01*
X217609523Y-109164285D01*
X217419047Y-109354761D01*
X217038095Y-109450000D01*
X216371428Y-109450000D01*
X215990476Y-109354761D01*
X215800000Y-109164285D01*
X215704761Y-108973809D01*
X217133333Y-107354761D02*
X217133333Y-106402380D01*
X217704761Y-107545238D02*
X215704761Y-106878571D01*
X217704761Y-106211904D01*
X217704761Y-104402380D02*
X216752380Y-105069047D01*
X217704761Y-105545238D02*
X215704761Y-105545238D01*
X215704761Y-104783333D01*
X215800000Y-104592857D01*
X215895238Y-104497619D01*
X216085714Y-104402380D01*
X216371428Y-104402380D01*
X216561904Y-104497619D01*
X216657142Y-104592857D01*
X216752380Y-104783333D01*
X216752380Y-105545238D01*
X217704761Y-103545238D02*
X215704761Y-103545238D01*
X215704761Y-103069047D01*
X215800000Y-102783333D01*
X215990476Y-102592857D01*
X216180952Y-102497619D01*
X216561904Y-102402380D01*
X216847619Y-102402380D01*
X217228571Y-102497619D01*
X217419047Y-102592857D01*
X217609523Y-102783333D01*
X217704761Y-103069047D01*
X217704761Y-103545238D01*
D15*
X224496380Y-107950000D02*
X224734476Y-107950000D01*
X224639238Y-108188095D02*
X224734476Y-107950000D01*
X224639238Y-107711904D01*
X224924952Y-108092857D02*
X224734476Y-107950000D01*
X224924952Y-107807142D01*
%TO.C,U2*%
X136652095Y-98824380D02*
X136652095Y-99633904D01*
X136699714Y-99729142D01*
X136747333Y-99776761D01*
X136842571Y-99824380D01*
X137033047Y-99824380D01*
X137128285Y-99776761D01*
X137175904Y-99729142D01*
X137223523Y-99633904D01*
X137223523Y-98824380D01*
X137652095Y-98919619D02*
X137699714Y-98872000D01*
X137794952Y-98824380D01*
X138033047Y-98824380D01*
X138128285Y-98872000D01*
X138175904Y-98919619D01*
X138223523Y-99014857D01*
X138223523Y-99110095D01*
X138175904Y-99252952D01*
X137604476Y-99824380D01*
X138223523Y-99824380D01*
%TO.C,U1*%
X173482095Y-99460380D02*
X173482095Y-100269904D01*
X173529714Y-100365142D01*
X173577333Y-100412761D01*
X173672571Y-100460380D01*
X173863047Y-100460380D01*
X173958285Y-100412761D01*
X174005904Y-100365142D01*
X174053523Y-100269904D01*
X174053523Y-99460380D01*
X175053523Y-100460380D02*
X174482095Y-100460380D01*
X174767809Y-100460380D02*
X174767809Y-99460380D01*
X174672571Y-99603238D01*
X174577333Y-99698476D01*
X174482095Y-99746095D01*
%TO.C,C4*%
X208835333Y-126441142D02*
X208787714Y-126488761D01*
X208644857Y-126536380D01*
X208549619Y-126536380D01*
X208406761Y-126488761D01*
X208311523Y-126393523D01*
X208263904Y-126298285D01*
X208216285Y-126107809D01*
X208216285Y-125964952D01*
X208263904Y-125774476D01*
X208311523Y-125679238D01*
X208406761Y-125584000D01*
X208549619Y-125536380D01*
X208644857Y-125536380D01*
X208787714Y-125584000D01*
X208835333Y-125631619D01*
X209692476Y-125869714D02*
X209692476Y-126536380D01*
X209454380Y-125488761D02*
X209216285Y-126203047D01*
X209835333Y-126203047D01*
%TO.C,C3*%
X195373333Y-126695142D02*
X195325714Y-126742761D01*
X195182857Y-126790380D01*
X195087619Y-126790380D01*
X194944761Y-126742761D01*
X194849523Y-126647523D01*
X194801904Y-126552285D01*
X194754285Y-126361809D01*
X194754285Y-126218952D01*
X194801904Y-126028476D01*
X194849523Y-125933238D01*
X194944761Y-125838000D01*
X195087619Y-125790380D01*
X195182857Y-125790380D01*
X195325714Y-125838000D01*
X195373333Y-125885619D01*
X195706666Y-125790380D02*
X196325714Y-125790380D01*
X195992380Y-126171333D01*
X196135238Y-126171333D01*
X196230476Y-126218952D01*
X196278095Y-126266571D01*
X196325714Y-126361809D01*
X196325714Y-126599904D01*
X196278095Y-126695142D01*
X196230476Y-126742761D01*
X196135238Y-126790380D01*
X195849523Y-126790380D01*
X195754285Y-126742761D01*
X195706666Y-126695142D01*
%TO.C,C2*%
X215423142Y-134073666D02*
X215470761Y-134121285D01*
X215518380Y-134264142D01*
X215518380Y-134359380D01*
X215470761Y-134502238D01*
X215375523Y-134597476D01*
X215280285Y-134645095D01*
X215089809Y-134692714D01*
X214946952Y-134692714D01*
X214756476Y-134645095D01*
X214661238Y-134597476D01*
X214566000Y-134502238D01*
X214518380Y-134359380D01*
X214518380Y-134264142D01*
X214566000Y-134121285D01*
X214613619Y-134073666D01*
X214613619Y-133692714D02*
X214566000Y-133645095D01*
X214518380Y-133549857D01*
X214518380Y-133311761D01*
X214566000Y-133216523D01*
X214613619Y-133168904D01*
X214708857Y-133121285D01*
X214804095Y-133121285D01*
X214946952Y-133168904D01*
X215518380Y-133740333D01*
X215518380Y-133121285D01*
%TO.C,C1*%
X190421142Y-134581666D02*
X190468761Y-134629285D01*
X190516380Y-134772142D01*
X190516380Y-134867380D01*
X190468761Y-135010238D01*
X190373523Y-135105476D01*
X190278285Y-135153095D01*
X190087809Y-135200714D01*
X189944952Y-135200714D01*
X189754476Y-135153095D01*
X189659238Y-135105476D01*
X189564000Y-135010238D01*
X189516380Y-134867380D01*
X189516380Y-134772142D01*
X189564000Y-134629285D01*
X189611619Y-134581666D01*
X190516380Y-133629285D02*
X190516380Y-134200714D01*
X190516380Y-133915000D02*
X189516380Y-133915000D01*
X189659238Y-134010238D01*
X189754476Y-134105476D01*
X189802095Y-134200714D01*
%TD*%
M02*
