M48
; DRILL file {KiCad (5.1.9)-1} date 03/26/21 17:10:44
; FORMAT={-:-/ absolute / inch / decimal}
; #@! TF.CreationDate,2021-03-26T17:10:44+01:00
; #@! TF.GenerationSoftware,Kicad,Pcbnew,(5.1.9)-1
; #@! TF.FileFunction,Plated,1,2,PTH
FMAT,2
INCH
T1C0.0315
T2C0.0394
T3C0.0400
T4C0.0720
T5C0.1120
%
G90
G05
T1
X5.01Y-3.995
X5.41Y-5.065
X5.81Y-3.995
X5.81Y-5.065
X6.86Y-4.82
X7.06Y-4.02
X7.26Y-4.02
X7.26Y-4.82
T2
X7.6Y-5.22
X7.7969Y-5.22
X8.13Y-5.21
X8.3269Y-5.21
T3
X8.76Y-4.25
X8.76Y-4.35
X8.76Y-4.45
X8.76Y-4.55
X8.76Y-4.65
X8.86Y-4.25
X8.86Y-4.35
X8.86Y-4.45
X8.86Y-4.55
X8.86Y-4.65
T4
X4.33Y-5.17
X4.33Y-5.37
X4.71Y-5.17
X4.71Y-5.37
T5
X8.81Y-3.8905
X8.81Y-5.0095
T0
M30
