%TF.GenerationSoftware,KiCad,Pcbnew,(5.1.9)-1*%
%TF.CreationDate,2021-03-26T17:10:42+01:00*%
%TF.ProjectId,Power Supply,506f7765-7220-4537-9570-706c792e6b69,rev?*%
%TF.SameCoordinates,Original*%
%TF.FileFunction,Copper,L1,Top*%
%TF.FilePolarity,Positive*%
%FSLAX46Y46*%
G04 Gerber Fmt 4.6, Leading zero omitted, Abs format (unit mm)*
G04 Created by KiCad (PCBNEW (5.1.9)-1) date 2021-03-26 17:10:42*
%MOMM*%
%LPD*%
G01*
G04 APERTURE LIST*
%TA.AperFunction,ComponentPad*%
%ADD10C,2.745000*%
%TD*%
%TA.AperFunction,ComponentPad*%
%ADD11C,1.524000*%
%TD*%
%TA.AperFunction,ComponentPad*%
%ADD12C,3.352800*%
%TD*%
%TA.AperFunction,ComponentPad*%
%ADD13O,2.000000X1.200000*%
%TD*%
%TA.AperFunction,ComponentPad*%
%ADD14C,2.000000*%
%TD*%
%TA.AperFunction,ComponentPad*%
%ADD15R,2.000000X2.000000*%
%TD*%
%TA.AperFunction,Conductor*%
%ADD16C,0.750000*%
%TD*%
G04 APERTURE END LIST*
D10*
%TO.P,J2,1*%
%TO.N,Net-(J2-Pad1)*%
X109982000Y-136398000D03*
%TO.P,J2,2*%
X109982000Y-131318000D03*
%TD*%
%TO.P,J1,1*%
%TO.N,Net-(J1-Pad1)*%
X119634000Y-136398000D03*
%TO.P,J1,2*%
X119634000Y-131318000D03*
%TD*%
D11*
%TO.P,J3,1*%
%TO.N,Net-(J3-Pad1)*%
X225044000Y-107950000D03*
%TO.P,J3,2*%
%TO.N,Net-(J3-Pad2)*%
X222504000Y-107950000D03*
%TO.P,J3,3*%
%TO.N,5V*%
X225044000Y-110490000D03*
%TO.P,J3,4*%
%TO.N,Net-(J3-Pad4)*%
X222504000Y-110490000D03*
%TO.P,J3,5*%
%TO.N,5V_GND*%
X225044000Y-113030000D03*
%TO.P,J3,6*%
%TO.N,Phantom_48V*%
X222504000Y-113030000D03*
%TO.P,J3,7*%
%TO.N,Net-(J3-Pad7)*%
X225044000Y-115570000D03*
%TO.P,J3,8*%
%TO.N,Net-(J3-Pad8)*%
X222504000Y-115570000D03*
%TO.P,J3,9*%
%TO.N,Net-(J3-Pad9)*%
X225044000Y-118110000D03*
%TO.P,J3,10*%
%TO.N,Phantom_48V_GND*%
X222504000Y-118110000D03*
D12*
%TO.P,J3,11*%
%TO.N,Net-(J3-Pad11)*%
X223774000Y-98818700D03*
%TO.P,J3,12*%
%TO.N,Net-(J3-Pad12)*%
X223774000Y-127241300D03*
%TD*%
D13*
%TO.P,U2,3*%
%TO.N,Phantom_48V*%
X137414000Y-128652000D03*
%TO.P,U2,4*%
%TO.N,Phantom_48V_GND*%
X147574000Y-128652000D03*
%TO.P,U2,1*%
%TO.N,Net-(J1-Pad1)*%
X127254000Y-101472000D03*
%TO.P,U2,2*%
%TO.N,Net-(J2-Pad1)*%
X147574000Y-101472000D03*
%TD*%
%TO.P,U1,4*%
%TO.N,5V_GND*%
X174244000Y-122428000D03*
%TO.P,U1,3*%
%TO.N,5V*%
X184404000Y-122428000D03*
%TO.P,U1,1*%
%TO.N,Net-(J1-Pad1)*%
X179324000Y-102108000D03*
%TO.P,U1,2*%
%TO.N,Net-(J2-Pad1)*%
X184404000Y-102108000D03*
%TD*%
D14*
%TO.P,C4,2*%
%TO.N,5V_GND*%
X211502000Y-132334000D03*
D15*
%TO.P,C4,1*%
%TO.N,5V*%
X206502000Y-132334000D03*
%TD*%
D14*
%TO.P,C3,2*%
%TO.N,Phantom_48V_GND*%
X198040000Y-132588000D03*
D15*
%TO.P,C3,1*%
%TO.N,Phantom_48V*%
X193040000Y-132588000D03*
%TD*%
%TO.P,C2,2*%
%TO.N,5V_GND*%
%TA.AperFunction,SMDPad,CuDef*%
G36*
G01*
X217566001Y-133007000D02*
X216265999Y-133007000D01*
G75*
G02*
X216016000Y-132757001I0J249999D01*
G01*
X216016000Y-132106999D01*
G75*
G02*
X216265999Y-131857000I249999J0D01*
G01*
X217566001Y-131857000D01*
G75*
G02*
X217816000Y-132106999I0J-249999D01*
G01*
X217816000Y-132757001D01*
G75*
G02*
X217566001Y-133007000I-249999J0D01*
G01*
G37*
%TD.AperFunction*%
%TO.P,C2,1*%
%TO.N,5V*%
%TA.AperFunction,SMDPad,CuDef*%
G36*
G01*
X217566001Y-135957000D02*
X216265999Y-135957000D01*
G75*
G02*
X216016000Y-135707001I0J249999D01*
G01*
X216016000Y-135056999D01*
G75*
G02*
X216265999Y-134807000I249999J0D01*
G01*
X217566001Y-134807000D01*
G75*
G02*
X217816000Y-135056999I0J-249999D01*
G01*
X217816000Y-135707001D01*
G75*
G02*
X217566001Y-135957000I-249999J0D01*
G01*
G37*
%TD.AperFunction*%
%TD*%
%TO.P,C1,2*%
%TO.N,Phantom_48V_GND*%
%TA.AperFunction,SMDPad,CuDef*%
G36*
G01*
X187563999Y-135315000D02*
X188864001Y-135315000D01*
G75*
G02*
X189114000Y-135564999I0J-249999D01*
G01*
X189114000Y-136215001D01*
G75*
G02*
X188864001Y-136465000I-249999J0D01*
G01*
X187563999Y-136465000D01*
G75*
G02*
X187314000Y-136215001I0J249999D01*
G01*
X187314000Y-135564999D01*
G75*
G02*
X187563999Y-135315000I249999J0D01*
G01*
G37*
%TD.AperFunction*%
%TO.P,C1,1*%
%TO.N,Phantom_48V*%
%TA.AperFunction,SMDPad,CuDef*%
G36*
G01*
X187563999Y-132365000D02*
X188864001Y-132365000D01*
G75*
G02*
X189114000Y-132614999I0J-249999D01*
G01*
X189114000Y-133265001D01*
G75*
G02*
X188864001Y-133515000I-249999J0D01*
G01*
X187563999Y-133515000D01*
G75*
G02*
X187314000Y-133265001I0J249999D01*
G01*
X187314000Y-132614999D01*
G75*
G02*
X187563999Y-132365000I249999J0D01*
G01*
G37*
%TD.AperFunction*%
%TD*%
D16*
%TO.N,Phantom_48V_GND*%
X147574000Y-133604000D02*
X147574000Y-128652000D01*
X150114000Y-136144000D02*
X147574000Y-133604000D01*
X197104000Y-136144000D02*
X150114000Y-136144000D01*
X198040000Y-135208000D02*
X197104000Y-136144000D01*
X198040000Y-132588000D02*
X198040000Y-135208000D01*
X198040000Y-120222000D02*
X198040000Y-132588000D01*
X200152000Y-118110000D02*
X198040000Y-120222000D01*
X222504000Y-118110000D02*
X200152000Y-118110000D01*
%TO.N,Phantom_48V*%
X188566000Y-132588000D02*
X188214000Y-132940000D01*
X193040000Y-132588000D02*
X188566000Y-132588000D01*
X193040000Y-117348000D02*
X193040000Y-132588000D01*
X197358000Y-113030000D02*
X193040000Y-117348000D01*
X222504000Y-113030000D02*
X197358000Y-113030000D01*
%TO.N,5V_GND*%
X216818000Y-132334000D02*
X216916000Y-132432000D01*
X211502000Y-132334000D02*
X216818000Y-132334000D01*
%TO.N,5V*%
X209550000Y-135382000D02*
X216916000Y-135382000D01*
X206502000Y-132334000D02*
X209550000Y-135382000D01*
%TO.N,Net-(J2-Pad1)*%
X109982000Y-136398000D02*
X109982000Y-131318000D01*
X184404000Y-105664000D02*
X181356000Y-108712000D01*
X184404000Y-102108000D02*
X184404000Y-105664000D01*
X138430000Y-108712000D02*
X140334000Y-108712000D01*
X141478000Y-108712000D02*
X138430000Y-108712000D01*
X141478000Y-108712000D02*
X140716000Y-108712000D01*
X147574000Y-107950000D02*
X146812000Y-108712000D01*
X147574000Y-101472000D02*
X147574000Y-107950000D01*
X146812000Y-108712000D02*
X141478000Y-108712000D01*
X181356000Y-108712000D02*
X146812000Y-108712000D01*
X113792000Y-108712000D02*
X138430000Y-108712000D01*
X109982000Y-112522000D02*
X113792000Y-108712000D01*
X109982000Y-131318000D02*
X109982000Y-112522000D01*
%TD*%
M02*
