%TF.GenerationSoftware,KiCad,Pcbnew,(5.1.9)-1*%
%TF.CreationDate,2021-03-26T17:10:42+01:00*%
%TF.ProjectId,Power Supply,506f7765-7220-4537-9570-706c792e6b69,rev?*%
%TF.SameCoordinates,Original*%
%TF.FileFunction,Soldermask,Top*%
%TF.FilePolarity,Negative*%
%FSLAX46Y46*%
G04 Gerber Fmt 4.6, Leading zero omitted, Abs format (unit mm)*
G04 Created by KiCad (PCBNEW (5.1.9)-1) date 2021-03-26 17:10:42*
%MOMM*%
%LPD*%
G01*
G04 APERTURE LIST*
%ADD10C,2.745000*%
%ADD11C,1.524000*%
%ADD12C,3.352800*%
%ADD13O,2.000000X1.200000*%
%ADD14C,2.000000*%
%ADD15R,2.000000X2.000000*%
G04 APERTURE END LIST*
D10*
%TO.C,J2*%
X109982000Y-136398000D03*
X109982000Y-131318000D03*
%TD*%
%TO.C,J1*%
X119634000Y-136398000D03*
X119634000Y-131318000D03*
%TD*%
D11*
%TO.C,J3*%
X225044000Y-107950000D03*
X222504000Y-107950000D03*
X225044000Y-110490000D03*
X222504000Y-110490000D03*
X225044000Y-113030000D03*
X222504000Y-113030000D03*
X225044000Y-115570000D03*
X222504000Y-115570000D03*
X225044000Y-118110000D03*
X222504000Y-118110000D03*
D12*
X223774000Y-98818700D03*
X223774000Y-127241300D03*
%TD*%
D13*
%TO.C,U2*%
X137414000Y-128652000D03*
X147574000Y-128652000D03*
X127254000Y-101472000D03*
X147574000Y-101472000D03*
%TD*%
%TO.C,U1*%
X174244000Y-122428000D03*
X184404000Y-122428000D03*
X179324000Y-102108000D03*
X184404000Y-102108000D03*
%TD*%
D14*
%TO.C,C4*%
X211502000Y-132334000D03*
D15*
X206502000Y-132334000D03*
%TD*%
D14*
%TO.C,C3*%
X198040000Y-132588000D03*
D15*
X193040000Y-132588000D03*
%TD*%
%TO.C,C2*%
G36*
G01*
X217566001Y-133007000D02*
X216265999Y-133007000D01*
G75*
G02*
X216016000Y-132757001I0J249999D01*
G01*
X216016000Y-132106999D01*
G75*
G02*
X216265999Y-131857000I249999J0D01*
G01*
X217566001Y-131857000D01*
G75*
G02*
X217816000Y-132106999I0J-249999D01*
G01*
X217816000Y-132757001D01*
G75*
G02*
X217566001Y-133007000I-249999J0D01*
G01*
G37*
G36*
G01*
X217566001Y-135957000D02*
X216265999Y-135957000D01*
G75*
G02*
X216016000Y-135707001I0J249999D01*
G01*
X216016000Y-135056999D01*
G75*
G02*
X216265999Y-134807000I249999J0D01*
G01*
X217566001Y-134807000D01*
G75*
G02*
X217816000Y-135056999I0J-249999D01*
G01*
X217816000Y-135707001D01*
G75*
G02*
X217566001Y-135957000I-249999J0D01*
G01*
G37*
%TD*%
%TO.C,C1*%
G36*
G01*
X187563999Y-135315000D02*
X188864001Y-135315000D01*
G75*
G02*
X189114000Y-135564999I0J-249999D01*
G01*
X189114000Y-136215001D01*
G75*
G02*
X188864001Y-136465000I-249999J0D01*
G01*
X187563999Y-136465000D01*
G75*
G02*
X187314000Y-136215001I0J249999D01*
G01*
X187314000Y-135564999D01*
G75*
G02*
X187563999Y-135315000I249999J0D01*
G01*
G37*
G36*
G01*
X187563999Y-132365000D02*
X188864001Y-132365000D01*
G75*
G02*
X189114000Y-132614999I0J-249999D01*
G01*
X189114000Y-133265001D01*
G75*
G02*
X188864001Y-133515000I-249999J0D01*
G01*
X187563999Y-133515000D01*
G75*
G02*
X187314000Y-133265001I0J249999D01*
G01*
X187314000Y-132614999D01*
G75*
G02*
X187563999Y-132365000I249999J0D01*
G01*
G37*
%TD*%
M02*
